<svg width="1341" height="983" viewBox="0 0 1341 983" fill="none" xmlns="http://www.w3.org/2000/svg">
<path d="M193 944.907L249.08 911.526C250.163 910.919 251.408 910.71 252.627 911.018C253.846 911.327 254.867 912.081 255.485 913.132L287.571 969.025C287.971 969.654 287.878 970.474 287.434 971.017C286.965 971.615 286.195 971.823 285.459 971.649L193 944.907Z" fill="#91B3FA"/>
<path d="M770.1 0.605164C768.484 0.605164 766.868 0.605164 765.252 0.605164C763.483 0.605164 762.021 2.30481 762.098 4.36243C762.098 6.41998 763.56 8.03033 765.329 8.03033C766.945 8.03033 768.561 8.03033 770.1 8.03033C771.869 8.03033 773.331 6.33051 773.331 4.27295C773.331 2.30481 771.869 0.605164 770.1 0.605164ZM781.41 0.605164C779.64 0.605164 778.179 2.21533 778.179 4.27295C778.179 6.33051 779.563 8.03033 781.333 8.03033C782.949 8.03033 784.565 8.03033 786.103 8.11981C787.873 8.11981 789.335 6.5094 789.335 4.45184C789.335 2.39423 787.95 0.694519 786.18 0.694519C784.642 0.694519 783.026 0.694641 781.41 0.605164ZM754.019 0.783997C752.326 0.783997 750.711 0.873413 749.095 0.873413C747.325 0.96283 745.94 2.6626 745.94 4.72021C746.017 6.77777 747.479 8.388 749.249 8.388C750.865 8.29858 752.48 8.29871 754.019 8.29871C755.789 8.29871 757.174 6.59888 757.174 4.45184C757.251 2.39423 755.789 0.783997 754.019 0.783997ZM797.414 0.962952C795.644 0.962952 794.259 2.5733 794.182 4.63086C794.105 6.68848 795.567 8.38806 797.337 8.47748L802.107 8.65649C803.8 8.65649 805.339 7.13574 805.416 5.07812C805.493 3.02057 804.108 1.3208 802.338 1.23132L797.491 1.05243C797.491 0.963013 797.491 0.962952 797.414 0.962952ZM738.015 1.32068H737.938C736.323 1.41016 734.707 1.49982 733.091 1.49982C731.322 1.58929 729.937 3.28888 730.014 5.34644C730.091 7.40399 731.629 9.01434 733.322 8.92487C734.938 8.83539 736.554 8.74597 738.092 8.74597C739.862 8.65649 741.247 6.95673 741.17 4.89917C741.17 2.93103 739.708 1.32068 738.015 1.32068ZM813.494 1.67859C811.802 1.67859 810.34 3.1994 810.263 5.25696C810.186 7.31451 811.571 9.10388 813.34 9.1933C814.956 9.28278 816.572 9.37231 818.111 9.46179C819.88 9.55127 821.419 7.9408 821.496 5.88318C821.573 3.82562 820.188 2.03656 818.418 1.94708C816.803 1.8576 815.187 1.76807 813.571 1.67859C813.571 1.67859 813.571 1.67859 813.494 1.67859ZM721.935 2.12592C721.858 2.12592 721.858 2.12592 721.781 2.12592C720.165 2.21533 718.549 2.30481 716.934 2.39429C715.164 2.4837 713.779 4.27295 713.933 6.33057C714.01 8.38812 715.549 9.99835 717.318 9.8194C718.934 9.72992 720.55 9.64056 722.089 9.55109C723.858 9.46167 725.243 7.67249 725.166 5.61493C725.089 3.64679 723.628 2.12592 721.935 2.12592ZM829.575 2.66272C827.882 2.66272 826.497 4.18347 826.343 6.15155C826.266 8.20917 827.574 9.99841 829.344 10.0879C830.96 10.1773 832.576 10.3562 834.114 10.4457C835.884 10.6246 837.423 9.01428 837.577 6.95673C837.731 4.89911 836.346 3.10992 834.576 2.93103C832.96 2.84155 831.345 2.66272 829.729 2.57324C829.729 2.66272 829.652 2.66272 829.575 2.66272ZM705.931 3.19946C705.854 3.19946 705.777 3.19946 705.7 3.19946C704.085 3.28894 702.469 3.46783 700.853 3.55725C699.083 3.73621 697.776 5.52539 697.852 7.58295C698.006 9.64056 699.545 11.1614 701.315 11.072C702.93 10.9825 704.546 10.8035 706.085 10.7141C707.855 10.5351 709.163 8.83539 709.086 6.77783C709.009 4.72028 707.547 3.19946 705.931 3.19946ZM845.579 4.09406C843.963 4.09406 842.501 5.52533 842.347 7.49347C842.193 9.55109 843.501 11.3401 845.271 11.5191C846.887 11.698 848.425 11.8771 850.041 11.9666C851.811 12.1454 853.35 10.6248 853.503 8.56714C853.657 6.50958 852.349 4.72028 850.58 4.54138C848.964 4.36249 847.348 4.18347 845.732 4.09406C845.732 4.09406 845.656 4.09406 845.579 4.09406ZM689.851 4.63086C689.774 4.63086 689.697 4.63086 689.62 4.63086C688.004 4.80981 686.388 4.89923 684.772 5.07812C683.003 5.25708 681.695 7.04626 681.849 9.10382C682.003 11.1614 683.541 12.6821 685.311 12.5032C686.927 12.3243 688.466 12.1454 690.081 12.0559C691.851 11.877 693.159 10.0879 693.005 8.03033C692.928 6.06219 691.543 4.63086 689.851 4.63086ZM861.582 5.79382C859.967 5.79382 858.582 7.22522 858.351 9.1933C858.197 11.2509 859.428 13.04 861.198 13.3084C862.813 13.4874 864.352 13.6663 865.968 13.9347C867.738 14.1136 869.353 12.6822 869.507 10.6246C869.661 8.56702 868.43 6.68848 866.66 6.50952C865.045 6.33063 863.429 6.15155 861.813 5.88318C861.813 5.79376 861.736 5.79382 861.582 5.79382ZM673.847 6.24109C673.77 6.24109 673.616 6.24109 673.539 6.24109C671.923 6.41998 670.308 6.59888 668.692 6.77783C666.922 6.95673 665.614 8.83545 665.845 10.893C665.999 12.9506 667.615 14.4714 669.384 14.2031C671 14.0241 672.539 13.8452 674.155 13.6663C675.924 13.4874 677.232 11.6087 677.078 9.55109C676.924 7.7619 675.54 6.24109 673.847 6.24109ZM877.586 7.85132C875.97 7.85132 874.585 9.28271 874.431 11.1614C874.201 13.219 875.508 15.0977 877.201 15.366C878.817 15.6345 880.356 15.8132 881.972 16.0815C883.741 16.3499 885.357 14.9187 885.588 12.8611C885.818 10.8036 884.588 8.92487 882.818 8.65649C881.202 8.38812 879.586 8.20911 878.048 7.94073C877.817 7.85132 877.663 7.85132 877.586 7.85132ZM657.92 8.20923C657.766 8.20923 657.689 8.20923 657.535 8.20923C655.92 8.38812 654.304 8.65643 652.765 8.83539C650.995 9.10376 649.764 10.8929 649.918 12.9505C650.149 15.0081 651.765 16.4396 653.458 16.2607C655.073 16.0818 656.612 15.8133 658.228 15.6343C659.998 15.366 661.229 13.5767 661.075 11.5191C660.921 9.64044 659.536 8.20923 657.92 8.20923ZM893.513 10.3563C891.974 10.3563 890.589 11.6981 890.358 13.5768C890.127 15.6344 891.358 17.513 893.051 17.7814C894.667 18.0497 896.206 18.3182 897.821 18.5866C899.591 18.855 901.207 17.5131 901.438 15.4554C901.668 13.3979 900.514 11.5192 898.745 11.2509C897.129 10.9825 895.59 10.7141 893.974 10.4457C893.82 10.3562 893.667 10.3563 893.513 10.3563ZM641.916 10.4457C641.763 10.4457 641.686 10.4457 641.532 10.4457C639.916 10.7141 638.3 10.893 636.761 11.1614C634.992 11.4297 633.761 13.3085 633.992 15.366C634.222 17.4236 635.838 18.855 637.608 18.5866C639.224 18.3182 640.762 18.1392 642.378 17.8708C644.148 17.6024 645.379 15.7239 645.148 13.6663C644.917 11.7876 643.532 10.4457 641.916 10.4457ZM625.99 12.8611C625.836 12.8611 625.682 12.8611 625.528 12.8611C623.912 13.1295 622.374 13.3979 620.758 13.6663C618.988 13.9347 617.757 15.8132 618.065 17.8708C618.296 19.9283 619.911 21.3598 621.681 21.002C623.297 20.7336 624.836 20.4653 626.451 20.1969C628.221 19.9285 629.452 18.0498 629.221 15.9922C628.99 14.2925 627.605 12.8611 625.99 12.8611ZM909.362 13.1295C907.824 13.1295 906.439 14.4715 906.208 16.2607C905.9 18.3182 907.131 20.1968 908.901 20.5547C910.517 20.8231 912.055 21.1809 913.671 21.4493C915.441 21.8071 917.057 20.4652 917.364 18.4077C917.672 16.35 916.518 14.4714 914.748 14.1136C913.133 13.8452 911.594 13.4873 909.978 13.2189C909.747 13.1295 909.593 13.1295 909.362 13.1295ZM610.14 15.6343C609.986 15.6343 609.832 15.6343 609.678 15.6343C608.063 15.9027 606.524 16.171 604.908 16.5289C603.138 16.8867 601.984 18.7656 602.215 20.8231C602.523 22.8807 604.139 24.2226 605.908 23.9542C607.524 23.6858 609.063 23.4174 610.679 23.0596C612.448 22.7017 613.602 20.8231 613.372 18.7655C613.064 16.9763 611.679 15.6343 610.14 15.6343ZM925.212 16.35C923.673 16.35 922.365 17.6025 922.058 19.3917C921.75 21.4493 922.904 23.328 924.674 23.7753C926.212 24.1331 927.828 24.491 929.367 24.7593C931.137 25.1172 932.829 23.7752 933.137 21.8071C933.445 19.7495 932.291 17.7814 930.598 17.4235C928.982 17.0657 927.443 16.7078 925.828 16.35C925.597 16.35 925.443 16.35 925.212 16.35ZM594.213 18.5866C594.059 18.5866 593.828 18.5865 593.675 18.676C592.059 18.9444 590.52 19.3022 588.904 19.5706C587.135 19.9284 585.981 21.8071 586.288 23.8647C586.596 25.9223 588.289 27.2642 589.982 26.9064C591.597 26.5485 593.136 26.2802 594.752 26.0117C596.521 25.6539 597.676 23.7753 597.368 21.7178C597.137 19.8391 595.829 18.5866 594.213 18.5866ZM940.985 19.839C939.523 19.839 938.138 21.0914 937.831 22.7912C937.446 24.8488 938.6 26.8168 940.37 27.1747C941.908 27.5325 943.524 27.8904 945.063 28.3376C946.833 28.785 948.525 27.443 948.833 25.4749C949.218 23.4173 948.064 21.4493 946.371 21.0915C944.755 20.7336 943.216 20.2863 941.601 19.9284C941.447 19.9284 941.216 19.839 940.985 19.839ZM578.44 21.8071C578.286 21.8071 578.056 21.8071 577.902 21.8965C576.286 22.2544 574.747 22.5228 573.131 22.8806C571.362 23.2384 570.208 25.2065 570.516 27.2642C570.823 29.3217 572.516 30.6636 574.286 30.3058C575.824 29.948 577.44 29.6796 578.979 29.3218C580.749 28.9639 581.903 26.9957 581.595 24.9381C581.287 23.0595 579.979 21.8071 578.44 21.8071ZM956.681 23.7753C955.219 23.7753 953.911 24.9382 953.526 26.7274C953.142 28.6955 954.219 30.7531 955.989 31.2004C957.527 31.6476 959.143 32.0056 960.682 32.4528C962.375 32.9001 964.144 31.6478 964.529 29.6797C964.914 27.7116 963.836 25.6539 962.144 25.2066C960.605 24.7593 958.989 24.4015 957.45 23.9542C957.22 23.8647 956.912 23.7753 956.681 23.7753ZM562.591 25.2066C562.36 25.2066 562.206 25.2066 561.975 25.2961C560.359 25.6539 558.82 26.0117 557.205 26.3695C555.435 26.7274 554.358 28.6956 554.666 30.7532C554.974 32.8107 556.666 34.0632 558.436 33.7053C559.975 33.3475 561.59 32.9895 563.129 32.6317C564.899 32.2738 565.976 30.3059 565.668 28.2484C565.514 26.4592 564.129 25.2066 562.591 25.2066ZM972.377 28.1587C970.915 28.1587 969.607 29.3218 969.222 31.0215C968.761 32.9897 969.838 35.0472 971.531 35.5839C973.069 36.0312 974.608 36.4786 976.147 36.9259C977.84 37.4626 979.609 36.2101 980.071 34.242C980.533 32.2739 979.456 30.2165 977.763 29.6797C976.224 29.2324 974.608 28.785 973.069 28.3376C972.839 28.1588 972.608 28.1587 972.377 28.1587ZM546.895 28.785C546.664 28.785 546.433 28.785 546.279 28.8745C544.663 29.2322 543.125 29.5901 541.586 30.0374C539.816 30.4847 538.739 32.4529 539.124 34.421C539.508 36.4786 541.201 37.7311 542.894 37.2838C544.433 36.9259 546.048 36.568 547.587 36.1207C549.357 35.6734 550.434 33.7053 550.126 31.7371C549.665 30.0374 548.357 28.785 546.895 28.785ZM531.122 32.6317C530.891 32.6317 530.66 32.6318 530.429 32.7213L525.736 33.8842C523.966 34.3315 522.889 36.2996 523.274 38.3572C523.659 40.4148 525.351 41.6674 527.121 41.22L531.814 40.0569C533.584 39.6097 534.661 37.6415 534.276 35.5839C533.969 33.8842 532.584 32.6317 531.122 32.6317ZM987.919 32.8108C986.534 32.8108 985.226 33.8842 984.841 35.5839C984.38 37.5521 985.38 39.6096 987.073 40.1464C988.611 40.5937 990.15 41.1305 991.689 41.6672C993.382 42.204 995.151 41.0411 995.613 39.0729C996.075 37.1048 995.074 35.0472 993.382 34.5105C991.843 33.9737 990.304 33.5264 988.688 32.9896C988.458 32.8107 988.15 32.8108 987.919 32.8108ZM515.426 36.747C515.195 36.747 514.964 36.7469 514.734 36.8364L510.04 38.0888C508.347 38.5361 507.27 40.5938 507.655 42.5619C508.04 44.53 509.809 45.7823 511.502 45.3351L516.195 44.0826C517.888 43.6354 519.042 41.5778 518.581 39.6097C518.273 37.91 516.888 36.747 515.426 36.747ZM1003.38 37.9099C1002 37.9099 1000.69 38.9833 1000.31 40.5936C999.768 42.5618 1000.77 44.6194 1002.46 45.2457C1004 45.7824 1005.54 46.3192 1007.08 46.856C1008.77 47.4822 1010.54 46.3192 1011.08 44.3511C1011.62 42.383 1010.62 40.3253 1008.92 39.699C1007.38 39.1622 1005.85 38.6255 1004.31 38.0888C1003.92 37.9099 1003.61 37.9099 1003.38 37.9099ZM499.807 40.9516C499.576 40.9516 499.345 40.9515 499.038 41.041L494.344 42.3829C492.651 42.8302 491.574 44.8878 491.959 46.856C492.344 48.824 494.113 50.0764 495.806 49.629L500.499 48.2872C502.192 47.8398 503.269 45.7823 502.885 43.8142C502.577 42.1144 501.269 40.9516 499.807 40.9516ZM1018.7 43.3669C1017.31 43.3669 1016.08 44.351 1015.62 45.9613C1015.08 47.9294 1016 49.987 1017.69 50.6132C1019.23 51.15 1020.77 51.7762 1022.23 52.3129C1023.93 52.9391 1025.77 51.8656 1026.31 49.8975C1026.85 47.9294 1025.93 45.7823 1024.23 45.1561C1022.7 44.5298 1021.16 43.9932 1019.62 43.4565C1019.39 43.4565 1019 43.3669 1018.7 43.3669ZM484.188 45.4246C483.957 45.4246 483.649 45.4246 483.419 45.514L478.725 46.856C477.033 47.3927 475.955 49.3608 476.417 51.4184C476.879 53.3865 478.571 54.6389 480.341 54.1022L485.034 52.7602C486.727 52.2234 487.804 50.2553 487.343 48.1978C486.958 46.498 485.65 45.4246 484.188 45.4246ZM1033.93 49.2714C1032.62 49.2714 1031.31 50.2554 1030.85 51.7762C1030.31 53.7443 1031.16 55.8914 1032.85 56.5176C1034.39 57.1438 1035.85 57.77 1037.39 58.3068C1039.08 59.0225 1040.93 57.949 1041.47 55.9809C1042.09 54.0128 1041.16 51.8656 1039.47 51.2394C1037.93 50.6132 1036.39 49.9871 1034.93 49.3608C1034.62 49.2714 1034.31 49.2714 1033.93 49.2714ZM468.646 49.987C468.415 49.987 468.107 49.987 467.8 50.0765L463.106 51.5079C461.414 52.0446 460.336 54.1022 460.798 56.0703C461.26 58.0385 463.029 59.2908 464.722 58.754L469.415 57.3228C471.108 56.7859 472.185 54.7283 471.724 52.7602C471.339 51.1499 470.031 49.987 468.646 49.987ZM453.104 54.8178C452.796 54.8178 452.565 54.8177 452.258 54.9072L447.564 56.3386C445.872 56.8754 444.871 58.9331 445.333 60.9012C445.795 62.8693 447.564 64.0321 449.257 63.4954L453.873 62.0641C455.566 61.5274 456.566 59.4698 456.105 57.5017C455.797 55.8914 454.489 54.8178 453.104 54.8178ZM1049.09 55.5336C1047.78 55.5336 1046.55 56.4282 1046.09 57.949C1045.47 59.9171 1046.32 62.0641 1048.01 62.7798C1049.47 63.406 1051.01 64.0322 1052.47 64.7479C1054.16 65.4636 1056.01 64.4795 1056.63 62.6008C1057.24 60.6327 1056.4 58.4858 1054.78 57.7701C1053.24 57.1439 1051.78 56.4281 1050.24 55.8019C1049.86 55.6229 1049.47 55.5336 1049.09 55.5336ZM437.562 59.7382C437.254 59.7382 436.946 59.8275 436.716 59.9169L432.099 61.438C430.406 61.9747 429.406 64.0323 429.868 66.0898C430.329 68.058 432.099 69.2209 433.869 68.6841L438.485 67.1634C440.178 66.6266 441.178 64.569 440.716 62.5114C440.255 60.8117 439.024 59.7382 437.562 59.7382ZM1064.09 62.243C1062.78 62.243 1061.63 63.1377 1061.09 64.569C1060.4 66.4477 1061.24 68.6841 1062.86 69.3998C1064.32 70.1155 1065.86 70.7417 1067.32 71.4573C1068.94 72.2625 1070.86 71.2784 1071.48 69.3998C1072.17 67.5211 1071.32 65.2847 1069.71 64.569C1068.24 63.8534 1066.71 63.1376 1065.24 62.5114C1064.86 62.3325 1064.47 62.243 1064.09 62.243ZM422.174 64.8373C421.866 64.8373 421.558 64.9269 421.25 65.0164L416.634 66.6266C414.941 67.1634 413.941 69.3104 414.48 71.2784C414.941 73.2466 416.788 74.4096 418.481 73.7834L423.097 72.1731C424.79 71.6364 425.79 69.4893 425.251 67.5211C424.79 65.9109 423.559 64.8373 422.174 64.8373ZM1078.94 69.3103C1077.71 69.3103 1076.48 70.2048 1076.02 71.5468C1075.32 73.4254 1076.09 75.6619 1077.71 76.4671C1079.17 77.1827 1080.63 77.8984 1082.09 78.7036C1083.71 79.5087 1085.63 78.6142 1086.33 76.7355C1087.02 74.8569 1086.25 72.6204 1084.63 71.8152C1083.17 71.0995 1081.63 70.2944 1080.17 69.5788C1079.79 69.3998 1079.32 69.3103 1078.94 69.3103ZM406.709 70.1155C406.401 70.1155 406.093 70.2051 405.785 70.2945L401.169 71.9046C399.476 72.5308 398.476 74.5886 399.015 76.5567C399.553 78.5248 401.323 79.6877 403.016 79.0615L407.632 77.4513C409.325 76.8251 410.325 74.7674 409.786 72.7993C409.402 71.189 408.094 70.1155 406.709 70.1155ZM391.321 75.5724C391.013 75.5724 390.705 75.662 390.397 75.7515L385.781 77.4513C384.088 78.0775 383.165 80.1349 383.626 82.103C384.165 84.0712 385.935 85.1448 387.627 84.608L392.244 82.9977C393.936 82.3715 394.86 80.3139 394.398 78.3458C394.013 76.6461 392.705 75.5724 391.321 75.5724ZM1093.64 76.825C1092.4 76.825 1091.25 77.6301 1090.71 78.972C1089.94 80.8506 1090.71 83.0872 1092.33 83.8924C1093.79 84.6975 1095.25 85.4131 1096.71 86.2183C1098.33 87.1129 1100.25 86.3077 1100.94 84.4291C1101.71 82.5504 1101.02 80.3139 1099.41 79.5087C1097.94 78.7036 1096.48 77.8986 1095.02 77.1829C1094.56 76.9145 1094.1 76.825 1093.64 76.825ZM376.009 81.1192C375.702 81.1192 375.394 81.2086 375.009 81.298L370.393 82.9977C368.7 83.6239 367.777 85.7711 368.315 87.7392C368.854 89.7073 370.7 90.7807 372.393 90.1545L377.01 88.4548C378.702 87.8286 379.626 85.771 379.087 83.8029C378.625 82.1926 377.394 81.1192 376.009 81.1192ZM1108.18 84.787C1106.95 84.787 1105.87 85.592 1105.25 86.934C1104.48 88.8126 1105.18 91.0491 1106.72 91.9438C1108.18 92.7489 1109.56 93.554 1111.02 94.3591C1112.64 95.2537 1114.56 94.5381 1115.33 92.6594C1116.1 90.7808 1115.49 88.5442 1113.87 87.6496C1112.41 86.8445 1110.95 86.0395 1109.49 85.1449C1109.1 84.8765 1108.64 84.787 1108.18 84.787ZM360.698 86.8446C360.39 86.8446 360.006 86.934 359.698 87.0234L355.081 88.7232C353.389 89.3494 352.465 91.4963 353.004 93.4645C353.543 95.4326 355.389 96.5063 357.082 95.8801L361.621 94.1802C363.314 93.554 364.237 91.4069 363.699 89.4388C363.314 87.8285 362.083 86.8446 360.698 86.8446ZM345.464 92.749C345.156 92.749 344.771 92.8383 344.464 92.9278L339.924 94.717C338.231 95.3432 337.308 97.4902 337.924 99.4584C338.462 101.427 340.309 102.5 342.002 101.784L346.541 99.9951C348.234 99.3689 349.157 97.2217 348.541 95.2537C348.003 93.7328 346.772 92.749 345.464 92.749ZM1122.57 93.1068C1121.41 93.1068 1120.26 93.8223 1119.72 95.1642C1118.87 96.9534 1119.49 99.2794 1121.1 100.174C1122.49 101.069 1123.95 101.874 1125.34 102.768C1126.87 103.752 1128.87 103.037 1129.64 101.158C1130.49 99.3688 1129.87 97.0428 1128.26 96.1483C1126.8 95.2537 1125.41 94.4486 1123.95 93.554C1123.57 93.1962 1123.03 93.1068 1122.57 93.1068ZM330.23 98.7427C329.845 98.7427 329.537 98.8322 329.152 98.9216C327.614 99.5479 326.075 100.174 324.613 100.8C322.92 101.516 322.074 103.573 322.612 105.542C323.228 107.51 324.998 108.494 326.69 107.868C328.229 107.242 329.691 106.615 331.23 105.989C332.923 105.273 333.769 103.216 333.23 101.248C332.769 99.7267 331.538 98.7427 330.23 98.7427ZM1136.72 101.874C1135.57 101.874 1134.49 102.59 1133.88 103.842C1133.03 105.631 1133.57 107.957 1135.18 108.941C1136.57 109.836 1137.95 110.73 1139.42 111.625C1140.95 112.609 1142.95 111.983 1143.8 110.194C1144.65 108.404 1144.11 106.078 1142.57 105.094C1141.18 104.2 1139.72 103.305 1138.34 102.321C1137.8 102.053 1137.26 101.874 1136.72 101.874ZM315.072 105.005C314.688 105.005 314.303 105.094 313.995 105.273C312.456 105.899 310.994 106.526 309.456 107.152C307.763 107.868 306.917 110.015 307.532 111.983C308.148 113.951 309.994 114.935 311.687 114.219C313.226 113.593 314.688 112.967 316.226 112.341C317.919 111.625 318.765 109.478 318.15 107.599C317.611 105.9 316.38 105.005 315.072 105.005ZM1150.73 111.088C1149.65 111.088 1148.57 111.714 1147.96 112.967C1147.03 114.756 1147.57 116.993 1149.11 118.066C1150.49 118.961 1151.88 119.945 1153.26 120.929C1154.8 122.002 1156.73 121.376 1157.65 119.587C1158.57 117.798 1158.03 115.561 1156.5 114.488C1155.11 113.504 1153.73 112.609 1152.34 111.625C1151.8 111.267 1151.26 111.088 1150.73 111.088ZM299.992 111.446C299.607 111.446 299.223 111.535 298.838 111.714C297.299 112.341 295.837 113.056 294.298 113.682C292.606 114.398 291.836 116.545 292.452 118.513C293.067 120.481 294.914 121.376 296.606 120.66C298.068 120.034 299.607 119.319 301.069 118.692C302.762 117.977 303.531 115.83 302.916 113.861C302.531 112.43 301.3 111.446 299.992 111.446ZM284.988 118.245C284.604 118.245 284.219 118.334 283.834 118.513C282.372 119.229 280.834 119.945 279.372 120.571C277.756 121.376 276.91 123.523 277.602 125.402C278.295 127.28 280.141 128.264 281.757 127.459C283.219 126.744 284.758 126.028 286.22 125.402C287.835 124.597 288.682 122.45 287.989 120.571C287.527 119.14 286.296 118.245 284.988 118.245ZM1164.5 120.75C1163.42 120.75 1162.34 121.376 1161.73 122.539C1160.8 124.328 1161.27 126.565 1162.73 127.728C1164.11 128.712 1165.42 129.696 1166.81 130.68C1168.34 131.753 1170.27 131.217 1171.27 129.517C1172.27 127.817 1171.73 125.491 1170.27 124.328C1168.88 123.344 1167.5 122.36 1166.19 121.376C1165.65 120.929 1165.11 120.75 1164.5 120.75ZM270.139 125.312C269.754 125.312 269.293 125.402 268.908 125.581C267.446 126.296 265.907 127.012 264.445 127.728C262.83 128.533 262.06 130.769 262.753 132.648C263.445 134.527 265.369 135.421 266.984 134.616C268.446 133.9 269.908 133.185 271.447 132.469C273.063 131.664 273.832 129.517 273.14 127.549C272.601 126.117 271.37 125.312 270.139 125.312ZM1178.04 130.769C1176.96 130.769 1175.96 131.396 1175.35 132.469C1174.35 134.169 1174.81 136.495 1176.27 137.658C1177.58 138.642 1178.96 139.715 1180.27 140.699C1181.73 141.862 1183.73 141.415 1184.73 139.715C1185.73 138.016 1185.35 135.69 1183.89 134.527C1182.58 133.453 1181.19 132.469 1179.81 131.396C1179.27 130.948 1178.66 130.769 1178.04 130.769ZM255.366 132.648C254.905 132.648 254.52 132.737 254.058 133.006C252.596 133.721 251.135 134.527 249.596 135.332C247.98 136.137 247.287 138.373 247.98 140.252C248.672 142.131 250.596 142.936 252.212 142.131C253.674 141.326 255.135 140.61 256.597 139.894C258.213 139.089 258.982 136.853 258.213 134.974C257.751 133.453 256.597 132.648 255.366 132.648ZM240.748 140.342C240.286 140.342 239.824 140.431 239.363 140.699C237.901 141.505 236.439 142.31 234.977 143.115C233.361 144.009 232.669 146.246 233.438 148.125C234.208 150.003 236.131 150.808 237.747 149.914C239.209 149.109 240.671 148.303 242.056 147.498C243.671 146.604 244.364 144.367 243.594 142.489C243.056 141.147 241.902 140.342 240.748 140.342ZM1191.35 141.236C1190.35 141.236 1189.35 141.773 1188.73 142.847C1187.73 144.546 1188.04 146.872 1189.5 148.035C1190.81 149.109 1192.12 150.182 1193.43 151.256C1194.89 152.419 1196.89 152.061 1197.89 150.361C1198.89 148.661 1198.58 146.335 1197.12 145.172C1195.81 144.099 1194.5 143.025 1193.12 141.952C1192.66 141.505 1191.97 141.236 1191.35 141.236ZM226.206 148.482C225.744 148.482 225.206 148.572 224.821 148.84C223.359 149.645 221.897 150.54 220.512 151.345C218.896 152.24 218.281 154.566 219.127 156.355C219.897 158.234 221.82 158.949 223.436 157.965C224.898 157.16 226.283 156.265 227.745 155.46C229.36 154.566 229.976 152.329 229.206 150.451C228.591 149.198 227.437 148.482 226.206 148.482ZM1204.43 152.15C1203.43 152.15 1202.51 152.687 1201.81 153.671C1200.74 155.371 1201.04 157.697 1202.51 158.86C1203.81 159.933 1205.05 161.096 1206.35 162.17C1207.74 163.422 1209.82 163.064 1210.82 161.454C1211.89 159.844 1211.59 157.428 1210.2 156.176C1208.89 155.013 1207.58 153.94 1206.28 152.777C1205.74 152.419 1205.05 152.15 1204.43 152.15ZM211.895 156.981C211.356 156.981 210.895 157.16 210.433 157.428C208.971 158.323 207.586 159.218 206.124 160.112C204.585 161.096 203.97 163.333 204.816 165.211C205.663 167.001 207.586 167.716 209.202 166.732C210.587 165.838 212.049 164.943 213.434 164.138C214.972 163.154 215.588 160.917 214.742 159.128C214.203 157.697 213.049 156.981 211.895 156.981ZM1217.2 163.512C1216.28 163.512 1215.28 163.959 1214.66 164.943C1213.59 166.553 1213.82 168.879 1215.2 170.221C1216.43 171.384 1217.74 172.547 1218.97 173.71C1220.36 174.963 1222.36 174.784 1223.51 173.173C1224.59 171.563 1224.43 169.237 1223.05 167.895C1221.82 166.732 1220.51 165.569 1219.28 164.406C1218.59 163.78 1217.89 163.512 1217.2 163.512ZM197.815 165.838C197.276 165.838 196.737 166.017 196.276 166.285C194.891 167.18 193.429 168.164 192.044 169.058C190.505 170.042 189.967 172.368 190.89 174.157C191.736 175.947 193.737 176.573 195.276 175.499C196.66 174.605 198.045 173.621 199.43 172.726C200.969 171.742 201.508 169.416 200.661 167.627C200.046 166.553 198.892 165.838 197.815 165.838ZM183.888 175.231C183.35 175.231 182.734 175.41 182.273 175.768C180.888 176.752 179.503 177.736 178.118 178.72C176.579 179.793 176.117 182.119 177.041 183.819C177.964 185.608 179.964 186.145 181.426 185.072C182.811 184.088 184.119 183.104 185.504 182.209C187.043 181.135 187.505 178.809 186.581 177.11C186.043 175.857 184.965 175.231 183.888 175.231ZM1229.67 175.32C1228.74 175.32 1227.82 175.768 1227.2 176.662C1226.05 178.273 1226.2 180.599 1227.59 181.94C1228.82 183.103 1230.05 184.356 1231.21 185.519C1232.51 186.861 1234.59 186.682 1235.74 185.161C1236.9 183.64 1236.75 181.225 1235.44 179.883C1234.21 178.63 1232.98 177.467 1231.74 176.215C1231.13 175.589 1230.36 175.32 1229.67 175.32ZM170.27 185.072C169.654 185.072 169.039 185.251 168.5 185.698C167.115 186.682 165.807 187.755 164.422 188.739C162.96 189.902 162.499 192.228 163.499 193.928C164.499 195.628 166.5 196.165 167.962 195.002C169.27 194.017 170.655 192.944 171.963 191.96C173.424 190.887 173.886 188.561 172.963 186.771C172.347 185.698 171.347 185.072 170.27 185.072ZM1241.75 187.576C1240.9 187.576 1239.98 188.024 1239.36 188.829C1238.21 190.35 1238.28 192.765 1239.59 194.107C1240.75 195.359 1241.98 196.612 1243.13 197.864C1244.44 199.296 1246.44 199.206 1247.67 197.685C1248.9 196.164 1248.82 193.839 1247.52 192.407C1246.36 191.155 1245.13 189.813 1243.9 188.561C1243.29 187.934 1242.52 187.576 1241.75 187.576ZM156.882 195.449C156.267 195.449 155.651 195.628 155.036 196.075C154.189 196.791 153.343 197.417 152.497 198.133L151.035 199.296C149.573 200.459 149.265 202.785 150.265 204.484C151.265 206.184 153.266 206.542 154.728 205.379L156.113 204.216C156.959 203.5 157.805 202.874 158.652 202.158C160.114 200.995 160.498 198.669 159.498 196.97C158.883 195.986 157.882 195.449 156.882 195.449ZM1253.52 200.369C1252.67 200.369 1251.83 200.727 1251.21 201.532C1249.98 202.964 1249.98 205.379 1251.29 206.81C1252.44 208.063 1253.6 209.405 1254.67 210.747C1255.9 212.178 1257.98 212.178 1259.21 210.747C1260.44 209.315 1260.44 206.9 1259.21 205.468C1258.06 204.127 1256.9 202.785 1255.75 201.532C1255.13 200.727 1254.29 200.369 1253.52 200.369ZM143.802 206.363C143.11 206.363 142.494 206.631 141.879 207.079C140.571 208.242 139.263 209.315 138.032 210.478C136.647 211.731 136.339 214.057 137.416 215.756C138.493 217.367 140.494 217.724 141.956 216.472C143.264 215.309 144.495 214.236 145.803 213.162C147.265 211.91 147.495 209.583 146.495 207.973C145.803 206.81 144.802 206.363 143.802 206.363ZM1264.75 213.699C1263.98 213.699 1263.14 214.057 1262.52 214.683C1261.21 216.114 1261.14 218.44 1262.37 219.961C1263.44 221.303 1264.52 222.645 1265.6 224.076C1266.83 225.597 1268.83 225.686 1270.14 224.344C1271.45 222.913 1271.52 220.587 1270.37 219.066C1269.29 217.635 1268.14 216.293 1267.06 214.951C1266.44 214.146 1265.6 213.699 1264.75 213.699ZM131.107 217.724C130.415 217.724 129.722 217.993 129.107 218.53C127.875 219.693 126.567 220.856 125.336 222.108C123.951 223.45 123.798 225.776 124.875 227.386C126.029 228.996 128.029 229.175 129.414 227.923C130.645 226.76 131.876 225.597 133.107 224.434C134.492 223.181 134.723 220.766 133.569 219.156C132.954 218.172 132.03 217.724 131.107 217.724ZM1275.45 227.654C1274.68 227.654 1273.98 227.923 1273.37 228.549C1271.98 229.891 1271.83 232.217 1272.98 233.827C1273.98 235.259 1275.06 236.69 1276.06 238.032C1277.22 239.642 1279.22 239.821 1280.6 238.479C1281.99 237.137 1282.14 234.811 1280.99 233.201C1279.99 231.77 1278.91 230.338 1277.83 228.907C1277.29 228.102 1276.37 227.654 1275.45 227.654ZM118.72 229.712C117.95 229.712 117.258 229.98 116.642 230.607C115.411 231.859 114.18 233.112 112.949 234.364C111.641 235.706 111.487 238.121 112.641 239.642C113.795 241.163 115.873 241.342 117.181 240C118.412 238.747 119.566 237.585 120.797 236.332C122.105 234.99 122.259 232.664 121.105 231.054C120.566 230.159 119.643 229.712 118.72 229.712ZM1285.6 242.147C1284.91 242.147 1284.22 242.415 1283.6 242.952C1282.22 244.205 1281.91 246.53 1282.99 248.23C1283.99 249.662 1284.91 251.182 1285.91 252.614C1286.99 254.224 1288.99 254.582 1290.37 253.329C1291.76 252.077 1292.07 249.751 1290.99 248.141C1289.99 246.62 1289.06 245.099 1288.06 243.668C1287.53 242.594 1286.6 242.147 1285.6 242.147ZM106.794 242.147C106.024 242.147 105.255 242.505 104.562 243.131C103.408 244.383 102.177 245.725 101.023 246.978C99.7152 248.409 99.7152 250.735 100.946 252.256C102.177 253.777 104.178 253.777 105.486 252.345C106.64 251.093 107.794 249.751 108.948 248.499C110.256 247.067 110.333 244.741 109.102 243.221C108.563 242.594 107.64 242.147 106.794 242.147ZM95.3296 255.208C94.4832 255.208 93.6369 255.566 93.0213 256.282C91.8672 257.624 90.79 258.965 89.6359 260.307C88.4049 261.828 88.4818 264.154 89.7129 265.585C91.0209 267.017 93.0213 266.927 94.2524 265.496C95.3296 264.154 96.4837 262.812 97.5608 261.47C98.7919 260.039 98.7919 257.624 97.5608 256.192C96.9453 255.566 96.099 255.208 95.3296 255.208ZM1295.07 257.176C1294.45 257.176 1293.84 257.355 1293.22 257.803C1291.76 258.966 1291.37 261.291 1292.37 262.991C1293.3 264.512 1294.14 266.033 1295.07 267.554C1296.07 269.253 1298.07 269.701 1299.53 268.627C1300.99 267.464 1301.38 265.138 1300.45 263.438C1299.53 261.828 1298.61 260.307 1297.68 258.786C1297.14 257.713 1296.14 257.176 1295.07 257.176ZM84.2501 268.806C83.4038 268.806 82.4805 269.253 81.8649 270.059C80.7878 271.49 79.7106 272.832 78.6334 274.263C77.4793 275.784 77.5563 278.199 78.9412 279.541C80.2492 280.883 82.3266 280.794 83.4807 279.183C84.5579 277.752 85.635 276.41 86.6353 275.068C87.7894 273.547 87.7124 271.132 86.4044 269.79C85.7889 269.164 85.0195 268.806 84.2501 268.806ZM1303.84 272.832C1303.3 272.832 1302.68 273.011 1302.14 273.369C1300.61 274.442 1300.14 276.768 1301.07 278.468C1301.91 280.078 1302.68 281.599 1303.53 283.209C1304.45 284.998 1306.38 285.625 1307.92 284.551C1309.45 283.478 1309.99 281.241 1309.07 279.452C1308.22 277.841 1307.45 276.231 1306.61 274.531C1305.99 273.547 1304.91 272.832 1303.84 272.832ZM73.7092 282.941C72.7859 282.941 71.8626 283.388 71.2471 284.283C70.2469 285.714 69.1697 287.235 68.1695 288.666C67.0923 290.276 67.2462 292.602 68.6311 293.944C70.0161 295.286 72.0165 295.018 73.1706 293.408C74.1709 291.976 75.1711 290.545 76.1713 289.114C77.3254 287.503 77.0946 285.177 75.7866 283.835C75.1711 283.209 74.4786 282.941 73.7092 282.941ZM1311.69 289.114C1311.15 289.114 1310.69 289.292 1310.22 289.561C1308.68 290.545 1308.07 292.781 1308.84 294.571C1309.61 296.181 1310.3 297.881 1310.99 299.491C1311.76 301.37 1313.69 302.085 1315.3 301.191C1316.92 300.296 1317.53 298.06 1316.76 296.181C1316.07 294.481 1315.3 292.781 1314.53 291.082C1313.99 289.829 1312.84 289.114 1311.69 289.114ZM63.7839 297.612C62.7836 297.612 61.8603 298.149 61.2448 299.133C60.2446 300.654 59.3213 302.175 58.3211 303.695C57.2439 305.395 57.5517 307.721 59.0135 308.884C60.4754 310.137 62.4759 309.779 63.4761 308.079C64.3994 306.558 65.3996 305.127 66.3229 303.606C67.4001 301.996 67.0923 299.58 65.7074 298.328C65.0919 297.791 64.3994 297.612 63.7839 297.612ZM1318.69 305.932C1318.23 305.932 1317.84 306.021 1317.38 306.29C1315.76 307.095 1314.99 309.331 1315.76 311.21C1316.38 312.91 1316.99 314.61 1317.61 316.309C1318.3 318.188 1320.15 319.083 1321.84 318.367C1323.46 317.562 1324.23 315.415 1323.61 313.447C1323 311.657 1322.38 309.958 1321.69 308.258C1321.07 306.827 1319.92 305.932 1318.69 305.932ZM54.3971 312.731C53.3969 312.731 52.3966 313.268 51.7042 314.341C50.7809 315.862 49.8576 317.472 49.0112 319.083C48.011 320.782 48.4726 323.108 49.9345 324.271C51.3964 325.434 53.3969 324.898 54.3971 323.198C55.2434 321.677 56.1667 320.156 57.09 318.546C58.0902 316.846 57.7056 314.52 56.2437 313.357C55.6282 312.999 55.0126 312.731 54.3971 312.731ZM1324.61 323.287C1324.23 323.287 1323.92 323.377 1323.53 323.466C1321.84 324.182 1321 326.329 1321.61 328.207C1322.15 329.907 1322.69 331.696 1323.15 333.396C1323.69 335.364 1325.53 336.438 1327.23 335.722C1328.92 335.096 1329.84 332.949 1329.23 330.981C1328.69 329.192 1328.15 327.402 1327.61 325.613C1327.23 324.271 1326 323.287 1324.61 323.287ZM45.6259 328.476C44.5487 328.476 43.4715 329.102 42.856 330.265C42.0096 331.875 41.1633 333.486 40.3169 335.096C39.3936 336.885 39.9322 339.122 41.471 340.195C43.0099 341.269 44.9334 340.642 45.8567 338.853C46.703 337.243 47.4724 335.722 48.3188 334.112C49.2421 332.323 48.7804 330.086 47.2416 329.013C46.78 328.655 46.1644 328.476 45.6259 328.476ZM1329.54 341.09C1329.23 341.09 1329 341.09 1328.69 341.269C1327 341.805 1326 343.863 1326.46 345.831C1326.84 347.62 1327.3 349.41 1327.69 351.199C1328.15 353.167 1329.84 354.419 1331.61 353.883C1333.31 353.346 1334.38 351.378 1333.92 349.32C1333.54 347.441 1333.08 345.652 1332.69 343.863C1332.23 342.253 1330.92 341.09 1329.54 341.09ZM37.5471 344.579C36.393 344.579 35.3158 345.294 34.7003 346.547C33.9309 348.247 33.1615 349.857 32.392 351.557C31.5457 353.346 32.1612 355.672 33.777 356.566C35.3158 357.55 37.3163 356.835 38.0857 354.956C38.8551 353.346 39.5475 351.646 40.3169 350.036C41.1633 348.247 40.6247 345.921 39.0089 344.937C38.6242 344.758 38.0857 344.579 37.5471 344.579ZM1333.23 359.34C1333 359.34 1332.84 359.34 1332.61 359.429C1330.84 359.876 1329.77 361.844 1330.07 363.813C1330.38 365.602 1330.69 367.391 1331 369.27C1331.31 371.327 1333 372.669 1334.69 372.311C1336.46 371.953 1337.61 369.985 1337.31 368.017C1337 366.138 1336.69 364.26 1336.38 362.471C1336.08 360.503 1334.77 359.34 1333.23 359.34ZM30.2377 361.218C29.0067 361.218 27.8525 362.023 27.314 363.365C26.6215 365.065 25.929 366.765 25.2366 368.464C24.4672 370.343 25.2366 372.58 26.8523 373.385C28.4681 374.279 30.3916 373.385 31.084 371.506C31.7765 369.806 32.392 368.196 33.0845 366.496C33.8539 364.618 33.1614 362.381 31.5457 361.487C31.161 361.397 30.6994 361.218 30.2377 361.218ZM1335.84 377.768C1335.69 377.768 1335.54 377.768 1335.46 377.768C1333.69 378.037 1332.46 379.915 1332.69 381.973C1332.92 383.762 1333.08 385.641 1333.23 387.43C1333.38 389.488 1335 390.919 1336.77 390.74C1338.54 390.561 1339.85 388.682 1339.61 386.625C1339.46 384.746 1339.23 382.868 1339.08 380.989C1338.85 379.11 1337.46 377.768 1335.84 377.768ZM23.7747 378.305C22.5436 378.305 21.3126 379.2 20.774 380.631C20.1585 382.42 19.5429 384.12 18.9274 385.909C18.3119 387.788 19.0813 390.024 20.774 390.74C22.4667 391.456 24.3133 390.561 24.9288 388.593C25.4674 386.893 26.0829 385.193 26.6984 383.494C27.3909 381.615 26.6215 379.379 24.9288 378.663C24.5441 378.395 24.1594 378.305 23.7747 378.305ZM18.0811 395.839C16.7731 395.839 15.4651 396.823 15.0034 398.344C14.4649 400.133 13.9263 401.922 13.4646 403.712C12.926 405.68 13.8493 407.827 15.542 408.453C17.2347 409.079 19.0813 408.006 19.6199 406.038C20.0815 404.248 20.6201 402.549 21.1587 400.76C21.6973 398.791 20.8509 396.644 19.1582 396.018C18.7735 395.839 18.4658 395.839 18.0811 395.839ZM1337.38 396.287C1337.31 396.287 1337.23 396.287 1337.15 396.287C1335.38 396.376 1334 398.165 1334.15 400.223C1334.23 402.101 1334.31 403.891 1334.38 405.769C1334.46 407.827 1335.92 409.437 1337.69 409.348C1339.46 409.258 1340.85 407.559 1340.77 405.501C1340.69 403.622 1340.62 401.744 1340.54 399.865C1340.46 397.897 1339 396.287 1337.38 396.287ZM13.3107 413.642C11.9258 413.642 10.6178 414.715 10.2331 416.415C9.77147 418.204 9.38677 420.083 9.00206 421.872C8.54042 423.84 9.61759 425.898 11.3103 426.435C13.003 426.971 14.7726 425.719 15.2343 423.751C15.619 421.962 16.0806 420.172 16.4653 418.383C16.927 416.415 15.9267 414.357 14.234 413.821C13.9263 413.642 13.6185 413.642 13.3107 413.642ZM1337.77 414.984C1336 414.984 1334.54 416.683 1334.54 418.741C1334.54 420.62 1334.54 422.409 1334.46 424.287C1334.38 426.345 1335.84 428.045 1337.61 428.134C1339.38 428.224 1340.85 426.524 1340.92 424.466C1341 422.588 1341 420.709 1341 418.83C1341 416.683 1339.54 414.984 1337.77 414.984ZM547.818 431.534C547.587 431.534 547.279 431.534 547.049 431.623C545.356 432.071 544.279 434.128 544.663 436.096C545.048 437.975 545.433 439.764 545.894 441.643C546.356 443.611 548.126 444.863 549.818 444.327C551.511 443.79 552.588 441.732 552.127 439.764C551.742 437.975 551.357 436.186 550.973 434.396C550.588 432.697 549.28 431.534 547.818 431.534ZM9.46371 431.802C8.00184 431.802 6.6169 432.965 6.30914 434.754C6.00137 436.633 5.61667 438.422 5.30891 440.301C5.00114 442.358 6.07831 444.327 7.84795 444.684C9.61759 445.042 11.3103 443.79 11.6181 441.732C11.9258 439.943 12.2336 438.154 12.5413 436.275C12.926 434.218 11.7719 432.249 10.0792 431.802C9.92536 431.802 9.69453 431.802 9.46371 431.802ZM1337.15 433.681C1335.46 433.681 1334.08 435.202 1333.92 437.17C1333.84 439.048 1333.69 440.838 1333.54 442.716C1333.38 444.774 1334.69 446.563 1336.46 446.742C1338.23 446.921 1339.77 445.4 1339.92 443.342C1340.08 441.464 1340.23 439.585 1340.31 437.706C1340.46 435.649 1339.08 433.86 1337.31 433.681C1337.31 433.681 1337.23 433.681 1337.15 433.681ZM552.05 449.605C551.742 449.605 551.434 449.694 551.126 449.784C549.434 450.41 548.51 452.467 548.972 454.436C549.434 456.225 549.972 458.014 550.434 459.803C550.973 461.771 552.819 462.845 554.512 462.219C556.205 461.592 557.128 459.445 556.589 457.477C556.128 455.688 555.589 453.988 555.127 452.199C554.743 450.589 553.435 449.605 552.05 449.605ZM6.53996 450.141C5.00115 450.141 3.61621 451.483 3.38539 453.273C3.15457 455.151 2.92375 457.03 2.69293 458.908C2.4621 460.966 3.69316 462.845 5.4628 463.113C7.23243 463.381 8.84819 461.95 9.07901 459.893C9.30983 458.103 9.54065 456.225 9.77147 454.436C10.0792 452.378 8.84818 450.499 7.07854 450.141C6.92466 450.141 6.77078 450.141 6.53996 450.141ZM1335.54 452.289C1333.92 452.289 1332.54 453.63 1332.38 455.509C1332.15 457.298 1331.92 459.177 1331.69 460.966C1331.46 463.024 1332.61 464.902 1334.38 465.26C1336.15 465.618 1337.77 464.187 1338.08 462.129C1338.31 460.25 1338.54 458.372 1338.77 456.493C1339 454.436 1337.77 452.557 1336 452.289C1335.84 452.289 1335.69 452.289 1335.54 452.289ZM557.205 467.318C556.82 467.318 556.435 467.407 556.051 467.586C554.358 468.302 553.512 470.449 554.127 472.417C554.666 474.206 555.281 475.995 555.897 477.695C556.512 479.574 558.436 480.558 560.052 479.842C561.667 479.126 562.514 476.89 561.898 475.011C561.283 473.312 560.744 471.522 560.205 469.823C559.744 468.212 558.513 467.318 557.205 467.318ZM4.61644 468.66C3.00069 468.66 1.61576 470.091 1.38494 472.059C1.23105 473.938 1.07717 475.816 0.923286 477.695C0.769405 479.753 2.0774 481.542 3.84704 481.721C5.61667 481.9 7.15549 480.379 7.30937 478.321C7.46325 476.443 7.54019 474.653 7.69407 472.775C7.84795 470.717 6.53996 468.928 4.77032 468.66C4.77032 468.66 4.69338 468.66 4.61644 468.66ZM1332.92 470.717C1331.38 470.717 1330.07 471.97 1329.77 473.759C1329.46 475.548 1329.15 477.337 1328.84 479.216C1328.46 481.273 1329.61 483.242 1331.31 483.689C1333.08 484.136 1334.77 482.794 1335.15 480.826C1335.46 478.948 1335.84 477.158 1336.15 475.28C1336.46 473.222 1335.38 471.254 1333.61 470.896C1333.38 470.717 1333.15 470.717 1332.92 470.717ZM563.283 484.583C562.821 484.583 562.437 484.673 561.975 484.941C560.359 485.746 559.59 487.983 560.359 489.862C560.975 491.561 561.667 493.351 562.36 495.05C563.129 496.929 564.976 497.734 566.592 496.929C568.207 496.034 568.9 493.887 568.207 492.009C567.515 490.309 566.899 488.609 566.284 486.909C565.668 485.389 564.514 484.583 563.283 484.583ZM3.46233 487.357C1.76964 487.357 0.307765 488.967 0.230825 490.935C0.153884 492.814 0.0769454 494.692 0.0769454 496.571C4.70047e-06 498.629 1.46187 500.328 3.23151 500.418C5.00114 500.507 6.46302 498.808 6.53996 496.75C6.6169 494.871 6.6169 493.082 6.69384 491.204C6.77078 489.146 5.38585 487.357 3.61621 487.357C3.61621 487.357 3.53927 487.357 3.46233 487.357ZM1329.38 488.878C1327.92 488.878 1326.61 489.951 1326.3 491.651C1325.92 493.44 1325.46 495.229 1325.07 497.018C1324.61 498.987 1325.61 501.044 1327.3 501.581C1329 502.118 1330.77 500.955 1331.23 498.987C1331.69 497.197 1332.07 495.319 1332.46 493.53C1332.92 491.561 1331.84 489.504 1330.15 488.967C1329.92 488.967 1329.61 488.878 1329.38 488.878ZM570.131 501.491C569.669 501.491 569.131 501.581 568.669 501.939C567.053 502.833 566.438 505.159 567.284 506.949C568.053 508.648 568.746 510.348 569.515 511.958C570.362 513.747 572.285 514.463 573.824 513.569C575.363 512.584 575.978 510.348 575.209 508.559C574.439 506.949 573.747 505.249 573.055 503.638C572.439 502.207 571.285 501.491 570.131 501.491ZM3.23151 505.964C1.38493 505.964 0 507.664 0 509.722C0 511.6 0.0769454 513.479 0.0769454 515.358C0.153886 517.415 1.61575 519.026 3.38539 519.026C5.15502 518.936 6.53996 517.236 6.53996 515.179C6.46302 513.3 6.46302 511.511 6.46302 509.632C6.46302 507.664 5.00114 505.964 3.23151 505.964ZM1324.92 506.859C1323.53 506.859 1322.3 507.843 1321.84 509.453C1321.38 511.243 1320.84 512.942 1320.3 514.731C1319.76 516.7 1320.61 518.847 1322.3 519.473C1324 520.099 1325.84 519.115 1326.38 517.147C1326.92 515.358 1327.46 513.569 1327.92 511.779C1328.46 509.811 1327.54 507.664 1325.84 507.038C1325.53 506.948 1325.23 506.859 1324.92 506.859ZM577.748 517.952C577.209 517.952 576.671 518.131 576.132 518.489C574.593 519.473 574.055 521.799 574.978 523.588C575.747 525.198 576.594 526.898 577.44 528.508C578.363 530.298 580.287 530.834 581.826 529.85C583.365 528.777 583.826 526.54 582.98 524.751C582.134 523.141 581.364 521.53 580.595 519.92C579.979 518.578 578.902 517.952 577.748 517.952ZM1319.53 524.483C1318.23 524.483 1317.07 525.377 1316.53 526.898C1315.99 528.598 1315.38 530.297 1314.76 532.087C1314.07 533.965 1314.84 536.202 1316.53 537.007C1318.15 537.812 1320.07 536.918 1320.76 534.949C1321.38 533.16 1322 531.46 1322.61 529.671C1323.23 527.793 1322.46 525.556 1320.76 524.84C1320.3 524.572 1319.92 524.483 1319.53 524.483ZM3.92398 524.662C3.84704 524.662 3.7701 524.662 3.69316 524.662C1.92352 524.751 0.615521 526.54 0.692462 528.598C0.769403 530.476 0.923284 532.355 1.07717 534.234C1.23105 536.291 2.76986 537.812 4.5395 537.633C6.30913 537.454 7.61713 535.665 7.46325 533.608C7.30937 531.729 7.23243 529.94 7.15549 528.061C7.00161 526.182 5.53974 524.662 3.92398 524.662ZM586.134 533.876C585.519 533.876 584.903 534.055 584.365 534.502C582.903 535.576 582.441 537.902 583.442 539.691C584.288 541.301 585.211 542.822 586.134 544.432C587.135 546.132 589.135 546.579 590.597 545.506C592.059 544.343 592.444 542.017 591.52 540.317C590.674 538.796 589.751 537.275 588.904 535.665C588.212 534.502 587.135 533.876 586.134 533.876ZM1313.22 541.659C1311.99 541.659 1310.84 542.464 1310.3 543.806C1309.61 545.506 1308.99 547.116 1308.3 548.816C1307.53 550.694 1308.22 552.931 1309.84 553.826C1311.45 554.72 1313.38 553.915 1314.15 552.036C1314.84 550.337 1315.53 548.637 1316.22 546.937C1316.99 545.058 1316.22 542.822 1314.61 542.017C1314.15 541.748 1313.69 541.659 1313.22 541.659ZM5.30891 543.269C5.15502 543.269 5.07808 543.269 4.9242 543.269C3.15457 543.538 1.92352 545.327 2.0774 547.384C2.23128 549.263 2.4621 551.142 2.69293 553.02C2.92375 555.078 4.5395 556.509 6.30914 556.241C8.07877 555.973 9.30983 554.094 9.07901 552.036C8.84819 550.158 8.69431 548.368 8.54043 546.49C8.3096 544.701 6.92466 543.269 5.30891 543.269ZM595.136 549.353C594.521 549.353 593.828 549.621 593.29 550.068C591.828 551.231 591.52 553.647 592.521 555.257C593.444 556.778 594.444 558.299 595.367 559.819C596.445 561.519 598.445 561.787 599.83 560.624C601.292 559.372 601.523 557.046 600.522 555.436C599.599 553.915 598.676 552.484 597.676 550.963C597.137 549.889 596.137 549.353 595.136 549.353ZM1306.15 558.388C1304.99 558.388 1303.91 559.104 1303.3 560.356C1302.53 561.966 1301.76 563.577 1300.99 565.187C1300.14 566.976 1300.68 569.302 1302.22 570.286C1303.76 571.27 1305.76 570.644 1306.61 568.855C1307.38 567.244 1308.15 565.545 1308.92 563.845C1309.76 562.056 1309.15 559.73 1307.61 558.746C1307.15 558.567 1306.61 558.388 1306.15 558.388ZM7.54019 561.787C7.38631 561.787 7.15549 561.787 7.00161 561.877C5.23197 562.235 4.07786 564.113 4.30869 566.171C4.53951 568.05 4.84726 569.928 5.15503 571.717C5.46279 573.775 7.15549 575.117 8.84818 574.759C10.6178 574.401 11.7719 572.433 11.4642 570.465C11.1564 568.676 10.9256 566.797 10.6948 565.008C10.4639 563.04 9.07901 561.787 7.54019 561.787ZM604.831 564.203C604.139 564.203 603.446 564.471 602.831 565.008C601.446 566.26 601.215 568.676 602.292 570.286C603.292 571.807 604.292 573.238 605.37 574.67C606.524 576.28 608.524 576.548 609.909 575.206C611.294 573.865 611.525 571.539 610.371 569.928C609.371 568.497 608.37 567.066 607.37 565.634C606.678 564.74 605.754 564.203 604.831 564.203ZM1298.14 574.67C1297.07 574.67 1295.99 575.296 1295.37 576.459C1294.53 578.069 1293.68 579.59 1292.83 581.2C1291.91 582.9 1292.3 585.226 1293.84 586.389C1295.3 587.462 1297.3 587.015 1298.3 585.226C1299.14 583.616 1300.07 582.005 1300.91 580.395C1301.84 578.606 1301.38 576.369 1299.84 575.296C1299.3 574.759 1298.68 574.67 1298.14 574.67ZM615.064 578.606C614.295 578.606 613.525 578.874 612.987 579.501C611.679 580.842 611.525 583.258 612.679 584.779C613.756 586.21 614.833 587.641 615.911 588.983C617.065 590.504 619.142 590.683 620.45 589.252C621.758 587.91 621.912 585.494 620.681 583.974C619.604 582.632 618.526 581.2 617.526 579.858C616.911 579.053 615.987 578.606 615.064 578.606ZM10.4639 580.127C10.2331 580.127 10.0023 580.127 9.77147 580.216C8.00183 580.663 6.92467 582.632 7.30937 584.689C7.61713 586.568 8.00183 588.357 8.38653 590.236C8.77124 592.204 10.5409 593.546 12.2336 593.098C13.9263 592.651 15.0804 590.683 14.6957 588.625C14.311 586.836 14.0032 585.047 13.6955 583.168C13.3107 581.379 12.0028 580.127 10.4639 580.127ZM1289.37 590.236C1288.37 590.236 1287.37 590.772 1286.76 591.846C1286.37 592.562 1285.91 593.188 1285.53 593.904C1284.99 594.709 1284.53 595.603 1283.99 596.408C1282.91 598.108 1283.29 600.434 1284.68 601.597C1286.14 602.85 1288.14 602.402 1289.14 600.792C1289.68 599.987 1290.22 599.092 1290.68 598.198C1291.07 597.482 1291.53 596.856 1291.91 596.14C1292.91 594.44 1292.6 592.114 1291.14 590.951C1290.6 590.504 1289.99 590.236 1289.37 590.236ZM625.913 592.383C625.143 592.383 624.297 592.741 623.682 593.456C622.374 594.888 622.373 597.214 623.605 598.734C624.759 600.076 625.836 601.418 626.99 602.76C628.221 604.191 630.298 604.281 631.529 602.85C632.761 601.418 632.838 599.003 631.606 597.571C630.452 596.23 629.375 594.888 628.298 593.546C627.605 592.741 626.759 592.383 625.913 592.383ZM14.1571 598.287C13.9263 598.287 13.6185 598.287 13.3107 598.377C11.6181 598.913 10.5409 600.971 11.0025 602.939C11.3872 604.728 11.8489 606.607 12.2336 608.396C12.6952 610.364 14.4649 611.527 16.1576 610.99C17.8502 610.454 18.8505 608.396 18.3888 606.428C18.0041 604.639 17.5425 602.85 17.1578 601.06C16.927 599.45 15.619 598.287 14.1571 598.287ZM1279.76 605.265C1278.83 605.265 1277.83 605.712 1277.22 606.696C1276.22 608.128 1275.22 609.559 1274.22 610.99C1273.06 612.601 1273.29 614.927 1274.68 616.269C1276.06 617.61 1278.06 617.342 1279.22 615.732C1280.22 614.3 1281.22 612.78 1282.29 611.348C1283.37 609.738 1283.14 607.412 1281.76 606.07C1281.22 605.533 1280.45 605.265 1279.76 605.265ZM637.3 605.623C636.454 605.623 635.607 605.981 634.992 606.786C633.761 608.307 633.838 610.633 635.069 612.064C636.223 613.406 637.454 614.658 638.608 615.911C639.916 617.342 641.917 617.253 643.148 615.732C644.379 614.211 644.302 611.885 642.994 610.454C641.84 609.201 640.685 607.949 639.531 606.607C638.916 605.981 638.069 605.623 637.3 605.623ZM18.5427 616.269C18.235 616.269 17.9272 616.358 17.6194 616.447C15.9267 617.074 15.0034 619.131 15.4651 621.099C15.9267 622.889 16.4653 624.678 16.927 626.467C17.4655 628.435 19.3121 629.509 21.0048 628.882C22.6975 628.256 23.6208 626.109 23.0822 624.141C22.6206 622.352 22.082 620.652 21.6203 618.863C21.2356 617.342 19.9277 616.269 18.5427 616.269ZM649.149 618.237C648.226 618.237 647.379 618.684 646.764 619.489C645.61 621.01 645.763 623.425 647.072 624.767C648.303 626.02 649.534 627.272 650.765 628.435C652.15 629.777 654.15 629.598 655.304 627.988C656.458 626.378 656.304 624.052 654.919 622.71C653.688 621.547 652.534 620.294 651.303 619.042C650.688 618.505 649.918 618.237 649.149 618.237ZM1269.52 619.579C1268.6 619.579 1267.75 620.026 1267.14 620.831C1266.06 622.262 1265.06 623.604 1263.98 624.946C1262.75 626.467 1262.91 628.793 1264.21 630.224C1265.52 631.656 1267.52 631.477 1268.75 629.956C1269.83 628.525 1270.91 627.183 1271.98 625.751C1273.14 624.231 1273.06 621.815 1271.68 620.473C1271.06 619.936 1270.29 619.579 1269.52 619.579ZM661.536 630.135C660.613 630.135 659.69 630.582 658.997 631.566C657.92 633.177 658.151 635.502 659.536 636.844C660.767 638.007 662.075 639.17 663.383 640.333C664.768 641.586 666.768 641.317 667.922 639.707C669 638.097 668.769 635.771 667.384 634.429C666.153 633.266 664.845 632.103 663.614 631.029C662.921 630.403 662.229 630.135 661.536 630.135ZM1258.6 633.266C1257.75 633.266 1256.9 633.624 1256.29 634.429C1255.21 635.771 1254.06 637.023 1252.9 638.365C1251.67 639.797 1251.59 642.212 1252.9 643.643C1254.13 645.075 1256.21 645.164 1257.44 643.643C1258.6 642.301 1259.75 640.96 1260.9 639.618C1262.14 638.186 1262.14 635.771 1260.83 634.339C1260.21 633.624 1259.37 633.266 1258.6 633.266ZM23.6208 634.071C23.2361 634.071 22.9283 634.161 22.5436 634.25C20.8509 634.966 20.0046 637.113 20.6201 638.991C21.1587 640.781 21.6973 642.57 22.3128 644.27C22.9283 646.238 24.7749 647.222 26.4676 646.506C28.1603 645.79 29.0066 643.643 28.3911 641.675C27.8525 639.975 27.314 638.186 26.7754 636.487C26.1598 634.966 24.9288 634.071 23.6208 634.071ZM674.309 641.496C673.308 641.496 672.308 642.033 671.693 643.017C670.615 644.717 670.923 647.043 672.385 648.206C673.693 649.279 675.001 650.442 676.309 651.516C677.771 652.679 679.771 652.321 680.772 650.621C681.772 648.921 681.464 646.596 680.002 645.433C678.694 644.359 677.386 643.285 676.155 642.212C675.617 641.765 674.924 641.496 674.309 641.496ZM1247.06 646.327C1246.29 646.327 1245.52 646.685 1244.9 647.311C1243.75 648.564 1242.52 649.816 1241.36 651.068C1240.05 652.41 1239.9 654.826 1241.13 656.347C1242.28 657.867 1244.36 658.046 1245.67 656.615C1246.9 655.363 1248.06 654.11 1249.29 652.858C1250.59 651.426 1250.67 649.1 1249.44 647.58C1248.75 646.685 1247.9 646.327 1247.06 646.327ZM29.3144 651.516C28.9297 651.516 28.4681 651.605 28.0834 651.784C26.4676 652.589 25.6213 654.736 26.3137 656.615C26.9293 658.404 27.5448 660.104 28.1603 661.804C28.8528 663.682 30.6994 664.577 32.392 663.772C34.0078 662.967 34.7772 660.82 34.0847 658.852C33.4692 657.152 32.8537 655.452 32.2382 653.752C31.7765 652.41 30.6224 651.516 29.3144 651.516ZM687.388 652.321C686.388 652.321 685.311 652.858 684.695 653.931C683.695 655.631 684.08 657.957 685.542 659.12C686.85 660.193 688.235 661.177 689.62 662.251C691.082 663.414 693.082 662.877 694.082 661.177C695.082 659.478 694.621 657.152 693.159 655.989C691.851 655.005 690.466 653.931 689.158 652.947C688.696 652.5 688.004 652.321 687.388 652.321ZM1234.9 658.583C1234.21 658.583 1233.44 658.852 1232.82 659.478C1231.59 660.641 1230.36 661.804 1229.13 662.967C1227.74 664.219 1227.51 666.635 1228.67 668.245C1229.74 669.855 1231.82 670.123 1233.21 668.782C1234.44 667.619 1235.74 666.366 1236.98 665.203C1238.36 663.861 1238.51 661.535 1237.36 659.925C1236.75 659.03 1235.82 658.583 1234.9 658.583ZM700.93 662.43C699.853 662.43 698.776 663.056 698.16 664.219C697.237 666.008 697.698 668.245 699.16 669.408C700.545 670.392 701.93 671.376 703.315 672.36C704.854 673.433 706.778 672.897 707.701 671.108C708.624 669.318 708.162 667.082 706.624 666.008C705.239 665.024 703.931 664.04 702.546 663.146C702.084 662.609 701.469 662.43 700.93 662.43ZM35.7005 668.692C35.2388 668.692 34.7772 668.782 34.3925 669.05C32.7767 669.945 32.0843 672.092 32.7768 673.97C33.4692 675.67 34.1617 677.37 34.8541 679.069C35.6236 680.948 37.5471 681.753 39.1628 680.859C40.7786 679.964 41.471 677.728 40.7016 675.849C40.0092 674.149 39.3167 672.449 38.7012 670.839C38.0857 669.497 36.9315 668.692 35.7005 668.692ZM1222.28 670.123C1221.59 670.123 1220.9 670.392 1220.36 670.839C1219.05 671.913 1217.82 673.076 1216.51 674.149C1215.05 675.402 1214.74 677.728 1215.82 679.338C1216.89 681.038 1218.9 681.395 1220.28 680.143C1221.59 679.069 1222.9 677.906 1224.2 676.744C1225.59 675.491 1225.9 673.165 1224.82 671.555C1224.28 670.66 1223.28 670.123 1222.28 670.123ZM714.702 672.002C713.548 672.002 712.471 672.718 711.933 673.881C711.086 675.67 711.625 677.996 713.164 678.98C714.549 679.875 716.01 680.859 717.395 681.753C718.934 682.737 720.935 682.111 721.781 680.322C722.627 678.533 722.089 676.207 720.55 675.223C719.165 674.328 717.78 673.434 716.395 672.449C715.78 672.181 715.241 672.002 714.702 672.002ZM728.783 680.948C727.628 680.948 726.474 681.664 725.936 682.916C725.089 684.705 725.705 687.031 727.321 687.926C728.783 688.821 730.168 689.626 731.629 690.52C733.245 691.504 735.169 690.699 735.938 688.91C736.784 687.031 736.092 684.795 734.553 683.9C733.168 683.095 731.706 682.201 730.321 681.306C729.86 681.127 729.321 680.948 728.783 680.948ZM1209.2 680.948C1208.58 680.948 1207.97 681.127 1207.43 681.574C1206.12 682.648 1204.81 683.632 1203.43 684.616C1201.97 685.779 1201.51 688.105 1202.51 689.805C1203.51 691.504 1205.51 692.041 1206.97 690.878C1208.35 689.805 1209.66 688.821 1211.05 687.747C1212.51 686.584 1212.89 684.258 1211.89 682.558C1211.28 681.574 1210.28 680.948 1209.2 680.948ZM42.6252 685.511C42.1635 685.511 41.6249 685.6 41.1633 685.958C39.5475 686.852 38.932 689.178 39.7784 690.968C40.5478 692.667 41.2402 694.367 42.0096 695.977C42.856 697.767 44.7795 698.482 46.3183 697.588C47.8571 696.604 48.4727 694.367 47.7032 692.578C46.9338 690.968 46.2414 689.268 45.5489 687.658C44.9334 686.226 43.7793 685.511 42.6252 685.511ZM743.17 689.357C741.939 689.357 740.862 690.163 740.247 691.504C739.477 693.383 740.17 695.62 741.709 696.514C743.17 697.319 744.632 698.124 746.094 698.93C747.71 699.824 749.634 699.019 750.403 697.14C751.172 695.262 750.48 693.025 748.864 692.131C747.402 691.325 745.94 690.52 744.555 689.715C744.094 689.447 743.632 689.357 743.17 689.357ZM1195.66 691.057C1195.12 691.057 1194.5 691.236 1193.97 691.594C1192.58 692.578 1191.27 693.473 1189.89 694.457C1188.35 695.53 1187.89 697.767 1188.73 699.556C1189.66 701.345 1191.58 701.882 1193.12 700.898C1194.5 699.914 1195.89 698.93 1197.27 697.946C1198.81 696.872 1199.28 694.546 1198.35 692.846C1197.81 691.683 1196.74 691.057 1195.66 691.057ZM757.712 697.23C756.481 697.23 755.327 698.035 754.789 699.466C754.096 701.345 754.789 703.581 756.404 704.387C757.866 705.192 759.328 705.907 760.867 706.623C762.483 707.428 764.406 706.534 765.099 704.655C765.791 702.776 765.022 700.54 763.406 699.735C761.944 699.019 760.482 698.214 759.02 697.498C758.636 697.319 758.174 697.23 757.712 697.23ZM1181.81 700.45C1181.27 700.45 1180.73 700.629 1180.27 700.898C1178.89 701.792 1177.5 702.687 1176.04 703.492C1174.5 704.476 1173.88 706.713 1174.73 708.502C1175.58 710.291 1177.5 711.007 1179.04 710.023C1180.5 709.128 1181.89 708.233 1183.35 707.339C1184.89 706.355 1185.5 704.118 1184.66 702.24C1184.04 701.166 1182.89 700.45 1181.81 700.45ZM50.1654 701.971C49.6268 701.971 49.0882 702.15 48.6265 702.419C47.0877 703.403 46.5491 705.729 47.3955 707.518C48.1649 709.128 49.0112 710.828 49.7807 712.438C50.627 714.227 52.6275 714.853 54.1663 713.78C55.7051 712.796 56.2437 710.47 55.3204 708.681C54.551 707.07 53.7046 705.46 52.9352 703.85C52.3966 702.687 51.3195 701.971 50.1654 701.971ZM772.562 704.476C771.331 704.476 770.1 705.371 769.561 706.802C768.869 708.681 769.715 710.917 771.331 711.633C772.793 712.349 774.331 713.064 775.793 713.78C777.409 714.496 779.333 713.601 779.948 711.722C780.641 709.844 779.794 707.607 778.179 706.892C776.717 706.176 775.178 705.55 773.716 704.834C773.331 704.566 772.946 704.476 772.562 704.476ZM1167.5 709.039C1167.04 709.039 1166.58 709.128 1166.11 709.396C1164.65 710.202 1163.27 711.007 1161.81 711.812C1160.19 712.706 1159.5 714.943 1160.27 716.822C1161.04 718.7 1162.96 719.505 1164.57 718.611C1166.04 717.806 1167.5 717 1168.96 716.106C1170.58 715.211 1171.19 712.975 1170.42 711.096C1169.81 709.844 1168.73 709.039 1167.5 709.039ZM787.488 711.275C786.18 711.275 784.949 712.17 784.488 713.69C783.872 715.659 784.718 717.806 786.411 718.521C787.95 719.148 789.412 719.863 790.951 720.489C792.643 721.205 794.49 720.221 795.105 718.253C795.721 716.285 794.875 714.138 793.182 713.422C791.643 712.796 790.181 712.17 788.719 711.454C788.258 711.365 787.873 711.275 787.488 711.275ZM1152.96 716.911C1152.5 716.911 1152.11 717 1151.65 717.269C1150.19 717.985 1148.72 718.79 1147.26 719.505C1145.65 720.311 1144.88 722.547 1145.57 724.426C1146.26 726.304 1148.19 727.199 1149.8 726.394C1151.26 725.678 1152.8 724.873 1154.26 724.157C1155.88 723.352 1156.65 721.116 1155.88 719.237C1155.34 717.806 1154.19 716.911 1152.96 716.911ZM802.646 717.627C801.338 717.627 800.03 718.611 799.568 720.132C799.029 722.1 799.876 724.247 801.569 724.873C803.107 725.499 804.646 726.036 806.185 726.662C807.878 727.288 809.724 726.215 810.263 724.336C810.801 722.368 809.878 720.221 808.262 719.595C806.723 718.969 805.262 718.432 803.723 717.806C803.338 717.627 802.953 717.627 802.646 717.627ZM58.3211 718.163C57.7825 718.163 57.167 718.342 56.6284 718.7C55.0896 719.774 54.6279 722.1 55.5512 723.799C56.3975 725.41 57.2439 727.02 58.0902 728.63C59.0135 730.419 61.014 730.867 62.5528 729.793C64.0916 728.72 64.5533 726.394 63.553 724.605C62.7067 722.994 61.8603 721.473 61.014 719.863C60.4754 718.79 59.3982 718.163 58.3211 718.163ZM817.88 723.352C816.495 723.352 815.264 724.336 814.802 725.947C814.264 727.915 815.187 729.972 816.88 730.598C818.419 731.135 819.957 731.672 821.496 732.298C823.189 732.924 824.958 731.761 825.497 729.793C826.036 727.825 825.035 725.768 823.343 725.141C821.804 724.605 820.265 724.068 818.726 723.531C818.572 723.442 818.265 723.352 817.88 723.352ZM1138.11 724.068C1137.72 724.068 1137.34 724.157 1136.95 724.336C1135.49 724.962 1133.95 725.678 1132.49 726.304C1130.8 727.02 1129.95 729.167 1130.57 731.135C1131.18 733.103 1133.03 734.087 1134.72 733.372C1136.26 732.745 1137.72 732.03 1139.26 731.404C1140.95 730.688 1141.72 728.451 1141.11 726.573C1140.57 724.962 1139.34 724.068 1138.11 724.068ZM833.345 728.72C831.96 728.72 830.652 729.793 830.267 731.404C829.806 733.372 830.806 735.429 832.499 736.055C834.037 736.592 835.576 737.04 837.192 737.576C838.885 738.113 840.654 736.95 841.116 734.982C841.578 733.014 840.578 730.956 838.885 730.419C837.346 729.883 835.807 729.435 834.268 728.899C833.884 728.809 833.576 728.72 833.345 728.72ZM1122.95 730.419C1122.64 730.419 1122.26 730.509 1121.95 730.598C1120.41 731.225 1118.95 731.761 1117.41 732.388C1115.72 733.014 1114.79 735.161 1115.33 737.129C1115.87 739.097 1117.72 740.171 1119.41 739.544C1120.95 738.918 1122.49 738.381 1124.03 737.755C1125.72 737.129 1126.64 734.982 1126.03 733.014C1125.57 731.404 1124.33 730.419 1122.95 730.419ZM848.81 733.64C847.348 733.64 846.04 734.803 845.732 736.413C845.271 738.381 846.348 740.439 848.041 740.976C849.58 741.423 851.195 741.87 852.734 742.318C854.427 742.765 856.196 741.602 856.658 739.634C857.12 737.666 856.043 735.608 854.35 735.071C852.811 734.624 851.272 734.177 849.733 733.73C849.349 733.64 849.118 733.64 848.81 733.64ZM66.9384 733.908C66.3229 733.908 65.7074 734.087 65.1688 734.535C63.7069 735.698 63.2453 738.024 64.2455 739.723C65.1688 741.334 66.0151 742.854 66.9384 744.375C67.9387 746.075 69.9391 746.522 71.401 745.359C72.8629 744.196 73.2476 741.87 72.2473 740.171C71.3241 738.65 70.4777 737.129 69.5544 735.519C69.0158 734.535 67.9387 733.908 66.9384 733.908ZM1107.64 736.055C1107.33 736.055 1107.02 736.145 1106.72 736.234C1105.18 736.771 1103.64 737.218 1102.1 737.755C1100.41 738.292 1099.41 740.35 1099.87 742.318C1100.33 744.286 1102.1 745.449 1103.79 744.912C1105.33 744.375 1106.95 743.928 1108.48 743.391C1110.18 742.854 1111.18 740.707 1110.64 738.739C1110.33 737.129 1109.02 736.055 1107.64 736.055ZM864.429 738.024C862.967 738.024 861.659 739.187 861.275 740.886C860.89 742.854 861.967 744.912 863.66 745.359C865.198 745.807 866.814 746.164 868.353 746.612C870.123 747.059 871.815 745.807 872.2 743.749C872.585 741.691 871.508 739.723 869.738 739.276C868.199 738.918 866.583 738.471 865.045 738.024C864.891 738.024 864.66 738.024 864.429 738.024ZM1092.17 740.886C1091.94 740.886 1091.64 740.886 1091.4 740.976C1089.87 741.423 1088.33 741.87 1086.79 742.228C1085.09 742.676 1084.02 744.733 1084.4 746.701C1084.79 748.669 1086.56 749.922 1088.25 749.474C1089.79 749.027 1091.4 748.58 1092.94 748.133C1094.64 747.596 1095.71 745.628 1095.33 743.57C1094.87 742.049 1093.56 740.886 1092.17 740.886ZM880.125 741.96C878.663 741.96 877.278 743.212 876.97 744.912C876.586 746.97 877.74 748.938 879.51 749.296C881.125 749.653 882.664 750.011 884.28 750.369C886.049 750.727 887.742 749.474 888.05 747.417C888.358 745.359 887.281 743.391 885.511 743.033C883.972 742.675 882.356 742.318 880.817 741.96C880.587 742.049 880.356 741.96 880.125 741.96ZM1076.48 745.001C1076.25 745.001 1076.02 745.001 1075.86 745.091C1074.32 745.449 1072.71 745.807 1071.17 746.164C1069.4 746.522 1068.25 748.49 1068.63 750.548C1068.94 752.606 1070.63 753.858 1072.4 753.5C1074.02 753.142 1075.55 752.784 1077.17 752.427C1078.94 751.979 1080.02 750.011 1079.71 748.043C1079.32 746.254 1077.94 745.001 1076.48 745.001ZM895.898 745.449C894.359 745.449 892.974 746.701 892.743 748.58C892.436 750.637 893.59 752.516 895.359 752.874C896.975 753.232 898.514 753.5 900.13 753.858C901.899 754.216 903.515 752.784 903.823 750.816C904.13 748.759 902.899 746.88 901.207 746.522C899.668 746.254 898.052 745.896 896.513 745.538C896.282 745.449 896.129 745.449 895.898 745.449ZM1060.7 748.401C1060.55 748.401 1060.32 748.401 1060.17 748.49C1058.63 748.759 1057.01 749.117 1055.47 749.385C1053.7 749.653 1052.55 751.622 1052.78 753.679C1053.01 755.737 1054.7 757.079 1056.47 756.81C1058.09 756.542 1059.7 756.273 1061.24 755.916C1063.01 755.558 1064.17 753.679 1063.86 751.622C1063.55 749.653 1062.24 748.401 1060.7 748.401ZM911.825 748.401C910.286 748.401 908.901 749.743 908.67 751.622C908.439 753.679 909.593 755.558 911.363 755.826C912.979 756.094 914.594 756.363 916.133 756.631C917.903 756.9 919.519 755.468 919.75 753.411C919.98 751.353 918.749 749.474 916.98 749.206C915.364 748.938 913.825 748.669 912.209 748.401C912.132 748.49 911.978 748.401 911.825 748.401ZM76.0174 749.296C75.4019 749.296 74.7094 749.564 74.1709 750.011C72.709 751.174 72.4012 753.5 73.4015 755.2C74.3247 756.721 75.248 758.242 76.2483 759.762C77.3254 761.462 79.3259 761.82 80.7108 760.568C82.1727 759.315 82.4805 756.989 81.4033 755.379C80.48 753.858 79.5567 752.337 78.6334 750.816C78.0179 749.832 77.0177 749.296 76.0174 749.296ZM927.751 750.906C926.136 750.906 924.751 752.337 924.597 754.216C924.366 756.273 925.674 758.152 927.444 758.331C929.059 758.51 930.675 758.778 932.291 758.957C934.06 759.136 935.676 757.705 935.83 755.647C935.984 753.59 934.753 751.711 932.983 751.532C931.367 751.353 929.829 751.085 928.213 750.906C927.982 750.906 927.828 750.906 927.751 750.906ZM1044.78 751.085C1044.62 751.085 1044.55 751.085 1044.39 751.085C1042.78 751.353 1041.24 751.532 1039.62 751.711C1037.85 751.979 1036.62 753.769 1036.78 755.826C1037.01 757.884 1038.55 759.315 1040.32 759.136C1041.93 758.957 1043.55 758.689 1045.16 758.51C1046.93 758.242 1048.16 756.363 1047.93 754.305C1047.78 752.427 1046.39 751.085 1044.78 751.085ZM943.678 752.784C942.062 752.784 940.6 754.216 940.446 756.184C940.293 758.242 941.601 760.031 943.37 760.21C944.986 760.389 946.602 760.567 948.218 760.657C949.987 760.836 951.526 759.315 951.68 757.257C951.834 755.2 950.526 753.411 948.756 753.232C947.14 753.053 945.602 752.963 943.986 752.784C943.909 752.784 943.832 752.784 943.678 752.784ZM1028.77 753.053C1028.7 753.053 1028.62 753.053 1028.47 753.053C1026.85 753.232 1025.31 753.411 1023.7 753.5C1021.93 753.679 1020.62 755.468 1020.77 757.526C1020.93 759.583 1022.47 761.104 1024.23 760.925C1025.85 760.746 1027.47 760.657 1029.08 760.478C1030.85 760.299 1032.16 758.51 1032.01 756.452C1031.85 754.484 1030.47 753.053 1028.77 753.053ZM959.759 754.126C958.066 754.126 956.681 755.647 956.527 757.615C956.45 759.673 957.758 761.462 959.528 761.552C961.144 761.641 962.759 761.73 964.375 761.82C966.145 761.909 967.684 760.299 967.76 758.242C967.837 756.184 966.453 754.395 964.683 754.305C963.067 754.216 961.528 754.126 959.912 754.037C959.836 754.126 959.836 754.126 959.759 754.126ZM1012.77 754.305C1012.69 754.305 1012.69 754.305 1012.62 754.305C1011 754.395 1009.46 754.484 1007.85 754.574C1006.08 754.663 1004.69 756.363 1004.77 758.42C1004.85 760.478 1006.31 762.088 1008.08 761.999C1009.69 761.909 1011.31 761.82 1012.92 761.73C1014.69 761.641 1016.08 759.852 1016 757.794C1015.85 755.916 1014.46 754.305 1012.77 754.305ZM975.839 754.931C974.07 754.931 972.685 756.542 972.608 758.599C972.531 760.657 973.993 762.357 975.762 762.446C977.378 762.536 978.994 762.536 980.61 762.536C982.379 762.625 983.841 760.925 983.841 758.868C983.841 756.81 982.456 755.11 980.686 755.11C979.071 755.11 977.455 755.021 975.916 755.021C975.839 754.932 975.839 754.931 975.839 754.931ZM996.69 755.021C994.997 755.021 993.459 755.11 991.843 755.11C990.073 755.11 988.611 756.81 988.688 758.868C988.688 760.925 990.15 762.536 991.92 762.536C993.536 762.536 995.151 762.536 996.767 762.446C998.537 762.446 999.922 760.746 999.922 758.599C999.845 756.631 998.46 755.021 996.69 755.021ZM85.5581 764.325C84.8656 764.325 84.1732 764.593 83.6346 765.13C82.2496 766.382 81.9419 768.708 83.019 770.408C84.0193 771.929 85.0195 773.36 86.0197 774.881C87.0969 776.491 89.0974 776.76 90.5592 775.507C91.9442 774.255 92.175 771.929 91.0978 770.229C90.0976 768.798 89.1743 767.277 88.1741 765.846C87.4816 764.862 86.5583 764.325 85.5581 764.325ZM95.4834 778.996C94.791 778.996 94.0216 779.265 93.483 779.801C92.0981 781.143 91.8672 783.469 93.0213 785.079C94.0216 786.511 95.0987 787.942 96.099 789.463C97.2531 791.073 99.2535 791.252 100.638 789.91C102.023 788.568 102.177 786.242 101.023 784.632C100.023 783.201 99.0227 781.769 97.9455 780.338C97.407 779.444 96.4837 778.996 95.4834 778.996ZM105.87 793.31C105.101 793.31 104.409 793.578 103.793 794.204C102.485 795.546 102.331 797.962 103.485 799.483C104.562 800.914 105.64 802.345 106.717 803.687C107.871 805.208 109.948 805.387 111.256 804.045C112.564 802.703 112.718 800.288 111.564 798.767C110.487 797.335 109.487 795.994 108.409 794.562C107.64 793.757 106.794 793.31 105.87 793.31ZM116.565 807.176C115.796 807.176 115.026 807.534 114.411 808.16C113.103 809.592 113.026 811.918 114.257 813.438C115.334 814.78 116.488 816.212 117.565 817.553C118.796 819.074 120.797 819.164 122.105 817.732C123.413 816.301 123.49 813.975 122.259 812.454C121.182 811.112 120.104 809.77 119.027 808.339C118.335 807.623 117.412 807.176 116.565 807.176ZM127.645 820.774C126.798 820.774 126.029 821.132 125.413 821.848C124.105 823.279 124.105 825.694 125.336 827.126C126.491 828.468 127.568 829.809 128.722 831.151C129.953 832.583 132.03 832.583 133.261 831.151C134.492 829.72 134.492 827.305 133.261 825.873C132.107 824.531 131.03 823.189 129.876 821.937C129.337 821.132 128.491 820.774 127.645 820.774ZM139.032 833.925C138.186 833.925 137.339 834.283 136.724 835.088C135.493 836.608 135.493 838.934 136.801 840.366C137.955 841.708 139.109 842.96 140.263 844.302C141.571 845.733 143.571 845.644 144.802 844.213C146.034 842.692 145.957 840.366 144.726 838.934C143.571 837.682 142.417 836.34 141.263 835.088C140.648 834.283 139.801 833.925 139.032 833.925ZM150.65 846.807C149.804 846.807 148.957 847.254 148.265 847.97C147.034 849.491 147.111 851.817 148.419 853.248C149.573 854.5 150.804 855.753 151.958 857.095C153.266 858.526 155.266 858.347 156.497 856.826C157.728 855.306 157.575 852.98 156.267 851.548C155.113 850.296 153.881 849.043 152.727 847.791C152.266 847.165 151.419 846.807 150.65 846.807ZM162.576 859.331C161.652 859.331 160.806 859.779 160.191 860.584C159.036 862.105 159.113 864.52 160.498 865.862C161.729 867.114 162.96 868.367 164.115 869.53C165.423 870.872 167.5 870.693 168.654 869.172C169.808 867.651 169.654 865.236 168.346 863.894C167.115 862.641 165.961 861.478 164.73 860.226C164.115 859.6 163.345 859.331 162.576 859.331ZM174.809 871.498C173.886 871.498 172.963 871.945 172.347 872.84C171.193 874.45 171.347 876.776 172.732 878.118C173.963 879.37 175.194 880.533 176.425 881.696C177.81 883.038 179.81 882.77 180.965 881.249C182.119 879.639 181.888 877.313 180.58 875.971C179.349 874.808 178.118 873.555 176.887 872.392C176.271 871.766 175.502 871.498 174.809 871.498ZM187.197 883.396C186.273 883.396 185.35 883.843 184.658 884.827C183.581 886.438 183.734 888.764 185.119 890.106C186.35 891.269 187.658 892.431 188.889 893.594C190.274 894.847 192.275 894.579 193.429 892.968C194.506 891.358 194.275 889.032 192.89 887.69C191.659 886.527 190.351 885.364 189.12 884.201C188.582 883.664 187.889 883.396 187.197 883.396ZM199.815 894.936C198.815 894.936 197.892 895.473 197.276 896.368C196.199 897.978 196.43 900.393 197.892 901.646C199.2 902.809 200.431 903.972 201.739 905.045C203.124 906.298 205.201 905.94 206.278 904.33C207.355 902.719 207.047 900.304 205.663 899.052C204.355 897.889 203.124 896.815 201.816 895.652C201.2 895.205 200.508 894.936 199.815 894.936ZM212.664 906.208C211.664 906.208 210.741 906.745 210.048 907.729C208.971 909.429 209.279 911.755 210.741 912.918C211.895 913.902 212.972 914.886 214.126 915.87C215.588 917.122 217.588 916.765 218.589 915.065C219.666 913.365 219.358 911.039 217.896 909.876C216.742 908.892 215.665 907.998 214.511 907.013C213.972 906.477 213.28 906.208 212.664 906.208Z" fill="url(#paint0_linear)"/>
<defs>
<linearGradient id="paint0_linear" x1="0.0534738" y1="458.594" x2="1341" y2="458.594" gradientUnits="userSpaceOnUse">
<stop stop-color="#DAE3FE"/>
<stop offset="1" stop-color="#E9EFFD"/>
</linearGradient>
</defs>
</svg>
