<svg width="27" height="15" viewBox="0 0 27 15" fill="none" xmlns="http://www.w3.org/2000/svg">
<path d="M11.7548 7.95088L11.7525 7.50826C11.7525 5.66872 11.8818 3.99165 12.0765 2.89838L12.2471 2.21854C12.342 1.85848 12.4668 1.4485 12.5969 1.23921C13.0731 0.473655 14.0042 0 15.0007 0H15.0874C15.737 0.0178998 17.1018 0.492932 17.1018 0.509455C19.2977 1.27729 23.5343 3.59465 25.491 5.24674L26.0596 5.74273C26.2085 5.87716 26.3758 6.03626 26.4796 6.16027C26.8265 6.54305 27 7.01671 27 7.49036C27 8.01909 26.8053 8.51065 26.4371 8.9127L25.8529 9.43809L25.722 9.55021C23.9466 11.1543 19.3108 13.7773 16.8858 14.58L16.5196 14.697C16.079 14.8286 15.4617 14.9855 15.0874 15C14.6112 15 14.1563 14.9077 13.7227 14.726C13.1811 14.4713 12.7491 14.0692 12.5102 13.5956C12.358 13.2679 12.1191 12.2834 12.1191 12.2655C11.9001 11.2728 11.7731 9.70648 11.7548 7.95088ZM0 7.49945C0 6.45162 1.00962 5.60207 2.25488 5.60207L7.80372 6.01101C8.78062 6.01101 9.57261 6.67744 9.57261 7.49945C9.57261 8.32284 8.78062 8.98788 7.80372 8.98788L2.25488 9.39682C1.00962 9.39682 0 8.54727 0 7.49945Z" fill="#FF6C65"/>
</svg>
