<svg width="1341" height="1014" viewBox="0 0 1341 1014" fill="none" xmlns="http://www.w3.org/2000/svg">
<g id="Arrow">
<path id="point" d="M193 975.215L249.08 940.742C250.163 940.115 251.408 939.899 252.627 940.218C253.846 940.536 254.867 941.316 255.485 942.4L287.571 1000.12C287.971 1000.77 287.878 1001.62 287.434 1002.18C286.965 1002.8 286.195 1003.01 285.459 1002.83L193 975.215Z" fill="#91B3FA"/>
<path id="line" d="M770.1 -6.10352e-05C768.484 -6.10352e-05 766.868 -6.10352e-05 765.252 -6.10352e-05C763.483 -6.10352e-05 762.021 1.75525 762.098 3.88019C762.098 6.00513 763.56 7.66815 765.329 7.66815C766.945 7.66815 768.561 7.66815 770.1 7.66815C771.869 7.66815 773.331 5.91272 773.331 3.78778C773.331 1.75525 771.869 -6.10352e-05 770.1 -6.10352e-05ZM781.41 -6.10352e-05C779.64 -6.10352e-05 778.179 1.66284 778.179 3.78778C778.179 5.91272 779.563 7.66815 781.333 7.66815C782.949 7.66815 784.565 7.66821 786.103 7.76062C787.873 7.76062 789.335 6.09747 789.335 3.97253C789.335 1.8476 787.95 0.0922241 786.18 0.0922241C784.642 0.0922241 783.026 0.0923462 781.41 -6.10352e-05ZM754.019 0.184631C752.326 0.184631 750.711 0.276978 749.095 0.276978C747.325 0.369324 745.94 2.12476 745.94 4.24969C746.017 6.37463 747.479 8.0376 749.249 8.0376C750.865 7.94519 752.48 7.94537 754.019 7.94537C755.789 7.94537 757.174 6.18988 757.174 3.97253C757.251 1.8476 755.789 0.184631 754.019 0.184631ZM797.414 0.369446C795.644 0.369446 794.259 2.03253 794.182 4.15747C794.105 6.28241 795.567 8.0376 797.337 8.13L802.107 8.31482C803.8 8.31482 805.339 6.74432 805.416 4.61938C805.493 2.49445 804.108 0.739014 802.338 0.646606L797.491 0.461853C797.491 0.369507 797.491 0.369446 797.414 0.369446ZM738.015 0.738892H737.938C736.323 0.831238 734.707 0.923889 733.091 0.923889C731.322 1.01624 729.937 2.77148 730.014 4.89642C730.091 7.02136 731.629 8.68439 733.322 8.59198C734.938 8.49963 736.554 8.40729 738.092 8.40729C739.862 8.31488 741.247 6.55945 741.17 4.43451C741.17 2.40198 739.708 0.738892 738.015 0.738892ZM813.494 1.10852C811.802 1.10852 810.34 2.67908 810.263 4.80402C810.186 6.92896 811.571 8.77686 813.34 8.86926C814.956 8.96167 816.572 9.05414 818.111 9.14648C819.88 9.23889 821.419 7.57568 821.496 5.45074C821.573 3.32581 820.188 1.47815 818.418 1.3858C816.803 1.2934 815.187 1.20093 813.571 1.10852C813.571 1.10852 813.571 1.10852 813.494 1.10852ZM721.935 1.57043C721.858 1.57043 721.858 1.57043 721.781 1.57043C720.165 1.66284 718.549 1.75525 716.934 1.8476C715.164 1.94 713.779 3.78784 713.933 5.91278C714.01 8.03772 715.549 9.70062 717.318 9.51581C718.934 9.42346 720.55 9.33112 722.089 9.23877C723.858 9.14636 725.243 7.29865 725.166 5.17371C725.089 3.14111 723.628 1.57043 721.935 1.57043ZM829.575 2.12488C827.882 2.12488 826.497 3.69537 826.343 5.72791C826.266 7.85291 827.574 9.70068 829.344 9.79309C830.96 9.8855 832.576 10.0702 834.114 10.1626C835.884 10.3474 837.423 8.68439 837.577 6.55945C837.731 4.43451 836.346 2.58673 834.576 2.40198C832.96 2.30957 831.345 2.12482 829.729 2.03247C829.729 2.12482 829.652 2.12488 829.575 2.12488ZM705.931 2.6792C705.854 2.6792 705.777 2.6792 705.7 2.6792C704.085 2.77161 702.469 2.9563 700.853 3.04871C699.083 3.23346 697.776 5.08124 697.852 7.20618C698.006 9.33112 699.545 10.9018 701.315 10.8094C702.93 10.717 704.546 10.5322 706.085 10.4398C707.855 10.2549 709.163 8.49963 709.086 6.37469C709.009 4.24976 707.547 2.6792 705.931 2.6792ZM845.579 3.60303C843.963 3.60303 842.501 5.08124 842.347 7.11377C842.193 9.23871 843.501 11.0864 845.271 11.2712C846.887 11.4559 848.425 11.6409 850.041 11.7332C851.811 11.918 853.35 10.3475 853.503 8.2226C853.657 6.09766 852.349 4.24982 850.58 4.065C848.964 3.88025 847.348 3.69543 845.732 3.60303C845.732 3.60303 845.656 3.60303 845.579 3.60303ZM689.851 4.15747C689.774 4.15747 689.697 4.15747 689.62 4.15747C688.004 4.34222 686.388 4.43457 684.772 4.61938C683.003 4.80414 681.695 6.65192 681.849 8.77686C682.003 10.9018 683.541 12.4723 685.311 12.2875C686.927 12.1027 688.466 11.918 690.081 11.8256C691.851 11.6408 693.159 9.79309 693.005 7.66815C692.928 5.63562 691.543 4.15747 689.851 4.15747ZM861.582 5.35846C859.967 5.35846 858.582 6.83673 858.351 8.86926C858.197 10.9942 859.428 12.8419 861.198 13.1191C862.813 13.3038 864.352 13.4886 865.968 13.7658C867.738 13.9506 869.353 12.4724 869.507 10.3474C869.661 8.22247 868.43 6.28241 866.66 6.0976C865.045 5.91284 863.429 5.72797 861.813 5.45074C861.813 5.3584 861.736 5.35846 861.582 5.35846ZM673.847 5.82037C673.77 5.82037 673.616 5.82037 673.539 5.82037C671.923 6.00513 670.308 6.18988 668.692 6.37469C666.922 6.55945 665.614 8.49963 665.845 10.6246C665.999 12.7495 667.615 14.3201 669.384 14.043C671 13.8582 672.539 13.6735 674.155 13.4886C675.924 13.3039 677.232 11.3637 677.078 9.23877C676.924 7.39099 675.54 5.82037 673.847 5.82037ZM877.586 7.48334C875.97 7.48334 874.585 8.96161 874.431 10.9017C874.201 13.0267 875.508 14.9669 877.201 15.2441C878.817 15.5212 880.356 15.7058 881.972 15.983C883.741 16.2601 885.357 14.7821 885.588 12.6572C885.818 10.5322 884.588 8.59198 882.818 8.31482C881.202 8.03766 879.586 7.85284 878.048 7.57568C877.817 7.48328 877.663 7.48334 877.586 7.48334ZM657.92 7.85291C657.766 7.85291 657.689 7.85291 657.535 7.85291C655.92 8.03772 654.304 8.31482 652.765 8.49957C650.995 8.77673 649.764 10.6245 649.918 12.7494C650.149 14.8743 651.765 16.3528 653.458 16.168C655.073 15.9832 656.612 15.7059 658.228 15.5211C659.998 15.244 661.229 13.3961 661.075 11.2712C660.921 9.33099 659.536 7.85291 657.92 7.85291ZM893.513 10.0703C891.974 10.0703 890.589 11.4561 890.358 13.3962C890.127 15.5212 891.358 17.4613 893.051 17.7385C894.667 18.0156 896.206 18.2929 897.821 18.5701C899.591 18.8472 901.207 17.4614 901.438 15.3364C901.668 13.2115 900.514 11.2714 898.745 10.9941C897.129 10.717 895.59 10.4398 893.974 10.1626C893.82 10.0702 893.667 10.0703 893.513 10.0703ZM641.916 10.1626C641.763 10.1626 641.686 10.1626 641.532 10.1626C639.916 10.4398 638.3 10.6246 636.761 10.9017C634.992 11.1789 633.761 13.1191 633.992 15.2441C634.222 17.369 635.838 18.8472 637.608 18.5701C639.224 18.2929 640.762 18.108 642.378 17.8308C644.148 17.5536 645.379 15.6136 645.148 13.4886C644.917 11.5485 643.532 10.1626 641.916 10.1626ZM625.99 12.6572C625.836 12.6572 625.682 12.6572 625.528 12.6572C623.912 12.9343 622.374 13.2115 620.758 13.4886C618.988 13.7658 617.757 15.7059 618.065 17.8308C618.296 19.9557 619.911 21.434 621.681 21.0645C623.297 20.7873 624.836 20.5102 626.451 20.233C628.221 19.9559 629.452 18.0157 629.221 15.8907C628.99 14.1353 627.605 12.6572 625.99 12.6572ZM909.362 12.9343C907.824 12.9343 906.439 14.3202 906.208 16.168C905.9 18.2929 907.131 20.233 908.901 20.6025C910.517 20.8797 912.055 21.2493 913.671 21.5264C915.441 21.896 917.057 20.5101 917.364 18.3852C917.672 16.2603 916.518 14.3201 914.748 13.9506C913.133 13.6734 911.594 13.3038 909.978 13.0267C909.747 12.9343 909.593 12.9343 909.362 12.9343ZM610.14 15.5211C609.986 15.5211 609.832 15.5211 609.678 15.5211C608.063 15.7983 606.524 16.0754 604.908 16.4449C603.138 16.8145 601.984 18.7549 602.215 20.8798C602.523 23.0048 604.139 24.3905 605.908 24.1133C607.524 23.8362 609.063 23.559 610.679 23.1895C612.448 22.8199 613.602 20.8798 613.372 18.7548C613.064 16.907 611.679 15.5211 610.14 15.5211ZM925.212 16.2603C923.673 16.2603 922.365 17.5538 922.058 19.4016C921.75 21.5265 922.904 23.4667 924.674 23.9286C926.212 24.2982 927.828 24.6677 929.367 24.9449C931.137 25.3144 932.829 23.9285 933.137 21.8959C933.445 19.771 932.291 17.7385 930.598 17.3689C928.982 16.9993 927.443 16.6298 925.828 16.2603C925.597 16.2603 925.443 16.2603 925.212 16.2603ZM594.213 18.5701C594.059 18.5701 593.828 18.57 593.675 18.6624C592.059 18.9396 590.52 19.309 588.904 19.5862C587.135 19.9557 585.981 21.896 586.288 24.0209C586.596 26.1459 588.289 27.5317 589.982 27.1622C591.597 26.7926 593.136 26.5154 594.752 26.2383C596.521 25.8687 597.676 23.9286 597.368 21.8037C597.137 19.8635 595.829 18.5701 594.213 18.5701ZM940.985 19.8635C939.523 19.8635 938.138 21.1569 937.831 22.9123C937.446 25.0372 938.6 27.0697 940.37 27.4393C941.908 27.8088 943.524 28.1784 945.063 28.6403C946.833 29.1023 948.525 27.7164 948.833 25.6838C949.218 23.5589 948.064 21.5265 946.371 21.157C944.755 20.7874 943.216 20.3254 941.601 19.9558C941.447 19.9558 941.216 19.8635 940.985 19.8635ZM578.44 21.8959C578.286 21.8959 578.056 21.896 577.902 21.9883C576.286 22.3579 574.747 22.6351 573.131 23.0046C571.362 23.3741 570.208 25.4067 570.516 27.5317C570.823 29.6566 572.516 31.0425 574.286 30.6729C575.824 30.3033 577.44 30.0262 578.979 29.6567C580.749 29.2871 581.903 27.2545 581.595 25.1295C581.287 23.1893 579.979 21.8959 578.44 21.8959ZM956.681 23.9286C955.219 23.9286 953.911 25.1296 953.526 26.9774C953.142 29.0099 954.219 31.1348 955.989 31.5967C957.527 32.0587 959.143 32.4283 960.682 32.8903C962.375 33.3522 964.144 32.0589 964.529 30.0264C964.914 27.9938 963.836 25.8687 962.144 25.4068C960.605 24.9448 958.989 24.5753 957.45 24.1133C957.22 24.021 956.912 23.9286 956.681 23.9286ZM562.591 25.4068C562.36 25.4068 562.206 25.4068 561.975 25.4992C560.359 25.8688 558.82 26.2382 557.205 26.6078C555.435 26.9773 554.358 29.0099 554.666 31.1349C554.974 33.2599 556.666 34.5533 558.436 34.1837C559.975 33.8142 561.59 33.4445 563.129 33.0749C564.899 32.7053 565.976 30.673 565.668 28.5481C565.514 26.7003 564.129 25.4068 562.591 25.4068ZM972.377 28.4555C970.915 28.4555 969.607 29.6567 969.222 31.4121C968.761 33.4446 969.838 35.5695 971.531 36.1238C973.069 36.5858 974.608 37.0478 976.147 37.5097C977.84 38.0641 979.609 36.7705 980.071 34.738C980.533 32.7054 979.456 30.5807 977.763 30.0264C976.224 29.5644 974.608 29.1023 973.069 28.6403C972.839 28.4556 972.608 28.4555 972.377 28.4555ZM546.895 29.1024C546.664 29.1024 546.433 29.1023 546.279 29.1947C544.663 29.5642 543.125 29.9338 541.586 30.3958C539.816 30.8577 538.739 32.8903 539.124 34.9228C539.508 37.0477 541.201 38.3412 542.894 37.8793C544.433 37.5098 546.048 37.1401 547.587 36.6782C549.357 36.2162 550.434 34.1837 550.126 32.1511C549.665 30.3957 548.357 29.1024 546.895 29.1024ZM531.122 33.0749C530.891 33.0749 530.66 33.0751 530.429 33.1675L525.736 34.3685C523.966 34.8304 522.889 36.8629 523.274 38.9879C523.659 41.1129 525.351 42.4064 527.121 41.9445L531.814 40.7433C533.584 40.2814 534.661 38.2488 534.276 36.1238C533.969 34.3684 532.584 33.0749 531.122 33.0749ZM987.919 33.2599C986.534 33.2599 985.226 34.3684 984.841 36.1238C984.38 38.1564 985.38 40.2813 987.073 40.8356C988.611 41.2975 990.15 41.8519 991.689 42.4063C993.382 42.9606 995.151 41.7596 995.613 39.7271C996.075 37.6945 995.074 35.5696 993.382 35.0153C991.843 34.4609 990.304 33.9989 988.688 33.4446C988.458 33.2598 988.15 33.2599 987.919 33.2599ZM515.426 37.325C515.195 37.325 514.964 37.3249 514.734 37.4173L510.04 38.7107C508.347 39.1727 507.27 41.2977 507.655 43.3302C508.04 45.3627 509.809 46.6561 511.502 46.1942L516.195 44.9008C517.888 44.4388 519.042 42.3139 518.581 40.2814C518.273 38.526 516.888 37.325 515.426 37.325ZM1003.38 38.526C1002 38.526 1000.69 39.6345 1000.31 41.2975C999.768 43.3301 1000.77 45.4551 1002.46 46.1019C1004 46.6562 1005.54 47.2105 1007.08 47.7648C1008.77 48.4116 1010.54 47.2106 1011.08 45.178C1011.62 43.1455 1010.62 41.0203 1008.92 40.3737C1007.38 39.8193 1005.85 39.2651 1004.31 38.7107C1003.92 38.5259 1003.61 38.526 1003.38 38.526ZM499.807 41.6672C499.576 41.6672 499.345 41.6672 499.038 41.7595L494.344 43.1454C492.651 43.6073 491.574 45.7323 491.959 47.7648C492.344 49.7974 494.113 51.0907 495.806 50.6287L500.499 49.2429C502.192 48.781 503.269 46.6561 502.885 44.6235C502.577 42.8682 501.269 41.6672 499.807 41.6672ZM1018.7 44.1616C1017.31 44.1616 1016.08 45.1779 1015.62 46.8409C1015.08 48.8735 1016 50.9985 1017.69 51.6451C1019.23 52.1995 1020.77 52.8461 1022.23 53.4005C1023.93 54.0472 1025.77 52.9385 1026.31 50.906C1026.85 48.8735 1025.93 46.6561 1024.23 46.0093C1022.7 45.3626 1021.16 44.8085 1019.62 44.2541C1019.39 44.2541 1019 44.1616 1018.7 44.1616ZM484.188 46.2866C483.957 46.2866 483.649 46.2866 483.419 46.379L478.725 47.7648C477.033 48.3192 475.955 50.3517 476.417 52.4767C476.879 54.5092 478.571 55.8027 480.341 55.2483L485.034 53.8624C486.727 53.308 487.804 51.2755 487.343 49.1506C486.958 47.3952 485.65 46.2866 484.188 46.2866ZM1033.93 50.2593C1032.62 50.2593 1031.31 51.2756 1030.85 52.8462C1030.31 54.8787 1031.16 57.0961 1032.85 57.7428C1034.39 58.3895 1035.85 59.0362 1037.39 59.5906C1039.08 60.3297 1040.93 59.2211 1041.47 57.1885C1042.09 55.156 1041.16 52.9385 1039.47 52.2918C1037.93 51.6451 1036.39 50.9985 1034.93 50.3517C1034.62 50.2593 1034.31 50.2593 1033.93 50.2593ZM468.646 50.9984C468.415 50.9984 468.107 50.9985 467.8 51.0908L463.106 52.5691C461.414 53.1234 460.336 55.2484 460.798 57.2809C461.26 59.3135 463.029 60.6068 464.722 60.0525L469.415 58.5743C471.108 58.02 472.185 55.895 471.724 53.8624C471.339 52.1994 470.031 50.9984 468.646 50.9984ZM453.104 55.9874C452.796 55.9874 452.565 55.9874 452.258 56.0797L447.564 57.558C445.872 58.1123 444.871 60.2374 445.333 62.27C445.795 64.3025 447.564 65.5034 449.257 64.949L453.873 63.4709C455.566 62.9166 456.566 60.7917 456.105 58.7592C455.797 57.0961 454.489 55.9874 453.104 55.9874ZM1049.09 56.7266C1047.78 56.7266 1046.55 57.6505 1046.09 59.2211C1045.47 61.2536 1046.32 63.4709 1048.01 64.21C1049.47 64.8568 1051.01 65.5034 1052.47 66.2426C1054.16 66.9816 1056.01 65.9653 1056.63 64.0252C1057.24 61.9927 1056.4 59.7754 1054.78 59.0363C1053.24 58.3896 1051.78 57.6504 1050.24 57.0037C1049.86 56.8188 1049.47 56.7266 1049.09 56.7266ZM437.562 61.0688C437.254 61.0688 436.946 61.1611 436.716 61.2535L432.099 62.8243C430.406 63.3786 429.406 65.5035 429.868 67.6284C430.329 69.661 432.099 70.862 433.869 70.3077L438.485 68.7371C440.178 68.1827 441.178 66.0578 440.716 63.9329C440.255 62.1775 439.024 61.0688 437.562 61.0688ZM1064.09 63.6557C1062.78 63.6557 1061.63 64.5797 1061.09 66.0579C1060.4 67.998 1061.24 70.3076 1062.86 71.0468C1064.32 71.7859 1065.86 72.4326 1067.32 73.1717C1068.94 74.0032 1070.86 72.9869 1071.48 71.0468C1072.17 69.1066 1071.32 66.797 1069.71 66.0579C1068.24 65.3187 1066.71 64.5796 1065.24 63.9329C1064.86 63.7481 1064.47 63.6557 1064.09 63.6557ZM422.174 66.3348C421.866 66.3348 421.558 66.4274 421.25 66.5198L416.634 68.1827C414.941 68.7371 413.941 70.9543 414.48 72.9869C414.941 75.0195 416.788 76.2205 418.481 75.5738L423.097 73.9108C424.79 73.3565 425.79 71.1392 425.251 69.1066C424.79 67.4436 423.559 66.3348 422.174 66.3348ZM1078.94 70.9543C1077.71 70.9543 1076.48 71.8782 1076.02 73.264C1075.32 75.2042 1076.09 77.5139 1077.71 78.3454C1079.17 79.0845 1080.63 79.8236 1082.09 80.6552C1083.71 81.4866 1085.63 80.5628 1086.33 78.6226C1087.02 76.6825 1086.25 74.3727 1084.63 73.5413C1083.17 72.8021 1081.63 71.9707 1080.17 71.2316C1079.79 71.0468 1079.32 70.9543 1078.94 70.9543ZM406.709 71.7858C406.401 71.7858 406.093 71.8784 405.785 71.9708L401.169 73.6336C399.476 74.2803 398.476 76.4055 399.015 78.438C399.553 80.4705 401.323 81.6714 403.016 81.0247L407.632 79.3618C409.325 78.7151 410.325 76.59 409.786 74.5575C409.402 72.8945 408.094 71.7858 406.709 71.7858ZM391.321 77.4214C391.013 77.4214 390.705 77.514 390.397 77.6064L385.781 79.3618C384.088 80.0085 383.165 82.1333 383.626 84.1659C384.165 86.1984 385.935 87.3072 387.627 86.7529L392.244 85.0898C393.936 84.4431 394.86 82.3182 394.398 80.2856C394.013 78.5303 392.705 77.4214 391.321 77.4214ZM1093.64 78.7151C1092.4 78.7151 1091.25 79.5464 1090.71 80.9323C1089.94 82.8724 1090.71 85.1823 1092.33 86.0138C1093.79 86.8453 1095.25 87.5844 1096.71 88.4158C1098.33 89.3397 1100.25 88.5082 1100.94 86.5681C1101.71 84.6279 1101.02 82.3181 1099.41 81.4866C1097.94 80.6552 1096.48 79.8237 1095.02 79.0847C1094.56 78.8075 1094.1 78.7151 1093.64 78.7151ZM376.009 83.1498C375.702 83.1498 375.394 83.2421 375.009 83.3345L370.393 85.0898C368.7 85.7365 367.777 87.954 368.315 89.9865C368.854 92.019 370.7 93.1276 372.393 92.4809L377.01 90.7255C378.702 90.0788 379.626 87.9539 379.087 85.9214C378.625 84.2584 377.394 83.1498 376.009 83.1498ZM1108.18 86.9377C1106.95 86.9377 1105.87 87.7691 1105.25 89.1549C1104.48 91.0951 1105.18 93.4048 1106.72 94.3287C1108.18 95.1602 1109.56 95.9916 1111.02 96.8231C1112.64 97.747 1114.56 97.008 1115.33 95.0678C1116.1 93.1277 1115.49 90.8179 1113.87 89.894C1112.41 89.0625 1110.95 88.2311 1109.49 87.3073C1109.1 87.0301 1108.64 86.9377 1108.18 86.9377ZM360.698 89.0627C360.39 89.0627 360.006 89.155 359.698 89.2474L355.081 91.0027C353.389 91.6495 352.465 93.8667 353.004 95.8992C353.543 97.9318 355.389 99.0406 357.082 98.3939L361.621 96.6384C363.314 95.9917 364.237 93.7743 363.699 91.7418C363.314 90.0787 362.083 89.0627 360.698 89.0627ZM345.464 95.1603C345.156 95.1603 344.771 95.2526 344.464 95.345L339.924 97.1927C338.231 97.8395 337.308 100.057 337.924 102.089C338.462 104.122 340.309 105.231 342.002 104.491L346.541 102.644C348.234 101.997 349.157 99.7795 348.541 97.7469C348.003 96.1764 346.772 95.1603 345.464 95.1603ZM1122.57 95.5298C1121.41 95.5298 1120.26 96.2688 1119.72 97.6547C1118.87 99.5024 1119.49 101.905 1121.1 102.828C1122.49 103.752 1123.95 104.584 1125.34 105.508C1126.87 106.524 1128.87 105.785 1129.64 103.845C1130.49 101.997 1129.87 99.5948 1128.26 98.6709C1126.8 97.747 1125.41 96.9156 1123.95 95.9918C1123.57 95.6222 1123.03 95.5298 1122.57 95.5298ZM330.23 101.35C329.845 101.35 329.537 101.443 329.152 101.535C327.614 102.182 326.075 102.828 324.613 103.475C322.92 104.214 322.074 106.339 322.612 108.372C323.228 110.404 324.998 111.421 326.69 110.774C328.229 110.127 329.691 109.48 331.23 108.834C332.923 108.095 333.769 105.97 333.23 103.937C332.769 102.367 331.538 101.35 330.23 101.35ZM1136.72 104.584C1135.57 104.584 1134.49 105.323 1133.88 106.617C1133.03 108.464 1133.57 110.866 1135.18 111.883C1136.57 112.806 1137.95 113.73 1139.42 114.654C1140.95 115.67 1142.95 115.024 1143.8 113.176C1144.65 111.328 1144.11 108.926 1142.57 107.91C1141.18 106.986 1139.72 106.062 1138.34 105.046C1137.8 104.769 1137.26 104.584 1136.72 104.584ZM315.072 107.817C314.688 107.817 314.303 107.91 313.995 108.095C312.456 108.741 310.994 109.388 309.456 110.035C307.763 110.774 306.917 112.991 307.532 115.024C308.148 117.056 309.994 118.073 311.687 117.333C313.226 116.687 314.688 116.04 316.226 115.393C317.919 114.654 318.765 112.437 318.15 110.497C317.611 108.741 316.38 107.817 315.072 107.817ZM1150.73 114.1C1149.65 114.1 1148.57 114.747 1147.96 116.04C1147.03 117.888 1147.57 120.198 1149.11 121.306C1150.49 122.23 1151.88 123.246 1153.26 124.263C1154.8 125.371 1156.73 124.725 1157.65 122.877C1158.57 121.029 1158.03 118.719 1156.5 117.611C1155.11 116.594 1153.73 115.67 1152.34 114.654C1151.8 114.285 1151.26 114.1 1150.73 114.1ZM299.992 114.469C299.607 114.469 299.223 114.562 298.838 114.747C297.299 115.393 295.837 116.132 294.298 116.779C292.606 117.518 291.836 119.736 292.452 121.768C293.067 123.801 294.914 124.725 296.606 123.985C298.068 123.339 299.607 122.6 301.069 121.953C302.762 121.214 303.531 118.996 302.916 116.964C302.531 115.486 301.3 114.469 299.992 114.469ZM284.988 121.491C284.604 121.491 284.219 121.583 283.834 121.768C282.372 122.507 280.834 123.246 279.372 123.893C277.756 124.725 276.91 126.942 277.602 128.882C278.295 130.822 280.141 131.838 281.757 131.007C283.219 130.268 284.758 129.529 286.22 128.882C287.835 128.051 288.682 125.833 287.989 123.893C287.527 122.415 286.296 121.491 284.988 121.491ZM1164.5 124.078C1163.42 124.078 1162.34 124.725 1161.73 125.926C1160.8 127.773 1161.27 130.083 1162.73 131.284C1164.11 132.3 1165.42 133.317 1166.81 134.333C1168.34 135.442 1170.27 134.887 1171.27 133.132C1172.27 131.377 1171.73 128.974 1170.27 127.773C1168.88 126.757 1167.5 125.741 1166.19 124.725C1165.65 124.263 1165.11 124.078 1164.5 124.078ZM270.139 128.79C269.754 128.79 269.293 128.882 268.908 129.067C267.446 129.806 265.907 130.545 264.445 131.284C262.83 132.116 262.06 134.425 262.753 136.366C263.445 138.306 265.369 139.23 266.984 138.398C268.446 137.659 269.908 136.92 271.447 136.181C273.063 135.349 273.832 133.132 273.14 131.099C272.601 129.621 271.37 128.79 270.139 128.79ZM1178.04 134.425C1176.96 134.425 1175.96 135.072 1175.35 136.181C1174.35 137.936 1174.81 140.338 1176.27 141.539C1177.58 142.556 1178.96 143.664 1180.27 144.681C1181.73 145.882 1183.73 145.42 1184.73 143.664C1185.73 141.909 1185.35 139.507 1183.89 138.306C1182.58 137.197 1181.19 136.181 1179.81 135.072C1179.27 134.61 1178.66 134.425 1178.04 134.425ZM255.366 136.366C254.905 136.366 254.52 136.458 254.058 136.735C252.596 137.474 251.135 138.306 249.596 139.137C247.98 139.969 247.287 142.278 247.98 144.219C248.672 146.159 250.596 146.99 252.212 146.159C253.674 145.327 255.135 144.588 256.597 143.849C258.213 143.018 258.982 140.708 258.213 138.768C257.751 137.197 256.597 136.366 255.366 136.366ZM240.748 144.311C240.286 144.311 239.824 144.403 239.363 144.681C237.901 145.512 236.439 146.343 234.977 147.175C233.361 148.099 232.669 150.409 233.438 152.349C234.208 154.289 236.131 155.121 237.747 154.197C239.209 153.365 240.671 152.534 242.056 151.702C243.671 150.778 244.364 148.468 243.594 146.528C243.056 145.142 241.902 144.311 240.748 144.311ZM1191.35 145.235C1190.35 145.235 1189.35 145.789 1188.73 146.898C1187.73 148.653 1188.04 151.055 1189.5 152.256C1190.81 153.365 1192.12 154.474 1193.43 155.583C1194.89 156.784 1196.89 156.414 1197.89 154.659C1198.89 152.903 1198.58 150.501 1197.12 149.3C1195.81 148.191 1194.5 147.083 1193.12 145.974C1192.66 145.512 1191.97 145.235 1191.35 145.235ZM226.206 152.718C225.744 152.718 225.206 152.811 224.821 153.088C223.359 153.919 221.897 154.843 220.512 155.675C218.896 156.599 218.281 159.001 219.127 160.849C219.897 162.789 221.82 163.528 223.436 162.512C224.898 161.68 226.283 160.756 227.745 159.925C229.36 159.001 229.976 156.691 229.206 154.751C228.591 153.457 227.437 152.718 226.206 152.718ZM1204.43 156.506C1203.43 156.506 1202.51 157.061 1201.81 158.077C1200.74 159.832 1201.04 162.234 1202.51 163.435C1203.81 164.544 1205.05 165.745 1206.35 166.854C1207.74 168.147 1209.82 167.778 1210.82 166.115C1211.89 164.452 1211.59 161.957 1210.2 160.664C1208.89 159.463 1207.58 158.354 1206.28 157.153C1205.74 156.784 1205.05 156.506 1204.43 156.506ZM211.895 161.495C211.356 161.495 210.895 161.68 210.433 161.957C208.971 162.881 207.586 163.805 206.124 164.729C204.585 165.745 203.97 168.055 204.816 169.995C205.663 171.843 207.586 172.582 209.202 171.566C210.587 170.642 212.049 169.718 213.434 168.886C214.972 167.87 215.588 165.56 214.742 163.713C214.203 162.234 213.049 161.495 211.895 161.495ZM1217.2 168.24C1216.28 168.24 1215.28 168.702 1214.66 169.718C1213.59 171.381 1213.82 173.783 1215.2 175.169C1216.43 176.37 1217.74 177.571 1218.97 178.772C1220.36 180.065 1222.36 179.881 1223.51 178.218C1224.59 176.555 1224.43 174.153 1223.05 172.767C1221.82 171.566 1220.51 170.365 1219.28 169.164C1218.59 168.517 1217.89 168.24 1217.2 168.24ZM197.815 170.642C197.276 170.642 196.737 170.827 196.276 171.104C194.891 172.028 193.429 173.044 192.044 173.968C190.505 174.984 189.967 177.386 190.89 179.234C191.736 181.082 193.737 181.728 195.276 180.62C196.66 179.696 198.045 178.68 199.43 177.756C200.969 176.739 201.508 174.337 200.661 172.49C200.046 171.381 198.892 170.642 197.815 170.642ZM183.888 180.343C183.35 180.343 182.734 180.527 182.273 180.897C180.888 181.913 179.503 182.929 178.118 183.946C176.579 185.054 176.117 187.456 177.041 189.212C177.964 191.06 179.964 191.614 181.426 190.505C182.811 189.489 184.119 188.473 185.504 187.549C187.043 186.44 187.505 184.038 186.581 182.283C186.043 180.989 184.965 180.343 183.888 180.343ZM1229.67 180.435C1228.74 180.435 1227.82 180.897 1227.2 181.821C1226.05 183.484 1226.2 185.886 1227.59 187.272C1228.82 188.473 1230.05 189.766 1231.21 190.967C1232.51 192.353 1234.59 192.168 1235.74 190.598C1236.9 189.027 1236.75 186.533 1235.44 185.147C1234.21 183.853 1232.98 182.652 1231.74 181.359C1231.13 180.712 1230.36 180.435 1229.67 180.435ZM170.27 190.505C169.654 190.505 169.039 190.69 168.5 191.152C167.115 192.168 165.807 193.277 164.422 194.293C162.96 195.494 162.499 197.896 163.499 199.652C164.499 201.407 166.5 201.961 167.962 200.76C169.27 199.744 170.655 198.636 171.963 197.619C173.424 196.511 173.886 194.109 172.963 192.261C172.347 191.152 171.347 190.505 170.27 190.505ZM1241.75 193.092C1240.9 193.092 1239.98 193.554 1239.36 194.386C1238.21 195.956 1238.28 198.451 1239.59 199.837C1240.75 201.13 1241.98 202.423 1243.13 203.717C1244.44 205.195 1246.44 205.103 1247.67 203.532C1248.9 201.961 1248.82 199.559 1247.52 198.081C1246.36 196.788 1245.13 195.402 1243.9 194.109C1243.29 193.462 1242.52 193.092 1241.75 193.092ZM156.882 201.222C156.267 201.222 155.651 201.407 155.036 201.869C154.189 202.608 153.343 203.255 152.497 203.994L151.035 205.195C149.573 206.396 149.265 208.798 150.265 210.554C151.265 212.309 153.266 212.679 154.728 211.478L156.113 210.277C156.959 209.537 157.805 208.891 158.652 208.152C160.114 206.951 160.498 204.548 159.498 202.793C158.883 201.777 157.882 201.222 156.882 201.222ZM1253.52 206.304C1252.67 206.304 1251.83 206.673 1251.21 207.505C1249.98 208.983 1249.98 211.478 1251.29 212.956C1252.44 214.249 1253.6 215.635 1254.67 217.021C1255.9 218.499 1257.98 218.499 1259.21 217.021C1260.44 215.543 1260.44 213.048 1259.21 211.57C1258.06 210.184 1256.9 208.798 1255.75 207.505C1255.13 206.673 1254.29 206.304 1253.52 206.304ZM143.802 212.494C143.11 212.494 142.494 212.771 141.879 213.233C140.571 214.434 139.263 215.543 138.032 216.744C136.647 218.037 136.339 220.439 137.416 222.195C138.493 223.858 140.494 224.227 141.956 222.934C143.264 221.733 144.495 220.624 145.803 219.515C147.265 218.222 147.495 215.82 146.495 214.157C145.803 212.956 144.802 212.494 143.802 212.494ZM1264.75 220.07C1263.98 220.07 1263.14 220.439 1262.52 221.086C1261.21 222.564 1261.14 224.966 1262.37 226.537C1263.44 227.923 1264.52 229.309 1265.6 230.787C1266.83 232.357 1268.83 232.45 1270.14 231.064C1271.45 229.586 1271.52 227.184 1270.37 225.613C1269.29 224.135 1268.14 222.749 1267.06 221.363C1266.44 220.532 1265.6 220.07 1264.75 220.07ZM131.107 224.227C130.415 224.227 129.722 224.504 129.107 225.059C127.875 226.26 126.567 227.461 125.336 228.754C123.951 230.14 123.798 232.542 124.875 234.205C126.029 235.868 128.029 236.053 129.414 234.759C130.645 233.558 131.876 232.357 133.107 231.156C134.492 229.863 134.723 227.368 133.569 225.705C132.954 224.689 132.03 224.227 131.107 224.227ZM1275.45 234.482C1274.68 234.482 1273.98 234.759 1273.37 235.406C1271.98 236.792 1271.83 239.194 1272.98 240.857C1273.98 242.335 1275.06 243.814 1276.06 245.199C1277.22 246.862 1279.22 247.047 1280.6 245.661C1281.99 244.276 1282.14 241.873 1280.99 240.21C1279.99 238.732 1278.91 237.254 1277.83 235.776C1277.29 234.944 1276.37 234.482 1275.45 234.482ZM118.72 236.607C117.95 236.607 117.258 236.884 116.642 237.531C115.411 238.825 114.18 240.118 112.949 241.411C111.641 242.797 111.487 245.292 112.641 246.862C113.795 248.433 115.873 248.618 117.181 247.232C118.412 245.939 119.566 244.737 120.797 243.444C122.105 242.058 122.259 239.656 121.105 237.993C120.566 237.069 119.643 236.607 118.72 236.607ZM1285.6 249.449C1284.91 249.449 1284.22 249.727 1283.6 250.281C1282.22 251.574 1281.91 253.976 1282.99 255.732C1283.99 257.21 1284.91 258.781 1285.91 260.259C1286.99 261.922 1288.99 262.291 1290.37 260.998C1291.76 259.704 1292.07 257.302 1290.99 255.639C1289.99 254.069 1289.06 252.498 1288.06 251.02C1287.53 249.911 1286.6 249.449 1285.6 249.449ZM106.794 249.449C106.024 249.449 105.255 249.819 104.562 250.466C103.408 251.759 102.177 253.145 101.023 254.438C99.7152 255.917 99.7152 258.319 100.946 259.889C102.177 261.46 104.178 261.46 105.486 259.982C106.64 258.688 107.794 257.302 108.948 256.009C110.256 254.531 110.333 252.129 109.102 250.558C108.563 249.911 107.64 249.449 106.794 249.449ZM95.3296 262.938C94.4832 262.938 93.6369 263.308 93.0213 264.047C91.8672 265.432 90.79 266.818 89.6359 268.204C88.4049 269.775 88.4818 272.177 89.7129 273.655C91.0209 275.133 93.0213 275.041 94.2524 273.563C95.3296 272.177 96.4837 270.791 97.5608 269.405C98.7919 267.927 98.7919 265.432 97.5608 263.954C96.9453 263.308 96.099 262.938 95.3296 262.938ZM1295.07 264.971C1294.45 264.971 1293.84 265.155 1293.22 265.617C1291.76 266.818 1291.37 269.22 1292.37 270.976C1293.3 272.546 1294.14 274.117 1295.07 275.688C1296.07 277.443 1298.07 277.905 1299.53 276.796C1300.99 275.595 1301.38 273.193 1300.45 271.438C1299.53 269.775 1298.61 268.204 1297.68 266.634C1297.14 265.525 1296.14 264.971 1295.07 264.971ZM84.2501 276.981C83.4038 276.981 82.4805 277.443 81.8649 278.275C80.7878 279.753 79.7106 281.139 78.6334 282.617C77.4793 284.187 77.5563 286.682 78.9412 288.068C80.2492 289.453 82.3266 289.361 83.4807 287.698C84.5579 286.22 85.635 284.834 86.6353 283.448C87.7894 281.878 87.7124 279.383 86.4044 277.997C85.7889 277.351 85.0195 276.981 84.2501 276.981ZM1303.84 281.139C1303.3 281.139 1302.68 281.323 1302.14 281.693C1300.61 282.802 1300.14 285.204 1301.07 286.959C1301.91 288.622 1302.68 290.193 1303.53 291.856C1304.45 293.703 1306.38 294.35 1307.92 293.242C1309.45 292.133 1309.99 289.823 1309.07 287.975C1308.22 286.312 1307.45 284.649 1306.61 282.894C1305.99 281.878 1304.91 281.139 1303.84 281.139ZM73.7092 291.578C72.7859 291.578 71.8626 292.04 71.2471 292.964C70.2469 294.443 69.1697 296.013 68.1695 297.491C67.0923 299.154 67.2462 301.557 68.6311 302.942C70.0161 304.328 72.0165 304.051 73.1706 302.388C74.1709 300.91 75.1711 299.432 76.1713 297.953C77.3254 296.29 77.0946 293.888 75.7866 292.502C75.1711 291.856 74.4786 291.578 73.7092 291.578ZM1311.69 297.953C1311.15 297.953 1310.69 298.138 1310.22 298.415C1308.68 299.432 1308.07 301.741 1308.84 303.589C1309.61 305.252 1310.3 307.007 1310.99 308.67C1311.76 310.611 1313.69 311.35 1315.3 310.426C1316.92 309.502 1317.53 307.192 1316.76 305.252C1316.07 303.497 1315.3 301.741 1314.53 299.986C1313.99 298.692 1312.84 297.953 1311.69 297.953ZM63.7839 306.73C62.7836 306.73 61.8603 307.285 61.2448 308.301C60.2446 309.871 59.3213 311.442 58.3211 313.013C57.2439 314.768 57.5517 317.17 59.0135 318.371C60.4754 319.665 62.4759 319.295 63.4761 317.54C64.3994 315.969 65.3996 314.491 66.3229 312.92C67.4001 311.257 67.0923 308.763 65.7074 307.469C65.0919 306.915 64.3994 306.73 63.7839 306.73ZM1318.69 315.322C1318.23 315.322 1317.84 315.415 1317.38 315.692C1315.76 316.523 1314.99 318.833 1315.76 320.773C1316.38 322.529 1316.99 324.284 1317.61 326.04C1318.3 327.98 1320.15 328.904 1321.84 328.164C1323.46 327.333 1324.23 325.116 1323.61 323.083C1323 321.235 1322.38 319.48 1321.69 317.725C1321.07 316.246 1319.92 315.322 1318.69 315.322ZM54.3971 322.344C53.3969 322.344 52.3966 322.898 51.7042 324.007C50.7809 325.578 49.8576 327.241 49.0112 328.904C48.011 330.659 48.4726 333.061 49.9345 334.262C51.3964 335.463 53.3969 334.909 54.3971 333.153C55.2434 331.583 56.1667 330.012 57.09 328.349C58.0902 326.594 57.7056 324.192 56.2437 322.991C55.6282 322.621 55.0126 322.344 54.3971 322.344ZM1324.61 333.246C1324.23 333.246 1323.92 333.338 1323.53 333.431C1321.84 334.17 1321 336.387 1321.61 338.327C1322.15 340.083 1322.69 341.93 1323.15 343.686C1323.69 345.718 1325.53 346.827 1327.23 346.088C1328.92 345.441 1329.84 343.224 1329.23 341.191C1328.69 339.343 1328.15 337.496 1327.61 335.648C1327.23 334.262 1326 333.246 1324.61 333.246ZM45.6259 338.604C44.5487 338.604 43.4715 339.251 42.856 340.452C42.0096 342.115 41.1633 343.778 40.3169 345.441C39.3936 347.289 39.9322 349.599 41.471 350.707C43.0099 351.816 44.9334 351.169 45.8567 349.321C46.703 347.658 47.4724 346.088 48.3188 344.425C49.2421 342.577 48.7804 340.267 47.2416 339.159C46.78 338.789 46.1644 338.604 45.6259 338.604ZM1329.54 351.631C1329.23 351.631 1329 351.631 1328.69 351.816C1327 352.37 1326 354.495 1326.46 356.528C1326.84 358.376 1327.3 360.223 1327.69 362.071C1328.15 364.104 1329.84 365.397 1331.61 364.843C1333.31 364.288 1334.38 362.256 1333.92 360.131C1333.54 358.191 1333.08 356.343 1332.69 354.495C1332.23 352.832 1330.92 351.631 1329.54 351.631ZM37.5471 355.234C36.393 355.234 35.3158 355.973 34.7003 357.267C33.9309 359.022 33.1615 360.685 32.392 362.441C31.5457 364.288 32.1612 366.691 33.777 367.614C35.3158 368.631 37.3163 367.892 38.0857 365.951C38.8551 364.288 39.5475 362.533 40.3169 360.87C41.1633 359.022 40.6247 356.62 39.0089 355.604C38.6242 355.419 38.0857 355.234 37.5471 355.234ZM1333.23 370.478C1333 370.478 1332.84 370.478 1332.61 370.571C1330.84 371.033 1329.77 373.065 1330.07 375.098C1330.38 376.946 1330.69 378.793 1331 380.734C1331.31 382.858 1333 384.244 1334.69 383.875C1336.46 383.505 1337.61 381.473 1337.31 379.44C1337 377.5 1336.69 375.56 1336.38 373.712C1336.08 371.68 1334.77 370.478 1333.23 370.478ZM30.2377 372.419C29.0067 372.419 27.8525 373.25 27.314 374.636C26.6215 376.391 25.929 378.147 25.2366 379.902C24.4672 381.842 25.2366 384.152 26.8523 384.983C28.4681 385.907 30.3916 384.983 31.084 383.043C31.7765 381.288 32.392 379.625 33.0845 377.87C33.8539 375.929 33.1614 373.62 31.5457 372.696C31.161 372.603 30.6994 372.419 30.2377 372.419ZM1335.84 389.511C1335.69 389.511 1335.54 389.511 1335.46 389.511C1333.69 389.788 1332.46 391.728 1332.69 393.853C1332.92 395.701 1333.08 397.641 1333.23 399.488C1333.38 401.613 1335 403.092 1336.77 402.907C1338.54 402.722 1339.85 400.782 1339.61 398.657C1339.46 396.717 1339.23 394.777 1339.08 392.836C1338.85 390.896 1337.46 389.511 1335.84 389.511ZM23.7747 390.065C22.5436 390.065 21.3126 390.989 20.774 392.467C20.1585 394.315 19.5429 396.07 18.9274 397.918C18.3119 399.858 19.0813 402.168 20.774 402.907C22.4667 403.646 24.3133 402.722 24.9288 400.69C25.4674 398.934 26.0829 397.179 26.6984 395.423C27.3909 393.483 26.6215 391.174 24.9288 390.434C24.5441 390.157 24.1594 390.065 23.7747 390.065ZM18.0811 408.173C16.7731 408.173 15.4651 409.189 15.0034 410.76C14.4649 412.608 13.9263 414.455 13.4646 416.303C12.926 418.336 13.8493 420.553 15.542 421.2C17.2347 421.847 19.0813 420.738 19.6199 418.705C20.0815 416.858 20.6201 415.102 21.1587 413.254C21.6973 411.222 20.8509 409.005 19.1582 408.358C18.7735 408.173 18.4658 408.173 18.0811 408.173ZM1337.38 408.635C1337.31 408.635 1337.23 408.635 1337.15 408.635C1335.38 408.727 1334 410.575 1334.15 412.7C1334.23 414.64 1334.31 416.488 1334.38 418.428C1334.46 420.553 1335.92 422.216 1337.69 422.124C1339.46 422.031 1340.85 420.276 1340.77 418.151C1340.69 416.211 1340.62 414.271 1340.54 412.331C1340.46 410.298 1339 408.635 1337.38 408.635ZM13.3107 426.558C11.9258 426.558 10.6178 427.667 10.2331 429.422C9.77147 431.27 9.38677 433.21 9.00206 435.058C8.54042 437.091 9.61759 439.216 11.3103 439.77C13.003 440.324 14.7726 439.031 15.2343 436.998C15.619 435.151 16.0806 433.303 16.4653 431.455C16.927 429.422 15.9267 427.297 14.234 426.743C13.9263 426.558 13.6185 426.558 13.3107 426.558ZM1337.77 427.944C1336 427.944 1334.54 429.7 1334.54 431.825C1334.54 433.765 1334.54 435.612 1334.46 437.553C1334.38 439.678 1335.84 441.433 1337.61 441.525C1339.38 441.618 1340.85 439.862 1340.92 437.737C1341 435.797 1341 433.857 1341 431.917C1341 429.7 1339.54 427.944 1337.77 427.944ZM547.818 445.036C547.587 445.036 547.279 445.036 547.049 445.129C545.356 445.59 544.279 447.715 544.663 449.748C545.048 451.688 545.433 453.536 545.894 455.476C546.356 457.509 548.126 458.802 549.818 458.248C551.511 457.693 552.588 455.568 552.127 453.536C551.742 451.688 551.357 449.84 550.973 447.993C550.588 446.237 549.28 445.036 547.818 445.036ZM9.46371 445.313C8.00184 445.313 6.6169 446.514 6.30914 448.362C6.00137 450.302 5.61667 452.15 5.30891 454.09C5.00114 456.215 6.07831 458.248 7.84795 458.617C9.61759 458.987 11.3103 457.693 11.6181 455.568C11.9258 453.721 12.2336 451.873 12.5413 449.933C12.926 447.808 11.7719 445.775 10.0792 445.313C9.92536 445.313 9.69453 445.313 9.46371 445.313ZM1337.15 447.253C1335.46 447.253 1334.08 448.824 1333.92 450.857C1333.84 452.797 1333.69 454.645 1333.54 456.585C1333.38 458.71 1334.69 460.557 1336.46 460.742C1338.23 460.927 1339.77 459.356 1339.92 457.231C1340.08 455.291 1340.23 453.351 1340.31 451.411C1340.46 449.286 1339.08 447.438 1337.31 447.253C1337.31 447.253 1337.23 447.253 1337.15 447.253ZM552.05 463.699C551.742 463.699 551.434 463.791 551.126 463.883C549.434 464.53 548.51 466.655 548.972 468.688C549.434 470.535 549.972 472.383 550.434 474.231C550.973 476.263 552.819 477.372 554.512 476.725C556.205 476.079 557.128 473.861 556.589 471.829C556.128 469.981 555.589 468.226 555.127 466.378C554.743 464.715 553.435 463.699 552.05 463.699ZM6.53996 464.253C5.00115 464.253 3.61621 465.639 3.38539 467.487C3.15457 469.427 2.92375 471.367 2.69293 473.307C2.4621 475.432 3.69316 477.372 5.4628 477.649C7.23243 477.926 8.84819 476.448 9.07901 474.323C9.30983 472.476 9.54065 470.535 9.77147 468.688C10.0792 466.563 8.84818 464.623 7.07854 464.253C6.92466 464.253 6.77078 464.253 6.53996 464.253ZM1335.54 466.47C1333.92 466.47 1332.54 467.856 1332.38 469.796C1332.15 471.644 1331.92 473.584 1331.69 475.432C1331.46 477.557 1332.61 479.497 1334.38 479.867C1336.15 480.236 1337.77 478.758 1338.08 476.633C1338.31 474.693 1338.54 472.753 1338.77 470.813C1339 468.688 1337.77 466.747 1336 466.47C1335.84 466.47 1335.69 466.47 1335.54 466.47ZM557.205 481.992C556.82 481.992 556.435 482.084 556.051 482.269C554.358 483.008 553.512 485.225 554.127 487.258C554.666 489.105 555.281 490.953 555.897 492.709C556.512 494.649 558.436 495.665 560.052 494.926C561.667 494.187 562.514 491.877 561.898 489.937C561.283 488.182 560.744 486.334 560.205 484.578C559.744 482.915 558.513 481.992 557.205 481.992ZM4.61644 483.377C3.00069 483.377 1.61576 484.856 1.38494 486.888C1.23105 488.828 1.07717 490.768 0.923286 492.709C0.769405 494.834 2.0774 496.681 3.84704 496.866C5.61667 497.051 7.15549 495.48 7.30937 493.355C7.46325 491.415 7.54019 489.567 7.69407 487.627C7.84795 485.502 6.53996 483.655 4.77032 483.377C4.77032 483.377 4.69338 483.377 4.61644 483.377ZM1332.92 485.502C1331.38 485.502 1330.07 486.796 1329.77 488.644C1329.46 490.491 1329.15 492.339 1328.84 494.279C1328.46 496.404 1329.61 498.437 1331.31 498.899C1333.08 499.361 1334.77 497.975 1335.15 495.942C1335.46 494.002 1335.84 492.154 1336.15 490.214C1336.46 488.089 1335.38 486.057 1333.61 485.687C1333.38 485.502 1333.15 485.502 1332.92 485.502ZM563.283 499.823C562.821 499.823 562.437 499.915 561.975 500.192C560.359 501.024 559.59 503.333 560.359 505.273C560.975 507.029 561.667 508.877 562.36 510.632C563.129 512.572 564.976 513.404 566.592 512.572C568.207 511.648 568.9 509.431 568.207 507.491C567.515 505.735 566.899 503.98 566.284 502.225C565.668 500.654 564.514 499.823 563.283 499.823ZM3.46233 502.687C1.76964 502.687 0.307765 504.35 0.230825 506.382C0.153884 508.322 0.0769454 510.262 0.0769454 512.203C4.70047e-06 514.328 1.46187 516.083 3.23151 516.175C5.00114 516.268 6.46302 514.512 6.53996 512.387C6.6169 510.447 6.6169 508.599 6.69384 506.659C6.77078 504.534 5.38585 502.687 3.61621 502.687C3.61621 502.687 3.53927 502.687 3.46233 502.687ZM1329.38 504.257C1327.92 504.257 1326.61 505.366 1326.3 507.121C1325.92 508.969 1325.46 510.817 1325.07 512.665C1324.61 514.697 1325.61 516.822 1327.3 517.376C1329 517.931 1330.77 516.73 1331.23 514.697C1331.69 512.849 1332.07 510.909 1332.46 509.061C1332.92 507.029 1331.84 504.904 1330.15 504.35C1329.92 504.35 1329.61 504.257 1329.38 504.257ZM570.131 517.284C569.669 517.284 569.131 517.376 568.669 517.746C567.053 518.67 566.438 521.072 567.284 522.92C568.053 524.675 568.746 526.431 569.515 528.094C570.362 529.941 572.285 530.68 573.824 529.756C575.363 528.74 575.978 526.431 575.209 524.583C574.439 522.92 573.747 521.164 573.055 519.501C572.439 518.023 571.285 517.284 570.131 517.284ZM3.23151 521.903C1.38493 521.903 0 523.659 0 525.784C0 527.724 0.0769454 529.664 0.0769454 531.604C0.153886 533.729 1.61575 535.392 3.38539 535.392C5.15502 535.3 6.53996 533.544 6.53996 531.419C6.46302 529.479 6.46302 527.632 6.46302 525.691C6.46302 523.659 5.00114 521.903 3.23151 521.903ZM1324.92 522.827C1323.53 522.827 1322.3 523.844 1321.84 525.507C1321.38 527.354 1320.84 529.11 1320.3 530.958C1319.76 532.99 1320.61 535.207 1322.3 535.854C1324 536.501 1325.84 535.485 1326.38 533.452C1326.92 531.604 1327.46 529.756 1327.92 527.909C1328.46 525.876 1327.54 523.659 1325.84 523.012C1325.53 522.92 1325.23 522.827 1324.92 522.827ZM577.748 534.284C577.209 534.284 576.671 534.468 576.132 534.838C574.593 535.854 574.055 538.256 574.978 540.104C575.747 541.767 576.594 543.522 577.44 545.185C578.363 547.033 580.287 547.587 581.826 546.571C583.365 545.463 583.826 543.153 582.98 541.305C582.134 539.642 581.364 537.979 580.595 536.316C579.979 534.93 578.902 534.284 577.748 534.284ZM1319.53 541.028C1318.23 541.028 1317.07 541.952 1316.53 543.522C1315.99 545.278 1315.38 547.033 1314.76 548.881C1314.07 550.821 1314.84 553.131 1316.53 553.962C1318.15 554.794 1320.07 553.87 1320.76 551.837C1321.38 549.99 1322 548.234 1322.61 546.386C1323.23 544.446 1322.46 542.137 1320.76 541.397C1320.3 541.12 1319.92 541.028 1319.53 541.028ZM3.92398 541.213C3.84704 541.213 3.7701 541.213 3.69316 541.213C1.92352 541.305 0.615521 543.153 0.692462 545.278C0.769403 547.218 0.923284 549.158 1.07717 551.098C1.23105 553.223 2.76986 554.794 4.5395 554.609C6.30913 554.424 7.61713 552.577 7.46325 550.452C7.30937 548.511 7.23243 546.664 7.15549 544.723C7.00161 542.783 5.53974 541.213 3.92398 541.213ZM586.134 550.729C585.519 550.729 584.903 550.913 584.365 551.375C582.903 552.484 582.441 554.886 583.442 556.734C584.288 558.397 585.211 559.968 586.134 561.631C587.135 563.386 589.135 563.848 590.597 562.739C592.059 561.538 592.444 559.136 591.52 557.381C590.674 555.81 589.751 554.24 588.904 552.577C588.212 551.375 587.135 550.729 586.134 550.729ZM1313.22 558.767C1311.99 558.767 1310.84 559.598 1310.3 560.984C1309.61 562.739 1308.99 564.402 1308.3 566.158C1307.53 568.098 1308.22 570.408 1309.84 571.331C1311.45 572.255 1313.38 571.424 1314.15 569.484C1314.84 567.728 1315.53 565.973 1316.22 564.217C1316.99 562.277 1316.22 559.968 1314.61 559.136C1314.15 558.859 1313.69 558.767 1313.22 558.767ZM5.30891 560.43C5.15502 560.43 5.07808 560.43 4.9242 560.43C3.15457 560.707 1.92352 562.554 2.0774 564.679C2.23128 566.62 2.4621 568.56 2.69293 570.5C2.92375 572.625 4.5395 574.103 6.30914 573.826C8.07877 573.549 9.30983 571.609 9.07901 569.484C8.84819 567.543 8.69431 565.696 8.54043 563.755C8.3096 561.908 6.92466 560.43 5.30891 560.43ZM595.136 566.712C594.521 566.712 593.828 566.989 593.29 567.451C591.828 568.652 591.52 571.147 592.521 572.81C593.444 574.38 594.444 575.951 595.367 577.521C596.445 579.277 598.445 579.554 599.83 578.353C601.292 577.06 601.523 574.657 600.522 572.994C599.599 571.424 598.676 569.946 597.676 568.375C597.137 567.266 596.137 566.712 595.136 566.712ZM1306.15 576.043C1304.99 576.043 1303.91 576.782 1303.3 578.076C1302.53 579.739 1301.76 581.402 1300.99 583.065C1300.14 584.913 1300.68 587.315 1302.22 588.331C1303.76 589.347 1305.76 588.7 1306.61 586.853C1307.38 585.19 1308.15 583.434 1308.92 581.679C1309.76 579.831 1309.15 577.429 1307.61 576.413C1307.15 576.228 1306.61 576.043 1306.15 576.043ZM7.54019 579.554C7.38631 579.554 7.15549 579.554 7.00161 579.646C5.23197 580.016 4.07786 581.956 4.30869 584.081C4.53951 586.021 4.84726 587.961 5.15503 589.809C5.46279 591.934 7.15549 593.32 8.84818 592.95C10.6178 592.581 11.7719 590.548 11.4642 588.516C11.1564 586.668 10.9256 584.728 10.6948 582.88C10.4639 580.847 9.07901 579.554 7.54019 579.554ZM604.831 582.049C604.139 582.049 603.446 582.326 602.831 582.88C601.446 584.173 601.215 586.668 602.292 588.331C603.292 589.902 604.292 591.38 605.37 592.858C606.524 594.521 608.524 594.798 609.909 593.412C611.294 592.026 611.525 589.624 610.371 587.961C609.371 586.483 608.37 585.005 607.37 583.527C606.678 582.603 605.754 582.049 604.831 582.049ZM1298.14 592.858C1297.07 592.858 1295.99 593.505 1295.37 594.706C1294.53 596.369 1293.68 597.939 1292.83 599.602C1291.91 601.358 1292.3 603.76 1293.84 604.961C1295.3 606.07 1297.3 605.608 1298.3 603.76C1299.14 602.097 1300.07 600.434 1300.91 598.771C1301.84 596.923 1301.38 594.613 1299.84 593.505C1299.3 592.95 1298.68 592.858 1298.14 592.858ZM615.064 596.923C614.295 596.923 613.525 597.2 612.987 597.847C611.679 599.233 611.525 601.727 612.679 603.298C613.756 604.776 614.833 606.254 615.911 607.64C617.065 609.211 619.142 609.396 620.45 607.917C621.758 606.531 621.912 604.037 620.681 602.466C619.604 601.081 618.526 599.602 617.526 598.217C616.911 597.385 615.987 596.923 615.064 596.923ZM10.4639 598.494C10.2331 598.494 10.0023 598.494 9.77147 598.586C8.00183 599.048 6.92467 601.081 7.30937 603.205C7.61713 605.146 8.00183 606.993 8.38653 608.934C8.77124 610.966 10.5409 612.352 12.2336 611.89C13.9263 611.428 15.0804 609.396 14.6957 607.271C14.311 605.423 14.0032 603.575 13.6955 601.635C13.3107 599.787 12.0028 598.494 10.4639 598.494ZM1289.37 608.934C1288.37 608.934 1287.37 609.488 1286.76 610.597C1286.37 611.336 1285.91 611.982 1285.53 612.722C1284.99 613.553 1284.53 614.477 1283.99 615.308C1282.91 617.064 1283.29 619.466 1284.68 620.667C1286.14 621.96 1288.14 621.498 1289.14 619.835C1289.68 619.004 1290.22 618.08 1290.68 617.156C1291.07 616.417 1291.53 615.77 1291.91 615.031C1292.91 613.276 1292.6 610.874 1291.14 609.673C1290.6 609.211 1289.99 608.934 1289.37 608.934ZM625.913 611.151C625.143 611.151 624.297 611.52 623.682 612.26C622.374 613.738 622.373 616.14 623.605 617.711C624.759 619.096 625.836 620.482 626.99 621.868C628.221 623.346 630.298 623.439 631.529 621.96C632.761 620.482 632.838 617.988 631.606 616.509C630.452 615.124 629.375 613.738 628.298 612.352C627.605 611.52 626.759 611.151 625.913 611.151ZM14.1571 617.249C13.9263 617.249 13.6185 617.249 13.3107 617.341C11.6181 617.895 10.5409 620.02 11.0025 622.053C11.3872 623.901 11.8489 625.841 12.2336 627.688C12.6952 629.721 14.4649 630.922 16.1576 630.368C17.8502 629.813 18.8505 627.688 18.3888 625.656C18.0041 623.808 17.5425 621.96 17.1578 620.113C16.927 618.45 15.619 617.249 14.1571 617.249ZM1279.76 624.455C1278.83 624.455 1277.83 624.917 1277.22 625.933C1276.22 627.411 1275.22 628.89 1274.22 630.368C1273.06 632.031 1273.29 634.433 1274.68 635.819C1276.06 637.204 1278.06 636.927 1279.22 635.264C1280.22 633.786 1281.22 632.215 1282.29 630.737C1283.37 629.074 1283.14 626.672 1281.76 625.286C1281.22 624.732 1280.45 624.455 1279.76 624.455ZM637.3 624.824C636.454 624.824 635.607 625.194 634.992 626.025C633.761 627.596 633.838 629.998 635.069 631.476C636.223 632.862 637.454 634.156 638.608 635.449C639.916 636.927 641.917 636.835 643.148 635.264C644.379 633.694 644.302 631.292 642.994 629.813C641.84 628.52 640.685 627.227 639.531 625.841C638.916 625.194 638.069 624.824 637.3 624.824ZM18.5427 635.819C18.235 635.819 17.9272 635.911 17.6194 636.003C15.9267 636.65 15.0034 638.775 15.4651 640.808C15.9267 642.655 16.4653 644.503 16.927 646.351C17.4655 648.384 19.3121 649.492 21.0048 648.845C22.6975 648.199 23.6208 645.981 23.0822 643.949C22.6206 642.101 22.082 640.346 21.6203 638.498C21.2356 636.927 19.9277 635.819 18.5427 635.819ZM649.149 637.851C648.226 637.851 647.379 638.313 646.764 639.145C645.61 640.715 645.763 643.21 647.072 644.596C648.303 645.889 649.534 647.182 650.765 648.384C652.15 649.769 654.15 649.585 655.304 647.922C656.458 646.259 656.304 643.857 654.919 642.471C653.688 641.27 652.534 639.976 651.303 638.683C650.688 638.128 649.918 637.851 649.149 637.851ZM1269.52 639.237C1268.6 639.237 1267.75 639.699 1267.14 640.531C1266.06 642.009 1265.06 643.395 1263.98 644.78C1262.75 646.351 1262.91 648.753 1264.21 650.231C1265.52 651.71 1267.52 651.525 1268.75 649.954C1269.83 648.476 1270.91 647.09 1271.98 645.612C1273.14 644.041 1273.06 641.547 1271.68 640.161C1271.06 639.607 1270.29 639.237 1269.52 639.237ZM661.536 650.139C660.613 650.139 659.69 650.601 658.997 651.617C657.92 653.28 658.151 655.682 659.536 657.068C660.767 658.269 662.075 659.47 663.383 660.671C664.768 661.965 666.768 661.688 667.922 660.025C669 658.362 668.769 655.959 667.384 654.574C666.153 653.373 664.845 652.171 663.614 651.063C662.921 650.416 662.229 650.139 661.536 650.139ZM1258.6 653.373C1257.75 653.373 1256.9 653.742 1256.29 654.574C1255.21 655.959 1254.06 657.253 1252.9 658.639C1251.67 660.117 1251.59 662.611 1252.9 664.09C1254.13 665.568 1256.21 665.66 1257.44 664.09C1258.6 662.704 1259.75 661.318 1260.9 659.932C1262.14 658.454 1262.14 655.959 1260.83 654.481C1260.21 653.742 1259.37 653.373 1258.6 653.373ZM23.6208 654.204C23.2361 654.204 22.9283 654.296 22.5436 654.389C20.8509 655.128 20.0046 657.345 20.6201 659.285C21.1587 661.133 21.6973 662.981 22.3128 664.736C22.9283 666.769 24.7749 667.785 26.4676 667.046C28.1603 666.307 29.0066 664.09 28.3911 662.057C27.8525 660.302 27.314 658.454 26.7754 656.699C26.1598 655.128 24.9288 654.204 23.6208 654.204ZM674.309 661.872C673.308 661.872 672.308 662.427 671.693 663.443C670.615 665.198 670.923 667.6 672.385 668.801C673.693 669.91 675.001 671.111 676.309 672.22C677.771 673.421 679.771 673.051 680.772 671.296C681.772 669.541 681.464 667.138 680.002 665.937C678.694 664.829 677.386 663.72 676.155 662.611C675.617 662.149 674.924 661.872 674.309 661.872ZM1247.06 666.861C1246.29 666.861 1245.52 667.231 1244.9 667.878C1243.75 669.171 1242.52 670.464 1241.36 671.758C1240.05 673.144 1239.9 675.638 1241.13 677.209C1242.28 678.779 1244.36 678.964 1245.67 677.486C1246.9 676.193 1248.06 674.899 1249.29 673.606C1250.59 672.127 1250.67 669.725 1249.44 668.155C1248.75 667.231 1247.9 666.861 1247.06 666.861ZM29.3144 672.22C28.9297 672.22 28.4681 672.312 28.0834 672.497C26.4676 673.328 25.6213 675.546 26.3137 677.486C26.9293 679.334 27.5448 681.089 28.1603 682.845C28.8528 684.785 30.6994 685.709 32.392 684.877C34.0078 684.046 34.7772 681.828 34.0847 679.796C33.4692 678.04 32.8537 676.285 32.2382 674.53C31.7765 673.144 30.6224 672.22 29.3144 672.22ZM687.388 673.051C686.388 673.051 685.311 673.606 684.695 674.714C683.695 676.47 684.08 678.872 685.542 680.073C686.85 681.182 688.235 682.198 689.62 683.306C691.082 684.508 693.082 683.953 694.082 682.198C695.082 680.442 694.621 678.04 693.159 676.839C691.851 675.823 690.466 674.714 689.158 673.698C688.696 673.236 688.004 673.051 687.388 673.051ZM1234.9 679.519C1234.21 679.519 1233.44 679.796 1232.82 680.442C1231.59 681.643 1230.36 682.844 1229.13 684.046C1227.74 685.339 1227.51 687.833 1228.67 689.496C1229.74 691.16 1231.82 691.437 1233.21 690.051C1234.44 688.85 1235.74 687.556 1236.98 686.355C1238.36 684.969 1238.51 682.567 1237.36 680.904C1236.75 679.98 1235.82 679.519 1234.9 679.519ZM700.93 683.491C699.853 683.491 698.776 684.138 698.16 685.339C697.237 687.187 697.698 689.496 699.16 690.698C700.545 691.714 701.93 692.73 703.315 693.746C704.854 694.855 706.778 694.301 707.701 692.453C708.624 690.605 708.162 688.295 706.624 687.187C705.239 686.171 703.931 685.154 702.546 684.23C702.084 683.676 701.469 683.491 700.93 683.491ZM35.7005 689.958C35.2388 689.958 34.7772 690.051 34.3925 690.328C32.7767 691.252 32.0843 693.469 32.7768 695.409C33.4692 697.165 34.1617 698.92 34.8541 700.676C35.6236 702.616 37.5471 703.447 39.1628 702.523C40.7786 701.599 41.471 699.29 40.7016 697.35C40.0092 695.594 39.3167 693.839 38.7012 692.176C38.0857 690.79 36.9315 689.958 35.7005 689.958ZM1222.28 691.437C1221.59 691.437 1220.9 691.714 1220.36 692.176C1219.05 693.284 1217.82 694.485 1216.51 695.594C1215.05 696.888 1214.74 699.29 1215.82 700.953C1216.89 702.708 1218.9 703.078 1220.28 701.784C1221.59 700.676 1222.9 699.474 1224.2 698.273C1225.59 696.98 1225.9 694.578 1224.82 692.915C1224.28 691.991 1223.28 691.437 1222.28 691.437ZM714.702 693.377C713.548 693.377 712.471 694.116 711.933 695.317C711.086 697.165 711.625 699.567 713.164 700.583C714.549 701.507 716.01 702.523 717.395 703.447C718.934 704.463 720.935 703.817 721.781 701.969C722.627 700.121 722.089 697.719 720.55 696.703C719.165 695.779 717.78 694.855 716.395 693.839C715.78 693.562 715.241 693.377 714.702 693.377ZM728.783 702.616C727.628 702.616 726.474 703.355 725.936 704.648C725.089 706.496 725.705 708.898 727.321 709.822C728.783 710.746 730.168 711.577 731.629 712.501C733.245 713.518 735.169 712.686 735.938 710.838C736.784 708.898 736.092 706.588 734.553 705.665C733.168 704.833 731.706 703.909 730.321 702.985C729.86 702.8 729.321 702.616 728.783 702.616ZM1209.2 702.616C1208.58 702.616 1207.97 702.8 1207.43 703.262C1206.12 704.371 1204.81 705.387 1203.43 706.404C1201.97 707.605 1201.51 710.007 1202.51 711.762C1203.51 713.518 1205.51 714.072 1206.97 712.871C1208.35 711.762 1209.66 710.746 1211.05 709.637C1212.51 708.436 1212.89 706.034 1211.89 704.279C1211.28 703.262 1210.28 702.616 1209.2 702.616ZM42.6252 707.327C42.1635 707.327 41.6249 707.42 41.1633 707.789C39.5475 708.713 38.932 711.115 39.7784 712.963C40.5478 714.719 41.2402 716.474 42.0096 718.137C42.856 719.985 44.7795 720.724 46.3183 719.8C47.8571 718.784 48.4727 716.474 47.7032 714.626C46.9338 712.963 46.2414 711.208 45.5489 709.545C44.9334 708.067 43.7793 707.327 42.6252 707.327ZM743.17 711.3C741.939 711.3 740.862 712.132 740.247 713.518C739.477 715.458 740.17 717.767 741.709 718.691C743.17 719.523 744.632 720.354 746.094 721.186C747.71 722.11 749.634 721.278 750.403 719.338C751.172 717.398 750.48 715.088 748.864 714.164C747.402 713.333 745.94 712.501 744.555 711.67C744.094 711.393 743.632 711.3 743.17 711.3ZM1195.66 713.056C1195.12 713.056 1194.5 713.24 1193.97 713.61C1192.58 714.626 1191.27 715.55 1189.89 716.566C1188.35 717.675 1187.89 719.985 1188.73 721.833C1189.66 723.68 1191.58 724.235 1193.12 723.218C1194.5 722.202 1195.89 721.186 1197.27 720.17C1198.81 719.061 1199.28 716.659 1198.35 714.903C1197.81 713.702 1196.74 713.056 1195.66 713.056ZM757.712 719.43C756.481 719.43 755.327 720.262 754.789 721.74C754.096 723.68 754.789 725.99 756.404 726.822C757.866 727.653 759.328 728.392 760.867 729.131C762.483 729.963 764.406 729.039 765.099 727.099C765.791 725.159 765.022 722.849 763.406 722.017C761.944 721.278 760.482 720.447 759.02 719.708C758.636 719.523 758.174 719.43 757.712 719.43ZM1181.81 722.756C1181.27 722.756 1180.73 722.941 1180.27 723.218C1178.89 724.142 1177.5 725.066 1176.04 725.898C1174.5 726.914 1173.88 729.224 1174.73 731.071C1175.58 732.919 1177.5 733.658 1179.04 732.642C1180.5 731.718 1181.89 730.794 1183.35 729.87C1184.89 728.854 1185.5 726.544 1184.66 724.604C1184.04 723.496 1182.89 722.756 1181.81 722.756ZM50.1654 724.327C49.6268 724.327 49.0882 724.512 48.6265 724.789C47.0877 725.805 46.5491 728.207 47.3955 730.055C48.1649 731.718 49.0112 733.474 49.7807 735.137C50.627 736.984 52.6275 737.631 54.1663 736.522C55.7051 735.506 56.2437 733.104 55.3204 731.256C54.551 729.593 53.7046 727.93 52.9352 726.267C52.3966 725.066 51.3195 724.327 50.1654 724.327ZM772.562 726.914C771.331 726.914 770.1 727.838 769.561 729.316C768.869 731.256 769.715 733.566 771.331 734.305C772.793 735.044 774.331 735.783 775.793 736.522C777.409 737.261 779.333 736.338 779.948 734.397C780.641 732.457 779.794 730.148 778.179 729.408C776.717 728.669 775.178 728.023 773.716 727.283C773.331 727.006 772.946 726.914 772.562 726.914ZM1167.5 731.626C1167.04 731.626 1166.58 731.718 1166.11 731.995C1164.65 732.827 1163.27 733.658 1161.81 734.49C1160.19 735.414 1159.5 737.723 1160.27 739.664C1161.04 741.604 1162.96 742.435 1164.57 741.511C1166.04 740.68 1167.5 739.848 1168.96 738.924C1170.58 738.001 1171.19 735.691 1170.42 733.751C1169.81 732.457 1168.73 731.626 1167.5 731.626ZM787.488 733.935C786.18 733.935 784.949 734.859 784.488 736.43C783.872 738.463 784.718 740.68 786.411 741.419C787.95 742.066 789.412 742.805 790.951 743.451C792.643 744.191 794.49 743.174 795.105 741.142C795.721 739.109 794.875 736.892 793.182 736.153C791.643 735.506 790.181 734.859 788.719 734.12C788.258 734.028 787.873 733.935 787.488 733.935ZM1152.96 739.756C1152.5 739.756 1152.11 739.848 1151.65 740.126C1150.19 740.865 1148.72 741.696 1147.26 742.435C1145.65 743.267 1144.88 745.576 1145.57 747.517C1146.26 749.457 1148.19 750.381 1149.8 749.549C1151.26 748.81 1152.8 747.979 1154.26 747.239C1155.88 746.408 1156.65 744.098 1155.88 742.158C1155.34 740.68 1154.19 739.756 1152.96 739.756ZM802.646 740.495C801.338 740.495 800.03 741.511 799.568 743.082C799.029 745.114 799.876 747.332 801.569 747.979C803.107 748.625 804.646 749.18 806.185 749.826C807.878 750.473 809.724 749.364 810.263 747.424C810.801 745.392 809.878 743.174 808.262 742.528C806.723 741.881 805.262 741.327 803.723 740.68C803.338 740.495 802.953 740.495 802.646 740.495ZM58.3211 741.049C57.7825 741.049 57.167 741.234 56.6284 741.604C55.0896 742.712 54.6279 745.114 55.5512 746.87C56.3975 748.533 57.2439 750.196 58.0902 751.859C59.0135 753.707 61.014 754.169 62.5528 753.06C64.0916 751.951 64.5533 749.549 63.553 747.701C62.7067 746.038 61.8603 744.468 61.014 742.805C60.4754 741.696 59.3982 741.049 58.3211 741.049ZM817.88 746.408C816.495 746.408 815.264 747.424 814.802 749.087C814.264 751.12 815.187 753.245 816.88 753.891C818.419 754.446 819.957 755 821.496 755.647C823.189 756.293 824.958 755.092 825.497 753.06C826.036 751.027 825.035 748.902 823.343 748.256C821.804 747.701 820.265 747.147 818.726 746.593C818.572 746.5 818.265 746.408 817.88 746.408ZM1138.11 747.147C1137.72 747.147 1137.34 747.239 1136.95 747.424C1135.49 748.071 1133.95 748.81 1132.49 749.457C1130.8 750.196 1129.95 752.413 1130.57 754.446C1131.18 756.478 1133.03 757.495 1134.72 756.755C1136.26 756.109 1137.72 755.37 1139.26 754.723C1140.95 753.984 1141.72 751.674 1141.11 749.734C1140.57 748.071 1139.34 747.147 1138.11 747.147ZM833.345 751.951C831.96 751.951 830.652 753.06 830.267 754.723C829.806 756.755 830.806 758.88 832.499 759.527C834.037 760.081 835.576 760.543 837.192 761.098C838.885 761.652 840.654 760.451 841.116 758.418C841.578 756.386 840.578 754.261 838.885 753.707C837.346 753.152 835.807 752.69 834.268 752.136C833.884 752.044 833.576 751.951 833.345 751.951ZM1122.95 753.707C1122.64 753.707 1122.26 753.799 1121.95 753.891C1120.41 754.538 1118.95 755.092 1117.41 755.739C1115.72 756.386 1114.79 758.603 1115.33 760.636C1115.87 762.668 1117.72 763.777 1119.41 763.13C1120.95 762.484 1122.49 761.929 1124.03 761.283C1125.72 760.636 1126.64 758.418 1126.03 756.386C1125.57 754.723 1124.33 753.707 1122.95 753.707ZM848.81 757.033C847.348 757.033 846.04 758.234 845.732 759.897C845.271 761.929 846.348 764.054 848.041 764.608C849.58 765.07 851.195 765.532 852.734 765.994C854.427 766.456 856.196 765.255 856.658 763.223C857.12 761.19 856.043 759.065 854.35 758.511C852.811 758.049 851.272 757.587 849.733 757.125C849.349 757.033 849.118 757.033 848.81 757.033ZM66.9384 757.31C66.3229 757.31 65.7074 757.495 65.1688 757.956C63.7069 759.158 63.2453 761.56 64.2455 763.315C65.1688 764.978 66.0151 766.549 66.9384 768.119C67.9387 769.875 69.9391 770.337 71.401 769.136C72.8629 767.934 73.2476 765.532 72.2473 763.777C71.3241 762.206 70.4777 760.636 69.5544 758.973C69.0158 757.957 67.9387 757.31 66.9384 757.31ZM1107.64 759.527C1107.33 759.527 1107.02 759.62 1106.72 759.712C1105.18 760.266 1103.64 760.728 1102.1 761.283C1100.41 761.837 1099.41 763.962 1099.87 765.994C1100.33 768.027 1102.1 769.228 1103.79 768.674C1105.33 768.119 1106.95 767.657 1108.48 767.103C1110.18 766.549 1111.18 764.331 1110.64 762.299C1110.33 760.636 1109.02 759.527 1107.64 759.527ZM864.429 761.56C862.967 761.56 861.659 762.761 861.275 764.516C860.89 766.549 861.967 768.674 863.66 769.136C865.198 769.597 866.814 769.967 868.353 770.429C870.123 770.891 871.815 769.597 872.2 767.473C872.585 765.348 871.508 763.315 869.738 762.853C868.199 762.484 866.583 762.022 865.045 761.56C864.891 761.56 864.66 761.56 864.429 761.56ZM1092.17 764.516C1091.94 764.516 1091.64 764.516 1091.4 764.608C1089.87 765.07 1088.33 765.532 1086.79 765.902C1085.09 766.364 1084.02 768.489 1084.4 770.521C1084.79 772.554 1086.56 773.847 1088.25 773.385C1089.79 772.923 1091.4 772.462 1092.94 772C1094.64 771.445 1095.71 769.413 1095.33 767.288C1094.87 765.717 1093.56 764.516 1092.17 764.516ZM880.125 765.625C878.663 765.625 877.278 766.918 876.97 768.674C876.586 770.799 877.74 772.831 879.51 773.201C881.125 773.57 882.664 773.94 884.28 774.309C886.049 774.679 887.742 773.385 888.05 771.26C888.358 769.136 887.281 767.103 885.511 766.733C883.972 766.364 882.356 765.994 880.817 765.625C880.587 765.717 880.356 765.625 880.125 765.625ZM1076.48 768.766C1076.25 768.766 1076.02 768.766 1075.86 768.858C1074.32 769.228 1072.71 769.597 1071.17 769.967C1069.4 770.337 1068.25 772.369 1068.63 774.494C1068.94 776.619 1070.63 777.912 1072.4 777.543C1074.02 777.173 1075.55 776.804 1077.17 776.434C1078.94 775.972 1080.02 773.94 1079.71 771.907C1079.32 770.059 1077.94 768.766 1076.48 768.766ZM895.898 769.228C894.359 769.228 892.974 770.521 892.743 772.462C892.436 774.586 893.59 776.527 895.359 776.896C896.975 777.266 898.514 777.543 900.13 777.912C901.899 778.282 903.515 776.804 903.823 774.771C904.13 772.646 902.899 770.706 901.207 770.337C899.668 770.059 898.052 769.69 896.513 769.32C896.282 769.228 896.129 769.228 895.898 769.228ZM1060.7 772.277C1060.55 772.277 1060.32 772.277 1060.17 772.369C1058.63 772.646 1057.01 773.016 1055.47 773.293C1053.7 773.57 1052.55 775.603 1052.78 777.728C1053.01 779.853 1054.7 781.238 1056.47 780.961C1058.09 780.684 1059.7 780.407 1061.24 780.037C1063.01 779.668 1064.17 777.728 1063.86 775.603C1063.55 773.57 1062.24 772.277 1060.7 772.277ZM911.825 772.277C910.286 772.277 908.901 773.663 908.67 775.603C908.439 777.728 909.593 779.668 911.363 779.945C912.979 780.222 914.594 780.499 916.133 780.776C917.903 781.054 919.519 779.575 919.75 777.451C919.98 775.326 918.749 773.385 916.98 773.108C915.364 772.831 913.825 772.554 912.209 772.277C912.132 772.369 911.978 772.277 911.825 772.277ZM76.0174 773.201C75.4019 773.201 74.7094 773.478 74.1709 773.94C72.709 775.141 72.4012 777.543 73.4015 779.298C74.3247 780.869 75.248 782.439 76.2483 784.01C77.3254 785.765 79.3259 786.135 80.7108 784.842C82.1727 783.548 82.4805 781.146 81.4033 779.483C80.48 777.912 79.5567 776.342 78.6334 774.771C78.0179 773.755 77.0177 773.201 76.0174 773.201ZM927.751 774.864C926.136 774.864 924.751 776.342 924.597 778.282C924.366 780.407 925.674 782.347 927.444 782.532C929.059 782.717 930.675 782.994 932.291 783.179C934.06 783.363 935.676 781.885 935.83 779.76C935.984 777.635 934.753 775.695 932.983 775.51C931.367 775.326 929.829 775.048 928.213 774.864C927.982 774.864 927.828 774.864 927.751 774.864ZM1044.78 775.048C1044.62 775.048 1044.55 775.048 1044.39 775.048C1042.78 775.326 1041.24 775.51 1039.62 775.695C1037.85 775.972 1036.62 777.82 1036.78 779.945C1037.01 782.07 1038.55 783.548 1040.32 783.363C1041.93 783.179 1043.55 782.901 1045.16 782.717C1046.93 782.439 1048.16 780.499 1047.93 778.374C1047.78 776.434 1046.39 775.048 1044.78 775.048ZM943.678 776.804C942.062 776.804 940.6 778.282 940.446 780.315C940.293 782.439 941.601 784.287 943.37 784.472C944.986 784.657 946.602 784.842 948.218 784.934C949.987 785.119 951.526 783.548 951.68 781.423C951.834 779.298 950.526 777.451 948.756 777.266C947.14 777.081 945.602 776.989 943.986 776.804C943.909 776.804 943.832 776.804 943.678 776.804ZM1028.77 777.081C1028.7 777.081 1028.62 777.081 1028.47 777.081C1026.85 777.266 1025.31 777.451 1023.7 777.543C1021.93 777.728 1020.62 779.575 1020.77 781.7C1020.93 783.825 1022.47 785.396 1024.23 785.211C1025.85 785.026 1027.47 784.934 1029.08 784.749C1030.85 784.564 1032.16 782.717 1032.01 780.592C1031.85 778.559 1030.47 777.081 1028.77 777.081ZM959.759 778.19C958.066 778.19 956.681 779.76 956.527 781.793C956.45 783.918 957.758 785.765 959.528 785.858C961.144 785.95 962.759 786.043 964.375 786.135C966.145 786.227 967.684 784.564 967.76 782.439C967.837 780.315 966.453 778.467 964.683 778.374C963.067 778.282 961.528 778.19 959.912 778.097C959.836 778.19 959.836 778.19 959.759 778.19ZM1012.77 778.374C1012.69 778.374 1012.69 778.374 1012.62 778.374C1011 778.467 1009.46 778.559 1007.85 778.652C1006.08 778.744 1004.69 780.499 1004.77 782.624C1004.85 784.749 1006.31 786.412 1008.08 786.32C1009.69 786.227 1011.31 786.135 1012.92 786.043C1014.69 785.95 1016.08 784.102 1016 781.978C1015.85 780.037 1014.46 778.374 1012.77 778.374ZM975.839 779.021C974.07 779.021 972.685 780.684 972.608 782.809C972.531 784.934 973.993 786.689 975.762 786.782C977.378 786.874 978.994 786.874 980.61 786.874C982.379 786.967 983.841 785.211 983.841 783.086C983.841 780.961 982.456 779.206 980.686 779.206C979.071 779.206 977.455 779.114 975.916 779.114C975.839 779.021 975.839 779.021 975.839 779.021ZM996.69 779.114C994.997 779.114 993.459 779.206 991.843 779.206C990.073 779.206 988.611 780.961 988.688 783.086C988.688 785.211 990.15 786.874 991.92 786.874C993.536 786.874 995.151 786.874 996.767 786.782C998.537 786.782 999.922 785.026 999.922 782.809C999.845 780.777 998.46 779.114 996.69 779.114ZM85.5581 788.722C84.8656 788.722 84.1732 788.999 83.6346 789.553C82.2496 790.847 81.9419 793.249 83.019 795.004C84.0193 796.575 85.0195 798.053 86.0197 799.624C87.0969 801.287 89.0974 801.564 90.5592 800.27C91.9442 798.977 92.175 796.575 91.0978 794.82C90.0976 793.341 89.1743 791.771 88.1741 790.293C87.4816 789.276 86.5583 788.722 85.5581 788.722ZM95.4834 803.874C94.791 803.874 94.0216 804.151 93.483 804.705C92.0981 806.091 91.8672 808.493 93.0213 810.156C94.0216 811.634 95.0987 813.113 96.099 814.683C97.2531 816.346 99.2535 816.531 100.638 815.145C102.023 813.759 102.177 811.357 101.023 809.694C100.023 808.216 99.0227 806.738 97.9455 805.259C97.407 804.336 96.4837 803.874 95.4834 803.874ZM105.87 818.656C105.101 818.656 104.409 818.933 103.793 819.58C102.485 820.966 102.331 823.46 103.485 825.031C104.562 826.509 105.64 827.987 106.717 829.373C107.871 830.944 109.948 831.128 111.256 829.743C112.564 828.357 112.718 825.862 111.564 824.292C110.487 822.813 109.487 821.428 108.409 819.949C107.64 819.118 106.794 818.656 105.87 818.656ZM116.565 832.976C115.796 832.976 115.026 833.346 114.411 833.992C113.103 835.471 113.026 837.873 114.257 839.443C115.334 840.829 116.488 842.307 117.565 843.693C118.796 845.264 120.797 845.356 122.105 843.878C123.413 842.4 123.49 839.998 122.259 838.427C121.182 837.041 120.104 835.655 119.027 834.177C118.335 833.438 117.412 832.976 116.565 832.976ZM127.645 847.019C126.798 847.019 126.029 847.389 125.413 848.128C124.105 849.606 124.105 852.101 125.336 853.579C126.491 854.965 127.568 856.35 128.722 857.736C129.953 859.214 132.03 859.214 133.261 857.736C134.492 856.258 134.492 853.764 133.261 852.285C132.107 850.9 131.03 849.514 129.876 848.22C129.337 847.389 128.491 847.019 127.645 847.019ZM139.032 860.6C138.186 860.6 137.339 860.97 136.724 861.801C135.493 863.372 135.493 865.774 136.801 867.252C137.955 868.638 139.109 869.932 140.263 871.317C141.571 872.796 143.571 872.703 144.802 871.225C146.034 869.654 145.957 867.252 144.726 865.774C143.571 864.481 142.417 863.095 141.263 861.801C140.648 860.97 139.801 860.6 139.032 860.6ZM150.65 873.904C149.804 873.904 148.957 874.366 148.265 875.105C147.034 876.676 147.111 879.078 148.419 880.556C149.573 881.85 150.804 883.143 151.958 884.529C153.266 886.007 155.266 885.822 156.497 884.252C157.728 882.681 157.575 880.279 156.267 878.801C155.113 877.507 153.881 876.214 152.727 874.921C152.266 874.274 151.419 873.904 150.65 873.904ZM162.576 886.839C161.652 886.839 160.806 887.301 160.191 888.132C159.036 889.703 159.113 892.197 160.498 893.583C161.729 894.877 162.96 896.17 164.115 897.371C165.423 898.757 167.5 898.572 168.654 897.001C169.808 895.431 169.654 892.936 168.346 891.551C167.115 890.257 165.961 889.056 164.73 887.763C164.115 887.116 163.345 886.839 162.576 886.839ZM174.809 899.404C173.886 899.404 172.963 899.865 172.347 900.789C171.193 902.452 171.347 904.854 172.732 906.24C173.963 907.534 175.194 908.735 176.425 909.936C177.81 911.322 179.81 911.045 180.965 909.474C182.119 907.811 181.888 905.409 180.58 904.023C179.349 902.822 178.118 901.528 176.887 900.327C176.271 899.681 175.502 899.404 174.809 899.404ZM187.197 911.691C186.273 911.691 185.35 912.153 184.658 913.169C183.581 914.832 183.734 917.235 185.119 918.62C186.35 919.821 187.658 921.023 188.889 922.224C190.274 923.517 192.275 923.24 193.429 921.577C194.506 919.914 194.275 917.512 192.89 916.126C191.659 914.925 190.351 913.724 189.12 912.523C188.582 911.968 187.889 911.691 187.197 911.691ZM199.815 923.609C198.815 923.609 197.892 924.164 197.276 925.088C196.199 926.751 196.43 929.245 197.892 930.539C199.2 931.74 200.431 932.941 201.739 934.049C203.124 935.343 205.201 934.973 206.278 933.31C207.355 931.647 207.047 929.153 205.663 927.859C204.355 926.658 203.124 925.55 201.816 924.348C201.2 923.887 200.508 923.609 199.815 923.609ZM212.664 935.25C211.664 935.25 210.741 935.805 210.048 936.821C208.971 938.576 209.279 940.978 210.741 942.18C211.895 943.196 212.972 944.212 214.126 945.228C215.588 946.522 217.588 946.152 218.589 944.397C219.666 942.641 219.358 940.239 217.896 939.038C216.742 938.022 215.665 937.098 214.511 936.082C213.972 935.528 213.28 935.25 212.664 935.25Z" fill="url(#paint0_linear)"/>
</g>
<defs>
<linearGradient id="paint0_linear" x1="0.0534738" y1="472.983" x2="1341" y2="472.983" gradientUnits="userSpaceOnUse">
<stop stop-color="#DAE3FE"/>
<stop offset="1" stop-color="#E9EFFD"/>
</linearGradient>
</defs>
</svg>
