<svg width="1180" height="1598" viewBox="0 0 1180 1598" fill="none" xmlns="http://www.w3.org/2000/svg">
<path fill-rule="evenodd" clip-rule="evenodd" d="M1136.07 -37.5994C1288.94 13.8102 1440.83 102.494 1512.5 245.674C1578.61 377.742 1502.13 528.732 1492.99 675.436C1485.56 794.766 1525.2 921.303 1463.99 1024.11C1402.42 1127.53 1271.12 1154.81 1168.99 1219.62C1037.08 1303.33 936.256 1463.48 779.167 1458.72C618.535 1453.85 499.412 1312.67 389.645 1196.02C275.484 1074.69 122.421 943.275 139.572 778.984C156.786 614.089 385.741 564.937 470.424 422.235C557.614 275.306 200.801 33.5413 342 -63.9999C482.908 -161.341 972.628 -92.5644 1136.07 -37.5994Z" fill="#D6E0FF"/>
</svg>
