<svg width="287" height="287" viewBox="0 0 287 287" fill="none" xmlns="http://www.w3.org/2000/svg">
<g clip-path="url(#clip0)">
<path d="M149.633 77.6982H137.367V102.08H149.633V77.6982Z" fill="#8AADFB"/>
<path d="M133.849 77.6983C131.792 77.6983 130.108 76.0134 130.108 73.9569C130.108 71.9003 131.792 70.2154 133.849 70.2154H153.151C155.208 70.2154 156.892 71.9003 156.892 73.9569C156.892 76.0134 155.208 77.6983 153.151 77.6983H151.094V102.08H155.852C156.645 98.5117 158.429 92.3916 162.418 85.5034C162.418 85.4786 162.443 85.4786 162.443 85.4538C165.119 81.5884 166.531 77.0541 166.531 72.3463C166.531 59.66 156.199 49.3276 143.512 49.3276C130.826 49.3276 120.494 59.66 120.494 72.3463C120.494 76.7072 121.733 80.969 124.037 84.6361C124.037 84.6609 124.062 84.6609 124.062 84.6857C127.506 90.4589 129.389 95.7366 130.355 99.156C130.677 100.271 130.925 101.237 131.099 102.08H135.93V77.6983H133.849Z" fill="#8AADFB"/>
<path d="M130.058 112.239V112.412C134.295 113.75 138.805 114.469 143.488 114.469C148.171 114.469 152.68 113.75 156.917 112.412V112.239H130.058Z" fill="#EBF0FF"/>
<path d="M156.942 107.531H130.058V110.777H156.942V107.531Z" fill="#EBF0FF"/>
<path d="M156.942 103.517H150.351H136.649H130.058V106.094H156.942V103.517Z" fill="#EBF0FF"/>
<path d="M153.151 76.2364C154.415 76.2364 155.431 75.2205 155.431 73.9568C155.431 72.6931 154.415 71.6772 153.151 71.6772H133.849C132.585 71.6772 131.569 72.6931 131.569 73.9568C131.569 75.2205 132.585 76.2364 133.849 76.2364H153.151Z" fill="#EBF0FF"/>
<path d="M143.488 36.8149C143.091 36.8149 142.769 37.1371 142.769 37.5335V42.7616C142.769 43.1581 143.091 43.4802 143.488 43.4802C143.884 43.4802 144.206 43.1581 144.206 42.7616V37.5335C144.231 37.1371 143.909 36.8149 143.488 36.8149Z" fill="#7F9FFF"/>
<path d="M132.709 39.7387C132.511 39.3918 132.065 39.268 131.718 39.4662C131.371 39.6644 131.247 40.1104 131.446 40.4573L134.072 44.9917C134.196 45.2147 134.444 45.3633 134.691 45.3633C134.815 45.3633 134.939 45.3385 135.063 45.2642C135.41 45.066 135.534 44.62 135.336 44.2731L132.709 39.7387Z" fill="#7F9FFF"/>
<path d="M128.125 49.1297L123.591 46.5033C123.244 46.3051 122.798 46.429 122.6 46.7758C122.402 47.1227 122.525 47.5687 122.872 47.767L127.407 50.3934C127.531 50.4678 127.655 50.4925 127.778 50.4925C128.026 50.4925 128.274 50.3686 128.398 50.1209C128.596 49.774 128.472 49.328 128.125 49.1297Z" fill="#7F9FFF"/>
<path d="M163.409 46.5033L158.875 49.1297C158.528 49.328 158.404 49.774 158.602 50.1209C158.726 50.3439 158.974 50.4925 159.222 50.4925C159.345 50.4925 159.469 50.4678 159.593 50.3934L164.128 47.767C164.474 47.5687 164.598 47.1227 164.4 46.7758C164.202 46.429 163.756 46.3051 163.409 46.5033Z" fill="#7F9FFF"/>
<path d="M155.282 39.4662C154.935 39.268 154.489 39.3918 154.291 39.7387L151.664 44.2731C151.466 44.62 151.59 45.066 151.937 45.2642C152.061 45.3385 152.185 45.3633 152.309 45.3633C152.556 45.3633 152.804 45.2394 152.928 44.9917L155.554 40.4573C155.753 40.1104 155.629 39.6644 155.282 39.4662Z" fill="#7F9FFF"/>
<path d="M130.9 101.981C130.727 101.138 130.479 100.147 130.182 99.0569C129.24 95.6375 127.382 90.3351 123.987 84.537C123.987 84.5123 123.963 84.5123 123.963 84.4875C121.658 80.7956 120.469 76.5338 120.494 72.1729C120.593 59.4866 131 49.2286 143.686 49.3029C156.372 49.402 166.63 59.8087 166.556 72.495C166.531 77.2028 165.069 81.7371 162.368 85.5777C162.368 85.6025 162.344 85.6025 162.344 85.6273C158.33 92.4907 156.471 98.6109 155.654 102.154H157.14C157.958 98.6604 159.767 92.8872 163.582 86.3706C166.457 82.2823 167.993 77.5001 168.018 72.495C168.117 58.991 157.215 47.9401 143.711 47.841C130.207 47.7419 119.131 58.6442 119.032 72.1481C119.007 76.7816 120.271 81.2911 122.699 85.2061C122.699 85.2061 122.699 85.2061 122.699 85.2308C126.738 92.1191 128.571 98.3383 129.389 101.981H130.9Z" fill="#7F9FFF"/>
<path d="M129.339 110.802H130.058V107.556H129.339C128.943 107.556 128.621 107.234 128.621 106.837V111.545C128.621 111.124 128.943 110.802 129.339 110.802Z" fill="#7F9FFF"/>
<path d="M158.206 111.991C158.255 111.967 158.33 111.942 158.379 111.942V111.545C158.379 111.694 158.33 111.868 158.206 111.991Z" fill="#7F9FFF"/>
<path d="M157.661 107.531H156.942V110.777H157.661C158.057 110.777 158.379 111.099 158.379 111.495V106.788C158.379 107.209 158.057 107.531 157.661 107.531Z" fill="#7F9FFF"/>
<path d="M128.621 111.917C128.67 111.942 128.745 111.966 128.794 111.966C128.695 111.843 128.621 111.669 128.621 111.496V111.917Z" fill="#7F9FFF"/>
<path d="M129.339 106.094H130.058V103.517H136.624C136.228 103.517 135.906 103.195 135.906 102.799V102.08H131.074H129.587H129.339C128.943 102.08 128.621 102.402 128.621 102.799V106.813C128.621 106.416 128.943 106.094 129.339 106.094Z" fill="#7F9FFF"/>
<path d="M155.852 102.055H151.094V102.774C151.094 103.17 150.772 103.492 150.376 103.492H156.942V106.069H157.661C158.057 106.069 158.379 106.391 158.379 106.788V102.774C158.379 102.377 158.057 102.055 157.661 102.055H157.338H155.852Z" fill="#7F9FFF"/>
<path d="M129.562 112.239C129.736 112.289 129.909 112.338 130.058 112.413V112.239H129.562Z" fill="#7F9FFF"/>
<path d="M156.942 112.413C157.115 112.363 157.289 112.314 157.438 112.239H156.942V112.413Z" fill="#7F9FFF"/>
<path d="M149.633 102.799V102.08H137.367V102.799C137.367 103.195 137.045 103.517 136.649 103.517H150.376C149.955 103.517 149.633 103.195 149.633 102.799Z" fill="#7F9FFF"/>
<path d="M129.339 107.531H130.058H156.942H157.661C158.057 107.531 158.379 107.209 158.379 106.813C158.379 106.416 158.057 106.094 157.661 106.094H156.942H130.058H129.339C128.943 106.094 128.621 106.416 128.621 106.813C128.621 107.209 128.943 107.531 129.339 107.531Z" fill="#7F9FFF"/>
<path d="M157.661 110.802H156.942H130.058H129.339C128.943 110.802 128.621 111.124 128.621 111.52C128.621 111.694 128.695 111.867 128.794 111.991C129.042 112.09 129.315 112.165 129.562 112.239H130.058H156.942H157.438C157.685 112.165 157.958 112.065 158.206 111.991C158.305 111.867 158.379 111.694 158.379 111.52C158.379 111.124 158.057 110.802 157.661 110.802Z" fill="#7F9FFF"/>
<path d="M137.367 102.799V102.08V77.6987H135.906V102.08V102.799C135.906 103.195 136.228 103.517 136.624 103.517C137.021 103.517 137.367 103.195 137.367 102.799Z" fill="#7F9FFF"/>
<path d="M149.633 77.6987V102.08V102.799C149.633 103.195 149.955 103.517 150.351 103.517C150.748 103.517 151.07 103.195 151.07 102.799V102.08V77.6987H149.633Z" fill="#7F9FFF"/>
<path d="M151.094 77.6983H153.151C155.208 77.6983 156.892 76.0134 156.892 73.9568C156.892 71.9002 155.208 70.2153 153.151 70.2153H133.849C131.792 70.2153 130.108 71.9002 130.108 73.9568C130.108 76.0134 131.792 77.6983 133.849 77.6983H135.906H137.367H149.633H151.094ZM133.849 76.2364C132.585 76.2364 131.569 75.2205 131.569 73.9568C131.569 72.6931 132.585 71.6772 133.849 71.6772H153.151C154.415 71.6772 155.431 72.6931 155.431 73.9568C155.431 75.2205 154.415 76.2364 153.151 76.2364H133.849Z" fill="#7F9FFF"/>
<path d="M155.307 27.102C155.232 27.102 155.158 27.102 155.059 27.0772C153.572 26.6808 152.036 26.3339 150.5 26.0861C150.004 26.0118 149.657 25.541 149.756 25.0454C149.831 24.5499 150.302 24.203 150.797 24.3021C152.383 24.5499 153.993 24.8968 155.554 25.318C156.05 25.4419 156.323 25.9374 156.199 26.433C156.075 26.8295 155.703 27.102 155.307 27.102Z" fill="#7F9FFF"/>
<path d="M143.488 115.361C131.247 115.361 119.75 110.604 111.078 101.931C102.406 93.2591 97.6733 81.7869 97.6733 69.5218C97.6733 57.2816 102.431 45.7846 111.103 37.1124C119.775 28.4401 131.247 23.7075 143.488 23.7075C143.983 23.7075 144.404 24.104 144.404 24.6243C144.404 25.1446 144.008 25.5411 143.488 25.5411C131.743 25.5411 120.667 30.125 112.367 38.4256C104.041 46.7262 99.4821 57.8019 99.4821 69.5466C99.4821 81.2913 104.066 92.3671 112.367 100.668C120.667 108.968 131.743 113.552 143.488 113.552C155.232 113.552 166.308 108.968 174.609 100.668C182.934 92.3423 187.493 81.2913 187.493 69.5466C187.493 61.2956 185.189 53.2675 180.853 46.305C176.64 39.5406 170.644 34.0151 163.558 30.3728C163.112 30.1498 162.938 29.6047 163.161 29.1587C163.384 28.7127 163.929 28.5392 164.375 28.7622C171.759 32.5532 177.978 38.2769 182.389 45.3386C186.898 52.5985 189.302 60.9735 189.302 69.5466C189.302 81.7869 184.545 93.2838 175.872 101.956C167.2 110.628 155.753 115.361 143.488 115.361Z" fill="#7F9FFF"/>
<path d="M159.717 28.7622C160.36 28.7622 160.882 28.2408 160.882 27.5977C160.882 26.9545 160.36 26.4331 159.717 26.4331C159.074 26.4331 158.553 26.9545 158.553 27.5977C158.553 28.2408 159.074 28.7622 159.717 28.7622Z" fill="#7F9FFF"/>
</g>
<path d="M83.5873 144.632C84.094 144.712 84.554 144.919 84.9673 145.252C85.394 145.586 85.7273 145.999 85.9673 146.492C86.2206 146.986 86.3473 147.512 86.3473 148.072C86.3473 148.779 86.1673 149.419 85.8073 149.992C85.4473 150.552 84.9206 150.999 84.2273 151.332C83.5473 151.652 82.7406 151.812 81.8073 151.812H76.6073V137.872H81.6073C82.554 137.872 83.3606 138.032 84.0273 138.352C84.694 138.659 85.194 139.079 85.5273 139.612C85.8606 140.146 86.0273 140.746 86.0273 141.412C86.0273 142.239 85.8006 142.926 85.3473 143.472C84.9073 144.006 84.3206 144.392 83.5873 144.632ZM78.4273 143.892H81.4873C82.3406 143.892 83.0006 143.692 83.4673 143.292C83.934 142.892 84.1673 142.339 84.1673 141.632C84.1673 140.926 83.934 140.372 83.4673 139.972C83.0006 139.572 82.3273 139.372 81.4473 139.372H78.4273V143.892ZM81.6473 150.312C82.554 150.312 83.2606 150.099 83.7673 149.672C84.274 149.246 84.5273 148.652 84.5273 147.892C84.5273 147.119 84.2606 146.512 83.7273 146.072C83.194 145.619 82.4806 145.392 81.5873 145.392H78.4273V150.312H81.6473ZM90.6929 142.632C91.0129 142.006 91.4662 141.519 92.0529 141.172C92.6529 140.826 93.3796 140.652 94.2329 140.652V142.532H93.7529C91.7129 142.532 90.6929 143.639 90.6929 145.852V151.812H88.8729V140.852H90.6929V142.632ZM95.6539 146.292C95.6539 145.172 95.8805 144.192 96.3339 143.352C96.7872 142.499 97.4072 141.839 98.1939 141.372C98.9939 140.906 99.8805 140.672 100.854 140.672C101.814 140.672 102.647 140.879 103.354 141.292C104.061 141.706 104.587 142.226 104.934 142.852V140.852H106.774V151.812H104.934V149.772C104.574 150.412 104.034 150.946 103.314 151.372C102.607 151.786 101.781 151.993 100.834 151.993C99.8605 151.993 98.9805 151.753 98.1939 151.272C97.4072 150.792 96.7872 150.119 96.3339 149.252C95.8805 148.386 95.6539 147.399 95.6539 146.292ZM104.934 146.312C104.934 145.486 104.767 144.766 104.434 144.152C104.101 143.539 103.647 143.072 103.074 142.752C102.514 142.419 101.894 142.252 101.214 142.252C100.534 142.252 99.9139 142.412 99.3539 142.732C98.7939 143.052 98.3472 143.519 98.0139 144.132C97.6805 144.746 97.5139 145.466 97.5139 146.292C97.5139 147.132 97.6805 147.866 98.0139 148.492C98.3472 149.106 98.7939 149.579 99.3539 149.912C99.9139 150.232 100.534 150.392 101.214 150.392C101.894 150.392 102.514 150.232 103.074 149.912C103.647 149.579 104.101 149.106 104.434 148.492C104.767 147.866 104.934 147.139 104.934 146.312ZM115.189 140.652C116.523 140.652 117.603 141.059 118.429 141.872C119.256 142.672 119.669 143.832 119.669 145.352V151.812H117.869V145.612C117.869 144.519 117.596 143.686 117.049 143.112C116.503 142.526 115.756 142.232 114.809 142.232C113.849 142.232 113.083 142.532 112.509 143.132C111.949 143.732 111.669 144.606 111.669 145.752V151.812H109.849V140.852H111.669V142.412C112.029 141.852 112.516 141.419 113.129 141.112C113.756 140.806 114.443 140.652 115.189 140.652ZM121.962 146.292C121.962 145.172 122.189 144.192 122.642 143.352C123.096 142.499 123.716 141.839 124.502 141.372C125.302 140.906 126.196 140.672 127.182 140.672C128.036 140.672 128.829 140.872 129.562 141.272C130.296 141.659 130.856 142.172 131.242 142.812V137.012H133.082V151.812H131.242V149.752C130.882 150.406 130.349 150.946 129.642 151.372C128.936 151.786 128.109 151.993 127.162 151.993C126.189 151.993 125.302 151.753 124.502 151.272C123.716 150.792 123.096 150.119 122.642 149.252C122.189 148.386 121.962 147.399 121.962 146.292ZM131.242 146.312C131.242 145.486 131.076 144.766 130.742 144.152C130.409 143.539 129.956 143.072 129.382 142.752C128.822 142.419 128.202 142.252 127.522 142.252C126.842 142.252 126.222 142.412 125.662 142.732C125.102 143.052 124.656 143.519 124.322 144.132C123.989 144.746 123.822 145.466 123.822 146.292C123.822 147.132 123.989 147.866 124.322 148.492C124.656 149.106 125.102 149.579 125.662 149.912C126.222 150.232 126.842 150.392 127.522 150.392C128.202 150.392 128.822 150.232 129.382 149.912C129.956 149.579 130.409 149.106 130.742 148.492C131.076 147.866 131.242 147.139 131.242 146.312ZM143.31 137.872V151.812H141.49V137.872H143.31ZM145.732 146.292C145.732 145.172 145.959 144.192 146.412 143.352C146.865 142.499 147.485 141.839 148.272 141.372C149.072 140.906 149.965 140.672 150.952 140.672C151.805 140.672 152.599 140.872 153.332 141.272C154.065 141.659 154.625 142.172 155.012 142.812V137.012H156.852V151.812H155.012V149.752C154.652 150.406 154.119 150.946 153.412 151.372C152.705 151.786 151.879 151.993 150.932 151.993C149.959 151.993 149.072 151.753 148.272 151.272C147.485 150.792 146.865 150.119 146.412 149.252C145.959 148.386 145.732 147.399 145.732 146.292ZM155.012 146.312C155.012 145.486 154.845 144.766 154.512 144.152C154.179 143.539 153.725 143.072 153.152 142.752C152.592 142.419 151.972 142.252 151.292 142.252C150.612 142.252 149.992 142.412 149.432 142.732C148.872 143.052 148.425 143.519 148.092 144.132C147.759 144.746 147.592 145.466 147.592 146.292C147.592 147.132 147.759 147.866 148.092 148.492C148.425 149.106 148.872 149.579 149.432 149.912C149.992 150.232 150.612 150.392 151.292 150.392C151.972 150.392 152.592 150.232 153.152 149.912C153.725 149.579 154.179 149.106 154.512 148.492C154.845 147.866 155.012 147.139 155.012 146.312ZM169.928 145.912C169.928 146.259 169.908 146.626 169.868 147.012H161.108C161.174 148.092 161.541 148.939 162.208 149.552C162.888 150.152 163.708 150.452 164.668 150.452C165.454 150.452 166.108 150.272 166.628 149.912C167.161 149.539 167.534 149.046 167.748 148.432H169.708C169.414 149.486 168.828 150.346 167.948 151.012C167.068 151.666 165.974 151.993 164.668 151.993C163.628 151.993 162.694 151.759 161.868 151.292C161.054 150.826 160.414 150.166 159.948 149.312C159.481 148.446 159.248 147.446 159.248 146.312C159.248 145.179 159.474 144.186 159.928 143.332C160.381 142.479 161.014 141.826 161.828 141.372C162.654 140.906 163.601 140.672 164.668 140.672C165.708 140.672 166.628 140.899 167.428 141.352C168.228 141.806 168.841 142.432 169.268 143.232C169.708 144.019 169.928 144.912 169.928 145.912ZM168.048 145.532C168.048 144.839 167.894 144.246 167.588 143.752C167.281 143.246 166.861 142.866 166.328 142.612C165.808 142.346 165.228 142.212 164.588 142.212C163.668 142.212 162.881 142.506 162.228 143.092C161.588 143.679 161.221 144.492 161.128 145.532H168.048ZM177.67 140.652C179.003 140.652 180.083 141.059 180.91 141.872C181.737 142.672 182.15 143.832 182.15 145.352V151.812H180.35V145.612C180.35 144.519 180.077 143.686 179.53 143.112C178.983 142.526 178.237 142.232 177.29 142.232C176.33 142.232 175.563 142.532 174.99 143.132C174.43 143.732 174.15 144.606 174.15 145.752V151.812H172.33V140.852H174.15V142.412C174.51 141.852 174.997 141.419 175.61 141.112C176.237 140.806 176.923 140.652 177.67 140.652ZM187.343 142.352V148.812C187.343 149.346 187.456 149.726 187.683 149.952C187.91 150.166 188.303 150.272 188.863 150.272H190.203V151.812H188.563C187.55 151.812 186.79 151.579 186.283 151.112C185.776 150.646 185.523 149.879 185.523 148.812V142.352H184.103V140.852H185.523V138.092H187.343V140.852H190.203V142.352H187.343ZM193.348 139.072C193.001 139.072 192.708 138.952 192.468 138.712C192.228 138.472 192.108 138.179 192.108 137.832C192.108 137.486 192.228 137.192 192.468 136.952C192.708 136.712 193.001 136.592 193.348 136.592C193.681 136.592 193.961 136.712 194.188 136.952C194.428 137.192 194.548 137.486 194.548 137.832C194.548 138.179 194.428 138.472 194.188 138.712C193.961 138.952 193.681 139.072 193.348 139.072ZM194.228 140.852V151.812H192.408V140.852H194.228ZM199.55 142.352V148.812C199.55 149.346 199.663 149.726 199.89 149.952C200.117 150.166 200.51 150.272 201.07 150.272H202.41V151.812H200.77C199.757 151.812 198.997 151.579 198.49 151.112C197.983 150.646 197.73 149.879 197.73 148.812V142.352H196.31V140.852H197.73V138.092H199.55V140.852H202.41V142.352H199.55ZM214.055 140.852L207.455 156.973H205.575L207.735 151.692L203.315 140.852H205.335L208.775 149.732L212.175 140.852H214.055Z" fill="#4370F8"/>
<path d="M36.1079 181.352H39.8729V182.207H35.0579V171.722H36.1079V181.352ZM45.4814 182.327C44.7114 182.327 44.0164 182.157 43.3964 181.817C42.7864 181.467 42.3014 180.977 41.9414 180.347C41.5914 179.707 41.4164 178.962 41.4164 178.112C41.4164 177.262 41.5964 176.522 41.9564 175.892C42.3164 175.252 42.8064 174.762 43.4264 174.422C44.0464 174.072 44.7414 173.897 45.5114 173.897C46.2814 173.897 46.9764 174.072 47.5964 174.422C48.2264 174.762 48.7164 175.252 49.0664 175.892C49.4264 176.522 49.6064 177.262 49.6064 178.112C49.6064 178.952 49.4264 179.692 49.0664 180.332C48.7064 180.972 48.2114 181.467 47.5814 181.817C46.9514 182.157 46.2514 182.327 45.4814 182.327ZM45.4814 181.412C46.0214 181.412 46.5214 181.292 46.9814 181.052C47.4414 180.802 47.8114 180.432 48.0914 179.942C48.3814 179.442 48.5264 178.832 48.5264 178.112C48.5264 177.392 48.3864 176.787 48.1064 176.297C47.8264 175.797 47.4564 175.427 46.9964 175.187C46.5364 174.937 46.0364 174.812 45.4964 174.812C44.9564 174.812 44.4564 174.937 43.9964 175.187C43.5364 175.427 43.1664 175.797 42.8864 176.297C42.6164 176.787 42.4814 177.392 42.4814 178.112C42.4814 178.832 42.6164 179.442 42.8864 179.942C43.1664 180.432 43.5314 180.802 43.9814 181.052C44.4414 181.292 44.9414 181.412 45.4814 181.412ZM53.0954 175.472C53.3254 174.962 53.6754 174.567 54.1454 174.287C54.6254 174.007 55.2104 173.867 55.9004 173.867V174.962H55.6154C54.8554 174.962 54.2454 175.167 53.7854 175.577C53.3254 175.987 53.0954 176.672 53.0954 177.632V182.207H52.0454V174.017H53.0954V175.472ZM65.415 177.692C65.415 178.052 65.405 178.327 65.385 178.517H58.59C58.62 179.137 58.77 179.667 59.04 180.107C59.31 180.547 59.665 180.882 60.105 181.112C60.545 181.332 61.025 181.442 61.545 181.442C62.225 181.442 62.795 181.277 63.255 180.947C63.725 180.617 64.035 180.172 64.185 179.612H65.295C65.095 180.412 64.665 181.067 64.005 181.577C63.355 182.077 62.535 182.327 61.545 182.327C60.775 182.327 60.085 182.157 59.475 181.817C58.865 181.467 58.385 180.977 58.035 180.347C57.695 179.707 57.525 178.962 57.525 178.112C57.525 177.262 57.695 176.517 58.035 175.877C58.375 175.237 58.85 174.747 59.46 174.407C60.07 174.067 60.765 173.897 61.545 173.897C62.325 173.897 63.005 174.067 63.585 174.407C64.175 174.747 64.625 175.207 64.935 175.787C65.255 176.357 65.415 176.992 65.415 177.692ZM64.35 177.662C64.36 177.052 64.235 176.532 63.975 176.102C63.725 175.672 63.38 175.347 62.94 175.127C62.5 174.907 62.02 174.797 61.5 174.797C60.72 174.797 60.055 175.047 59.505 175.547C58.955 176.047 58.65 176.752 58.59 177.662H64.35ZM77.6111 173.867C78.5711 173.867 79.3511 174.172 79.9511 174.782C80.5611 175.382 80.8661 176.257 80.8661 177.407V182.207H79.8311V177.527C79.8311 176.637 79.6161 175.957 79.1861 175.487C78.7561 175.017 78.1711 174.782 77.4311 174.782C76.6611 174.782 76.0461 175.037 75.5861 175.547C75.1261 176.057 74.8961 176.797 74.8961 177.767V182.207H73.8611V177.527C73.8611 176.637 73.6461 175.957 73.2161 175.487C72.7861 175.017 72.1961 174.782 71.4461 174.782C70.6761 174.782 70.0611 175.037 69.6011 175.547C69.1411 176.057 68.9111 176.797 68.9111 177.767V182.207H67.8611V174.017H68.9111V175.427C69.1711 174.917 69.5411 174.532 70.0211 174.272C70.5011 174.002 71.0361 173.867 71.6261 173.867C72.3361 173.867 72.9561 174.037 73.4861 174.377C74.0261 174.717 74.4161 175.217 74.6561 175.877C74.8761 175.227 75.2511 174.732 75.7811 174.392C76.3211 174.042 76.9311 173.867 77.6111 173.867ZM88.8892 172.472C88.6792 172.472 88.4992 172.397 88.3492 172.247C88.1992 172.097 88.1242 171.912 88.1242 171.692C88.1242 171.472 88.1992 171.292 88.3492 171.152C88.4992 171.002 88.6792 170.927 88.8892 170.927C89.0992 170.927 89.2792 171.002 89.4292 171.152C89.5792 171.292 89.6542 171.472 89.6542 171.692C89.6542 171.912 89.5792 172.097 89.4292 172.247C89.2792 172.397 89.0992 172.472 88.8892 172.472ZM89.4142 174.017V182.207H88.3642V174.017H89.4142ZM93.3519 175.817C93.6119 175.267 94.0219 174.812 94.5819 174.452C95.1519 174.082 95.8269 173.897 96.6069 173.897C97.3469 173.897 98.0119 174.072 98.6019 174.422C99.2019 174.762 99.6669 175.252 99.9969 175.892C100.337 176.522 100.507 177.257 100.507 178.097C100.507 178.937 100.337 179.677 99.9969 180.317C99.6669 180.957 99.2019 181.452 98.6019 181.802C98.0119 182.152 97.3469 182.327 96.6069 182.327C95.8369 182.327 95.1669 182.147 94.5969 181.787C94.0269 181.417 93.6119 180.957 93.3519 180.407V186.077H92.3169V174.017H93.3519V175.817ZM99.4419 178.097C99.4419 177.417 99.3069 176.832 99.0369 176.342C98.7769 175.842 98.4169 175.462 97.9569 175.202C97.4969 174.942 96.9769 174.812 96.3969 174.812C95.8369 174.812 95.3219 174.947 94.8519 175.217C94.3919 175.487 94.0269 175.872 93.7569 176.372C93.4869 176.872 93.3519 177.452 93.3519 178.112C93.3519 178.772 93.4869 179.352 93.7569 179.852C94.0269 180.352 94.3919 180.737 94.8519 181.007C95.3219 181.277 95.8369 181.412 96.3969 181.412C96.9769 181.412 97.4969 181.282 97.9569 181.022C98.4169 180.752 98.7769 180.367 99.0369 179.867C99.3069 179.357 99.4419 178.767 99.4419 178.097ZM105.784 182.327C104.844 182.327 104.074 182.112 103.474 181.682C102.884 181.242 102.554 180.647 102.484 179.897H103.564C103.614 180.357 103.829 180.732 104.209 181.022C104.599 181.302 105.119 181.442 105.769 181.442C106.339 181.442 106.784 181.307 107.104 181.037C107.434 180.767 107.599 180.432 107.599 180.032C107.599 179.752 107.509 179.522 107.329 179.342C107.149 179.162 106.919 179.022 106.639 178.922C106.369 178.812 105.999 178.697 105.529 178.577C104.919 178.417 104.424 178.257 104.044 178.097C103.664 177.937 103.339 177.702 103.069 177.392C102.809 177.072 102.679 176.647 102.679 176.117C102.679 175.717 102.799 175.347 103.039 175.007C103.279 174.667 103.619 174.397 104.059 174.197C104.499 173.997 104.999 173.897 105.559 173.897C106.439 173.897 107.149 174.122 107.689 174.572C108.229 175.012 108.519 175.622 108.559 176.402H107.509C107.479 175.922 107.289 175.537 106.939 175.247C106.599 174.947 106.129 174.797 105.529 174.797C104.999 174.797 104.569 174.922 104.239 175.172C103.909 175.422 103.744 175.732 103.744 176.102C103.744 176.422 103.839 176.687 104.029 176.897C104.229 177.097 104.474 177.257 104.764 177.377C105.054 177.487 105.444 177.612 105.934 177.752C106.524 177.912 106.994 178.067 107.344 178.217C107.694 178.367 107.994 178.587 108.244 178.877C108.494 179.167 108.624 179.552 108.634 180.032C108.634 180.472 108.514 180.867 108.274 181.217C108.034 181.557 107.699 181.827 107.269 182.027C106.839 182.227 106.344 182.327 105.784 182.327ZM118.23 174.017V182.207H117.18V180.767C116.94 181.277 116.57 181.667 116.07 181.937C115.57 182.207 115.01 182.342 114.39 182.342C113.41 182.342 112.61 182.042 111.99 181.442C111.37 180.832 111.06 179.952 111.06 178.802V174.017H112.095V178.682C112.095 179.572 112.315 180.252 112.755 180.722C113.205 181.192 113.815 181.427 114.585 181.427C115.375 181.427 116.005 181.177 116.475 180.677C116.945 180.177 117.18 179.442 117.18 178.472V174.017H118.23ZM130.903 173.867C131.863 173.867 132.643 174.172 133.243 174.782C133.853 175.382 134.158 176.257 134.158 177.407V182.207H133.123V177.527C133.123 176.637 132.908 175.957 132.478 175.487C132.048 175.017 131.463 174.782 130.723 174.782C129.953 174.782 129.338 175.037 128.878 175.547C128.418 176.057 128.188 176.797 128.188 177.767V182.207H127.153V177.527C127.153 176.637 126.938 175.957 126.508 175.487C126.078 175.017 125.488 174.782 124.738 174.782C123.968 174.782 123.353 175.037 122.893 175.547C122.433 176.057 122.203 176.797 122.203 177.767V182.207H121.153V174.017H122.203V175.427C122.463 174.917 122.833 174.532 123.313 174.272C123.793 174.002 124.328 173.867 124.918 173.867C125.628 173.867 126.248 174.037 126.778 174.377C127.318 174.717 127.708 175.217 127.948 175.877C128.168 175.227 128.543 174.732 129.073 174.392C129.613 174.042 130.223 173.867 130.903 173.867ZM141.176 178.097C141.176 177.257 141.346 176.522 141.686 175.892C142.026 175.252 142.491 174.762 143.081 174.422C143.681 174.072 144.356 173.897 145.106 173.897C145.826 173.897 146.476 174.072 147.056 174.422C147.636 174.772 148.061 175.227 148.331 175.787V171.107H149.381V182.207H148.331V180.377C148.081 180.947 147.671 181.417 147.101 181.787C146.531 182.147 145.861 182.327 145.091 182.327C144.341 182.327 143.666 182.152 143.066 181.802C142.476 181.452 142.011 180.957 141.671 180.317C141.341 179.677 141.176 178.937 141.176 178.097ZM148.331 178.112C148.331 177.452 148.196 176.872 147.926 176.372C147.656 175.872 147.286 175.487 146.816 175.217C146.356 174.947 145.846 174.812 145.286 174.812C144.706 174.812 144.186 174.942 143.726 175.202C143.266 175.462 142.901 175.842 142.631 176.342C142.371 176.832 142.241 177.417 142.241 178.097C142.241 178.767 142.371 179.357 142.631 179.867C142.901 180.367 143.266 180.752 143.726 181.022C144.186 181.282 144.706 181.412 145.286 181.412C145.846 181.412 146.356 181.277 146.816 181.007C147.286 180.737 147.656 180.352 147.926 179.852C148.196 179.352 148.331 178.772 148.331 178.112ZM155.888 182.327C155.118 182.327 154.423 182.157 153.803 181.817C153.193 181.467 152.708 180.977 152.348 180.347C151.998 179.707 151.823 178.962 151.823 178.112C151.823 177.262 152.003 176.522 152.363 175.892C152.723 175.252 153.213 174.762 153.833 174.422C154.453 174.072 155.148 173.897 155.918 173.897C156.688 173.897 157.383 174.072 158.003 174.422C158.633 174.762 159.123 175.252 159.473 175.892C159.833 176.522 160.013 177.262 160.013 178.112C160.013 178.952 159.833 179.692 159.473 180.332C159.113 180.972 158.618 181.467 157.988 181.817C157.358 182.157 156.658 182.327 155.888 182.327ZM155.888 181.412C156.428 181.412 156.928 181.292 157.388 181.052C157.848 180.802 158.218 180.432 158.498 179.942C158.788 179.442 158.933 178.832 158.933 178.112C158.933 177.392 158.793 176.787 158.513 176.297C158.233 175.797 157.863 175.427 157.403 175.187C156.943 174.937 156.443 174.812 155.903 174.812C155.363 174.812 154.863 174.937 154.403 175.187C153.943 175.427 153.573 175.797 153.293 176.297C153.023 176.787 152.888 177.392 152.888 178.112C152.888 178.832 153.023 179.442 153.293 179.942C153.573 180.432 153.938 180.802 154.388 181.052C154.848 181.292 155.348 181.412 155.888 181.412ZM163.502 171.107V182.207H162.452V171.107H163.502ZM169.99 182.327C169.22 182.327 168.525 182.157 167.905 181.817C167.295 181.467 166.81 180.977 166.45 180.347C166.1 179.707 165.925 178.962 165.925 178.112C165.925 177.262 166.105 176.522 166.465 175.892C166.825 175.252 167.315 174.762 167.935 174.422C168.555 174.072 169.25 173.897 170.02 173.897C170.79 173.897 171.485 174.072 172.105 174.422C172.735 174.762 173.225 175.252 173.575 175.892C173.935 176.522 174.115 177.262 174.115 178.112C174.115 178.952 173.935 179.692 173.575 180.332C173.215 180.972 172.72 181.467 172.09 181.817C171.46 182.157 170.76 182.327 169.99 182.327ZM169.99 181.412C170.53 181.412 171.03 181.292 171.49 181.052C171.95 180.802 172.32 180.432 172.6 179.942C172.89 179.442 173.035 178.832 173.035 178.112C173.035 177.392 172.895 176.787 172.615 176.297C172.335 175.797 171.965 175.427 171.505 175.187C171.045 174.937 170.545 174.812 170.005 174.812C169.465 174.812 168.965 174.937 168.505 175.187C168.045 175.427 167.675 175.797 167.395 176.297C167.125 176.787 166.99 177.392 166.99 178.112C166.99 178.832 167.125 179.442 167.395 179.942C167.675 180.432 168.04 180.802 168.49 181.052C168.95 181.292 169.45 181.412 169.99 181.412ZM177.604 175.472C177.834 174.962 178.184 174.567 178.654 174.287C179.134 174.007 179.719 173.867 180.409 173.867V174.962H180.124C179.364 174.962 178.754 175.167 178.294 175.577C177.834 175.987 177.604 176.672 177.604 177.632V182.207H176.554V174.017H177.604V175.472ZM189.974 182.327C189.034 182.327 188.264 182.112 187.664 181.682C187.074 181.242 186.744 180.647 186.674 179.897H187.754C187.804 180.357 188.019 180.732 188.399 181.022C188.789 181.302 189.309 181.442 189.959 181.442C190.529 181.442 190.974 181.307 191.294 181.037C191.624 180.767 191.789 180.432 191.789 180.032C191.789 179.752 191.699 179.522 191.519 179.342C191.339 179.162 191.109 179.022 190.829 178.922C190.559 178.812 190.189 178.697 189.719 178.577C189.109 178.417 188.614 178.257 188.234 178.097C187.854 177.937 187.529 177.702 187.259 177.392C186.999 177.072 186.869 176.647 186.869 176.117C186.869 175.717 186.989 175.347 187.229 175.007C187.469 174.667 187.809 174.397 188.249 174.197C188.689 173.997 189.189 173.897 189.749 173.897C190.629 173.897 191.339 174.122 191.879 174.572C192.419 175.012 192.709 175.622 192.749 176.402H191.699C191.669 175.922 191.479 175.537 191.129 175.247C190.789 174.947 190.319 174.797 189.719 174.797C189.189 174.797 188.759 174.922 188.429 175.172C188.099 175.422 187.934 175.732 187.934 176.102C187.934 176.422 188.029 176.687 188.219 176.897C188.419 177.097 188.664 177.257 188.954 177.377C189.244 177.487 189.634 177.612 190.124 177.752C190.714 177.912 191.184 178.067 191.534 178.217C191.884 178.367 192.184 178.587 192.434 178.877C192.684 179.167 192.814 179.552 192.824 180.032C192.824 180.472 192.704 180.867 192.464 181.217C192.224 181.557 191.889 181.827 191.459 182.027C191.029 182.227 190.534 182.327 189.974 182.327ZM195.851 172.472C195.641 172.472 195.461 172.397 195.311 172.247C195.161 172.097 195.086 171.912 195.086 171.692C195.086 171.472 195.161 171.292 195.311 171.152C195.461 171.002 195.641 170.927 195.851 170.927C196.061 170.927 196.241 171.002 196.391 171.152C196.541 171.292 196.616 171.472 196.616 171.692C196.616 171.912 196.541 172.097 196.391 172.247C196.241 172.397 196.061 172.472 195.851 172.472ZM196.376 174.017V182.207H195.326V174.017H196.376ZM200.644 174.902V179.987C200.644 180.487 200.739 180.832 200.929 181.022C201.119 181.212 201.454 181.307 201.934 181.307H202.894V182.207H201.769C201.029 182.207 200.479 182.037 200.119 181.697C199.759 181.347 199.579 180.777 199.579 179.987V174.902H198.439V174.017H199.579V171.962H200.644V174.017H202.894V174.902H200.644ZM209.312 178.097C209.312 177.257 209.477 176.522 209.807 175.892C210.147 175.252 210.612 174.762 211.202 174.422C211.802 174.072 212.477 173.897 213.227 173.897C214.007 173.897 214.677 174.077 215.237 174.437C215.807 174.797 216.217 175.257 216.467 175.817V174.017H217.517V182.207H216.467V180.392C216.207 180.952 215.792 181.417 215.222 181.787C214.662 182.147 213.992 182.327 213.212 182.327C212.472 182.327 211.802 182.152 211.202 181.802C210.612 181.452 210.147 180.957 209.807 180.317C209.477 179.677 209.312 178.937 209.312 178.097ZM216.467 178.112C216.467 177.452 216.332 176.872 216.062 176.372C215.792 175.872 215.422 175.487 214.952 175.217C214.492 174.947 213.982 174.812 213.422 174.812C212.842 174.812 212.322 174.942 211.862 175.202C211.402 175.462 211.037 175.842 210.767 176.342C210.507 176.832 210.377 177.417 210.377 178.097C210.377 178.767 210.507 179.357 210.767 179.867C211.037 180.367 211.402 180.752 211.862 181.022C212.322 181.282 212.842 181.412 213.422 181.412C213.982 181.412 214.492 181.277 214.952 181.007C215.422 180.737 215.792 180.352 216.062 179.852C216.332 179.352 216.467 178.772 216.467 178.112ZM230.189 173.867C231.149 173.867 231.929 174.172 232.529 174.782C233.139 175.382 233.444 176.257 233.444 177.407V182.207H232.409V177.527C232.409 176.637 232.194 175.957 231.764 175.487C231.334 175.017 230.749 174.782 230.009 174.782C229.239 174.782 228.624 175.037 228.164 175.547C227.704 176.057 227.474 176.797 227.474 177.767V182.207H226.439V177.527C226.439 176.637 226.224 175.957 225.794 175.487C225.364 175.017 224.774 174.782 224.024 174.782C223.254 174.782 222.639 175.037 222.179 175.547C221.719 176.057 221.489 176.797 221.489 177.767V182.207H220.439V174.017H221.489V175.427C221.749 174.917 222.119 174.532 222.599 174.272C223.079 174.002 223.614 173.867 224.204 173.867C224.914 173.867 225.534 174.037 226.064 174.377C226.604 174.717 226.994 175.217 227.234 175.877C227.454 175.227 227.829 174.732 228.359 174.392C228.899 174.042 229.509 173.867 230.189 173.867ZM243.711 177.692C243.711 178.052 243.701 178.327 243.681 178.517H236.886C236.916 179.137 237.066 179.667 237.336 180.107C237.606 180.547 237.961 180.882 238.401 181.112C238.841 181.332 239.321 181.442 239.841 181.442C240.521 181.442 241.091 181.277 241.551 180.947C242.021 180.617 242.331 180.172 242.481 179.612H243.591C243.391 180.412 242.961 181.067 242.301 181.577C241.651 182.077 240.831 182.327 239.841 182.327C239.071 182.327 238.381 182.157 237.771 181.817C237.161 181.467 236.681 180.977 236.331 180.347C235.991 179.707 235.821 178.962 235.821 178.112C235.821 177.262 235.991 176.517 236.331 175.877C236.671 175.237 237.146 174.747 237.756 174.407C238.366 174.067 239.061 173.897 239.841 173.897C240.621 173.897 241.301 174.067 241.881 174.407C242.471 174.747 242.921 175.207 243.231 175.787C243.551 176.357 243.711 176.992 243.711 177.692ZM242.646 177.662C242.656 177.052 242.531 176.532 242.271 176.102C242.021 175.672 241.676 175.347 241.236 175.127C240.796 174.907 240.316 174.797 239.796 174.797C239.016 174.797 238.351 175.047 237.801 175.547C237.251 176.047 236.946 176.752 236.886 177.662H242.646ZM247.522 174.902V179.987C247.522 180.487 247.617 180.832 247.807 181.022C247.997 181.212 248.332 181.307 248.812 181.307H249.772V182.207H248.647C247.907 182.207 247.357 182.037 246.997 181.697C246.637 181.347 246.457 180.777 246.457 179.987V174.902H245.317V174.017H246.457V171.962H247.522V174.017H249.772V174.902H247.522ZM252.988 180.467L251.428 184.397H250.708L251.818 180.467H252.988ZM37.7505 201.112C37.7505 200.262 37.9205 199.522 38.2605 198.892C38.6005 198.252 39.0705 197.762 39.6705 197.422C40.2705 197.072 40.9555 196.897 41.7255 196.897C42.7355 196.897 43.5655 197.147 44.2155 197.647C44.8755 198.147 45.3005 198.827 45.4905 199.687H44.3655C44.2255 199.097 43.9205 198.637 43.4505 198.307C42.9905 197.967 42.4155 197.797 41.7255 197.797C41.1755 197.797 40.6805 197.922 40.2405 198.172C39.8005 198.422 39.4505 198.797 39.1905 199.297C38.9405 199.787 38.8155 200.392 38.8155 201.112C38.8155 201.832 38.9405 202.442 39.1905 202.942C39.4505 203.442 39.8005 203.817 40.2405 204.067C40.6805 204.317 41.1755 204.442 41.7255 204.442C42.4155 204.442 42.9905 204.277 43.4505 203.947C43.9205 203.607 44.2255 203.137 44.3655 202.537H45.4905C45.3005 203.377 44.8755 204.052 44.2155 204.562C43.5555 205.072 42.7255 205.327 41.7255 205.327C40.9555 205.327 40.2705 205.157 39.6705 204.817C39.0705 204.467 38.6005 203.977 38.2605 203.347C37.9205 202.707 37.7505 201.962 37.7505 201.112ZM51.5397 205.327C50.7697 205.327 50.0747 205.157 49.4547 204.817C48.8447 204.467 48.3597 203.977 47.9997 203.347C47.6497 202.707 47.4747 201.962 47.4747 201.112C47.4747 200.262 47.6547 199.522 48.0147 198.892C48.3747 198.252 48.8647 197.762 49.4847 197.422C50.1047 197.072 50.7997 196.897 51.5697 196.897C52.3397 196.897 53.0347 197.072 53.6547 197.422C54.2847 197.762 54.7747 198.252 55.1247 198.892C55.4847 199.522 55.6647 200.262 55.6647 201.112C55.6647 201.952 55.4847 202.692 55.1247 203.332C54.7647 203.972 54.2697 204.467 53.6397 204.817C53.0097 205.157 52.3097 205.327 51.5397 205.327ZM51.5397 204.412C52.0797 204.412 52.5797 204.292 53.0397 204.052C53.4997 203.802 53.8697 203.432 54.1497 202.942C54.4397 202.442 54.5847 201.832 54.5847 201.112C54.5847 200.392 54.4447 199.787 54.1647 199.297C53.8847 198.797 53.5147 198.427 53.0547 198.187C52.5947 197.937 52.0947 197.812 51.5547 197.812C51.0147 197.812 50.5147 197.937 50.0547 198.187C49.5947 198.427 49.2247 198.797 48.9447 199.297C48.6747 199.787 48.5397 200.392 48.5397 201.112C48.5397 201.832 48.6747 202.442 48.9447 202.942C49.2247 203.432 49.5897 203.802 50.0397 204.052C50.4997 204.292 50.9997 204.412 51.5397 204.412ZM61.9437 196.867C62.9237 196.867 63.7237 197.172 64.3437 197.782C64.9637 198.382 65.2737 199.257 65.2737 200.407V205.207H64.2387V200.527C64.2387 199.637 64.0137 198.957 63.5637 198.487C63.1237 198.017 62.5187 197.782 61.7487 197.782C60.9587 197.782 60.3287 198.032 59.8587 198.532C59.3887 199.032 59.1537 199.767 59.1537 200.737V205.207H58.1037V197.017H59.1537V198.412C59.4137 197.912 59.7887 197.532 60.2787 197.272C60.7687 197.002 61.3237 196.867 61.9437 196.867ZM70.9409 205.327C70.0009 205.327 69.2309 205.112 68.6309 204.682C68.0409 204.242 67.7109 203.647 67.6409 202.897H68.7209C68.7709 203.357 68.9859 203.732 69.3659 204.022C69.7559 204.302 70.2759 204.442 70.9259 204.442C71.4959 204.442 71.9409 204.307 72.2609 204.037C72.5909 203.767 72.7559 203.432 72.7559 203.032C72.7559 202.752 72.6659 202.522 72.4859 202.342C72.3059 202.162 72.0759 202.022 71.7959 201.922C71.5259 201.812 71.1559 201.697 70.6859 201.577C70.0759 201.417 69.5809 201.257 69.2009 201.097C68.8209 200.937 68.4959 200.702 68.2259 200.392C67.9659 200.072 67.8359 199.647 67.8359 199.117C67.8359 198.717 67.9559 198.347 68.1959 198.007C68.4359 197.667 68.7759 197.397 69.2159 197.197C69.6559 196.997 70.1559 196.897 70.7159 196.897C71.5959 196.897 72.3059 197.122 72.8459 197.572C73.3859 198.012 73.6759 198.622 73.7159 199.402H72.6659C72.6359 198.922 72.4459 198.537 72.0959 198.247C71.7559 197.947 71.2859 197.797 70.6859 197.797C70.1559 197.797 69.7259 197.922 69.3959 198.172C69.0659 198.422 68.9009 198.732 68.9009 199.102C68.9009 199.422 68.9959 199.687 69.1859 199.897C69.3859 200.097 69.6309 200.257 69.9209 200.377C70.2109 200.487 70.6009 200.612 71.0909 200.752C71.6809 200.912 72.1509 201.067 72.5009 201.217C72.8509 201.367 73.1509 201.587 73.4009 201.877C73.6509 202.167 73.7809 202.552 73.7909 203.032C73.7909 203.472 73.6709 203.867 73.4309 204.217C73.1909 204.557 72.8559 204.827 72.4259 205.027C71.9959 205.227 71.5009 205.327 70.9409 205.327ZM83.7024 200.692C83.7024 201.052 83.6924 201.327 83.6724 201.517H76.8774C76.9074 202.137 77.0574 202.667 77.3274 203.107C77.5974 203.547 77.9524 203.882 78.3924 204.112C78.8324 204.332 79.3124 204.442 79.8324 204.442C80.5124 204.442 81.0824 204.277 81.5424 203.947C82.0124 203.617 82.3224 203.172 82.4724 202.612H83.5824C83.3824 203.412 82.9524 204.067 82.2924 204.577C81.6424 205.077 80.8224 205.327 79.8324 205.327C79.0624 205.327 78.3724 205.157 77.7624 204.817C77.1524 204.467 76.6724 203.977 76.3224 203.347C75.9824 202.707 75.8124 201.962 75.8124 201.112C75.8124 200.262 75.9824 199.517 76.3224 198.877C76.6624 198.237 77.1374 197.747 77.7474 197.407C78.3574 197.067 79.0524 196.897 79.8324 196.897C80.6124 196.897 81.2924 197.067 81.8724 197.407C82.4624 197.747 82.9124 198.207 83.2224 198.787C83.5424 199.357 83.7024 199.992 83.7024 200.692ZM82.6374 200.662C82.6474 200.052 82.5224 199.532 82.2624 199.102C82.0124 198.672 81.6674 198.347 81.2274 198.127C80.7874 197.907 80.3074 197.797 79.7874 197.797C79.0074 197.797 78.3424 198.047 77.7924 198.547C77.2424 199.047 76.9374 199.752 76.8774 200.662H82.6374ZM85.6685 201.112C85.6685 200.262 85.8385 199.522 86.1785 198.892C86.5185 198.252 86.9885 197.762 87.5885 197.422C88.1885 197.072 88.8735 196.897 89.6435 196.897C90.6535 196.897 91.4835 197.147 92.1335 197.647C92.7935 198.147 93.2185 198.827 93.4085 199.687H92.2835C92.1435 199.097 91.8385 198.637 91.3685 198.307C90.9085 197.967 90.3335 197.797 89.6435 197.797C89.0935 197.797 88.5985 197.922 88.1585 198.172C87.7185 198.422 87.3685 198.797 87.1085 199.297C86.8585 199.787 86.7335 200.392 86.7335 201.112C86.7335 201.832 86.8585 202.442 87.1085 202.942C87.3685 203.442 87.7185 203.817 88.1585 204.067C88.5985 204.317 89.0935 204.442 89.6435 204.442C90.3335 204.442 90.9085 204.277 91.3685 203.947C91.8385 203.607 92.1435 203.137 92.2835 202.537H93.4085C93.2185 203.377 92.7935 204.052 92.1335 204.562C91.4735 205.072 90.6435 205.327 89.6435 205.327C88.8735 205.327 88.1885 205.157 87.5885 204.817C86.9885 204.467 86.5185 203.977 86.1785 203.347C85.8385 202.707 85.6685 201.962 85.6685 201.112ZM97.2377 197.902V202.987C97.2377 203.487 97.3327 203.832 97.5227 204.022C97.7127 204.212 98.0477 204.307 98.5277 204.307H99.4877V205.207H98.3627C97.6227 205.207 97.0727 205.037 96.7127 204.697C96.3527 204.347 96.1727 203.777 96.1727 202.987V197.902H95.0327V197.017H96.1727V194.962H97.2377V197.017H99.4877V197.902H97.2377ZM109.154 200.692C109.154 201.052 109.144 201.327 109.124 201.517H102.329C102.359 202.137 102.509 202.667 102.779 203.107C103.049 203.547 103.404 203.882 103.844 204.112C104.284 204.332 104.764 204.442 105.284 204.442C105.964 204.442 106.534 204.277 106.994 203.947C107.464 203.617 107.774 203.172 107.924 202.612H109.034C108.834 203.412 108.404 204.067 107.744 204.577C107.094 205.077 106.274 205.327 105.284 205.327C104.514 205.327 103.824 205.157 103.214 204.817C102.604 204.467 102.124 203.977 101.774 203.347C101.434 202.707 101.264 201.962 101.264 201.112C101.264 200.262 101.434 199.517 101.774 198.877C102.114 198.237 102.589 197.747 103.199 197.407C103.809 197.067 104.504 196.897 105.284 196.897C106.064 196.897 106.744 197.067 107.324 197.407C107.914 197.747 108.364 198.207 108.674 198.787C108.994 199.357 109.154 199.992 109.154 200.692ZM108.089 200.662C108.099 200.052 107.974 199.532 107.714 199.102C107.464 198.672 107.119 198.347 106.679 198.127C106.239 197.907 105.759 197.797 105.239 197.797C104.459 197.797 103.794 198.047 103.244 198.547C102.694 199.047 102.389 199.752 102.329 200.662H108.089ZM112.965 197.902V202.987C112.965 203.487 113.06 203.832 113.25 204.022C113.44 204.212 113.775 204.307 114.255 204.307H115.215V205.207H114.09C113.35 205.207 112.8 205.037 112.44 204.697C112.08 204.347 111.9 203.777 111.9 202.987V197.902H110.76V197.017H111.9V194.962H112.965V197.017H115.215V197.902H112.965ZM124.567 197.017V205.207H123.517V203.767C123.277 204.277 122.907 204.667 122.407 204.937C121.907 205.207 121.347 205.342 120.727 205.342C119.747 205.342 118.947 205.042 118.327 204.442C117.707 203.832 117.397 202.952 117.397 201.802V197.017H118.432V201.682C118.432 202.572 118.652 203.252 119.092 203.722C119.542 204.192 120.152 204.427 120.922 204.427C121.712 204.427 122.342 204.177 122.812 203.677C123.282 203.177 123.517 202.442 123.517 201.472V197.017H124.567ZM128.539 198.472C128.769 197.962 129.119 197.567 129.589 197.287C130.069 197.007 130.654 196.867 131.344 196.867V197.962H131.059C130.299 197.962 129.689 198.167 129.229 198.577C128.769 198.987 128.539 199.672 128.539 200.632V205.207H127.489V197.017H128.539V198.472ZM137.61 201.097C137.61 200.257 137.775 199.522 138.105 198.892C138.445 198.252 138.91 197.762 139.5 197.422C140.1 197.072 140.775 196.897 141.525 196.897C142.305 196.897 142.975 197.077 143.535 197.437C144.105 197.797 144.515 198.257 144.765 198.817V197.017H145.815V205.207H144.765V203.392C144.505 203.952 144.09 204.417 143.52 204.787C142.96 205.147 142.29 205.327 141.51 205.327C140.77 205.327 140.1 205.152 139.5 204.802C138.91 204.452 138.445 203.957 138.105 203.317C137.775 202.677 137.61 201.937 137.61 201.097ZM144.765 201.112C144.765 200.452 144.63 199.872 144.36 199.372C144.09 198.872 143.72 198.487 143.25 198.217C142.79 197.947 142.28 197.812 141.72 197.812C141.14 197.812 140.62 197.942 140.16 198.202C139.7 198.462 139.335 198.842 139.065 199.342C138.805 199.832 138.675 200.417 138.675 201.097C138.675 201.767 138.805 202.357 139.065 202.867C139.335 203.367 139.7 203.752 140.16 204.022C140.62 204.282 141.14 204.412 141.72 204.412C142.28 204.412 142.79 204.277 143.25 204.007C143.72 203.737 144.09 203.352 144.36 202.852C144.63 202.352 144.765 201.772 144.765 201.112ZM148.257 201.097C148.257 200.257 148.427 199.522 148.767 198.892C149.107 198.252 149.572 197.762 150.162 197.422C150.762 197.072 151.437 196.897 152.187 196.897C152.907 196.897 153.557 197.072 154.137 197.422C154.717 197.772 155.142 198.227 155.412 198.787V194.107H156.462V205.207H155.412V203.377C155.162 203.947 154.752 204.417 154.182 204.787C153.612 205.147 152.942 205.327 152.172 205.327C151.422 205.327 150.747 205.152 150.147 204.802C149.557 204.452 149.092 203.957 148.752 203.317C148.422 202.677 148.257 201.937 148.257 201.097ZM155.412 201.112C155.412 200.452 155.277 199.872 155.007 199.372C154.737 198.872 154.367 198.487 153.897 198.217C153.437 197.947 152.927 197.812 152.367 197.812C151.787 197.812 151.267 197.942 150.807 198.202C150.347 198.462 149.982 198.842 149.712 199.342C149.452 199.832 149.322 200.417 149.322 201.097C149.322 201.767 149.452 202.357 149.712 202.867C149.982 203.367 150.347 203.752 150.807 204.022C151.267 204.282 151.787 204.412 152.367 204.412C152.927 204.412 153.437 204.277 153.897 204.007C154.367 203.737 154.737 203.352 155.007 202.852C155.277 202.352 155.412 201.772 155.412 201.112ZM159.909 195.472C159.699 195.472 159.519 195.397 159.369 195.247C159.219 195.097 159.144 194.912 159.144 194.692C159.144 194.472 159.219 194.292 159.369 194.152C159.519 194.002 159.699 193.927 159.909 193.927C160.119 193.927 160.299 194.002 160.449 194.152C160.599 194.292 160.674 194.472 160.674 194.692C160.674 194.912 160.599 195.097 160.449 195.247C160.299 195.397 160.119 195.472 159.909 195.472ZM160.434 197.017V205.207H159.384V197.017H160.434ZM164.372 198.817C164.632 198.267 165.042 197.812 165.602 197.452C166.172 197.082 166.847 196.897 167.627 196.897C168.367 196.897 169.032 197.072 169.622 197.422C170.222 197.762 170.687 198.252 171.017 198.892C171.357 199.522 171.527 200.257 171.527 201.097C171.527 201.937 171.357 202.677 171.017 203.317C170.687 203.957 170.222 204.452 169.622 204.802C169.032 205.152 168.367 205.327 167.627 205.327C166.857 205.327 166.187 205.147 165.617 204.787C165.047 204.417 164.632 203.957 164.372 203.407V209.077H163.337V197.017H164.372V198.817ZM170.462 201.097C170.462 200.417 170.327 199.832 170.057 199.342C169.797 198.842 169.437 198.462 168.977 198.202C168.517 197.942 167.997 197.812 167.417 197.812C166.857 197.812 166.342 197.947 165.872 198.217C165.412 198.487 165.047 198.872 164.777 199.372C164.507 199.872 164.372 200.452 164.372 201.112C164.372 201.772 164.507 202.352 164.777 202.852C165.047 203.352 165.412 203.737 165.872 204.007C166.342 204.277 166.857 204.412 167.417 204.412C167.997 204.412 168.517 204.282 168.977 204.022C169.437 203.752 169.797 203.367 170.057 202.867C170.327 202.357 170.462 201.767 170.462 201.097ZM174.509 195.472C174.299 195.472 174.119 195.397 173.969 195.247C173.819 195.097 173.744 194.912 173.744 194.692C173.744 194.472 173.819 194.292 173.969 194.152C174.119 194.002 174.299 193.927 174.509 193.927C174.719 193.927 174.899 194.002 175.049 194.152C175.199 194.292 175.274 194.472 175.274 194.692C175.274 194.912 175.199 195.097 175.049 195.247C174.899 195.397 174.719 195.472 174.509 195.472ZM175.034 197.017V205.207H173.984V197.017H175.034ZM180.757 205.327C179.817 205.327 179.047 205.112 178.447 204.682C177.857 204.242 177.527 203.647 177.457 202.897H178.537C178.587 203.357 178.802 203.732 179.182 204.022C179.572 204.302 180.092 204.442 180.742 204.442C181.312 204.442 181.757 204.307 182.077 204.037C182.407 203.767 182.572 203.432 182.572 203.032C182.572 202.752 182.482 202.522 182.302 202.342C182.122 202.162 181.892 202.022 181.612 201.922C181.342 201.812 180.972 201.697 180.502 201.577C179.892 201.417 179.397 201.257 179.017 201.097C178.637 200.937 178.312 200.702 178.042 200.392C177.782 200.072 177.652 199.647 177.652 199.117C177.652 198.717 177.772 198.347 178.012 198.007C178.252 197.667 178.592 197.397 179.032 197.197C179.472 196.997 179.972 196.897 180.532 196.897C181.412 196.897 182.122 197.122 182.662 197.572C183.202 198.012 183.492 198.622 183.532 199.402H182.482C182.452 198.922 182.262 198.537 181.912 198.247C181.572 197.947 181.102 197.797 180.502 197.797C179.972 197.797 179.542 197.922 179.212 198.172C178.882 198.422 178.717 198.732 178.717 199.102C178.717 199.422 178.812 199.687 179.002 199.897C179.202 200.097 179.447 200.257 179.737 200.377C180.027 200.487 180.417 200.612 180.907 200.752C181.497 200.912 181.967 201.067 182.317 201.217C182.667 201.367 182.967 201.587 183.217 201.877C183.467 202.167 183.597 202.552 183.607 203.032C183.607 203.472 183.487 203.867 183.247 204.217C183.007 204.557 182.672 204.827 182.242 205.027C181.812 205.227 181.317 205.327 180.757 205.327ZM185.628 201.112C185.628 200.262 185.798 199.522 186.138 198.892C186.478 198.252 186.948 197.762 187.548 197.422C188.148 197.072 188.833 196.897 189.603 196.897C190.613 196.897 191.443 197.147 192.093 197.647C192.753 198.147 193.178 198.827 193.368 199.687H192.243C192.103 199.097 191.798 198.637 191.328 198.307C190.868 197.967 190.293 197.797 189.603 197.797C189.053 197.797 188.558 197.922 188.118 198.172C187.678 198.422 187.328 198.797 187.068 199.297C186.818 199.787 186.693 200.392 186.693 201.112C186.693 201.832 186.818 202.442 187.068 202.942C187.328 203.442 187.678 203.817 188.118 204.067C188.558 204.317 189.053 204.442 189.603 204.442C190.293 204.442 190.868 204.277 191.328 203.947C191.798 203.607 192.103 203.137 192.243 202.537H193.368C193.178 203.377 192.753 204.052 192.093 204.562C191.433 205.072 190.603 205.327 189.603 205.327C188.833 205.327 188.148 205.157 187.548 204.817C186.948 204.467 186.478 203.977 186.138 203.347C185.798 202.707 185.628 201.962 185.628 201.112ZM196.357 195.472C196.147 195.472 195.967 195.397 195.817 195.247C195.667 195.097 195.592 194.912 195.592 194.692C195.592 194.472 195.667 194.292 195.817 194.152C195.967 194.002 196.147 193.927 196.357 193.927C196.567 193.927 196.747 194.002 196.897 194.152C197.047 194.292 197.122 194.472 197.122 194.692C197.122 194.912 197.047 195.097 196.897 195.247C196.747 195.397 196.567 195.472 196.357 195.472ZM196.882 197.017V205.207H195.832V197.017H196.882ZM203.625 196.867C204.605 196.867 205.405 197.172 206.025 197.782C206.645 198.382 206.955 199.257 206.955 200.407V205.207H205.92V200.527C205.92 199.637 205.695 198.957 205.245 198.487C204.805 198.017 204.2 197.782 203.43 197.782C202.64 197.782 202.01 198.032 201.54 198.532C201.07 199.032 200.835 199.767 200.835 200.737V205.207H199.785V197.017H200.835V198.412C201.095 197.912 201.47 197.532 201.96 197.272C202.45 197.002 203.005 196.867 203.625 196.867ZM213.237 196.897C214.007 196.897 214.677 197.077 215.247 197.437C215.817 197.797 216.227 198.252 216.477 198.802V197.017H217.527V205.417C217.527 206.167 217.362 206.832 217.032 207.412C216.712 207.992 216.262 208.437 215.682 208.747C215.102 209.067 214.442 209.227 213.702 209.227C212.652 209.227 211.777 208.977 211.077 208.477C210.387 207.977 209.957 207.297 209.787 206.437H210.822C211.002 207.007 211.342 207.462 211.842 207.802C212.352 208.142 212.972 208.312 213.702 208.312C214.232 208.312 214.707 208.197 215.127 207.967C215.547 207.747 215.877 207.417 216.117 206.977C216.357 206.537 216.477 206.017 216.477 205.417V203.392C216.217 203.952 215.802 204.417 215.232 204.787C214.672 205.147 214.007 205.327 213.237 205.327C212.487 205.327 211.812 205.152 211.212 204.802C210.622 204.452 210.157 203.957 209.817 203.317C209.487 202.677 209.322 201.937 209.322 201.097C209.322 200.257 209.487 199.522 209.817 198.892C210.157 198.252 210.622 197.762 211.212 197.422C211.812 197.072 212.487 196.897 213.237 196.897ZM216.477 201.112C216.477 200.452 216.342 199.872 216.072 199.372C215.802 198.872 215.432 198.487 214.962 198.217C214.502 197.947 213.992 197.812 213.432 197.812C212.852 197.812 212.332 197.942 211.872 198.202C211.412 198.462 211.047 198.842 210.777 199.342C210.517 199.832 210.387 200.417 210.387 201.097C210.387 201.767 210.517 202.357 210.777 202.867C211.047 203.367 211.412 203.752 211.872 204.022C212.332 204.282 212.852 204.412 213.432 204.412C213.992 204.412 214.502 204.277 214.962 204.007C215.432 203.737 215.802 203.352 216.072 202.852C216.342 202.352 216.477 201.772 216.477 201.112ZM232.501 200.692C232.501 201.052 232.491 201.327 232.471 201.517H225.676C225.706 202.137 225.856 202.667 226.126 203.107C226.396 203.547 226.751 203.882 227.191 204.112C227.631 204.332 228.111 204.442 228.631 204.442C229.311 204.442 229.881 204.277 230.341 203.947C230.811 203.617 231.121 203.172 231.271 202.612H232.381C232.181 203.412 231.751 204.067 231.091 204.577C230.441 205.077 229.621 205.327 228.631 205.327C227.861 205.327 227.171 205.157 226.561 204.817C225.951 204.467 225.471 203.977 225.121 203.347C224.781 202.707 224.611 201.962 224.611 201.112C224.611 200.262 224.781 199.517 225.121 198.877C225.461 198.237 225.936 197.747 226.546 197.407C227.156 197.067 227.851 196.897 228.631 196.897C229.411 196.897 230.091 197.067 230.671 197.407C231.261 197.747 231.711 198.207 232.021 198.787C232.341 199.357 232.501 199.992 232.501 200.692ZM231.436 200.662C231.446 200.052 231.321 199.532 231.061 199.102C230.811 198.672 230.466 198.347 230.026 198.127C229.586 197.907 229.106 197.797 228.586 197.797C227.806 197.797 227.141 198.047 226.591 198.547C226.041 199.047 225.736 199.752 225.676 200.662H231.436ZM235.997 194.107V205.207H234.947V194.107H235.997ZM239.424 195.472C239.214 195.472 239.034 195.397 238.884 195.247C238.734 195.097 238.659 194.912 238.659 194.692C238.659 194.472 238.734 194.292 238.884 194.152C239.034 194.002 239.214 193.927 239.424 193.927C239.634 193.927 239.814 194.002 239.964 194.152C240.114 194.292 240.189 194.472 240.189 194.692C240.189 194.912 240.114 195.097 239.964 195.247C239.814 195.397 239.634 195.472 239.424 195.472ZM239.949 197.017V205.207H238.899V197.017H239.949ZM244.217 197.902V202.987C244.217 203.487 244.312 203.832 244.502 204.022C244.692 204.212 245.027 204.307 245.507 204.307H246.467V205.207H245.342C244.602 205.207 244.052 205.037 243.692 204.697C243.332 204.347 243.152 203.777 243.152 202.987V197.902H242.012V197.017H243.152V194.962H244.217V197.017H246.467V197.902H244.217ZM248.904 205.282C248.684 205.282 248.499 205.207 248.349 205.057C248.209 204.907 248.139 204.722 248.139 204.502C248.139 204.282 248.209 204.102 248.349 203.962C248.499 203.812 248.684 203.737 248.904 203.737C249.114 203.737 249.289 203.812 249.429 203.962C249.579 204.102 249.654 204.282 249.654 204.502C249.654 204.722 249.579 204.907 249.429 205.057C249.289 205.207 249.114 205.282 248.904 205.282ZM30.168 218.577V222.492H34.143V223.362H30.168V227.337H34.593V228.207H29.118V217.707H34.593V218.577H30.168ZM40.6219 219.897C41.3919 219.897 42.0619 220.077 42.6319 220.437C43.2019 220.797 43.6119 221.252 43.8619 221.802V220.017H44.9119V228.417C44.9119 229.167 44.7469 229.832 44.4169 230.412C44.0969 230.992 43.6469 231.437 43.0669 231.747C42.4869 232.067 41.8269 232.227 41.0869 232.227C40.0369 232.227 39.1619 231.977 38.4619 231.477C37.7719 230.977 37.3419 230.297 37.1719 229.437H38.2069C38.3869 230.007 38.7269 230.462 39.2269 230.802C39.7369 231.142 40.3569 231.312 41.0869 231.312C41.6169 231.312 42.0919 231.197 42.5119 230.967C42.9319 230.747 43.2619 230.417 43.5019 229.977C43.7419 229.537 43.8619 229.017 43.8619 228.417V226.392C43.6019 226.952 43.1869 227.417 42.6169 227.787C42.0569 228.147 41.3919 228.327 40.6219 228.327C39.8719 228.327 39.1969 228.152 38.5969 227.802C38.0069 227.452 37.5419 226.957 37.2019 226.317C36.8719 225.677 36.7069 224.937 36.7069 224.097C36.7069 223.257 36.8719 222.522 37.2019 221.892C37.5419 221.252 38.0069 220.762 38.5969 220.422C39.1969 220.072 39.8719 219.897 40.6219 219.897ZM43.8619 224.112C43.8619 223.452 43.7269 222.872 43.4569 222.372C43.1869 221.872 42.8169 221.487 42.3469 221.217C41.8869 220.947 41.3769 220.812 40.8169 220.812C40.2369 220.812 39.7169 220.942 39.2569 221.202C38.7969 221.462 38.4319 221.842 38.1619 222.342C37.9019 222.832 37.7719 223.417 37.7719 224.097C37.7719 224.767 37.9019 225.357 38.1619 225.867C38.4319 226.367 38.7969 226.752 39.2569 227.022C39.7169 227.282 40.2369 227.412 40.8169 227.412C41.3769 227.412 41.8869 227.277 42.3469 227.007C42.8169 226.737 43.1869 226.352 43.4569 225.852C43.7269 225.352 43.8619 224.772 43.8619 224.112ZM55.244 223.692C55.244 224.052 55.234 224.327 55.214 224.517H48.419C48.449 225.137 48.599 225.667 48.869 226.107C49.139 226.547 49.494 226.882 49.934 227.112C50.374 227.332 50.854 227.442 51.374 227.442C52.054 227.442 52.624 227.277 53.084 226.947C53.554 226.617 53.864 226.172 54.014 225.612H55.124C54.924 226.412 54.494 227.067 53.834 227.577C53.184 228.077 52.364 228.327 51.374 228.327C50.604 228.327 49.914 228.157 49.304 227.817C48.694 227.467 48.214 226.977 47.864 226.347C47.524 225.707 47.354 224.962 47.354 224.112C47.354 223.262 47.524 222.517 47.864 221.877C48.204 221.237 48.679 220.747 49.289 220.407C49.899 220.067 50.594 219.897 51.374 219.897C52.154 219.897 52.834 220.067 53.414 220.407C54.004 220.747 54.454 221.207 54.764 221.787C55.084 222.357 55.244 222.992 55.244 223.692ZM54.179 223.662C54.189 223.052 54.064 222.532 53.804 222.102C53.554 221.672 53.209 221.347 52.769 221.127C52.329 220.907 51.849 220.797 51.329 220.797C50.549 220.797 49.884 221.047 49.334 221.547C48.784 222.047 48.479 222.752 48.419 223.662H54.179ZM60.5101 228.327C59.5701 228.327 58.8001 228.112 58.2001 227.682C57.6101 227.242 57.2801 226.647 57.2101 225.897H58.2901C58.3401 226.357 58.5551 226.732 58.9351 227.022C59.3251 227.302 59.8451 227.442 60.4951 227.442C61.0651 227.442 61.5101 227.307 61.8301 227.037C62.1601 226.767 62.3251 226.432 62.3251 226.032C62.3251 225.752 62.2351 225.522 62.0551 225.342C61.8751 225.162 61.6451 225.022 61.3651 224.922C61.0951 224.812 60.7251 224.697 60.2551 224.577C59.6451 224.417 59.1501 224.257 58.7701 224.097C58.3901 223.937 58.0651 223.702 57.7951 223.392C57.5351 223.072 57.4051 222.647 57.4051 222.117C57.4051 221.717 57.5251 221.347 57.7651 221.007C58.0051 220.667 58.3451 220.397 58.7851 220.197C59.2251 219.997 59.7251 219.897 60.2851 219.897C61.1651 219.897 61.8751 220.122 62.4151 220.572C62.9551 221.012 63.2451 221.622 63.2851 222.402H62.2351C62.2051 221.922 62.0151 221.537 61.6651 221.247C61.3251 220.947 60.8551 220.797 60.2551 220.797C59.7251 220.797 59.2951 220.922 58.9651 221.172C58.6351 221.422 58.4701 221.732 58.4701 222.102C58.4701 222.422 58.5651 222.687 58.7551 222.897C58.9551 223.097 59.2001 223.257 59.4901 223.377C59.7801 223.487 60.1701 223.612 60.6601 223.752C61.2501 223.912 61.7201 224.067 62.0701 224.217C62.4201 224.367 62.7201 224.587 62.9701 224.877C63.2201 225.167 63.3501 225.552 63.3601 226.032C63.3601 226.472 63.2401 226.867 63.0001 227.217C62.7601 227.557 62.4251 227.827 61.9951 228.027C61.5651 228.227 61.0701 228.327 60.5101 228.327ZM67.2265 220.902V225.987C67.2265 226.487 67.3215 226.832 67.5115 227.022C67.7015 227.212 68.0365 227.307 68.5165 227.307H69.4765V228.207H68.3515C67.6115 228.207 67.0615 228.037 66.7015 227.697C66.3415 227.347 66.1615 226.777 66.1615 225.987V220.902H65.0215V220.017H66.1615V217.962H67.2265V220.017H69.4765V220.902H67.2265ZM71.2532 224.097C71.2532 223.257 71.4182 222.522 71.7482 221.892C72.0882 221.252 72.5532 220.762 73.1432 220.422C73.7432 220.072 74.4182 219.897 75.1682 219.897C75.9482 219.897 76.6182 220.077 77.1782 220.437C77.7482 220.797 78.1582 221.257 78.4082 221.817V220.017H79.4582V228.207H78.4082V226.392C78.1482 226.952 77.7332 227.417 77.1632 227.787C76.6032 228.147 75.9332 228.327 75.1532 228.327C74.4132 228.327 73.7432 228.152 73.1432 227.802C72.5532 227.452 72.0882 226.957 71.7482 226.317C71.4182 225.677 71.2532 224.937 71.2532 224.097ZM78.4082 224.112C78.4082 223.452 78.2732 222.872 78.0032 222.372C77.7332 221.872 77.3632 221.487 76.8932 221.217C76.4332 220.947 75.9232 220.812 75.3632 220.812C74.7832 220.812 74.2632 220.942 73.8032 221.202C73.3432 221.462 72.9782 221.842 72.7082 222.342C72.4482 222.832 72.3182 223.417 72.3182 224.097C72.3182 224.767 72.4482 225.357 72.7082 225.867C72.9782 226.367 73.3432 226.752 73.8032 227.022C74.2632 227.282 74.7832 227.412 75.3632 227.412C75.9232 227.412 76.4332 227.277 76.8932 227.007C77.3632 226.737 77.7332 226.352 78.0032 225.852C78.2732 225.352 78.4082 224.772 78.4082 224.112ZM85.2003 228.327C84.2603 228.327 83.4903 228.112 82.8903 227.682C82.3003 227.242 81.9703 226.647 81.9003 225.897H82.9803C83.0303 226.357 83.2453 226.732 83.6253 227.022C84.0153 227.302 84.5353 227.442 85.1853 227.442C85.7553 227.442 86.2003 227.307 86.5203 227.037C86.8503 226.767 87.0153 226.432 87.0153 226.032C87.0153 225.752 86.9253 225.522 86.7453 225.342C86.5653 225.162 86.3353 225.022 86.0553 224.922C85.7853 224.812 85.4153 224.697 84.9453 224.577C84.3353 224.417 83.8403 224.257 83.4603 224.097C83.0803 223.937 82.7553 223.702 82.4853 223.392C82.2253 223.072 82.0953 222.647 82.0953 222.117C82.0953 221.717 82.2153 221.347 82.4553 221.007C82.6953 220.667 83.0353 220.397 83.4753 220.197C83.9153 219.997 84.4153 219.897 84.9753 219.897C85.8553 219.897 86.5653 220.122 87.1053 220.572C87.6453 221.012 87.9353 221.622 87.9753 222.402H86.9253C86.8953 221.922 86.7053 221.537 86.3553 221.247C86.0153 220.947 85.5453 220.797 84.9453 220.797C84.4153 220.797 83.9853 220.922 83.6553 221.172C83.3253 221.422 83.1603 221.732 83.1603 222.102C83.1603 222.422 83.2553 222.687 83.4453 222.897C83.6453 223.097 83.8903 223.257 84.1803 223.377C84.4703 223.487 84.8603 223.612 85.3503 223.752C85.9403 223.912 86.4103 224.067 86.7603 224.217C87.1103 224.367 87.4103 224.587 87.6603 224.877C87.9103 225.167 88.0403 225.552 88.0503 226.032C88.0503 226.472 87.9303 226.867 87.6903 227.217C87.4503 227.557 87.1153 227.827 86.6853 228.027C86.2553 228.227 85.7603 228.327 85.2003 228.327ZM96.243 221.472C96.473 220.962 96.823 220.567 97.293 220.287C97.773 220.007 98.358 219.867 99.048 219.867V220.962H98.763C98.003 220.962 97.393 221.167 96.933 221.577C96.473 221.987 96.243 222.672 96.243 223.632V228.207H95.193V220.017H96.243V221.472ZM105.053 219.867C105.673 219.867 106.228 219.997 106.718 220.257C107.218 220.517 107.608 220.917 107.888 221.457C108.178 221.987 108.323 222.637 108.323 223.407V228.207H107.288V223.527C107.288 222.637 107.063 221.957 106.613 221.487C106.173 221.017 105.568 220.782 104.798 220.782C104.008 220.782 103.378 221.032 102.908 221.532C102.438 222.032 102.203 222.767 102.203 223.737V228.207H101.153V217.107H102.203V221.412C102.463 220.922 102.843 220.542 103.343 220.272C103.853 220.002 104.423 219.867 105.053 219.867ZM114.755 228.327C113.985 228.327 113.29 228.157 112.67 227.817C112.06 227.467 111.575 226.977 111.215 226.347C110.865 225.707 110.69 224.962 110.69 224.112C110.69 223.262 110.87 222.522 111.23 221.892C111.59 221.252 112.08 220.762 112.7 220.422C113.32 220.072 114.015 219.897 114.785 219.897C115.555 219.897 116.25 220.072 116.87 220.422C117.5 220.762 117.99 221.252 118.34 221.892C118.7 222.522 118.88 223.262 118.88 224.112C118.88 224.952 118.7 225.692 118.34 226.332C117.98 226.972 117.485 227.467 116.855 227.817C116.225 228.157 115.525 228.327 114.755 228.327ZM114.755 227.412C115.295 227.412 115.795 227.292 116.255 227.052C116.715 226.802 117.085 226.432 117.365 225.942C117.655 225.442 117.8 224.832 117.8 224.112C117.8 223.392 117.66 222.787 117.38 222.297C117.1 221.797 116.73 221.427 116.27 221.187C115.81 220.937 115.31 220.812 114.77 220.812C114.23 220.812 113.73 220.937 113.27 221.187C112.81 221.427 112.44 221.797 112.16 222.297C111.89 222.787 111.755 223.392 111.755 224.112C111.755 224.832 111.89 225.442 112.16 225.942C112.44 226.432 112.805 226.802 113.255 227.052C113.715 227.292 114.215 227.412 114.755 227.412ZM125.159 219.867C126.139 219.867 126.939 220.172 127.559 220.782C128.179 221.382 128.489 222.257 128.489 223.407V228.207H127.454V223.527C127.454 222.637 127.229 221.957 126.779 221.487C126.339 221.017 125.734 220.782 124.964 220.782C124.174 220.782 123.544 221.032 123.074 221.532C122.604 222.032 122.369 222.767 122.369 223.737V228.207H121.319V220.017H122.369V221.412C122.629 220.912 123.004 220.532 123.494 220.272C123.984 220.002 124.539 219.867 125.159 219.867ZM130.856 224.112C130.856 223.262 131.026 222.522 131.366 221.892C131.706 221.252 132.176 220.762 132.776 220.422C133.376 220.072 134.061 219.897 134.831 219.897C135.841 219.897 136.671 220.147 137.321 220.647C137.981 221.147 138.406 221.827 138.596 222.687H137.471C137.331 222.097 137.026 221.637 136.556 221.307C136.096 220.967 135.521 220.797 134.831 220.797C134.281 220.797 133.786 220.922 133.346 221.172C132.906 221.422 132.556 221.797 132.296 222.297C132.046 222.787 131.921 223.392 131.921 224.112C131.921 224.832 132.046 225.442 132.296 225.942C132.556 226.442 132.906 226.817 133.346 227.067C133.786 227.317 134.281 227.442 134.831 227.442C135.521 227.442 136.096 227.277 136.556 226.947C137.026 226.607 137.331 226.137 137.471 225.537H138.596C138.406 226.377 137.981 227.052 137.321 227.562C136.661 228.072 135.831 228.327 134.831 228.327C134.061 228.327 133.376 228.157 132.776 227.817C132.176 227.467 131.706 226.977 131.366 226.347C131.026 225.707 130.856 224.962 130.856 224.112ZM148.155 220.017V228.207H147.105V226.767C146.865 227.277 146.495 227.667 145.995 227.937C145.495 228.207 144.935 228.342 144.315 228.342C143.335 228.342 142.535 228.042 141.915 227.442C141.295 226.832 140.985 225.952 140.985 224.802V220.017H142.02V224.682C142.02 225.572 142.24 226.252 142.68 226.722C143.13 227.192 143.74 227.427 144.51 227.427C145.3 227.427 145.93 227.177 146.4 226.677C146.87 226.177 147.105 225.442 147.105 224.472V220.017H148.155ZM153.897 228.327C152.957 228.327 152.187 228.112 151.587 227.682C150.997 227.242 150.667 226.647 150.597 225.897H151.677C151.727 226.357 151.942 226.732 152.322 227.022C152.712 227.302 153.232 227.442 153.882 227.442C154.452 227.442 154.897 227.307 155.217 227.037C155.547 226.767 155.712 226.432 155.712 226.032C155.712 225.752 155.622 225.522 155.442 225.342C155.262 225.162 155.032 225.022 154.752 224.922C154.482 224.812 154.112 224.697 153.642 224.577C153.032 224.417 152.537 224.257 152.157 224.097C151.777 223.937 151.452 223.702 151.182 223.392C150.922 223.072 150.792 222.647 150.792 222.117C150.792 221.717 150.912 221.347 151.152 221.007C151.392 220.667 151.732 220.397 152.172 220.197C152.612 219.997 153.112 219.897 153.672 219.897C154.552 219.897 155.262 220.122 155.802 220.572C156.342 221.012 156.632 221.622 156.672 222.402H155.622C155.592 221.922 155.402 221.537 155.052 221.247C154.712 220.947 154.242 220.797 153.642 220.797C153.112 220.797 152.682 220.922 152.352 221.172C152.022 221.422 151.857 221.732 151.857 222.102C151.857 222.422 151.952 222.687 152.142 222.897C152.342 223.097 152.587 223.257 152.877 223.377C153.167 223.487 153.557 223.612 154.047 223.752C154.637 223.912 155.107 224.067 155.457 224.217C155.807 224.367 156.107 224.587 156.357 224.877C156.607 225.167 156.737 225.552 156.747 226.032C156.747 226.472 156.627 226.867 156.387 227.217C156.147 227.557 155.812 227.827 155.382 228.027C154.952 228.227 154.457 228.327 153.897 228.327ZM173.64 219.867C174.6 219.867 175.38 220.172 175.98 220.782C176.59 221.382 176.895 222.257 176.895 223.407V228.207H175.86V223.527C175.86 222.637 175.645 221.957 175.215 221.487C174.785 221.017 174.2 220.782 173.46 220.782C172.69 220.782 172.075 221.037 171.615 221.547C171.155 222.057 170.925 222.797 170.925 223.767V228.207H169.89V223.527C169.89 222.637 169.675 221.957 169.245 221.487C168.815 221.017 168.225 220.782 167.475 220.782C166.705 220.782 166.09 221.037 165.63 221.547C165.17 222.057 164.94 222.797 164.94 223.767V228.207H163.89V220.017H164.94V221.427C165.2 220.917 165.57 220.532 166.05 220.272C166.53 220.002 167.065 219.867 167.655 219.867C168.365 219.867 168.985 220.037 169.515 220.377C170.055 220.717 170.445 221.217 170.685 221.877C170.905 221.227 171.28 220.732 171.81 220.392C172.35 220.042 172.96 219.867 173.64 219.867ZM179.272 224.097C179.272 223.257 179.437 222.522 179.767 221.892C180.107 221.252 180.572 220.762 181.162 220.422C181.762 220.072 182.437 219.897 183.187 219.897C183.967 219.897 184.637 220.077 185.197 220.437C185.767 220.797 186.177 221.257 186.427 221.817V220.017H187.477V228.207H186.427V226.392C186.167 226.952 185.752 227.417 185.182 227.787C184.622 228.147 183.952 228.327 183.172 228.327C182.432 228.327 181.762 228.152 181.162 227.802C180.572 227.452 180.107 226.957 179.767 226.317C179.437 225.677 179.272 224.937 179.272 224.097ZM186.427 224.112C186.427 223.452 186.292 222.872 186.022 222.372C185.752 221.872 185.382 221.487 184.912 221.217C184.452 220.947 183.942 220.812 183.382 220.812C182.802 220.812 182.282 220.942 181.822 221.202C181.362 221.462 180.997 221.842 180.727 222.342C180.467 222.832 180.337 223.417 180.337 224.097C180.337 224.767 180.467 225.357 180.727 225.867C180.997 226.367 181.362 226.752 181.822 227.022C182.282 227.282 182.802 227.412 183.382 227.412C183.942 227.412 184.452 227.277 184.912 227.007C185.382 226.737 185.752 226.352 186.022 225.852C186.292 225.352 186.427 224.772 186.427 224.112ZM193.219 228.327C192.279 228.327 191.509 228.112 190.909 227.682C190.319 227.242 189.989 226.647 189.919 225.897H190.999C191.049 226.357 191.264 226.732 191.644 227.022C192.034 227.302 192.554 227.442 193.204 227.442C193.774 227.442 194.219 227.307 194.539 227.037C194.869 226.767 195.034 226.432 195.034 226.032C195.034 225.752 194.944 225.522 194.764 225.342C194.584 225.162 194.354 225.022 194.074 224.922C193.804 224.812 193.434 224.697 192.964 224.577C192.354 224.417 191.859 224.257 191.479 224.097C191.099 223.937 190.774 223.702 190.504 223.392C190.244 223.072 190.114 222.647 190.114 222.117C190.114 221.717 190.234 221.347 190.474 221.007C190.714 220.667 191.054 220.397 191.494 220.197C191.934 219.997 192.434 219.897 192.994 219.897C193.874 219.897 194.584 220.122 195.124 220.572C195.664 221.012 195.954 221.622 195.994 222.402H194.944C194.914 221.922 194.724 221.537 194.374 221.247C194.034 220.947 193.564 220.797 192.964 220.797C192.434 220.797 192.004 220.922 191.674 221.172C191.344 221.422 191.179 221.732 191.179 222.102C191.179 222.422 191.274 222.687 191.464 222.897C191.664 223.097 191.909 223.257 192.199 223.377C192.489 223.487 192.879 223.612 193.369 223.752C193.959 223.912 194.429 224.067 194.779 224.217C195.129 224.367 195.429 224.587 195.679 224.877C195.929 225.167 196.059 225.552 196.069 226.032C196.069 226.472 195.949 226.867 195.709 227.217C195.469 227.557 195.134 227.827 194.704 228.027C194.274 228.227 193.779 228.327 193.219 228.327ZM201.391 228.327C200.451 228.327 199.681 228.112 199.081 227.682C198.491 227.242 198.161 226.647 198.091 225.897H199.171C199.221 226.357 199.436 226.732 199.816 227.022C200.206 227.302 200.726 227.442 201.376 227.442C201.946 227.442 202.391 227.307 202.711 227.037C203.041 226.767 203.206 226.432 203.206 226.032C203.206 225.752 203.116 225.522 202.936 225.342C202.756 225.162 202.526 225.022 202.246 224.922C201.976 224.812 201.606 224.697 201.136 224.577C200.526 224.417 200.031 224.257 199.651 224.097C199.271 223.937 198.946 223.702 198.676 223.392C198.416 223.072 198.286 222.647 198.286 222.117C198.286 221.717 198.406 221.347 198.646 221.007C198.886 220.667 199.226 220.397 199.666 220.197C200.106 219.997 200.606 219.897 201.166 219.897C202.046 219.897 202.756 220.122 203.296 220.572C203.836 221.012 204.126 221.622 204.166 222.402H203.116C203.086 221.922 202.896 221.537 202.546 221.247C202.206 220.947 201.736 220.797 201.136 220.797C200.606 220.797 200.176 220.922 199.846 221.172C199.516 221.422 199.351 221.732 199.351 222.102C199.351 222.422 199.446 222.687 199.636 222.897C199.836 223.097 200.081 223.257 200.371 223.377C200.661 223.487 201.051 223.612 201.541 223.752C202.131 223.912 202.601 224.067 202.951 224.217C203.301 224.367 203.601 224.587 203.851 224.877C204.101 225.167 204.231 225.552 204.241 226.032C204.241 226.472 204.121 226.867 203.881 227.217C203.641 227.557 203.306 227.827 202.876 228.027C202.446 228.227 201.951 228.327 201.391 228.327ZM206.262 224.097C206.262 223.257 206.427 222.522 206.757 221.892C207.097 221.252 207.562 220.762 208.152 220.422C208.752 220.072 209.427 219.897 210.177 219.897C210.957 219.897 211.627 220.077 212.187 220.437C212.757 220.797 213.167 221.257 213.417 221.817V220.017H214.467V228.207H213.417V226.392C213.157 226.952 212.742 227.417 212.172 227.787C211.612 228.147 210.942 228.327 210.162 228.327C209.422 228.327 208.752 228.152 208.152 227.802C207.562 227.452 207.097 226.957 206.757 226.317C206.427 225.677 206.262 224.937 206.262 224.097ZM213.417 224.112C213.417 223.452 213.282 222.872 213.012 222.372C212.742 221.872 212.372 221.487 211.902 221.217C211.442 220.947 210.932 220.812 210.372 220.812C209.792 220.812 209.272 220.942 208.812 221.202C208.352 221.462 207.987 221.842 207.717 222.342C207.457 222.832 207.327 223.417 207.327 224.097C207.327 224.767 207.457 225.357 207.717 225.867C207.987 226.367 208.352 226.752 208.812 227.022C209.272 227.282 209.792 227.412 210.372 227.412C210.932 227.412 211.442 227.277 211.902 227.007C212.372 226.737 212.742 226.352 213.012 225.852C213.282 225.352 213.417 224.772 213.417 224.112ZM224.94 227.187L227.7 220.017H228.81L225.525 228.207H224.34L221.055 220.017H222.18L224.94 227.187ZM231.283 218.472C231.073 218.472 230.893 218.397 230.743 218.247C230.593 218.097 230.518 217.912 230.518 217.692C230.518 217.472 230.593 217.292 230.743 217.152C230.893 217.002 231.073 216.927 231.283 216.927C231.493 216.927 231.673 217.002 231.823 217.152C231.973 217.292 232.048 217.472 232.048 217.692C232.048 217.912 231.973 218.097 231.823 218.247C231.673 218.397 231.493 218.472 231.283 218.472ZM231.808 220.017V228.207H230.758V220.017H231.808ZM236.076 220.902V225.987C236.076 226.487 236.171 226.832 236.361 227.022C236.551 227.212 236.886 227.307 237.366 227.307H238.326V228.207H237.201C236.461 228.207 235.911 228.037 235.551 227.697C235.191 227.347 235.011 226.777 235.011 225.987V220.902H233.871V220.017H235.011V217.962H236.076V220.017H238.326V220.902H236.076ZM240.103 224.097C240.103 223.257 240.268 222.522 240.598 221.892C240.938 221.252 241.403 220.762 241.993 220.422C242.593 220.072 243.268 219.897 244.018 219.897C244.798 219.897 245.468 220.077 246.028 220.437C246.598 220.797 247.008 221.257 247.258 221.817V220.017H248.308V228.207H247.258V226.392C246.998 226.952 246.583 227.417 246.013 227.787C245.453 228.147 244.783 228.327 244.003 228.327C243.263 228.327 242.593 228.152 241.993 227.802C241.403 227.452 240.938 226.957 240.598 226.317C240.268 225.677 240.103 224.937 240.103 224.097ZM247.258 224.112C247.258 223.452 247.123 222.872 246.853 222.372C246.583 221.872 246.213 221.487 245.743 221.217C245.283 220.947 244.773 220.812 244.213 220.812C243.633 220.812 243.113 220.942 242.653 221.202C242.193 221.462 241.828 221.842 241.558 222.342C241.298 222.832 241.168 223.417 241.168 224.097C241.168 224.767 241.298 225.357 241.558 225.867C241.828 226.367 242.193 226.752 242.653 227.022C243.113 227.282 243.633 227.412 244.213 227.412C244.773 227.412 245.283 227.277 245.743 227.007C246.213 226.737 246.583 226.352 246.853 225.852C247.123 225.352 247.258 224.772 247.258 224.112ZM258.64 223.692C258.64 224.052 258.63 224.327 258.61 224.517H251.815C251.845 225.137 251.995 225.667 252.265 226.107C252.535 226.547 252.89 226.882 253.33 227.112C253.77 227.332 254.25 227.442 254.77 227.442C255.45 227.442 256.02 227.277 256.48 226.947C256.95 226.617 257.26 226.172 257.41 225.612H258.52C258.32 226.412 257.89 227.067 257.23 227.577C256.58 228.077 255.76 228.327 254.77 228.327C254 228.327 253.31 228.157 252.7 227.817C252.09 227.467 251.61 226.977 251.26 226.347C250.92 225.707 250.75 224.962 250.75 224.112C250.75 223.262 250.92 222.517 251.26 221.877C251.6 221.237 252.075 220.747 252.685 220.407C253.295 220.067 253.99 219.897 254.77 219.897C255.55 219.897 256.23 220.067 256.81 220.407C257.4 220.747 257.85 221.207 258.16 221.787C258.48 222.357 258.64 222.992 258.64 223.692ZM257.575 223.662C257.585 223.052 257.46 222.532 257.2 222.102C256.95 221.672 256.605 221.347 256.165 221.127C255.725 220.907 255.245 220.797 254.725 220.797C253.945 220.797 253.28 221.047 252.73 221.547C252.18 222.047 251.875 222.752 251.815 223.662H257.575ZM49.1842 246.692C49.1842 247.052 49.1742 247.327 49.1542 247.517H42.3592C42.3892 248.137 42.5392 248.667 42.8092 249.107C43.0792 249.547 43.4342 249.882 43.8742 250.112C44.3142 250.332 44.7942 250.442 45.3142 250.442C45.9942 250.442 46.5642 250.277 47.0242 249.947C47.4942 249.617 47.8042 249.172 47.9542 248.612H49.0642C48.8642 249.412 48.4342 250.067 47.7742 250.577C47.1242 251.077 46.3042 251.327 45.3142 251.327C44.5442 251.327 43.8542 251.157 43.2442 250.817C42.6342 250.467 42.1542 249.977 41.8042 249.347C41.4642 248.707 41.2942 247.962 41.2942 247.112C41.2942 246.262 41.4642 245.517 41.8042 244.877C42.1442 244.237 42.6192 243.747 43.2292 243.407C43.8392 243.067 44.5342 242.897 45.3142 242.897C46.0942 242.897 46.7742 243.067 47.3542 243.407C47.9442 243.747 48.3942 244.207 48.7042 244.787C49.0242 245.357 49.1842 245.992 49.1842 246.692ZM48.1192 246.662C48.1292 246.052 48.0042 245.532 47.7442 245.102C47.4942 244.672 47.1492 244.347 46.7092 244.127C46.2692 243.907 45.7892 243.797 45.2692 243.797C44.4892 243.797 43.8242 244.047 43.2742 244.547C42.7242 245.047 42.4192 245.752 42.3592 246.662H48.1192ZM52.9953 243.902V248.987C52.9953 249.487 53.0903 249.832 53.2803 250.022C53.4703 250.212 53.8053 250.307 54.2853 250.307H55.2453V251.207H54.1203C53.3803 251.207 52.8303 251.037 52.4703 250.697C52.1103 250.347 51.9303 249.777 51.9303 248.987V243.902H50.7903V243.017H51.9303V240.962H52.9953V243.017H55.2453V243.902H52.9953ZM57.682 251.282C57.462 251.282 57.277 251.207 57.127 251.057C56.987 250.907 56.917 250.722 56.917 250.502C56.917 250.282 56.987 250.102 57.127 249.962C57.277 249.812 57.462 249.737 57.682 249.737C57.892 249.737 58.067 249.812 58.207 249.962C58.357 250.102 58.432 250.282 58.432 250.502C58.432 250.722 58.357 250.907 58.207 251.057C58.067 251.207 57.892 251.282 57.682 251.282ZM68.5728 251.312C67.8828 251.312 67.2728 251.192 66.7428 250.952C66.2228 250.712 65.8128 250.377 65.5128 249.947C65.2128 249.517 65.0528 249.037 65.0328 248.507H66.1428C66.1928 249.017 66.4178 249.467 66.8178 249.857C67.2178 250.237 67.8028 250.427 68.5728 250.427C69.2828 250.427 69.8428 250.247 70.2528 249.887C70.6728 249.517 70.8828 249.052 70.8828 248.492C70.8828 248.042 70.7678 247.682 70.5378 247.412C70.3078 247.132 70.0228 246.927 69.6828 246.797C69.3428 246.657 68.8728 246.507 68.2728 246.347C67.5728 246.157 67.0178 245.972 66.6078 245.792C66.1978 245.612 65.8478 245.332 65.5578 244.952C65.2678 244.572 65.1228 244.057 65.1228 243.407C65.1228 242.867 65.2628 242.387 65.5428 241.967C65.8228 241.537 66.2178 241.202 66.7278 240.962C67.2378 240.722 67.8228 240.602 68.4828 240.602C69.4528 240.602 70.2328 240.842 70.8228 241.322C71.4228 241.792 71.7678 242.402 71.8578 243.152H70.7178C70.6478 242.722 70.4128 242.342 70.0128 242.012C69.6128 241.672 69.0728 241.502 68.3928 241.502C67.7628 241.502 67.2378 241.672 66.8178 242.012C66.3978 242.342 66.1878 242.797 66.1878 243.377C66.1878 243.817 66.3028 244.172 66.5328 244.442C66.7628 244.712 67.0478 244.917 67.3878 245.057C67.7378 245.197 68.2078 245.347 68.7978 245.507C69.4778 245.697 70.0278 245.887 70.4478 246.077C70.8678 246.257 71.2228 246.537 71.5128 246.917C71.8028 247.297 71.9478 247.807 71.9478 248.447C71.9478 248.937 71.8178 249.402 71.5578 249.842C71.2978 250.282 70.9128 250.637 70.4028 250.907C69.8928 251.177 69.2828 251.312 68.5728 251.312ZM74.0218 247.112C74.0218 246.262 74.1918 245.522 74.5318 244.892C74.8718 244.252 75.3418 243.762 75.9418 243.422C76.5418 243.072 77.2268 242.897 77.9968 242.897C79.0068 242.897 79.8368 243.147 80.4868 243.647C81.1468 244.147 81.5718 244.827 81.7618 245.687H80.6368C80.4968 245.097 80.1918 244.637 79.7218 244.307C79.2618 243.967 78.6868 243.797 77.9968 243.797C77.4468 243.797 76.9518 243.922 76.5118 244.172C76.0718 244.422 75.7218 244.797 75.4618 245.297C75.2118 245.787 75.0868 246.392 75.0868 247.112C75.0868 247.832 75.2118 248.442 75.4618 248.942C75.7218 249.442 76.0718 249.817 76.5118 250.067C76.9518 250.317 77.4468 250.442 77.9968 250.442C78.6868 250.442 79.2618 250.277 79.7218 249.947C80.1918 249.607 80.4968 249.137 80.6368 248.537H81.7618C81.5718 249.377 81.1468 250.052 80.4868 250.562C79.8268 251.072 78.9968 251.327 77.9968 251.327C77.2268 251.327 76.5418 251.157 75.9418 250.817C75.3418 250.467 74.8718 249.977 74.5318 249.347C74.1918 248.707 74.0218 247.962 74.0218 247.112ZM91.636 246.692C91.636 247.052 91.626 247.327 91.606 247.517H84.811C84.841 248.137 84.991 248.667 85.261 249.107C85.531 249.547 85.886 249.882 86.326 250.112C86.766 250.332 87.246 250.442 87.766 250.442C88.446 250.442 89.016 250.277 89.476 249.947C89.946 249.617 90.256 249.172 90.406 248.612H91.516C91.316 249.412 90.886 250.067 90.226 250.577C89.576 251.077 88.756 251.327 87.766 251.327C86.996 251.327 86.306 251.157 85.696 250.817C85.086 250.467 84.606 249.977 84.256 249.347C83.916 248.707 83.746 247.962 83.746 247.112C83.746 246.262 83.916 245.517 84.256 244.877C84.596 244.237 85.071 243.747 85.681 243.407C86.291 243.067 86.986 242.897 87.766 242.897C88.546 242.897 89.226 243.067 89.806 243.407C90.396 243.747 90.846 244.207 91.156 244.787C91.476 245.357 91.636 245.992 91.636 246.692ZM90.571 246.662C90.581 246.052 90.456 245.532 90.196 245.102C89.946 244.672 89.601 244.347 89.161 244.127C88.721 243.907 88.241 243.797 87.721 243.797C86.941 243.797 86.276 244.047 85.726 244.547C85.176 245.047 84.871 245.752 84.811 246.662H90.571ZM95.132 240.107V251.207H94.082V240.107H95.132ZM105.445 246.692C105.445 247.052 105.435 247.327 105.415 247.517H98.6198C98.6498 248.137 98.7998 248.667 99.0698 249.107C99.3398 249.547 99.6948 249.882 100.135 250.112C100.575 250.332 101.055 250.442 101.575 250.442C102.255 250.442 102.825 250.277 103.285 249.947C103.755 249.617 104.065 249.172 104.215 248.612H105.325C105.125 249.412 104.695 250.067 104.035 250.577C103.385 251.077 102.565 251.327 101.575 251.327C100.805 251.327 100.115 251.157 99.5048 250.817C98.8948 250.467 98.4148 249.977 98.0648 249.347C97.7248 248.707 97.5548 247.962 97.5548 247.112C97.5548 246.262 97.7248 245.517 98.0648 244.877C98.4048 244.237 98.8798 243.747 99.4898 243.407C100.1 243.067 100.795 242.897 101.575 242.897C102.355 242.897 103.035 243.067 103.615 243.407C104.205 243.747 104.655 244.207 104.965 244.787C105.285 245.357 105.445 245.992 105.445 246.692ZM104.38 246.662C104.39 246.052 104.265 245.532 104.005 245.102C103.755 244.672 103.41 244.347 102.97 244.127C102.53 243.907 102.05 243.797 101.53 243.797C100.75 243.797 100.085 244.047 99.5348 244.547C98.9848 245.047 98.6798 245.752 98.6198 246.662H104.38ZM108.941 244.472C109.171 243.962 109.521 243.567 109.991 243.287C110.471 243.007 111.056 242.867 111.746 242.867V243.962H111.461C110.701 243.962 110.091 244.167 109.631 244.577C109.171 244.987 108.941 245.672 108.941 246.632V251.207H107.891V243.017H108.941V244.472ZM114.375 241.472C114.165 241.472 113.985 241.397 113.835 241.247C113.685 241.097 113.61 240.912 113.61 240.692C113.61 240.472 113.685 240.292 113.835 240.152C113.985 240.002 114.165 239.927 114.375 239.927C114.585 239.927 114.765 240.002 114.915 240.152C115.065 240.292 115.14 240.472 115.14 240.692C115.14 240.912 115.065 241.097 114.915 241.247C114.765 241.397 114.585 241.472 114.375 241.472ZM114.9 243.017V251.207H113.85V243.017H114.9ZM120.623 251.327C119.683 251.327 118.913 251.112 118.313 250.682C117.723 250.242 117.393 249.647 117.323 248.897H118.403C118.453 249.357 118.668 249.732 119.048 250.022C119.438 250.302 119.958 250.442 120.608 250.442C121.178 250.442 121.623 250.307 121.943 250.037C122.273 249.767 122.438 249.432 122.438 249.032C122.438 248.752 122.348 248.522 122.168 248.342C121.988 248.162 121.758 248.022 121.478 247.922C121.208 247.812 120.838 247.697 120.368 247.577C119.758 247.417 119.263 247.257 118.883 247.097C118.503 246.937 118.178 246.702 117.908 246.392C117.648 246.072 117.518 245.647 117.518 245.117C117.518 244.717 117.638 244.347 117.878 244.007C118.118 243.667 118.458 243.397 118.898 243.197C119.338 242.997 119.838 242.897 120.398 242.897C121.278 242.897 121.988 243.122 122.528 243.572C123.068 244.012 123.358 244.622 123.398 245.402H122.348C122.318 244.922 122.128 244.537 121.778 244.247C121.438 243.947 120.968 243.797 120.368 243.797C119.838 243.797 119.408 243.922 119.078 244.172C118.748 244.422 118.583 244.732 118.583 245.102C118.583 245.422 118.678 245.687 118.868 245.897C119.068 246.097 119.313 246.257 119.603 246.377C119.893 246.487 120.283 246.612 120.773 246.752C121.363 246.912 121.833 247.067 122.183 247.217C122.533 247.367 122.833 247.587 123.083 247.877C123.333 248.167 123.463 248.552 123.473 249.032C123.473 249.472 123.353 249.867 123.113 250.217C122.873 250.557 122.538 250.827 122.108 251.027C121.678 251.227 121.183 251.327 120.623 251.327ZM125.495 247.097C125.495 246.257 125.665 245.522 126.005 244.892C126.345 244.252 126.81 243.762 127.4 243.422C128 243.072 128.675 242.897 129.425 242.897C130.195 242.897 130.865 243.082 131.435 243.452C132.005 243.812 132.41 244.267 132.65 244.817V243.017H133.7V255.077H132.65V249.407C132.41 249.957 132 250.417 131.42 250.787C130.85 251.147 130.175 251.327 129.395 251.327C128.655 251.327 127.985 251.152 127.385 250.802C126.795 250.452 126.33 249.957 125.99 249.317C125.66 248.677 125.495 247.937 125.495 247.097ZM132.65 247.112C132.65 246.452 132.515 245.872 132.245 245.372C131.975 244.872 131.605 244.487 131.135 244.217C130.675 243.947 130.165 243.812 129.605 243.812C129.025 243.812 128.505 243.942 128.045 244.202C127.585 244.462 127.22 244.842 126.95 245.342C126.69 245.832 126.56 246.417 126.56 247.097C126.56 247.767 126.69 248.357 126.95 248.867C127.22 249.367 127.585 249.752 128.045 250.022C128.505 250.282 129.025 250.412 129.605 250.412C130.165 250.412 130.675 250.277 131.135 250.007C131.605 249.737 131.975 249.352 132.245 248.852C132.515 248.352 132.65 247.772 132.65 247.112ZM143.717 243.017V251.207H142.667V249.767C142.427 250.277 142.057 250.667 141.557 250.937C141.057 251.207 140.497 251.342 139.877 251.342C138.897 251.342 138.097 251.042 137.477 250.442C136.857 249.832 136.547 248.952 136.547 247.802V243.017H137.582V247.682C137.582 248.572 137.802 249.252 138.242 249.722C138.692 250.192 139.302 250.427 140.072 250.427C140.862 250.427 141.492 250.177 141.962 249.677C142.432 249.177 142.667 248.442 142.667 247.472V243.017H143.717ZM154.049 246.692C154.049 247.052 154.039 247.327 154.019 247.517H147.224C147.254 248.137 147.404 248.667 147.674 249.107C147.944 249.547 148.299 249.882 148.739 250.112C149.179 250.332 149.659 250.442 150.179 250.442C150.859 250.442 151.429 250.277 151.889 249.947C152.359 249.617 152.669 249.172 152.819 248.612H153.929C153.729 249.412 153.299 250.067 152.639 250.577C151.989 251.077 151.169 251.327 150.179 251.327C149.409 251.327 148.719 251.157 148.109 250.817C147.499 250.467 147.019 249.977 146.669 249.347C146.329 248.707 146.159 247.962 146.159 247.112C146.159 246.262 146.329 245.517 146.669 244.877C147.009 244.237 147.484 243.747 148.094 243.407C148.704 243.067 149.399 242.897 150.179 242.897C150.959 242.897 151.639 243.067 152.219 243.407C152.809 243.747 153.259 244.207 153.569 244.787C153.889 245.357 154.049 245.992 154.049 246.692ZM152.984 246.662C152.994 246.052 152.869 245.532 152.609 245.102C152.359 244.672 152.014 244.347 151.574 244.127C151.134 243.907 150.654 243.797 150.134 243.797C149.354 243.797 148.689 244.047 148.139 244.547C147.589 245.047 147.284 245.752 147.224 246.662H152.984ZM162.186 240.107V251.207H161.136V240.107H162.186ZM172.499 246.692C172.499 247.052 172.489 247.327 172.469 247.517H165.674C165.704 248.137 165.854 248.667 166.124 249.107C166.394 249.547 166.749 249.882 167.189 250.112C167.629 250.332 168.109 250.442 168.629 250.442C169.309 250.442 169.879 250.277 170.339 249.947C170.809 249.617 171.119 249.172 171.269 248.612H172.379C172.179 249.412 171.749 250.067 171.089 250.577C170.439 251.077 169.619 251.327 168.629 251.327C167.859 251.327 167.169 251.157 166.559 250.817C165.949 250.467 165.469 249.977 165.119 249.347C164.779 248.707 164.609 247.962 164.609 247.112C164.609 246.262 164.779 245.517 165.119 244.877C165.459 244.237 165.934 243.747 166.544 243.407C167.154 243.067 167.849 242.897 168.629 242.897C169.409 242.897 170.089 243.067 170.669 243.407C171.259 243.747 171.709 244.207 172.019 244.787C172.339 245.357 172.499 245.992 172.499 246.692ZM171.434 246.662C171.444 246.052 171.319 245.532 171.059 245.102C170.809 244.672 170.464 244.347 170.024 244.127C169.584 243.907 169.104 243.797 168.584 243.797C167.804 243.797 167.139 244.047 166.589 244.547C166.039 245.047 165.734 245.752 165.674 246.662H171.434ZM174.465 247.112C174.465 246.262 174.635 245.522 174.975 244.892C175.315 244.252 175.785 243.762 176.385 243.422C176.985 243.072 177.67 242.897 178.44 242.897C179.45 242.897 180.28 243.147 180.93 243.647C181.59 244.147 182.015 244.827 182.205 245.687H181.08C180.94 245.097 180.635 244.637 180.165 244.307C179.705 243.967 179.13 243.797 178.44 243.797C177.89 243.797 177.395 243.922 176.955 244.172C176.515 244.422 176.165 244.797 175.905 245.297C175.655 245.787 175.53 246.392 175.53 247.112C175.53 247.832 175.655 248.442 175.905 248.942C176.165 249.442 176.515 249.817 176.955 250.067C177.395 250.317 177.89 250.442 178.44 250.442C179.13 250.442 179.705 250.277 180.165 249.947C180.635 249.607 180.94 249.137 181.08 248.537H182.205C182.015 249.377 181.59 250.052 180.93 250.562C180.27 251.072 179.44 251.327 178.44 251.327C177.67 251.327 176.985 251.157 176.385 250.817C175.785 250.467 175.315 249.977 174.975 249.347C174.635 248.707 174.465 247.962 174.465 247.112ZM186.034 243.902V248.987C186.034 249.487 186.129 249.832 186.319 250.022C186.509 250.212 186.844 250.307 187.324 250.307H188.284V251.207H187.159C186.419 251.207 185.869 251.037 185.509 250.697C185.149 250.347 184.969 249.777 184.969 248.987V243.902H183.829V243.017H184.969V240.962H186.034V243.017H188.284V243.902H186.034ZM197.636 243.017V251.207H196.586V249.767C196.346 250.277 195.976 250.667 195.476 250.937C194.976 251.207 194.416 251.342 193.796 251.342C192.816 251.342 192.016 251.042 191.396 250.442C190.776 249.832 190.466 248.952 190.466 247.802V243.017H191.501V247.682C191.501 248.572 191.721 249.252 192.161 249.722C192.611 250.192 193.221 250.427 193.991 250.427C194.781 250.427 195.411 250.177 195.881 249.677C196.351 249.177 196.586 248.442 196.586 247.472V243.017H197.636ZM203.378 251.327C202.438 251.327 201.668 251.112 201.068 250.682C200.478 250.242 200.148 249.647 200.078 248.897H201.158C201.208 249.357 201.423 249.732 201.803 250.022C202.193 250.302 202.713 250.442 203.363 250.442C203.933 250.442 204.378 250.307 204.698 250.037C205.028 249.767 205.193 249.432 205.193 249.032C205.193 248.752 205.103 248.522 204.923 248.342C204.743 248.162 204.513 248.022 204.233 247.922C203.963 247.812 203.593 247.697 203.123 247.577C202.513 247.417 202.018 247.257 201.638 247.097C201.258 246.937 200.933 246.702 200.663 246.392C200.403 246.072 200.273 245.647 200.273 245.117C200.273 244.717 200.393 244.347 200.633 244.007C200.873 243.667 201.213 243.397 201.653 243.197C202.093 242.997 202.593 242.897 203.153 242.897C204.033 242.897 204.743 243.122 205.283 243.572C205.823 244.012 206.113 244.622 206.153 245.402H205.103C205.073 244.922 204.883 244.537 204.533 244.247C204.193 243.947 203.723 243.797 203.123 243.797C202.593 243.797 202.163 243.922 201.833 244.172C201.503 244.422 201.338 244.732 201.338 245.102C201.338 245.422 201.433 245.687 201.623 245.897C201.823 246.097 202.068 246.257 202.358 246.377C202.648 246.487 203.038 246.612 203.528 246.752C204.118 246.912 204.588 247.067 204.938 247.217C205.288 247.367 205.588 247.587 205.838 247.877C206.088 248.167 206.218 248.552 206.228 249.032C206.228 249.472 206.108 249.867 205.868 250.217C205.628 250.557 205.293 250.827 204.863 251.027C204.433 251.227 203.938 251.327 203.378 251.327ZM220.781 246.692C220.781 247.052 220.771 247.327 220.751 247.517H213.956C213.986 248.137 214.136 248.667 214.406 249.107C214.676 249.547 215.031 249.882 215.471 250.112C215.911 250.332 216.391 250.442 216.911 250.442C217.591 250.442 218.161 250.277 218.621 249.947C219.091 249.617 219.401 249.172 219.551 248.612H220.661C220.461 249.412 220.031 250.067 219.371 250.577C218.721 251.077 217.901 251.327 216.911 251.327C216.141 251.327 215.451 251.157 214.841 250.817C214.231 250.467 213.751 249.977 213.401 249.347C213.061 248.707 212.891 247.962 212.891 247.112C212.891 246.262 213.061 245.517 213.401 244.877C213.741 244.237 214.216 243.747 214.826 243.407C215.436 243.067 216.131 242.897 216.911 242.897C217.691 242.897 218.371 243.067 218.951 243.407C219.541 243.747 219.991 244.207 220.301 244.787C220.621 245.357 220.781 245.992 220.781 246.692ZM219.716 246.662C219.726 246.052 219.601 245.532 219.341 245.102C219.091 244.672 218.746 244.347 218.306 244.127C217.866 243.907 217.386 243.797 216.866 243.797C216.086 243.797 215.421 244.047 214.871 244.547C214.321 245.047 214.016 245.752 213.956 246.662H219.716ZM224.277 244.472C224.507 243.962 224.857 243.567 225.327 243.287C225.807 243.007 226.392 242.867 227.082 242.867V243.962H226.797C226.037 243.962 225.427 244.167 224.967 244.577C224.507 244.987 224.277 245.672 224.277 246.632V251.207H223.227V243.017H224.277V244.472ZM228.706 247.097C228.706 246.257 228.871 245.522 229.201 244.892C229.541 244.252 230.006 243.762 230.596 243.422C231.196 243.072 231.871 242.897 232.621 242.897C233.401 242.897 234.071 243.077 234.631 243.437C235.201 243.797 235.611 244.257 235.861 244.817V243.017H236.911V251.207H235.861V249.392C235.601 249.952 235.186 250.417 234.616 250.787C234.056 251.147 233.386 251.327 232.606 251.327C231.866 251.327 231.196 251.152 230.596 250.802C230.006 250.452 229.541 249.957 229.201 249.317C228.871 248.677 228.706 247.937 228.706 247.097ZM235.861 247.112C235.861 246.452 235.726 245.872 235.456 245.372C235.186 244.872 234.816 244.487 234.346 244.217C233.886 243.947 233.376 243.812 232.816 243.812C232.236 243.812 231.716 243.942 231.256 244.202C230.796 244.462 230.431 244.842 230.161 245.342C229.901 245.832 229.771 246.417 229.771 247.097C229.771 247.767 229.901 248.357 230.161 248.867C230.431 249.367 230.796 249.752 231.256 250.022C231.716 250.282 232.236 250.412 232.816 250.412C233.376 250.412 233.886 250.277 234.346 250.007C234.816 249.737 235.186 249.352 235.456 248.852C235.726 248.352 235.861 247.772 235.861 247.112ZM241.198 243.902V248.987C241.198 249.487 241.293 249.832 241.483 250.022C241.673 250.212 242.008 250.307 242.488 250.307H243.448V251.207H242.323C241.583 251.207 241.033 251.037 240.673 250.697C240.313 250.347 240.133 249.777 240.133 248.987V243.902H238.993V243.017H240.133V240.962H241.198V243.017H243.448V243.902H241.198ZM245.885 251.282C245.665 251.282 245.48 251.207 245.33 251.057C245.19 250.907 245.12 250.722 245.12 250.502C245.12 250.282 245.19 250.102 245.33 249.962C245.48 249.812 245.665 249.737 245.885 249.737C246.095 249.737 246.27 249.812 246.41 249.962C246.56 250.102 246.635 250.282 246.635 250.502C246.635 250.722 246.56 250.907 246.41 251.057C246.27 251.207 246.095 251.282 245.885 251.282Z" fill="#5879DD"/>
<rect x="2" y="2" width="283" height="283" rx="42" stroke="#A7BDFF" stroke-width="3"/>
<defs>
<clipPath id="clip0">
<rect width="91.6534" height="91.6534" fill="white" transform="translate(97.6733 23.7075)"/>
</clipPath>
</defs>
</svg>
