<svg width="652" height="580" viewBox="0 0 652 580" fill="none" xmlns="http://www.w3.org/2000/svg">
<g clip-path="url(#clip0)">
<path d="M585.374 213.585L610.149 241.357C589.567 250.087 568.734 237.967 560.193 231.891C532.617 247.044 500.304 251.122 469.828 243.294C439.352 235.467 413.003 216.323 396.142 189.757C379.28 163.191 373.174 131.199 379.065 100.29C384.956 69.3809 402.401 41.8775 427.852 23.3755C453.303 4.87345 484.846 -3.23714 516.065 0.693901C547.284 4.62495 575.832 20.3023 595.901 44.5362C615.97 68.77 626.053 99.7397 624.097 131.144C622.142 162.548 608.295 192.028 585.374 213.585V213.585Z" fill="#FF928E"/>
<path d="M567.363 103.167C541.805 102.901 516.25 102.444 490.692 102.096C482.172 101.981 473.652 101.879 465.131 101.792C457.789 101.716 457.771 90.2992 465.131 90.3759C490.69 90.642 516.245 91.0989 541.802 91.4461C550.322 91.5619 558.843 91.6633 567.363 91.7505C574.705 91.827 574.724 103.243 567.363 103.167Z" fill="white"/>
<path d="M567.363 129.804L464.066 128.734L434.688 128.429C427.346 128.353 427.328 116.937 434.688 117.013L537.985 118.083L567.363 118.388C574.705 118.464 574.724 129.88 567.363 129.804Z" fill="white"/>
<path d="M567.363 156.442L464.066 155.371L434.688 155.067C427.346 154.991 427.328 143.575 434.688 143.651L537.985 144.721L567.363 145.025C574.705 145.102 574.724 156.518 567.363 156.442Z" fill="white"/>
<path d="M642.977 265.376C638.006 265.376 633.977 261.346 633.977 256.376C633.977 251.405 638.006 247.375 642.977 247.375C647.947 247.375 651.977 251.405 651.977 256.376C651.977 261.346 647.947 265.376 642.977 265.376Z" fill="#FF928E"/>
<path d="M195.688 310.674L200.719 342.076C201.034 344.044 201.778 345.918 202.896 347.567C204.015 349.216 205.482 350.599 207.194 351.619C208.906 352.639 210.821 353.271 212.803 353.47C214.786 353.669 216.788 353.431 218.669 352.772C220.539 352.116 222.244 351.06 223.664 349.677C225.084 348.294 226.185 346.618 226.89 344.766C227.595 342.913 227.887 340.929 227.746 338.952C227.605 336.975 227.034 335.053 226.073 333.319L209.703 303.795L146.422 177.397C143.931 173.194 140.119 169.934 135.581 168.124C131.042 166.314 126.033 166.058 121.333 167.394L114.629 169.3L124.6 198.539L195.688 310.674Z" fill="#A0616A"/>
<path d="M21.0529 531.437L6.23993 530.657L22.6119 476.082L46.002 480.76L21.0529 531.437Z" fill="#A0616A"/>
<path d="M169.186 541.573H152.813L144.237 488.556H169.186V541.573Z" fill="#A0616A"/>
<path d="M143.233 93.7301C143.233 105.368 138.643 116.536 130.457 124.808C122.272 133.081 111.154 137.79 99.5171 137.914C87.8802 138.037 76.6645 133.565 68.3058 125.467C59.947 117.37 55.1203 106.302 54.8738 94.6674C54.8608 94.3594 54.8607 94.0381 54.8607 93.7301C54.8579 87.9257 55.9988 82.1777 58.2181 76.8143C60.4375 71.451 63.6918 66.5775 67.7951 62.4722C71.8984 58.3669 76.7704 55.1103 82.1327 52.8884C87.495 50.6666 93.2425 49.5229 99.0469 49.5229C104.851 49.5229 110.599 50.6666 115.961 52.8884C121.323 55.1103 126.195 58.3669 130.299 62.4722C134.402 66.5775 137.656 71.451 139.876 76.8143C142.095 82.1777 143.236 87.9257 143.233 93.7301Z" fill="#3D1E1C"/>
<path d="M80.3011 69.6286C67.7297 69.6286 57.5386 59.4375 57.5386 46.8661C57.5386 34.2947 67.7297 24.1035 80.3011 24.1035C92.8726 24.1035 103.064 34.2947 103.064 46.8661C103.064 59.4375 92.8726 69.6286 80.3011 69.6286Z" fill="#3D1E1C"/>
<path d="M82.6757 64.2655C78.2826 65.8709 73.5015 66.0837 68.983 64.8749C64.4646 63.6662 60.4284 61.0946 57.4236 57.5101C54.4188 53.9256 52.5914 49.5023 52.1902 44.8423C51.7889 40.1822 52.8333 35.5117 55.1812 31.4663C53.0319 33.8273 51.4035 36.6141 50.4018 39.6457C49.4001 42.6772 49.0475 45.8856 49.367 49.0623C49.6865 52.239 50.6708 55.3129 52.2561 58.0843C53.8414 60.8557 55.992 63.2625 58.5684 65.1482C61.1447 67.034 64.089 68.3566 67.2099 69.0299C70.3308 69.7033 73.5585 69.7124 76.6832 69.0566C79.8078 68.4009 82.7596 67.095 85.3465 65.2238C87.9334 63.3525 90.0976 60.9579 91.6985 58.1955C89.2286 60.9217 86.1317 63.005 82.6757 64.2655Z" fill="#3D1E1C"/>
<path d="M102.532 142.234C88.4325 142.234 77.0023 130.804 77.0023 116.704C77.0023 102.604 88.4325 91.1738 102.532 91.1738C116.632 91.1738 128.062 102.604 128.062 116.704C128.062 130.804 116.632 142.234 102.532 142.234Z" fill="#A0616A"/>
<path d="M84.2043 126.02C84.2043 126.02 81.8654 155.647 67.0521 161.884L124.746 214.9L143.458 206.324L130.204 168.901C130.204 168.901 99.7973 162.663 112.272 135.376L84.2043 126.02Z" fill="#A0616A"/>
<path d="M182.44 493.234L140.339 495.573L120.848 348.999L70.1707 494.793L19.4935 478.421L69.391 311.576C82.2383 265.423 71.4296 214.702 53.798 162.663L73.2892 157.206L117.729 163.443C122.324 163.45 126.834 164.683 130.792 167.016C134.751 169.348 138.015 172.695 140.248 176.711C151.195 196.312 159.11 215.327 152.657 231.572C178.53 299.287 184.109 391.828 182.44 493.234Z" fill="#3D1E1C"/>
<path d="M57.6963 324.051L68.5233 353.954C69.2017 355.827 69.4606 357.827 69.2817 359.811C69.1028 361.796 68.4905 363.717 67.4881 365.439C66.4856 367.162 65.1174 368.643 63.48 369.778C61.8426 370.914 59.9759 371.676 58.0116 372.012C56.0578 372.345 54.0547 372.248 52.1422 371.727C50.2298 371.207 48.454 370.275 46.9391 368.996C45.4242 367.718 44.2066 366.125 43.3714 364.327C42.5361 362.53 42.1034 360.571 42.1034 358.589V324.83L36.1566 183.602C36.2969 178.718 38.0494 174.018 41.141 170.235C44.2326 166.452 48.4894 163.798 53.2473 162.688L60.0353 161.104L65.4928 191.51L57.6963 324.051Z" fill="#A0616A"/>
<path d="M15.7523 574.772C12.6145 574.864 9.53944 573.881 7.03699 571.986C4.53454 570.091 2.75509 567.397 1.99372 564.351L1.47559 562.279C-1.00464 552.358 -0.346111 541.912 3.36036 532.381L8.5785 518.963L24.1715 525.98L28.9699 559.036C29.2487 560.956 29.1182 562.914 28.587 564.78C28.0559 566.647 27.1361 568.38 25.8879 569.866C24.6398 571.352 23.0915 572.557 21.3447 573.403C19.598 574.248 17.6921 574.715 15.7523 574.772Z" fill="#3D1E1C"/>
<path d="M194.259 577.937C192.552 578.976 190.608 579.562 188.612 579.638C186.615 579.715 184.632 579.281 182.851 578.376L153.162 561.654C151.236 560.57 149.695 558.915 148.751 556.917C147.807 554.919 147.506 552.678 147.89 550.502L151.254 531.437H169.966L196.706 559.885C197.902 561.157 198.799 562.679 199.331 564.342C199.863 566.004 200.018 567.764 199.783 569.494C199.549 571.224 198.931 572.879 197.975 574.34C197.02 575.8 195.75 577.029 194.259 577.937Z" fill="#3D1E1C"/>
<path d="M142.832 87.7717C135.909 104.549 118.02 116.493 97.0383 116.493C79.0694 116.493 63.3633 107.736 54.8738 94.6674C54.8607 94.3594 54.8607 94.038 54.8607 93.7301C54.861 82.528 59.1159 71.7442 66.7648 63.5599C74.4136 55.3757 84.8854 50.402 96.0619 49.645C107.238 48.888 118.285 52.4042 126.968 59.4822C135.65 66.5603 141.321 76.6719 142.832 87.7717V87.7717Z" fill="#3D1E1C"/>
<path d="M220.64 218.272C220.651 191.206 229.553 164.893 245.977 143.381C262.402 121.868 285.438 106.346 311.545 99.2033C337.651 92.0605 365.381 93.6919 390.47 103.847C415.559 114.002 436.616 132.117 450.405 155.408C464.193 178.698 469.948 205.873 466.785 232.754C463.622 259.634 451.716 284.731 432.897 304.184C414.079 323.638 389.391 336.37 362.63 340.424C335.87 344.477 308.519 339.627 284.783 326.619C276.243 332.695 255.41 344.815 234.828 336.085L259.603 308.313C247.287 296.774 237.474 282.827 230.772 267.338C224.069 251.85 220.621 235.149 220.64 218.272Z" fill="#4042E2"/>
<path d="M407.34 197.895C381.782 197.629 356.227 197.172 330.669 196.824C322.149 196.709 313.628 196.607 305.108 196.52C297.766 196.444 297.748 185.027 305.108 185.104C330.666 185.37 356.222 185.827 381.779 186.174C390.299 186.29 398.82 186.391 407.34 186.479C414.682 186.555 414.701 197.971 407.34 197.895Z" fill="white"/>
<path d="M407.34 224.532L304.043 223.462L274.665 223.157C267.323 223.081 267.305 211.665 274.665 211.741L377.962 212.811L407.34 213.116C414.682 213.192 414.701 224.608 407.34 224.532V224.532Z" fill="white"/>
<path d="M407.34 251.17L304.043 250.099L274.665 249.795C267.323 249.719 267.305 238.303 274.665 238.379L377.962 239.449L407.34 239.753C414.682 239.83 414.701 251.246 407.34 251.17Z" fill="white"/>
</g>
<defs>
<clipPath id="clip0">
<rect width="651.977" height="579.647" fill="white" transform="matrix(-1 0 0 1 651.977 0)"/>
</clipPath>
</defs>
</svg>
