<svg width="51" height="51" viewBox="0 0 51 51" fill="none" xmlns="http://www.w3.org/2000/svg">
<path d="M1.89411 31.6356C-1.06787 23.1528 2.93219 5.51671 19.8942 1.63578C32.9322 -1.34732 40.3942 7.13541 40.3942 7.13541C16.9323 8.15273 2.06463 32.1239 1.89411 31.6356Z" fill="#BDD0FB" stroke="#BDD0FB" stroke-linecap="round"/>
<path d="M2.43539 35.1528C2.24134 34.3767 10.7687 25.8195 14.9354 21.6528C8.53799 34.0528 27.4343 44.1528 37.4321 47.6528C29.4321 52.1528 18.4321 51.1528 11.4321 46.6528C6.76393 43.6518 2.93543 37.1528 2.43539 35.1528Z" fill="#4F628B"/>
<path d="M42.9321 8.65283C42.5321 32.2528 25.9321 33.3195 21.4321 34.1528C25.4321 40.1528 36.5988 44.9862 39.4321 45.6528C42.0988 43.9862 48.7321 38.2528 49.9321 28.6528C51.1321 19.0528 45.7655 11.3195 42.9321 8.65283Z" fill="#FF928E"/>
</svg>
