<svg width="272" height="51" viewBox="0 0 272 51" fill="none" xmlns="http://www.w3.org/2000/svg">
<path d="M68.8662 31.6094C68.8662 30.5449 68.5781 29.7295 68.002 29.1631C67.4258 28.5967 66.3857 28.0449 64.8818 27.5078C63.3779 26.9707 62.2256 26.4092 61.4248 25.8232C60.6338 25.2275 60.0381 24.5537 59.6377 23.8018C59.2471 23.04 59.0518 22.1709 59.0518 21.1943C59.0518 19.5049 59.6133 18.1133 60.7363 17.0195C61.8691 15.9258 63.3486 15.3789 65.1748 15.3789C66.4248 15.3789 67.5381 15.6621 68.5146 16.2285C69.4912 16.7852 70.2432 17.5615 70.7705 18.5576C71.2979 19.5537 71.5615 20.6475 71.5615 21.8389H68.8662C68.8662 20.5205 68.5488 19.5 67.9141 18.7773C67.2793 18.0547 66.3662 17.6934 65.1748 17.6934C64.0908 17.6934 63.251 17.9961 62.6553 18.6016C62.0596 19.207 61.7617 20.0566 61.7617 21.1504C61.7617 22.0488 62.084 22.8008 62.7285 23.4062C63.373 24.0117 64.3691 24.5537 65.7168 25.0322C67.8164 25.7256 69.3154 26.5801 70.2139 27.5957C71.1221 28.6113 71.5762 29.9395 71.5762 31.5801C71.5762 33.3086 71.0146 34.6953 69.8916 35.7402C68.7686 36.7754 67.2402 37.293 65.3066 37.293C64.0664 37.293 62.9189 37.0244 61.8643 36.4873C60.8193 35.9404 59.9941 35.1787 59.3887 34.2021C58.793 33.2158 58.4951 32.0879 58.4951 30.8184H61.1904C61.1904 32.1367 61.5566 33.1621 62.2891 33.8945C63.0312 34.627 64.0371 34.9932 65.3066 34.9932C66.4883 34.9932 67.377 34.6904 67.9727 34.085C68.5684 33.4795 68.8662 32.6543 68.8662 31.6094ZM87.2453 29.8369C87.2453 32.3467 86.7912 34.2168 85.883 35.4473C84.9846 36.6777 83.7102 37.293 82.0598 37.293C80.468 37.293 79.2424 36.6924 78.383 35.4912V43.0938H75.8049V21.1504H78.1486L78.2805 22.9082C79.1496 21.541 80.3947 20.8574 82.0158 20.8574C83.7541 20.8574 85.0529 21.4629 85.9123 22.6738C86.7717 23.8848 87.216 25.6963 87.2453 28.1084V29.8369ZM84.6672 28.3574C84.6672 26.5801 84.3937 25.2715 83.8469 24.4316C83.3 23.582 82.4211 23.1572 81.2102 23.1572C79.9699 23.1572 79.0275 23.7773 78.383 25.0176V33.2646C79.0178 34.4756 79.9699 35.0811 81.2395 35.0811C82.4113 35.0811 83.2707 34.6611 83.8176 33.8213C84.3742 32.9717 84.6574 31.6777 84.6672 29.9395V28.3574ZM94.2279 22.7764C95.2143 21.4971 96.474 20.8574 98.0072 20.8574C100.81 20.8574 102.231 22.7275 102.27 26.4678V37H99.6918V26.585C99.6918 25.3447 99.4818 24.4658 99.0619 23.9482C98.6518 23.4209 98.0316 23.1572 97.2016 23.1572C96.557 23.1572 95.976 23.3721 95.4584 23.8018C94.9506 24.2314 94.5404 24.793 94.2279 25.4863V37H91.6352V14.5H94.2279V22.7764ZM112.856 37.293C110.883 37.293 109.37 36.707 108.315 35.5352C107.26 34.3535 106.723 32.625 106.704 30.3496V28.4307C106.704 26.0674 107.216 24.2168 108.242 22.8789C109.277 21.5312 110.717 20.8574 112.563 20.8574C114.419 20.8574 115.805 21.4482 116.723 22.6299C117.641 23.8115 118.11 25.6523 118.129 28.1523V29.8516H109.282V30.2178C109.282 31.917 109.599 33.1523 110.234 33.9238C110.879 34.6953 111.801 35.0811 113.003 35.0811C113.764 35.0811 114.433 34.9395 115.009 34.6562C115.595 34.3633 116.142 33.9043 116.65 33.2793L117.998 34.9199C116.875 36.502 115.161 37.293 112.856 37.293ZM112.563 23.084C111.489 23.084 110.693 23.4551 110.175 24.1973C109.658 24.9297 109.365 26.0723 109.296 27.625H115.537V27.2734C115.468 25.7695 115.195 24.6953 114.716 24.0508C114.248 23.4062 113.53 23.084 112.563 23.084ZM128.847 23.582C128.486 23.5137 128.096 23.4795 127.676 23.4795C126.347 23.4795 125.42 24.207 124.892 25.6621V37H122.3V21.1504H124.819L124.863 22.7617C125.556 21.4922 126.538 20.8574 127.807 20.8574C128.218 20.8574 128.559 20.9258 128.833 21.0625L128.847 23.582ZM137.09 32.6934L139.976 21.1504H142.729L137.544 39.2412C137.153 40.5986 136.602 41.6289 135.889 42.332C135.176 43.0449 134.365 43.4014 133.457 43.4014C133.105 43.4014 132.656 43.3232 132.109 43.167V40.9697L132.681 41.0283C133.433 41.0283 134.019 40.8477 134.438 40.4863C134.868 40.1348 135.215 39.5195 135.479 38.6406L135.991 36.8682L131.333 21.1504H134.16L137.09 32.6934ZM163.931 31.6094C163.931 30.5449 163.643 29.7295 163.067 29.1631C162.491 28.5967 161.451 28.0449 159.947 27.5078C158.443 26.9707 157.29 26.4092 156.49 25.8232C155.699 25.2275 155.103 24.5537 154.703 23.8018C154.312 23.04 154.117 22.1709 154.117 21.1943C154.117 19.5049 154.678 18.1133 155.801 17.0195C156.934 15.9258 158.413 15.3789 160.24 15.3789C161.49 15.3789 162.603 15.6621 163.579 16.2285C164.556 16.7852 165.308 17.5615 165.835 18.5576C166.363 19.5537 166.626 20.6475 166.626 21.8389H163.931C163.931 20.5205 163.614 19.5 162.979 18.7773C162.344 18.0547 161.431 17.6934 160.24 17.6934C159.156 17.6934 158.316 17.9961 157.72 18.6016C157.124 19.207 156.827 20.0566 156.827 21.1504C156.827 22.0488 157.149 22.8008 157.793 23.4062C158.438 24.0117 159.434 24.5537 160.782 25.0322C162.881 25.7256 164.38 26.5801 165.279 27.5957C166.187 28.6113 166.641 29.9395 166.641 31.5801C166.641 33.3086 166.079 34.6953 164.956 35.7402C163.833 36.7754 162.305 37.293 160.371 37.293C159.131 37.293 157.984 37.0244 156.929 36.4873C155.884 35.9404 155.059 35.1787 154.454 34.2021C153.858 33.2158 153.56 32.0879 153.56 30.8184H156.255C156.255 32.1367 156.621 33.1621 157.354 33.8945C158.096 34.627 159.102 34.9932 160.371 34.9932C161.553 34.9932 162.442 34.6904 163.037 34.085C163.633 33.4795 163.931 32.6543 163.931 31.6094ZM170.313 28.3428C170.313 26.0381 170.87 24.2168 171.983 22.8789C173.106 21.5312 174.586 20.8574 176.421 20.8574C178.257 20.8574 179.732 21.5117 180.845 22.8203C181.968 24.1289 182.545 25.9111 182.574 28.167V29.8369C182.574 32.1318 182.017 33.9482 180.904 35.2861C179.791 36.624 178.306 37.293 176.451 37.293C174.615 37.293 173.14 36.6436 172.027 35.3447C170.923 34.0459 170.352 32.2881 170.313 30.0713V28.3428ZM172.906 29.8369C172.906 31.4678 173.223 32.752 173.858 33.6895C174.503 34.6172 175.367 35.0811 176.451 35.0811C178.736 35.0811 179.913 33.4307 179.981 30.1299V28.3428C179.981 26.7217 179.659 25.4424 179.014 24.5049C178.37 23.5576 177.505 23.084 176.421 23.084C175.357 23.084 174.503 23.5576 173.858 24.5049C173.223 25.4424 172.906 26.7168 172.906 28.3281V29.8369ZM189.762 37H187.169V14.5H189.762V37ZM202.984 35.6084C202.125 36.7314 200.87 37.293 199.22 37.293C197.784 37.293 196.7 36.7998 195.968 35.8135C195.235 34.8174 194.864 33.3721 194.854 31.4775V21.1504H197.433V31.2871C197.433 33.7578 198.175 34.9932 199.659 34.9932C201.231 34.9932 202.315 34.29 202.911 32.8838V21.1504H205.504V37H203.043L202.984 35.6084ZM213.849 17.3125V21.1504H216.237V23.2451H213.849V33.0742C213.849 33.6992 213.951 34.1729 214.156 34.4951C214.362 34.8174 214.713 34.9785 215.211 34.9785C215.553 34.9785 215.9 34.9199 216.251 34.8027L216.222 37C215.636 37.1953 215.035 37.293 214.42 37.293C213.395 37.293 212.613 36.9268 212.076 36.1943C211.539 35.4619 211.271 34.4268 211.271 33.0889V23.2451H208.854V21.1504H211.271V17.3125H213.849ZM223.175 37H220.582V21.1504H223.175V37ZM223.38 16.9463C223.38 17.3857 223.258 17.752 223.014 18.0449C222.77 18.3379 222.399 18.4844 221.901 18.4844C221.413 18.4844 221.046 18.3379 220.802 18.0449C220.558 17.752 220.436 17.3857 220.436 16.9463C220.436 16.5068 220.558 16.1357 220.802 15.833C221.046 15.5303 221.413 15.3789 221.901 15.3789C222.389 15.3789 222.755 15.5352 222.999 15.8477C223.253 16.1504 223.38 16.5166 223.38 16.9463ZM227.77 28.3428C227.77 26.0381 228.327 24.2168 229.44 22.8789C230.563 21.5312 232.043 20.8574 233.879 20.8574C235.714 20.8574 237.189 21.5117 238.302 22.8203C239.425 24.1289 240.002 25.9111 240.031 28.167V29.8369C240.031 32.1318 239.474 33.9482 238.361 35.2861C237.248 36.624 235.763 37.293 233.908 37.293C232.072 37.293 230.597 36.6436 229.484 35.3447C228.38 34.0459 227.809 32.2881 227.77 30.0713V28.3428ZM230.363 29.8369C230.363 31.4678 230.68 32.752 231.315 33.6895C231.96 34.6172 232.824 35.0811 233.908 35.0811C236.193 35.0811 237.37 33.4307 237.438 30.1299V28.3428C237.438 26.7217 237.116 25.4424 236.471 24.5049C235.827 23.5576 234.962 23.084 233.879 23.084C232.814 23.084 231.96 23.5576 231.315 24.5049C230.68 25.4424 230.363 26.7168 230.363 28.3281V29.8369ZM246.867 21.1504L246.94 22.8643C247.946 21.5264 249.23 20.8574 250.793 20.8574C253.596 20.8574 255.016 22.7275 255.055 26.4678V37H252.477V26.585C252.477 25.3447 252.267 24.4658 251.847 23.9482C251.437 23.4209 250.817 23.1572 249.987 23.1572C249.343 23.1572 248.762 23.3721 248.244 23.8018C247.736 24.2314 247.326 24.793 247.013 25.4863V37H244.421V21.1504H246.867ZM267.707 32.9424C267.707 32.3857 267.497 31.9072 267.077 31.5068C266.657 31.1064 265.847 30.6377 264.646 30.1006C263.249 29.5244 262.263 29.0312 261.687 28.6211C261.12 28.2109 260.695 27.7471 260.412 27.2295C260.129 26.7021 259.987 26.0771 259.987 25.3545C259.987 24.0654 260.456 22.9961 261.394 22.1465C262.341 21.2871 263.547 20.8574 265.012 20.8574C266.555 20.8574 267.795 21.3066 268.732 22.2051C269.67 23.1035 270.139 24.2559 270.139 25.6621H267.561C267.561 24.9492 267.321 24.3438 266.843 23.8457C266.364 23.3379 265.754 23.084 265.012 23.084C264.25 23.084 263.649 23.2842 263.21 23.6846C262.78 24.0752 262.565 24.6025 262.565 25.2666C262.565 25.7939 262.722 26.2188 263.034 26.541C263.356 26.8633 264.123 27.2881 265.334 27.8154C267.258 28.5674 268.566 29.3047 269.26 30.0273C269.953 30.7402 270.3 31.6484 270.3 32.752C270.3 34.1289 269.826 35.2324 268.879 36.0625C267.932 36.8828 266.662 37.293 265.07 37.293C263.42 37.293 262.082 36.8193 261.057 35.8721C260.031 34.9248 259.519 33.7236 259.519 32.2686H262.126C262.155 33.1475 262.424 33.8359 262.932 34.334C263.439 34.832 264.152 35.0811 265.07 35.0811C265.93 35.0811 266.584 34.8906 267.033 34.5098C267.482 34.1191 267.707 33.5967 267.707 32.9424Z" fill="#3E3E3E"/>
<path d="M1.89411 31.6356C-1.06787 23.1528 2.93219 5.51671 19.8942 1.63578C32.9322 -1.34732 40.3942 7.13541 40.3942 7.13541C16.9323 8.15273 2.06463 32.1239 1.89411 31.6356Z" fill="#BDD0FB" stroke="#BDD0FB" stroke-linecap="round"/>
<path d="M2.43539 35.1528C2.24134 34.3767 10.7687 25.8195 14.9354 21.6528C8.53799 34.0528 27.4343 44.1528 37.4321 47.6528C29.4321 52.1528 18.4321 51.1528 11.4321 46.6528C6.76393 43.6518 2.93543 37.1528 2.43539 35.1528Z" fill="#4F628B"/>
<path d="M42.9321 8.65283C42.5321 32.2528 25.9321 33.3195 21.4321 34.1528C25.4321 40.1528 36.5988 44.9862 39.4321 45.6528C42.0988 43.9862 48.7321 38.2528 49.9321 28.6528C51.1321 19.0528 45.7655 11.3195 42.9321 8.65283Z" fill="#FF928E"/>
</svg>
