<svg width="31" height="32" viewBox="0 0 31 32" fill="none" xmlns="http://www.w3.org/2000/svg">
<path d="M21.9404 0C27.3854 0 30.6412 3.00086 30.6923 8.02105V23.1176C30.6923 28.2081 27.428 31.259 21.9404 31.259H8.77926C8.07734 31.259 7.41119 31.209 6.78423 31.1105L6.41282 31.0464C2.37334 30.2759 0.0256348 27.4376 0.0256348 23.1176V8.1414C0.0256348 7.61938 0.0597088 7.11923 0.127857 6.64097C0.72245 2.44445 3.86578 0 8.77926 0H21.9404ZM21.925 2.27722H8.77926C4.59497 2.27722 2.47386 4.25122 2.47386 8.1414V23.1176C2.47386 27.0078 4.59497 28.9818 8.77926 28.9818H21.925C26.1076 28.9818 28.2151 27.0078 28.2151 23.1176V8.1414C28.2151 4.25122 26.1076 2.27722 21.925 2.27722ZM21.4804 21.1154C22.1516 21.1154 22.6951 21.6218 22.6951 22.247C22.6951 22.8722 22.1516 23.3786 21.4804 23.3786H9.19497C8.52371 23.3786 7.97852 22.8722 7.97852 22.247C7.97852 21.6218 8.52371 21.1154 9.19497 21.1154H21.4804ZM21.4804 14.4901C21.9489 14.4432 22.4072 14.6495 22.6576 15.0199C22.9081 15.3935 22.9081 15.8655 22.6576 16.239C22.4072 16.6095 21.9489 16.8158 21.4804 16.7689H9.19497C8.57141 16.7032 8.09949 16.214 8.09949 15.6295C8.09949 15.0449 8.57141 14.5542 9.19497 14.4901H21.4804ZM13.8836 7.88039C14.5071 7.94447 14.979 8.43524 14.979 9.01978C14.979 9.60276 14.5071 10.0935 13.8836 10.1576H9.2103C8.58504 10.0935 8.11312 9.60276 8.11312 9.01978C8.11312 8.43524 8.58504 7.94447 9.2103 7.88039H13.8836Z" fill="#09005D"/>
</svg>
