<svg width="289" height="289" viewBox="0 0 289 289" fill="none" xmlns="http://www.w3.org/2000/svg">
<g clip-path="url(#clip0)">
<path d="M159.462 41.4917H126.299C124.702 41.4917 123.38 42.7893 123.38 44.4112V110.013C126.923 111.709 130.741 112.957 134.734 113.681H151.003C154.995 112.957 158.813 111.709 162.356 110.013V44.4112C162.381 42.8142 161.059 41.4917 159.462 41.4917ZM146.087 109.389H139.674C138.951 109.389 138.352 108.79 138.352 108.066C138.352 107.343 138.951 106.744 139.674 106.744H146.087C146.811 106.744 147.41 107.343 147.41 108.066C147.41 108.79 146.811 109.389 146.087 109.389ZM159.886 103.2C159.886 103.6 159.562 103.924 159.162 103.924H126.599C126.2 103.924 125.875 103.6 125.875 103.2V46.7568C125.875 46.3575 126.2 46.0331 126.599 46.0331H159.162C159.562 46.0331 159.886 46.3575 159.886 46.7568V103.2Z" fill="#AABFFF"/>
<path d="M146.087 106.744H139.674C138.951 106.744 138.352 107.343 138.352 108.066C138.352 108.79 138.951 109.389 139.674 109.389H146.087C146.811 109.389 147.41 108.79 147.41 108.066C147.41 107.343 146.811 106.744 146.087 106.744Z" fill="white"/>
<path d="M127.322 102.452H158.439V47.5054H127.322V102.452ZM144.69 84.2112C143.692 85.2093 142.095 85.2093 141.097 84.2112C140.098 83.2131 140.098 81.6161 141.097 80.618C142.095 79.6199 143.692 79.6199 144.69 80.618C145.663 81.5911 145.663 83.2131 144.69 84.2112ZM148.532 78.7715C147.984 79.3204 147.085 79.3204 146.511 78.7715C144.515 76.7752 141.246 76.7752 139.25 78.7715C138.701 79.3204 137.803 79.3204 137.229 78.7715C136.68 78.2225 136.68 77.3242 137.229 76.7503C140.348 73.6311 145.413 73.6311 148.508 76.7503C149.081 77.3242 149.081 78.2225 148.532 78.7715ZM152.325 74.9786C151.776 75.5276 150.878 75.5276 150.304 74.9786C146.212 70.8863 139.549 70.8863 135.457 74.9786C134.908 75.5276 134.01 75.5276 133.436 74.9786C132.887 74.4296 132.887 73.5313 133.436 72.9574C138.626 67.7672 147.11 67.7672 152.3 72.9574C152.874 73.5313 152.874 74.4296 152.325 74.9786ZM129.943 69.464C137.079 62.3274 148.707 62.3274 155.844 69.464C156.393 70.013 156.393 70.9113 155.844 71.4852C155.295 72.0342 154.396 72.0342 153.823 71.4852C147.784 65.4466 137.977 65.4466 131.939 71.4852C131.39 72.0342 130.491 72.0342 129.918 71.4852C129.369 70.9113 129.369 70.013 129.943 69.464Z" fill="white"/>
<path d="M131.939 71.46C137.977 65.4214 147.784 65.4214 153.823 71.46C154.372 72.009 155.27 72.009 155.844 71.46C156.393 70.9111 156.393 70.0128 155.844 69.4389C148.707 62.3023 137.079 62.3023 129.943 69.4389C129.394 69.9878 129.394 70.8861 129.943 71.46C130.492 72.009 131.39 72.009 131.939 71.46Z" fill="#AABFFF"/>
<path d="M133.436 72.9571C132.887 73.5061 132.887 74.4044 133.436 74.9783C133.985 75.5273 134.883 75.5273 135.457 74.9783C139.549 70.886 146.212 70.886 150.304 74.9783C150.853 75.5273 151.751 75.5273 152.325 74.9783C152.874 74.4294 152.874 73.531 152.325 72.9571C147.11 67.7669 138.651 67.7669 133.436 72.9571Z" fill="#AABFFF"/>
<path d="M142.868 84.9596C144.274 84.9596 145.413 83.82 145.413 82.4143C145.413 81.0087 144.274 79.8691 142.868 79.8691C141.462 79.8691 140.323 81.0087 140.323 82.4143C140.323 83.82 141.462 84.9596 142.868 84.9596Z" fill="#AABFFF"/>
<path d="M137.229 76.7503C136.68 77.2993 136.68 78.1976 137.229 78.7715C137.778 79.3205 138.676 79.3205 139.25 78.7715C141.246 76.7753 144.515 76.7753 146.511 78.7715C147.06 79.3205 147.959 79.3205 148.533 78.7715C149.082 78.2226 149.082 77.3242 148.533 76.7503C145.413 73.6561 140.348 73.6561 137.229 76.7503Z" fill="#AABFFF"/>
<path d="M159.462 40.0444H126.299C123.879 40.0444 121.908 42.0157 121.908 44.4362V109.314C122.382 109.564 122.881 109.813 123.38 110.038V44.4112C123.38 42.8142 124.677 41.4917 126.299 41.4917H159.462C161.059 41.4917 162.381 42.7893 162.381 44.4112V110.013C162.88 109.788 163.355 109.539 163.854 109.289V44.4112C163.829 42.0157 161.882 40.0444 159.462 40.0444Z" fill="#7F9FFF"/>
<path d="M142.868 114.429C145.638 114.429 148.358 114.18 151.003 113.706H134.734C137.379 114.18 140.098 114.429 142.868 114.429Z" fill="#7F9FFF"/>
<path d="M159.162 46.0327H126.599C126.2 46.0327 125.875 46.3571 125.875 46.7564V103.175C125.875 103.574 126.2 103.899 126.599 103.899H159.162C159.562 103.899 159.886 103.574 159.886 103.175V46.7564C159.886 46.3571 159.562 46.0327 159.162 46.0327ZM158.439 102.451H127.322V47.5049H158.439V102.451Z" fill="#7F9FFF"/>
<path d="M154.771 26.4701C154.696 26.4701 154.621 26.4701 154.521 26.4451C153.024 26.0459 151.477 25.6965 149.93 25.447C149.431 25.3721 149.081 24.898 149.181 24.399C149.256 23.8999 149.73 23.5506 150.229 23.6504C151.826 23.8999 153.448 24.2492 155.02 24.6734C155.494 24.7982 155.794 25.2973 155.669 25.7963C155.544 26.1956 155.17 26.4701 154.771 26.4701Z" fill="#7F9FFF"/>
<path d="M142.868 115.352C130.541 115.352 118.963 110.561 110.23 101.828C101.521 93.1193 96.7301 81.5161 96.7301 69.1894C96.7301 56.8626 101.521 45.2844 110.255 36.5508C118.988 27.8173 130.541 23.0513 142.868 23.0513C143.367 23.0513 143.791 23.4505 143.791 23.9745C143.791 24.4736 143.392 24.8978 142.868 24.8978C131.04 24.8978 119.886 29.5141 111.527 37.8733C103.168 46.2326 98.5517 57.3866 98.5517 69.2143C98.5517 81.042 103.168 92.196 111.527 100.555C119.886 108.939 131.04 113.531 142.868 113.531C154.696 113.531 165.85 108.915 174.209 100.555C182.568 92.196 187.185 81.042 187.185 69.2143C187.185 60.905 184.864 52.8202 180.497 45.8084C176.255 38.9962 170.217 33.4317 163.08 29.7636C162.631 29.539 162.456 28.9901 162.681 28.5409C162.905 28.0918 163.454 27.9171 163.904 28.1417C171.34 31.9595 177.603 37.7236 182.044 44.8352C186.586 52.1465 189.006 60.5806 189.006 69.2143C189.006 81.5411 184.215 93.1193 175.482 101.853C166.798 110.561 155.195 115.352 142.868 115.352Z" fill="#7F9FFF"/>
<path d="M159.212 28.142C159.86 28.142 160.385 27.6169 160.385 26.9692C160.385 26.3215 159.86 25.7964 159.212 25.7964C158.565 25.7964 158.04 26.3215 158.04 26.9692C158.04 27.6169 158.565 28.142 159.212 28.142Z" fill="#7F9FFF"/>
</g>
<path d="M52.0945 151.068L48.7745 145.368H46.5745V151.068H44.7545V137.128H49.2545C50.3078 137.128 51.1945 137.308 51.9145 137.668C52.6478 138.028 53.1945 138.515 53.5545 139.128C53.9145 139.742 54.0945 140.442 54.0945 141.228C54.0945 142.188 53.8145 143.035 53.2545 143.768C52.7078 144.502 51.8812 144.988 50.7745 145.228L54.2745 151.068H52.0945ZM46.5745 143.908H49.2545C50.2412 143.908 50.9812 143.668 51.4745 143.188C51.9678 142.695 52.2145 142.042 52.2145 141.228C52.2145 140.402 51.9678 139.762 51.4745 139.308C50.9945 138.855 50.2545 138.628 49.2545 138.628H46.5745V143.908ZM66.9225 145.168C66.9225 145.515 66.9025 145.882 66.8625 146.268H58.1025C58.1691 147.348 58.5358 148.195 59.2025 148.808C59.8825 149.408 60.7025 149.708 61.6625 149.708C62.4491 149.708 63.1025 149.528 63.6225 149.168C64.1558 148.795 64.5291 148.302 64.7425 147.688H66.7025C66.4091 148.742 65.8225 149.602 64.9425 150.268C64.0625 150.922 62.9691 151.248 61.6625 151.248C60.6225 151.248 59.6891 151.015 58.8625 150.548C58.0491 150.082 57.4091 149.422 56.9425 148.568C56.4758 147.702 56.2425 146.702 56.2425 145.568C56.2425 144.435 56.4691 143.442 56.9225 142.588C57.3758 141.735 58.0091 141.082 58.8225 140.628C59.6491 140.162 60.5958 139.928 61.6625 139.928C62.7025 139.928 63.6225 140.155 64.4225 140.608C65.2225 141.062 65.8358 141.688 66.2625 142.488C66.7025 143.275 66.9225 144.168 66.9225 145.168ZM65.0425 144.788C65.0425 144.095 64.8891 143.502 64.5825 143.008C64.2758 142.502 63.8558 142.122 63.3225 141.868C62.8025 141.602 62.2225 141.468 61.5825 141.468C60.6625 141.468 59.8758 141.762 59.2225 142.348C58.5825 142.935 58.2158 143.748 58.1225 144.788H65.0425ZM73.8448 139.928C74.7915 139.928 75.6181 140.135 76.3248 140.548C77.0448 140.962 77.5781 141.482 77.9248 142.108V140.108H79.7648V151.308C79.7648 152.308 79.5515 153.195 79.1248 153.968C78.6981 154.755 78.0848 155.368 77.2848 155.808C76.4981 156.248 75.5781 156.468 74.5248 156.468C73.0848 156.468 71.8848 156.128 70.9248 155.448C69.9648 154.768 69.3981 153.842 69.2248 152.668H71.0248C71.2248 153.335 71.6381 153.868 72.2648 154.268C72.8915 154.682 73.6448 154.888 74.5248 154.888C75.5248 154.888 76.3381 154.575 76.9648 153.948C77.6048 153.322 77.9248 152.442 77.9248 151.308V149.008C77.5648 149.648 77.0315 150.182 76.3248 150.608C75.6181 151.035 74.7915 151.248 73.8448 151.248C72.8715 151.248 71.9848 151.008 71.1848 150.528C70.3981 150.048 69.7781 149.375 69.3248 148.508C68.8715 147.642 68.6448 146.655 68.6448 145.548C68.6448 144.428 68.8715 143.448 69.3248 142.608C69.7781 141.755 70.3981 141.095 71.1848 140.628C71.9848 140.162 72.8715 139.928 73.8448 139.928ZM77.9248 145.568C77.9248 144.742 77.7581 144.022 77.4248 143.408C77.0915 142.795 76.6381 142.328 76.0648 142.008C75.5048 141.675 74.8848 141.508 74.2048 141.508C73.5248 141.508 72.9048 141.668 72.3448 141.988C71.7848 142.308 71.3381 142.775 71.0048 143.388C70.6715 144.002 70.5048 144.722 70.5048 145.548C70.5048 146.388 70.6715 147.122 71.0048 147.748C71.3381 148.362 71.7848 148.835 72.3448 149.168C72.9048 149.488 73.5248 149.648 74.2048 149.648C74.8848 149.648 75.5048 149.488 76.0648 149.168C76.6381 148.835 77.0915 148.362 77.4248 147.748C77.7581 147.122 77.9248 146.395 77.9248 145.568ZM92.5604 140.108V151.068H90.7404V149.448C90.3938 150.008 89.9071 150.448 89.2804 150.768C88.6671 151.075 87.9871 151.228 87.2404 151.228C86.3871 151.228 85.6204 151.055 84.9404 150.708C84.2604 150.348 83.7204 149.815 83.3204 149.108C82.9338 148.402 82.7404 147.542 82.7404 146.528V140.108H84.5404V146.288C84.5404 147.368 84.8138 148.202 85.3604 148.788C85.9071 149.362 86.6538 149.648 87.6004 149.648C88.5738 149.648 89.3404 149.348 89.9004 148.748C90.4604 148.148 90.7404 147.275 90.7404 146.128V140.108H92.5604ZM97.4534 136.268V151.068H95.6334V136.268H97.4534ZM99.8753 145.548C99.8753 144.428 100.102 143.448 100.555 142.608C101.009 141.755 101.629 141.095 102.415 140.628C103.215 140.162 104.102 139.928 105.075 139.928C106.035 139.928 106.869 140.135 107.575 140.548C108.282 140.962 108.809 141.482 109.155 142.108V140.108H110.995V151.068H109.155V149.028C108.795 149.668 108.255 150.202 107.535 150.628C106.829 151.042 106.002 151.248 105.055 151.248C104.082 151.248 103.202 151.008 102.415 150.528C101.629 150.048 101.009 149.375 100.555 148.508C100.102 147.642 99.8753 146.655 99.8753 145.548ZM109.155 145.568C109.155 144.742 108.989 144.022 108.655 143.408C108.322 142.795 107.869 142.328 107.295 142.008C106.735 141.675 106.115 141.508 105.435 141.508C104.755 141.508 104.135 141.668 103.575 141.988C103.015 142.308 102.569 142.775 102.235 143.388C101.902 144.002 101.735 144.722 101.735 145.548C101.735 146.388 101.902 147.122 102.235 147.748C102.569 148.362 103.015 148.835 103.575 149.168C104.135 149.488 104.755 149.648 105.435 149.648C106.115 149.648 106.735 149.488 107.295 149.168C107.869 148.835 108.322 148.362 108.655 147.748C108.989 147.122 109.155 146.395 109.155 145.568ZM115.891 141.888C116.211 141.262 116.664 140.775 117.251 140.428C117.851 140.082 118.578 139.908 119.431 139.908V141.788H118.951C116.911 141.788 115.891 142.895 115.891 145.108V151.068H114.071V140.108H115.891V141.888ZM141.004 137.228V151.068H139.184V140.748L134.584 151.068H133.304L128.684 140.728V151.068H126.864V137.228H128.824L133.944 148.668L139.064 137.228H141.004ZM143.41 145.548C143.41 144.428 143.637 143.448 144.09 142.608C144.544 141.755 145.164 141.095 145.95 140.628C146.75 140.162 147.637 139.928 148.61 139.928C149.57 139.928 150.404 140.135 151.11 140.548C151.817 140.962 152.344 141.482 152.69 142.108V140.108H154.53V151.068H152.69V149.028C152.33 149.668 151.79 150.202 151.07 150.628C150.364 151.042 149.537 151.248 148.59 151.248C147.617 151.248 146.737 151.008 145.95 150.528C145.164 150.048 144.544 149.375 144.09 148.508C143.637 147.642 143.41 146.655 143.41 145.548ZM152.69 145.568C152.69 144.742 152.524 144.022 152.19 143.408C151.857 142.795 151.404 142.328 150.83 142.008C150.27 141.675 149.65 141.508 148.97 141.508C148.29 141.508 147.67 141.668 147.11 141.988C146.55 142.308 146.104 142.775 145.77 143.388C145.437 144.002 145.27 144.722 145.27 145.548C145.27 146.388 145.437 147.122 145.77 147.748C146.104 148.362 146.55 148.835 147.11 149.168C147.67 149.488 148.29 149.648 148.97 149.648C149.65 149.648 150.27 149.488 150.83 149.168C151.404 148.835 151.857 148.362 152.19 147.748C152.524 147.122 152.69 146.395 152.69 145.568ZM158.546 138.328C158.199 138.328 157.906 138.208 157.666 137.968C157.426 137.728 157.306 137.435 157.306 137.088C157.306 136.742 157.426 136.448 157.666 136.208C157.906 135.968 158.199 135.848 158.546 135.848C158.879 135.848 159.159 135.968 159.386 136.208C159.626 136.448 159.746 136.742 159.746 137.088C159.746 137.435 159.626 137.728 159.386 137.968C159.159 138.208 158.879 138.328 158.546 138.328ZM159.426 140.108V151.068H157.606V140.108H159.426ZM167.868 139.908C169.201 139.908 170.281 140.315 171.108 141.128C171.935 141.928 172.348 143.088 172.348 144.608V151.068H170.548V144.868C170.548 143.775 170.275 142.942 169.728 142.368C169.181 141.782 168.435 141.488 167.488 141.488C166.528 141.488 165.761 141.788 165.188 142.388C164.628 142.988 164.348 143.862 164.348 145.008V151.068H162.528V140.108H164.348V141.668C164.708 141.108 165.195 140.675 165.808 140.368C166.435 140.062 167.121 139.908 167.868 139.908ZM177.541 141.608V148.068C177.541 148.602 177.654 148.982 177.881 149.208C178.108 149.422 178.501 149.528 179.061 149.528H180.401V151.068H178.761C177.748 151.068 176.988 150.835 176.481 150.368C175.974 149.902 175.721 149.135 175.721 148.068V141.608H174.301V140.108H175.721V137.348H177.541V140.108H180.401V141.608H177.541ZM192.606 145.168C192.606 145.515 192.586 145.882 192.546 146.268H183.786C183.853 147.348 184.219 148.195 184.886 148.808C185.566 149.408 186.386 149.708 187.346 149.708C188.133 149.708 188.786 149.528 189.306 149.168C189.839 148.795 190.213 148.302 190.426 147.688H192.386C192.093 148.742 191.506 149.602 190.626 150.268C189.746 150.922 188.653 151.248 187.346 151.248C186.306 151.248 185.373 151.015 184.546 150.548C183.733 150.082 183.093 149.422 182.626 148.568C182.159 147.702 181.926 146.702 181.926 145.568C181.926 144.435 182.153 143.442 182.606 142.588C183.059 141.735 183.693 141.082 184.506 140.628C185.333 140.162 186.279 139.928 187.346 139.928C188.386 139.928 189.306 140.155 190.106 140.608C190.906 141.062 191.519 141.688 191.946 142.488C192.386 143.275 192.606 144.168 192.606 145.168ZM190.726 144.788C190.726 144.095 190.573 143.502 190.266 143.008C189.959 142.502 189.539 142.122 189.006 141.868C188.486 141.602 187.906 141.468 187.266 141.468C186.346 141.468 185.559 141.762 184.906 142.348C184.266 142.935 183.899 143.748 183.806 144.788H190.726ZM200.348 139.908C201.682 139.908 202.762 140.315 203.588 141.128C204.415 141.928 204.828 143.088 204.828 144.608V151.068H203.028V144.868C203.028 143.775 202.755 142.942 202.208 142.368C201.662 141.782 200.915 141.488 199.968 141.488C199.008 141.488 198.242 141.788 197.668 142.388C197.108 142.988 196.828 143.862 196.828 145.008V151.068H195.008V140.108H196.828V141.668C197.188 141.108 197.675 140.675 198.288 140.368C198.915 140.062 199.602 139.908 200.348 139.908ZM207.121 145.548C207.121 144.428 207.348 143.448 207.801 142.608C208.255 141.755 208.875 141.095 209.661 140.628C210.461 140.162 211.348 139.928 212.321 139.928C213.281 139.928 214.115 140.135 214.821 140.548C215.528 140.962 216.055 141.482 216.401 142.108V140.108H218.241V151.068H216.401V149.028C216.041 149.668 215.501 150.202 214.781 150.628C214.075 151.042 213.248 151.248 212.301 151.248C211.328 151.248 210.448 151.008 209.661 150.528C208.875 150.048 208.255 149.375 207.801 148.508C207.348 147.642 207.121 146.655 207.121 145.548ZM216.401 145.568C216.401 144.742 216.235 144.022 215.901 143.408C215.568 142.795 215.115 142.328 214.541 142.008C213.981 141.675 213.361 141.508 212.681 141.508C212.001 141.508 211.381 141.668 210.821 141.988C210.261 142.308 209.815 142.775 209.481 143.388C209.148 144.002 208.981 144.722 208.981 145.548C208.981 146.388 209.148 147.122 209.481 147.748C209.815 148.362 210.261 148.835 210.821 149.168C211.381 149.488 212.001 149.648 212.681 149.648C213.361 149.648 213.981 149.488 214.541 149.168C215.115 148.835 215.568 148.362 215.901 147.748C216.235 147.122 216.401 146.395 216.401 145.568ZM226.657 139.908C227.99 139.908 229.07 140.315 229.897 141.128C230.724 141.928 231.137 143.088 231.137 144.608V151.068H229.337V144.868C229.337 143.775 229.064 142.942 228.517 142.368C227.97 141.782 227.224 141.488 226.277 141.488C225.317 141.488 224.55 141.788 223.977 142.388C223.417 142.988 223.137 143.862 223.137 145.008V151.068H221.317V140.108H223.137V141.668C223.497 141.108 223.984 140.675 224.597 140.368C225.224 140.062 225.91 139.908 226.657 139.908ZM233.43 145.568C233.43 144.435 233.657 143.448 234.11 142.608C234.563 141.755 235.19 141.095 235.99 140.628C236.803 140.162 237.73 139.928 238.77 139.928C240.117 139.928 241.223 140.255 242.09 140.908C242.97 141.562 243.55 142.468 243.83 143.628H241.87C241.683 142.962 241.317 142.435 240.77 142.048C240.237 141.662 239.57 141.468 238.77 141.468C237.73 141.468 236.89 141.828 236.25 142.548C235.61 143.255 235.29 144.262 235.29 145.568C235.29 146.888 235.61 147.908 236.25 148.628C236.89 149.348 237.73 149.708 238.77 149.708C239.57 149.708 240.237 149.522 240.77 149.148C241.303 148.775 241.67 148.242 241.87 147.548H243.83C243.537 148.668 242.95 149.568 242.07 150.248C241.19 150.915 240.09 151.248 238.77 151.248C237.73 151.248 236.803 151.015 235.99 150.548C235.19 150.082 234.563 149.422 234.11 148.568C233.657 147.715 233.43 146.715 233.43 145.568ZM256.258 145.168C256.258 145.515 256.238 145.882 256.198 146.268H247.438C247.505 147.348 247.872 148.195 248.538 148.808C249.218 149.408 250.038 149.708 250.998 149.708C251.785 149.708 252.438 149.528 252.958 149.168C253.492 148.795 253.865 148.302 254.078 147.688H256.038C255.745 148.742 255.158 149.602 254.278 150.268C253.398 150.922 252.305 151.248 250.998 151.248C249.958 151.248 249.025 151.015 248.198 150.548C247.385 150.082 246.745 149.422 246.278 148.568C245.812 147.702 245.578 146.702 245.578 145.568C245.578 144.435 245.805 143.442 246.258 142.588C246.712 141.735 247.345 141.082 248.158 140.628C248.985 140.162 249.932 139.928 250.998 139.928C252.038 139.928 252.958 140.155 253.758 140.608C254.558 141.062 255.172 141.688 255.598 142.488C256.038 143.275 256.258 144.168 256.258 145.168ZM254.378 144.788C254.378 144.095 254.225 143.502 253.918 143.008C253.612 142.502 253.192 142.122 252.658 141.868C252.138 141.602 251.558 141.468 250.918 141.468C249.998 141.468 249.212 141.762 248.558 142.348C247.918 142.935 247.552 143.748 247.458 144.788H254.378Z" fill="#4370F8"/>
<path d="M37.1108 182.506H40.8758V183.361H36.0608V172.876H37.1108V182.506ZM46.4843 183.481C45.7143 183.481 45.0193 183.311 44.3993 182.971C43.7893 182.621 43.3043 182.131 42.9443 181.501C42.5943 180.861 42.4193 180.116 42.4193 179.266C42.4193 178.416 42.5993 177.676 42.9593 177.046C43.3193 176.406 43.8093 175.916 44.4293 175.576C45.0493 175.226 45.7443 175.051 46.5143 175.051C47.2843 175.051 47.9793 175.226 48.5993 175.576C49.2293 175.916 49.7193 176.406 50.0693 177.046C50.4293 177.676 50.6093 178.416 50.6093 179.266C50.6093 180.106 50.4293 180.846 50.0693 181.486C49.7093 182.126 49.2143 182.621 48.5843 182.971C47.9543 183.311 47.2543 183.481 46.4843 183.481ZM46.4843 182.566C47.0243 182.566 47.5243 182.446 47.9843 182.206C48.4443 181.956 48.8143 181.586 49.0943 181.096C49.3843 180.596 49.5293 179.986 49.5293 179.266C49.5293 178.546 49.3893 177.941 49.1093 177.451C48.8293 176.951 48.4593 176.581 47.9993 176.341C47.5393 176.091 47.0393 175.966 46.4993 175.966C45.9593 175.966 45.4593 176.091 44.9993 176.341C44.5393 176.581 44.1693 176.951 43.8893 177.451C43.6193 177.941 43.4843 178.546 43.4843 179.266C43.4843 179.986 43.6193 180.596 43.8893 181.096C44.1693 181.586 44.5343 181.956 44.9843 182.206C45.4443 182.446 45.9443 182.566 46.4843 182.566ZM54.0983 176.626C54.3283 176.116 54.6783 175.721 55.1483 175.441C55.6283 175.161 56.2133 175.021 56.9033 175.021V176.116H56.6183C55.8583 176.116 55.2483 176.321 54.7883 176.731C54.3283 177.141 54.0983 177.826 54.0983 178.786V183.361H53.0483V175.171H54.0983V176.626ZM66.4179 178.846C66.4179 179.206 66.4079 179.481 66.3879 179.671H59.5929C59.6229 180.291 59.7729 180.821 60.0429 181.261C60.3129 181.701 60.6679 182.036 61.1079 182.266C61.5479 182.486 62.0279 182.596 62.5479 182.596C63.2279 182.596 63.7979 182.431 64.2579 182.101C64.7279 181.771 65.0379 181.326 65.1879 180.766H66.2979C66.0979 181.566 65.6679 182.221 65.0079 182.731C64.3579 183.231 63.5379 183.481 62.5479 183.481C61.7779 183.481 61.0879 183.311 60.4779 182.971C59.8679 182.621 59.3879 182.131 59.0379 181.501C58.6979 180.861 58.5279 180.116 58.5279 179.266C58.5279 178.416 58.6979 177.671 59.0379 177.031C59.3779 176.391 59.8529 175.901 60.4629 175.561C61.0729 175.221 61.7679 175.051 62.5479 175.051C63.3279 175.051 64.0079 175.221 64.5879 175.561C65.1779 175.901 65.6279 176.361 65.9379 176.941C66.2579 177.511 66.4179 178.146 66.4179 178.846ZM65.3529 178.816C65.3629 178.206 65.2379 177.686 64.9779 177.256C64.7279 176.826 64.3829 176.501 63.9429 176.281C63.5029 176.061 63.0229 175.951 62.5029 175.951C61.7229 175.951 61.0579 176.201 60.5079 176.701C59.9579 177.201 59.6529 177.906 59.5929 178.816H65.3529ZM78.6139 175.021C79.5739 175.021 80.3539 175.326 80.9539 175.936C81.5639 176.536 81.8689 177.411 81.8689 178.561V183.361H80.8339V178.681C80.8339 177.791 80.6189 177.111 80.1889 176.641C79.7589 176.171 79.1739 175.936 78.4339 175.936C77.6639 175.936 77.0489 176.191 76.5889 176.701C76.1289 177.211 75.8989 177.951 75.8989 178.921V183.361H74.8639V178.681C74.8639 177.791 74.6489 177.111 74.2189 176.641C73.7889 176.171 73.1989 175.936 72.4489 175.936C71.6789 175.936 71.0639 176.191 70.6039 176.701C70.1439 177.211 69.9139 177.951 69.9139 178.921V183.361H68.8639V175.171H69.9139V176.581C70.1739 176.071 70.5439 175.686 71.0239 175.426C71.5039 175.156 72.0389 175.021 72.6289 175.021C73.3389 175.021 73.9589 175.191 74.4889 175.531C75.0289 175.871 75.4189 176.371 75.6589 177.031C75.8789 176.381 76.2539 175.886 76.7839 175.546C77.3239 175.196 77.9339 175.021 78.6139 175.021ZM89.892 173.626C89.682 173.626 89.502 173.551 89.352 173.401C89.202 173.251 89.127 173.066 89.127 172.846C89.127 172.626 89.202 172.446 89.352 172.306C89.502 172.156 89.682 172.081 89.892 172.081C90.102 172.081 90.282 172.156 90.432 172.306C90.582 172.446 90.657 172.626 90.657 172.846C90.657 173.066 90.582 173.251 90.432 173.401C90.282 173.551 90.102 173.626 89.892 173.626ZM90.417 175.171V183.361H89.367V175.171H90.417ZM94.3548 176.971C94.6148 176.421 95.0248 175.966 95.5848 175.606C96.1548 175.236 96.8298 175.051 97.6098 175.051C98.3498 175.051 99.0148 175.226 99.6048 175.576C100.205 175.916 100.67 176.406 101 177.046C101.34 177.676 101.51 178.411 101.51 179.251C101.51 180.091 101.34 180.831 101 181.471C100.67 182.111 100.205 182.606 99.6048 182.956C99.0148 183.306 98.3498 183.481 97.6098 183.481C96.8398 183.481 96.1698 183.301 95.5998 182.941C95.0298 182.571 94.6148 182.111 94.3548 181.561V187.231H93.3198V175.171H94.3548V176.971ZM100.445 179.251C100.445 178.571 100.31 177.986 100.04 177.496C99.7798 176.996 99.4198 176.616 98.9598 176.356C98.4998 176.096 97.9798 175.966 97.3998 175.966C96.8398 175.966 96.3248 176.101 95.8548 176.371C95.3948 176.641 95.0298 177.026 94.7598 177.526C94.4898 178.026 94.3548 178.606 94.3548 179.266C94.3548 179.926 94.4898 180.506 94.7598 181.006C95.0298 181.506 95.3948 181.891 95.8548 182.161C96.3248 182.431 96.8398 182.566 97.3998 182.566C97.9798 182.566 98.4998 182.436 98.9598 182.176C99.4198 181.906 99.7798 181.521 100.04 181.021C100.31 180.511 100.445 179.921 100.445 179.251ZM106.787 183.481C105.847 183.481 105.077 183.266 104.477 182.836C103.887 182.396 103.557 181.801 103.487 181.051H104.567C104.617 181.511 104.832 181.886 105.212 182.176C105.602 182.456 106.122 182.596 106.772 182.596C107.342 182.596 107.787 182.461 108.107 182.191C108.437 181.921 108.602 181.586 108.602 181.186C108.602 180.906 108.512 180.676 108.332 180.496C108.152 180.316 107.922 180.176 107.642 180.076C107.372 179.966 107.002 179.851 106.532 179.731C105.922 179.571 105.427 179.411 105.047 179.251C104.667 179.091 104.342 178.856 104.072 178.546C103.812 178.226 103.682 177.801 103.682 177.271C103.682 176.871 103.802 176.501 104.042 176.161C104.282 175.821 104.622 175.551 105.062 175.351C105.502 175.151 106.002 175.051 106.562 175.051C107.442 175.051 108.152 175.276 108.692 175.726C109.232 176.166 109.522 176.776 109.562 177.556H108.512C108.482 177.076 108.292 176.691 107.942 176.401C107.602 176.101 107.132 175.951 106.532 175.951C106.002 175.951 105.572 176.076 105.242 176.326C104.912 176.576 104.747 176.886 104.747 177.256C104.747 177.576 104.842 177.841 105.032 178.051C105.232 178.251 105.477 178.411 105.767 178.531C106.057 178.641 106.447 178.766 106.937 178.906C107.527 179.066 107.997 179.221 108.347 179.371C108.697 179.521 108.997 179.741 109.247 180.031C109.497 180.321 109.627 180.706 109.637 181.186C109.637 181.626 109.517 182.021 109.277 182.371C109.037 182.711 108.702 182.981 108.272 183.181C107.842 183.381 107.347 183.481 106.787 183.481ZM119.233 175.171V183.361H118.183V181.921C117.943 182.431 117.573 182.821 117.073 183.091C116.573 183.361 116.013 183.496 115.393 183.496C114.413 183.496 113.613 183.196 112.993 182.596C112.373 181.986 112.063 181.106 112.063 179.956V175.171H113.098V179.836C113.098 180.726 113.318 181.406 113.758 181.876C114.208 182.346 114.818 182.581 115.588 182.581C116.378 182.581 117.008 182.331 117.478 181.831C117.948 181.331 118.183 180.596 118.183 179.626V175.171H119.233ZM131.906 175.021C132.866 175.021 133.646 175.326 134.246 175.936C134.856 176.536 135.161 177.411 135.161 178.561V183.361H134.126V178.681C134.126 177.791 133.911 177.111 133.481 176.641C133.051 176.171 132.466 175.936 131.726 175.936C130.956 175.936 130.341 176.191 129.881 176.701C129.421 177.211 129.191 177.951 129.191 178.921V183.361H128.156V178.681C128.156 177.791 127.941 177.111 127.511 176.641C127.081 176.171 126.491 175.936 125.741 175.936C124.971 175.936 124.356 176.191 123.896 176.701C123.436 177.211 123.206 177.951 123.206 178.921V183.361H122.156V175.171H123.206V176.581C123.466 176.071 123.836 175.686 124.316 175.426C124.796 175.156 125.331 175.021 125.921 175.021C126.631 175.021 127.251 175.191 127.781 175.531C128.321 175.871 128.711 176.371 128.951 177.031C129.171 176.381 129.546 175.886 130.076 175.546C130.616 175.196 131.226 175.021 131.906 175.021ZM142.179 179.251C142.179 178.411 142.349 177.676 142.689 177.046C143.029 176.406 143.494 175.916 144.084 175.576C144.684 175.226 145.359 175.051 146.109 175.051C146.829 175.051 147.479 175.226 148.059 175.576C148.639 175.926 149.064 176.381 149.334 176.941V172.261H150.384V183.361H149.334V181.531C149.084 182.101 148.674 182.571 148.104 182.941C147.534 183.301 146.864 183.481 146.094 183.481C145.344 183.481 144.669 183.306 144.069 182.956C143.479 182.606 143.014 182.111 142.674 181.471C142.344 180.831 142.179 180.091 142.179 179.251ZM149.334 179.266C149.334 178.606 149.199 178.026 148.929 177.526C148.659 177.026 148.289 176.641 147.819 176.371C147.359 176.101 146.849 175.966 146.289 175.966C145.709 175.966 145.189 176.096 144.729 176.356C144.269 176.616 143.904 176.996 143.634 177.496C143.374 177.986 143.244 178.571 143.244 179.251C143.244 179.921 143.374 180.511 143.634 181.021C143.904 181.521 144.269 181.906 144.729 182.176C145.189 182.436 145.709 182.566 146.289 182.566C146.849 182.566 147.359 182.431 147.819 182.161C148.289 181.891 148.659 181.506 148.929 181.006C149.199 180.506 149.334 179.926 149.334 179.266ZM156.891 183.481C156.121 183.481 155.426 183.311 154.806 182.971C154.196 182.621 153.711 182.131 153.351 181.501C153.001 180.861 152.826 180.116 152.826 179.266C152.826 178.416 153.006 177.676 153.366 177.046C153.726 176.406 154.216 175.916 154.836 175.576C155.456 175.226 156.151 175.051 156.921 175.051C157.691 175.051 158.386 175.226 159.006 175.576C159.636 175.916 160.126 176.406 160.476 177.046C160.836 177.676 161.016 178.416 161.016 179.266C161.016 180.106 160.836 180.846 160.476 181.486C160.116 182.126 159.621 182.621 158.991 182.971C158.361 183.311 157.661 183.481 156.891 183.481ZM156.891 182.566C157.431 182.566 157.931 182.446 158.391 182.206C158.851 181.956 159.221 181.586 159.501 181.096C159.791 180.596 159.936 179.986 159.936 179.266C159.936 178.546 159.796 177.941 159.516 177.451C159.236 176.951 158.866 176.581 158.406 176.341C157.946 176.091 157.446 175.966 156.906 175.966C156.366 175.966 155.866 176.091 155.406 176.341C154.946 176.581 154.576 176.951 154.296 177.451C154.026 177.941 153.891 178.546 153.891 179.266C153.891 179.986 154.026 180.596 154.296 181.096C154.576 181.586 154.941 181.956 155.391 182.206C155.851 182.446 156.351 182.566 156.891 182.566ZM164.505 172.261V183.361H163.455V172.261H164.505ZM170.992 183.481C170.222 183.481 169.527 183.311 168.907 182.971C168.297 182.621 167.812 182.131 167.452 181.501C167.102 180.861 166.927 180.116 166.927 179.266C166.927 178.416 167.107 177.676 167.467 177.046C167.827 176.406 168.317 175.916 168.937 175.576C169.557 175.226 170.252 175.051 171.022 175.051C171.792 175.051 172.487 175.226 173.107 175.576C173.737 175.916 174.227 176.406 174.577 177.046C174.937 177.676 175.117 178.416 175.117 179.266C175.117 180.106 174.937 180.846 174.577 181.486C174.217 182.126 173.722 182.621 173.092 182.971C172.462 183.311 171.762 183.481 170.992 183.481ZM170.992 182.566C171.532 182.566 172.032 182.446 172.492 182.206C172.952 181.956 173.322 181.586 173.602 181.096C173.892 180.596 174.037 179.986 174.037 179.266C174.037 178.546 173.897 177.941 173.617 177.451C173.337 176.951 172.967 176.581 172.507 176.341C172.047 176.091 171.547 175.966 171.007 175.966C170.467 175.966 169.967 176.091 169.507 176.341C169.047 176.581 168.677 176.951 168.397 177.451C168.127 177.941 167.992 178.546 167.992 179.266C167.992 179.986 168.127 180.596 168.397 181.096C168.677 181.586 169.042 181.956 169.492 182.206C169.952 182.446 170.452 182.566 170.992 182.566ZM178.606 176.626C178.836 176.116 179.186 175.721 179.656 175.441C180.136 175.161 180.721 175.021 181.411 175.021V176.116H181.126C180.366 176.116 179.756 176.321 179.296 176.731C178.836 177.141 178.606 177.826 178.606 178.786V183.361H177.556V175.171H178.606V176.626ZM190.977 183.481C190.037 183.481 189.267 183.266 188.667 182.836C188.077 182.396 187.747 181.801 187.677 181.051H188.757C188.807 181.511 189.022 181.886 189.402 182.176C189.792 182.456 190.312 182.596 190.962 182.596C191.532 182.596 191.977 182.461 192.297 182.191C192.627 181.921 192.792 181.586 192.792 181.186C192.792 180.906 192.702 180.676 192.522 180.496C192.342 180.316 192.112 180.176 191.832 180.076C191.562 179.966 191.192 179.851 190.722 179.731C190.112 179.571 189.617 179.411 189.237 179.251C188.857 179.091 188.532 178.856 188.262 178.546C188.002 178.226 187.872 177.801 187.872 177.271C187.872 176.871 187.992 176.501 188.232 176.161C188.472 175.821 188.812 175.551 189.252 175.351C189.692 175.151 190.192 175.051 190.752 175.051C191.632 175.051 192.342 175.276 192.882 175.726C193.422 176.166 193.712 176.776 193.752 177.556H192.702C192.672 177.076 192.482 176.691 192.132 176.401C191.792 176.101 191.322 175.951 190.722 175.951C190.192 175.951 189.762 176.076 189.432 176.326C189.102 176.576 188.937 176.886 188.937 177.256C188.937 177.576 189.032 177.841 189.222 178.051C189.422 178.251 189.667 178.411 189.957 178.531C190.247 178.641 190.637 178.766 191.127 178.906C191.717 179.066 192.187 179.221 192.537 179.371C192.887 179.521 193.187 179.741 193.437 180.031C193.687 180.321 193.817 180.706 193.827 181.186C193.827 181.626 193.707 182.021 193.467 182.371C193.227 182.711 192.892 182.981 192.462 183.181C192.032 183.381 191.537 183.481 190.977 183.481ZM196.854 173.626C196.644 173.626 196.464 173.551 196.314 173.401C196.164 173.251 196.089 173.066 196.089 172.846C196.089 172.626 196.164 172.446 196.314 172.306C196.464 172.156 196.644 172.081 196.854 172.081C197.064 172.081 197.244 172.156 197.394 172.306C197.544 172.446 197.619 172.626 197.619 172.846C197.619 173.066 197.544 173.251 197.394 173.401C197.244 173.551 197.064 173.626 196.854 173.626ZM197.379 175.171V183.361H196.329V175.171H197.379ZM201.646 176.056V181.141C201.646 181.641 201.741 181.986 201.931 182.176C202.121 182.366 202.456 182.461 202.936 182.461H203.896V183.361H202.771C202.031 183.361 201.481 183.191 201.121 182.851C200.761 182.501 200.581 181.931 200.581 181.141V176.056H199.441V175.171H200.581V173.116H201.646V175.171H203.896V176.056H201.646ZM210.314 179.251C210.314 178.411 210.479 177.676 210.809 177.046C211.149 176.406 211.614 175.916 212.204 175.576C212.804 175.226 213.479 175.051 214.229 175.051C215.009 175.051 215.679 175.231 216.239 175.591C216.809 175.951 217.219 176.411 217.469 176.971V175.171H218.519V183.361H217.469V181.546C217.209 182.106 216.794 182.571 216.224 182.941C215.664 183.301 214.994 183.481 214.214 183.481C213.474 183.481 212.804 183.306 212.204 182.956C211.614 182.606 211.149 182.111 210.809 181.471C210.479 180.831 210.314 180.091 210.314 179.251ZM217.469 179.266C217.469 178.606 217.334 178.026 217.064 177.526C216.794 177.026 216.424 176.641 215.954 176.371C215.494 176.101 214.984 175.966 214.424 175.966C213.844 175.966 213.324 176.096 212.864 176.356C212.404 176.616 212.039 176.996 211.769 177.496C211.509 177.986 211.379 178.571 211.379 179.251C211.379 179.921 211.509 180.511 211.769 181.021C212.039 181.521 212.404 181.906 212.864 182.176C213.324 182.436 213.844 182.566 214.424 182.566C214.984 182.566 215.494 182.431 215.954 182.161C216.424 181.891 216.794 181.506 217.064 181.006C217.334 180.506 217.469 179.926 217.469 179.266ZM231.191 175.021C232.151 175.021 232.931 175.326 233.531 175.936C234.141 176.536 234.446 177.411 234.446 178.561V183.361H233.411V178.681C233.411 177.791 233.196 177.111 232.766 176.641C232.336 176.171 231.751 175.936 231.011 175.936C230.241 175.936 229.626 176.191 229.166 176.701C228.706 177.211 228.476 177.951 228.476 178.921V183.361H227.441V178.681C227.441 177.791 227.226 177.111 226.796 176.641C226.366 176.171 225.776 175.936 225.026 175.936C224.256 175.936 223.641 176.191 223.181 176.701C222.721 177.211 222.491 177.951 222.491 178.921V183.361H221.441V175.171H222.491V176.581C222.751 176.071 223.121 175.686 223.601 175.426C224.081 175.156 224.616 175.021 225.206 175.021C225.916 175.021 226.536 175.191 227.066 175.531C227.606 175.871 227.996 176.371 228.236 177.031C228.456 176.381 228.831 175.886 229.361 175.546C229.901 175.196 230.511 175.021 231.191 175.021ZM244.713 178.846C244.713 179.206 244.703 179.481 244.683 179.671H237.888C237.918 180.291 238.068 180.821 238.338 181.261C238.608 181.701 238.963 182.036 239.403 182.266C239.843 182.486 240.323 182.596 240.843 182.596C241.523 182.596 242.093 182.431 242.553 182.101C243.023 181.771 243.333 181.326 243.483 180.766H244.593C244.393 181.566 243.963 182.221 243.303 182.731C242.653 183.231 241.833 183.481 240.843 183.481C240.073 183.481 239.383 183.311 238.773 182.971C238.163 182.621 237.683 182.131 237.333 181.501C236.993 180.861 236.823 180.116 236.823 179.266C236.823 178.416 236.993 177.671 237.333 177.031C237.673 176.391 238.148 175.901 238.758 175.561C239.368 175.221 240.063 175.051 240.843 175.051C241.623 175.051 242.303 175.221 242.883 175.561C243.473 175.901 243.923 176.361 244.233 176.941C244.553 177.511 244.713 178.146 244.713 178.846ZM243.648 178.816C243.658 178.206 243.533 177.686 243.273 177.256C243.023 176.826 242.678 176.501 242.238 176.281C241.798 176.061 241.318 175.951 240.798 175.951C240.018 175.951 239.353 176.201 238.803 176.701C238.253 177.201 237.948 177.906 237.888 178.816H243.648ZM248.524 176.056V181.141C248.524 181.641 248.619 181.986 248.809 182.176C248.999 182.366 249.334 182.461 249.814 182.461H250.774V183.361H249.649C248.909 183.361 248.359 183.191 247.999 182.851C247.639 182.501 247.459 181.931 247.459 181.141V176.056H246.319V175.171H247.459V173.116H248.524V175.171H250.774V176.056H248.524ZM253.991 181.621L252.431 185.551H251.711L252.821 181.621H253.991ZM38.7534 202.266C38.7534 201.416 38.9234 200.676 39.2634 200.046C39.6034 199.406 40.0734 198.916 40.6734 198.576C41.2734 198.226 41.9584 198.051 42.7284 198.051C43.7384 198.051 44.5684 198.301 45.2184 198.801C45.8784 199.301 46.3034 199.981 46.4934 200.841H45.3684C45.2284 200.251 44.9234 199.791 44.4534 199.461C43.9934 199.121 43.4184 198.951 42.7284 198.951C42.1784 198.951 41.6834 199.076 41.2434 199.326C40.8034 199.576 40.4534 199.951 40.1934 200.451C39.9434 200.941 39.8184 201.546 39.8184 202.266C39.8184 202.986 39.9434 203.596 40.1934 204.096C40.4534 204.596 40.8034 204.971 41.2434 205.221C41.6834 205.471 42.1784 205.596 42.7284 205.596C43.4184 205.596 43.9934 205.431 44.4534 205.101C44.9234 204.761 45.2284 204.291 45.3684 203.691H46.4934C46.3034 204.531 45.8784 205.206 45.2184 205.716C44.5584 206.226 43.7284 206.481 42.7284 206.481C41.9584 206.481 41.2734 206.311 40.6734 205.971C40.0734 205.621 39.6034 205.131 39.2634 204.501C38.9234 203.861 38.7534 203.116 38.7534 202.266ZM52.5426 206.481C51.7726 206.481 51.0776 206.311 50.4576 205.971C49.8476 205.621 49.3626 205.131 49.0026 204.501C48.6526 203.861 48.4776 203.116 48.4776 202.266C48.4776 201.416 48.6576 200.676 49.0176 200.046C49.3776 199.406 49.8676 198.916 50.4876 198.576C51.1076 198.226 51.8026 198.051 52.5726 198.051C53.3426 198.051 54.0376 198.226 54.6576 198.576C55.2876 198.916 55.7776 199.406 56.1276 200.046C56.4876 200.676 56.6676 201.416 56.6676 202.266C56.6676 203.106 56.4876 203.846 56.1276 204.486C55.7676 205.126 55.2726 205.621 54.6426 205.971C54.0126 206.311 53.3126 206.481 52.5426 206.481ZM52.5426 205.566C53.0826 205.566 53.5826 205.446 54.0426 205.206C54.5026 204.956 54.8726 204.586 55.1526 204.096C55.4426 203.596 55.5876 202.986 55.5876 202.266C55.5876 201.546 55.4476 200.941 55.1676 200.451C54.8876 199.951 54.5176 199.581 54.0576 199.341C53.5976 199.091 53.0976 198.966 52.5576 198.966C52.0176 198.966 51.5176 199.091 51.0576 199.341C50.5976 199.581 50.2276 199.951 49.9476 200.451C49.6776 200.941 49.5426 201.546 49.5426 202.266C49.5426 202.986 49.6776 203.596 49.9476 204.096C50.2276 204.586 50.5926 204.956 51.0426 205.206C51.5026 205.446 52.0026 205.566 52.5426 205.566ZM62.9466 198.021C63.9266 198.021 64.7266 198.326 65.3466 198.936C65.9666 199.536 66.2766 200.411 66.2766 201.561V206.361H65.2416V201.681C65.2416 200.791 65.0166 200.111 64.5666 199.641C64.1266 199.171 63.5216 198.936 62.7516 198.936C61.9616 198.936 61.3316 199.186 60.8616 199.686C60.3916 200.186 60.1566 200.921 60.1566 201.891V206.361H59.1066V198.171H60.1566V199.566C60.4166 199.066 60.7916 198.686 61.2816 198.426C61.7716 198.156 62.3266 198.021 62.9466 198.021ZM71.9438 206.481C71.0038 206.481 70.2338 206.266 69.6338 205.836C69.0438 205.396 68.7138 204.801 68.6438 204.051H69.7238C69.7738 204.511 69.9888 204.886 70.3688 205.176C70.7588 205.456 71.2788 205.596 71.9288 205.596C72.4988 205.596 72.9438 205.461 73.2638 205.191C73.5938 204.921 73.7588 204.586 73.7588 204.186C73.7588 203.906 73.6688 203.676 73.4888 203.496C73.3088 203.316 73.0788 203.176 72.7988 203.076C72.5288 202.966 72.1588 202.851 71.6888 202.731C71.0788 202.571 70.5838 202.411 70.2038 202.251C69.8238 202.091 69.4988 201.856 69.2288 201.546C68.9688 201.226 68.8388 200.801 68.8388 200.271C68.8388 199.871 68.9588 199.501 69.1988 199.161C69.4388 198.821 69.7788 198.551 70.2188 198.351C70.6588 198.151 71.1588 198.051 71.7188 198.051C72.5988 198.051 73.3088 198.276 73.8488 198.726C74.3888 199.166 74.6788 199.776 74.7188 200.556H73.6688C73.6388 200.076 73.4488 199.691 73.0988 199.401C72.7588 199.101 72.2888 198.951 71.6888 198.951C71.1588 198.951 70.7288 199.076 70.3988 199.326C70.0688 199.576 69.9038 199.886 69.9038 200.256C69.9038 200.576 69.9988 200.841 70.1888 201.051C70.3888 201.251 70.6338 201.411 70.9238 201.531C71.2138 201.641 71.6038 201.766 72.0938 201.906C72.6838 202.066 73.1538 202.221 73.5038 202.371C73.8538 202.521 74.1538 202.741 74.4038 203.031C74.6538 203.321 74.7838 203.706 74.7938 204.186C74.7938 204.626 74.6738 205.021 74.4338 205.371C74.1938 205.711 73.8588 205.981 73.4288 206.181C72.9988 206.381 72.5038 206.481 71.9438 206.481ZM84.7053 201.846C84.7053 202.206 84.6953 202.481 84.6753 202.671H77.8803C77.9103 203.291 78.0603 203.821 78.3303 204.261C78.6003 204.701 78.9553 205.036 79.3953 205.266C79.8353 205.486 80.3153 205.596 80.8353 205.596C81.5153 205.596 82.0853 205.431 82.5453 205.101C83.0153 204.771 83.3253 204.326 83.4753 203.766H84.5853C84.3853 204.566 83.9553 205.221 83.2953 205.731C82.6453 206.231 81.8253 206.481 80.8353 206.481C80.0653 206.481 79.3753 206.311 78.7653 205.971C78.1553 205.621 77.6753 205.131 77.3253 204.501C76.9853 203.861 76.8153 203.116 76.8153 202.266C76.8153 201.416 76.9853 200.671 77.3253 200.031C77.6653 199.391 78.1403 198.901 78.7503 198.561C79.3603 198.221 80.0553 198.051 80.8353 198.051C81.6153 198.051 82.2953 198.221 82.8753 198.561C83.4653 198.901 83.9153 199.361 84.2253 199.941C84.5453 200.511 84.7053 201.146 84.7053 201.846ZM83.6403 201.816C83.6503 201.206 83.5253 200.686 83.2653 200.256C83.0153 199.826 82.6703 199.501 82.2303 199.281C81.7903 199.061 81.3103 198.951 80.7903 198.951C80.0103 198.951 79.3453 199.201 78.7953 199.701C78.2453 200.201 77.9403 200.906 77.8803 201.816H83.6403ZM86.6713 202.266C86.6713 201.416 86.8413 200.676 87.1813 200.046C87.5213 199.406 87.9913 198.916 88.5913 198.576C89.1913 198.226 89.8763 198.051 90.6463 198.051C91.6563 198.051 92.4863 198.301 93.1363 198.801C93.7963 199.301 94.2213 199.981 94.4113 200.841H93.2863C93.1463 200.251 92.8413 199.791 92.3713 199.461C91.9113 199.121 91.3363 198.951 90.6463 198.951C90.0963 198.951 89.6013 199.076 89.1613 199.326C88.7213 199.576 88.3713 199.951 88.1113 200.451C87.8613 200.941 87.7363 201.546 87.7363 202.266C87.7363 202.986 87.8613 203.596 88.1113 204.096C88.3713 204.596 88.7213 204.971 89.1613 205.221C89.6013 205.471 90.0963 205.596 90.6463 205.596C91.3363 205.596 91.9113 205.431 92.3713 205.101C92.8413 204.761 93.1463 204.291 93.2863 203.691H94.4113C94.2213 204.531 93.7963 205.206 93.1363 205.716C92.4763 206.226 91.6463 206.481 90.6463 206.481C89.8763 206.481 89.1913 206.311 88.5913 205.971C87.9913 205.621 87.5213 205.131 87.1813 204.501C86.8413 203.861 86.6713 203.116 86.6713 202.266ZM98.2405 199.056V204.141C98.2405 204.641 98.3355 204.986 98.5255 205.176C98.7155 205.366 99.0505 205.461 99.5305 205.461H100.491V206.361H99.3655C98.6255 206.361 98.0755 206.191 97.7155 205.851C97.3555 205.501 97.1755 204.931 97.1755 204.141V199.056H96.0355V198.171H97.1755V196.116H98.2405V198.171H100.491V199.056H98.2405ZM110.157 201.846C110.157 202.206 110.147 202.481 110.127 202.671H103.332C103.362 203.291 103.512 203.821 103.782 204.261C104.052 204.701 104.407 205.036 104.847 205.266C105.287 205.486 105.767 205.596 106.287 205.596C106.967 205.596 107.537 205.431 107.997 205.101C108.467 204.771 108.777 204.326 108.927 203.766H110.037C109.837 204.566 109.407 205.221 108.747 205.731C108.097 206.231 107.277 206.481 106.287 206.481C105.517 206.481 104.827 206.311 104.217 205.971C103.607 205.621 103.127 205.131 102.777 204.501C102.437 203.861 102.267 203.116 102.267 202.266C102.267 201.416 102.437 200.671 102.777 200.031C103.117 199.391 103.592 198.901 104.202 198.561C104.812 198.221 105.507 198.051 106.287 198.051C107.067 198.051 107.747 198.221 108.327 198.561C108.917 198.901 109.367 199.361 109.677 199.941C109.997 200.511 110.157 201.146 110.157 201.846ZM109.092 201.816C109.102 201.206 108.977 200.686 108.717 200.256C108.467 199.826 108.122 199.501 107.682 199.281C107.242 199.061 106.762 198.951 106.242 198.951C105.462 198.951 104.797 199.201 104.247 199.701C103.697 200.201 103.392 200.906 103.332 201.816H109.092ZM113.968 199.056V204.141C113.968 204.641 114.063 204.986 114.253 205.176C114.443 205.366 114.778 205.461 115.258 205.461H116.218V206.361H115.093C114.353 206.361 113.803 206.191 113.443 205.851C113.083 205.501 112.903 204.931 112.903 204.141V199.056H111.763V198.171H112.903V196.116H113.968V198.171H116.218V199.056H113.968ZM125.57 198.171V206.361H124.52V204.921C124.28 205.431 123.91 205.821 123.41 206.091C122.91 206.361 122.35 206.496 121.73 206.496C120.75 206.496 119.95 206.196 119.33 205.596C118.71 204.986 118.4 204.106 118.4 202.956V198.171H119.435V202.836C119.435 203.726 119.655 204.406 120.095 204.876C120.545 205.346 121.155 205.581 121.925 205.581C122.715 205.581 123.345 205.331 123.815 204.831C124.285 204.331 124.52 203.596 124.52 202.626V198.171H125.57ZM129.542 199.626C129.772 199.116 130.122 198.721 130.592 198.441C131.072 198.161 131.657 198.021 132.347 198.021V199.116H132.062C131.302 199.116 130.692 199.321 130.232 199.731C129.772 200.141 129.542 200.826 129.542 201.786V206.361H128.492V198.171H129.542V199.626ZM138.613 202.251C138.613 201.411 138.778 200.676 139.108 200.046C139.448 199.406 139.913 198.916 140.503 198.576C141.103 198.226 141.778 198.051 142.528 198.051C143.308 198.051 143.978 198.231 144.538 198.591C145.108 198.951 145.518 199.411 145.768 199.971V198.171H146.818V206.361H145.768V204.546C145.508 205.106 145.093 205.571 144.523 205.941C143.963 206.301 143.293 206.481 142.513 206.481C141.773 206.481 141.103 206.306 140.503 205.956C139.913 205.606 139.448 205.111 139.108 204.471C138.778 203.831 138.613 203.091 138.613 202.251ZM145.768 202.266C145.768 201.606 145.633 201.026 145.363 200.526C145.093 200.026 144.723 199.641 144.253 199.371C143.793 199.101 143.283 198.966 142.723 198.966C142.143 198.966 141.623 199.096 141.163 199.356C140.703 199.616 140.338 199.996 140.068 200.496C139.808 200.986 139.678 201.571 139.678 202.251C139.678 202.921 139.808 203.511 140.068 204.021C140.338 204.521 140.703 204.906 141.163 205.176C141.623 205.436 142.143 205.566 142.723 205.566C143.283 205.566 143.793 205.431 144.253 205.161C144.723 204.891 145.093 204.506 145.363 204.006C145.633 203.506 145.768 202.926 145.768 202.266ZM149.26 202.251C149.26 201.411 149.43 200.676 149.77 200.046C150.11 199.406 150.575 198.916 151.165 198.576C151.765 198.226 152.44 198.051 153.19 198.051C153.91 198.051 154.56 198.226 155.14 198.576C155.72 198.926 156.145 199.381 156.415 199.941V195.261H157.465V206.361H156.415V204.531C156.165 205.101 155.755 205.571 155.185 205.941C154.615 206.301 153.945 206.481 153.175 206.481C152.425 206.481 151.75 206.306 151.15 205.956C150.56 205.606 150.095 205.111 149.755 204.471C149.425 203.831 149.26 203.091 149.26 202.251ZM156.415 202.266C156.415 201.606 156.28 201.026 156.01 200.526C155.74 200.026 155.37 199.641 154.9 199.371C154.44 199.101 153.93 198.966 153.37 198.966C152.79 198.966 152.27 199.096 151.81 199.356C151.35 199.616 150.985 199.996 150.715 200.496C150.455 200.986 150.325 201.571 150.325 202.251C150.325 202.921 150.455 203.511 150.715 204.021C150.985 204.521 151.35 204.906 151.81 205.176C152.27 205.436 152.79 205.566 153.37 205.566C153.93 205.566 154.44 205.431 154.9 205.161C155.37 204.891 155.74 204.506 156.01 204.006C156.28 203.506 156.415 202.926 156.415 202.266ZM160.912 196.626C160.702 196.626 160.522 196.551 160.372 196.401C160.222 196.251 160.147 196.066 160.147 195.846C160.147 195.626 160.222 195.446 160.372 195.306C160.522 195.156 160.702 195.081 160.912 195.081C161.122 195.081 161.302 195.156 161.452 195.306C161.602 195.446 161.677 195.626 161.677 195.846C161.677 196.066 161.602 196.251 161.452 196.401C161.302 196.551 161.122 196.626 160.912 196.626ZM161.437 198.171V206.361H160.387V198.171H161.437ZM165.375 199.971C165.635 199.421 166.045 198.966 166.605 198.606C167.175 198.236 167.85 198.051 168.63 198.051C169.37 198.051 170.035 198.226 170.625 198.576C171.225 198.916 171.69 199.406 172.02 200.046C172.36 200.676 172.53 201.411 172.53 202.251C172.53 203.091 172.36 203.831 172.02 204.471C171.69 205.111 171.225 205.606 170.625 205.956C170.035 206.306 169.37 206.481 168.63 206.481C167.86 206.481 167.19 206.301 166.62 205.941C166.05 205.571 165.635 205.111 165.375 204.561V210.231H164.34V198.171H165.375V199.971ZM171.465 202.251C171.465 201.571 171.33 200.986 171.06 200.496C170.8 199.996 170.44 199.616 169.98 199.356C169.52 199.096 169 198.966 168.42 198.966C167.86 198.966 167.345 199.101 166.875 199.371C166.415 199.641 166.05 200.026 165.78 200.526C165.51 201.026 165.375 201.606 165.375 202.266C165.375 202.926 165.51 203.506 165.78 204.006C166.05 204.506 166.415 204.891 166.875 205.161C167.345 205.431 167.86 205.566 168.42 205.566C169 205.566 169.52 205.436 169.98 205.176C170.44 204.906 170.8 204.521 171.06 204.021C171.33 203.511 171.465 202.921 171.465 202.251ZM175.512 196.626C175.302 196.626 175.122 196.551 174.972 196.401C174.822 196.251 174.747 196.066 174.747 195.846C174.747 195.626 174.822 195.446 174.972 195.306C175.122 195.156 175.302 195.081 175.512 195.081C175.722 195.081 175.902 195.156 176.052 195.306C176.202 195.446 176.277 195.626 176.277 195.846C176.277 196.066 176.202 196.251 176.052 196.401C175.902 196.551 175.722 196.626 175.512 196.626ZM176.037 198.171V206.361H174.987V198.171H176.037ZM181.76 206.481C180.82 206.481 180.05 206.266 179.45 205.836C178.86 205.396 178.53 204.801 178.46 204.051H179.54C179.59 204.511 179.805 204.886 180.185 205.176C180.575 205.456 181.095 205.596 181.745 205.596C182.315 205.596 182.76 205.461 183.08 205.191C183.41 204.921 183.575 204.586 183.575 204.186C183.575 203.906 183.485 203.676 183.305 203.496C183.125 203.316 182.895 203.176 182.615 203.076C182.345 202.966 181.975 202.851 181.505 202.731C180.895 202.571 180.4 202.411 180.02 202.251C179.64 202.091 179.315 201.856 179.045 201.546C178.785 201.226 178.655 200.801 178.655 200.271C178.655 199.871 178.775 199.501 179.015 199.161C179.255 198.821 179.595 198.551 180.035 198.351C180.475 198.151 180.975 198.051 181.535 198.051C182.415 198.051 183.125 198.276 183.665 198.726C184.205 199.166 184.495 199.776 184.535 200.556H183.485C183.455 200.076 183.265 199.691 182.915 199.401C182.575 199.101 182.105 198.951 181.505 198.951C180.975 198.951 180.545 199.076 180.215 199.326C179.885 199.576 179.72 199.886 179.72 200.256C179.72 200.576 179.815 200.841 180.005 201.051C180.205 201.251 180.45 201.411 180.74 201.531C181.03 201.641 181.42 201.766 181.91 201.906C182.5 202.066 182.97 202.221 183.32 202.371C183.67 202.521 183.97 202.741 184.22 203.031C184.47 203.321 184.6 203.706 184.61 204.186C184.61 204.626 184.49 205.021 184.25 205.371C184.01 205.711 183.675 205.981 183.245 206.181C182.815 206.381 182.32 206.481 181.76 206.481ZM186.631 202.266C186.631 201.416 186.801 200.676 187.141 200.046C187.481 199.406 187.951 198.916 188.551 198.576C189.151 198.226 189.836 198.051 190.606 198.051C191.616 198.051 192.446 198.301 193.096 198.801C193.756 199.301 194.181 199.981 194.371 200.841H193.246C193.106 200.251 192.801 199.791 192.331 199.461C191.871 199.121 191.296 198.951 190.606 198.951C190.056 198.951 189.561 199.076 189.121 199.326C188.681 199.576 188.331 199.951 188.071 200.451C187.821 200.941 187.696 201.546 187.696 202.266C187.696 202.986 187.821 203.596 188.071 204.096C188.331 204.596 188.681 204.971 189.121 205.221C189.561 205.471 190.056 205.596 190.606 205.596C191.296 205.596 191.871 205.431 192.331 205.101C192.801 204.761 193.106 204.291 193.246 203.691H194.371C194.181 204.531 193.756 205.206 193.096 205.716C192.436 206.226 191.606 206.481 190.606 206.481C189.836 206.481 189.151 206.311 188.551 205.971C187.951 205.621 187.481 205.131 187.141 204.501C186.801 203.861 186.631 203.116 186.631 202.266ZM197.36 196.626C197.15 196.626 196.97 196.551 196.82 196.401C196.67 196.251 196.595 196.066 196.595 195.846C196.595 195.626 196.67 195.446 196.82 195.306C196.97 195.156 197.15 195.081 197.36 195.081C197.57 195.081 197.75 195.156 197.9 195.306C198.05 195.446 198.125 195.626 198.125 195.846C198.125 196.066 198.05 196.251 197.9 196.401C197.75 196.551 197.57 196.626 197.36 196.626ZM197.885 198.171V206.361H196.835V198.171H197.885ZM204.628 198.021C205.608 198.021 206.408 198.326 207.028 198.936C207.648 199.536 207.958 200.411 207.958 201.561V206.361H206.923V201.681C206.923 200.791 206.698 200.111 206.248 199.641C205.808 199.171 205.203 198.936 204.433 198.936C203.643 198.936 203.013 199.186 202.543 199.686C202.073 200.186 201.838 200.921 201.838 201.891V206.361H200.788V198.171H201.838V199.566C202.098 199.066 202.473 198.686 202.963 198.426C203.453 198.156 204.008 198.021 204.628 198.021ZM214.24 198.051C215.01 198.051 215.68 198.231 216.25 198.591C216.82 198.951 217.23 199.406 217.48 199.956V198.171H218.53V206.571C218.53 207.321 218.365 207.986 218.035 208.566C217.715 209.146 217.265 209.591 216.685 209.901C216.105 210.221 215.445 210.381 214.705 210.381C213.655 210.381 212.78 210.131 212.08 209.631C211.39 209.131 210.96 208.451 210.79 207.591H211.825C212.005 208.161 212.345 208.616 212.845 208.956C213.355 209.296 213.975 209.466 214.705 209.466C215.235 209.466 215.71 209.351 216.13 209.121C216.55 208.901 216.88 208.571 217.12 208.131C217.36 207.691 217.48 207.171 217.48 206.571V204.546C217.22 205.106 216.805 205.571 216.235 205.941C215.675 206.301 215.01 206.481 214.24 206.481C213.49 206.481 212.815 206.306 212.215 205.956C211.625 205.606 211.16 205.111 210.82 204.471C210.49 203.831 210.325 203.091 210.325 202.251C210.325 201.411 210.49 200.676 210.82 200.046C211.16 199.406 211.625 198.916 212.215 198.576C212.815 198.226 213.49 198.051 214.24 198.051ZM217.48 202.266C217.48 201.606 217.345 201.026 217.075 200.526C216.805 200.026 216.435 199.641 215.965 199.371C215.505 199.101 214.995 198.966 214.435 198.966C213.855 198.966 213.335 199.096 212.875 199.356C212.415 199.616 212.05 199.996 211.78 200.496C211.52 200.986 211.39 201.571 211.39 202.251C211.39 202.921 211.52 203.511 211.78 204.021C212.05 204.521 212.415 204.906 212.875 205.176C213.335 205.436 213.855 205.566 214.435 205.566C214.995 205.566 215.505 205.431 215.965 205.161C216.435 204.891 216.805 204.506 217.075 204.006C217.345 203.506 217.48 202.926 217.48 202.266ZM233.504 201.846C233.504 202.206 233.494 202.481 233.474 202.671H226.679C226.709 203.291 226.859 203.821 227.129 204.261C227.399 204.701 227.754 205.036 228.194 205.266C228.634 205.486 229.114 205.596 229.634 205.596C230.314 205.596 230.884 205.431 231.344 205.101C231.814 204.771 232.124 204.326 232.274 203.766H233.384C233.184 204.566 232.754 205.221 232.094 205.731C231.444 206.231 230.624 206.481 229.634 206.481C228.864 206.481 228.174 206.311 227.564 205.971C226.954 205.621 226.474 205.131 226.124 204.501C225.784 203.861 225.614 203.116 225.614 202.266C225.614 201.416 225.784 200.671 226.124 200.031C226.464 199.391 226.939 198.901 227.549 198.561C228.159 198.221 228.854 198.051 229.634 198.051C230.414 198.051 231.094 198.221 231.674 198.561C232.264 198.901 232.714 199.361 233.024 199.941C233.344 200.511 233.504 201.146 233.504 201.846ZM232.439 201.816C232.449 201.206 232.324 200.686 232.064 200.256C231.814 199.826 231.469 199.501 231.029 199.281C230.589 199.061 230.109 198.951 229.589 198.951C228.809 198.951 228.144 199.201 227.594 199.701C227.044 200.201 226.739 200.906 226.679 201.816H232.439ZM237 195.261V206.361H235.95V195.261H237ZM240.427 196.626C240.217 196.626 240.037 196.551 239.887 196.401C239.737 196.251 239.662 196.066 239.662 195.846C239.662 195.626 239.737 195.446 239.887 195.306C240.037 195.156 240.217 195.081 240.427 195.081C240.637 195.081 240.817 195.156 240.967 195.306C241.117 195.446 241.192 195.626 241.192 195.846C241.192 196.066 241.117 196.251 240.967 196.401C240.817 196.551 240.637 196.626 240.427 196.626ZM240.952 198.171V206.361H239.902V198.171H240.952ZM245.22 199.056V204.141C245.22 204.641 245.315 204.986 245.505 205.176C245.695 205.366 246.03 205.461 246.51 205.461H247.47V206.361H246.345C245.605 206.361 245.055 206.191 244.695 205.851C244.335 205.501 244.155 204.931 244.155 204.141V199.056H243.015V198.171H244.155V196.116H245.22V198.171H247.47V199.056H245.22ZM249.907 206.436C249.687 206.436 249.502 206.361 249.352 206.211C249.212 206.061 249.142 205.876 249.142 205.656C249.142 205.436 249.212 205.256 249.352 205.116C249.502 204.966 249.687 204.891 249.907 204.891C250.117 204.891 250.292 204.966 250.432 205.116C250.582 205.256 250.657 205.436 250.657 205.656C250.657 205.876 250.582 206.061 250.432 206.211C250.292 206.361 250.117 206.436 249.907 206.436ZM31.1709 219.731V223.646H35.1459V224.516H31.1709V228.491H35.5959V229.361H30.1209V218.861H35.5959V219.731H31.1709ZM41.6248 221.051C42.3948 221.051 43.0648 221.231 43.6348 221.591C44.2048 221.951 44.6148 222.406 44.8648 222.956V221.171H45.9148V229.571C45.9148 230.321 45.7498 230.986 45.4198 231.566C45.0998 232.146 44.6498 232.591 44.0698 232.901C43.4898 233.221 42.8298 233.381 42.0898 233.381C41.0398 233.381 40.1648 233.131 39.4648 232.631C38.7748 232.131 38.3448 231.451 38.1748 230.591H39.2098C39.3898 231.161 39.7298 231.616 40.2298 231.956C40.7398 232.296 41.3598 232.466 42.0898 232.466C42.6198 232.466 43.0948 232.351 43.5148 232.121C43.9348 231.901 44.2648 231.571 44.5048 231.131C44.7448 230.691 44.8648 230.171 44.8648 229.571V227.546C44.6048 228.106 44.1898 228.571 43.6198 228.941C43.0598 229.301 42.3948 229.481 41.6248 229.481C40.8748 229.481 40.1998 229.306 39.5998 228.956C39.0098 228.606 38.5448 228.111 38.2048 227.471C37.8748 226.831 37.7098 226.091 37.7098 225.251C37.7098 224.411 37.8748 223.676 38.2048 223.046C38.5448 222.406 39.0098 221.916 39.5998 221.576C40.1998 221.226 40.8748 221.051 41.6248 221.051ZM44.8648 225.266C44.8648 224.606 44.7298 224.026 44.4598 223.526C44.1898 223.026 43.8198 222.641 43.3498 222.371C42.8898 222.101 42.3798 221.966 41.8198 221.966C41.2398 221.966 40.7198 222.096 40.2598 222.356C39.7998 222.616 39.4348 222.996 39.1648 223.496C38.9048 223.986 38.7748 224.571 38.7748 225.251C38.7748 225.921 38.9048 226.511 39.1648 227.021C39.4348 227.521 39.7998 227.906 40.2598 228.176C40.7198 228.436 41.2398 228.566 41.8198 228.566C42.3798 228.566 42.8898 228.431 43.3498 228.161C43.8198 227.891 44.1898 227.506 44.4598 227.006C44.7298 226.506 44.8648 225.926 44.8648 225.266ZM56.2469 224.846C56.2469 225.206 56.2369 225.481 56.2169 225.671H49.4219C49.4519 226.291 49.6019 226.821 49.8719 227.261C50.1419 227.701 50.4969 228.036 50.9369 228.266C51.3769 228.486 51.8569 228.596 52.3769 228.596C53.0569 228.596 53.6269 228.431 54.0869 228.101C54.5569 227.771 54.8669 227.326 55.0169 226.766H56.1269C55.9269 227.566 55.4969 228.221 54.8369 228.731C54.1869 229.231 53.3669 229.481 52.3769 229.481C51.6069 229.481 50.9169 229.311 50.3069 228.971C49.6969 228.621 49.2169 228.131 48.8669 227.501C48.5269 226.861 48.3569 226.116 48.3569 225.266C48.3569 224.416 48.5269 223.671 48.8669 223.031C49.2069 222.391 49.6819 221.901 50.2919 221.561C50.9019 221.221 51.5969 221.051 52.3769 221.051C53.1569 221.051 53.8369 221.221 54.4169 221.561C55.0069 221.901 55.4569 222.361 55.7669 222.941C56.0869 223.511 56.2469 224.146 56.2469 224.846ZM55.1819 224.816C55.1919 224.206 55.0669 223.686 54.8069 223.256C54.5569 222.826 54.2119 222.501 53.7719 222.281C53.3319 222.061 52.8519 221.951 52.3319 221.951C51.5519 221.951 50.8869 222.201 50.3369 222.701C49.7869 223.201 49.4819 223.906 49.4219 224.816H55.1819ZM61.5129 229.481C60.5729 229.481 59.8029 229.266 59.2029 228.836C58.6129 228.396 58.2829 227.801 58.2129 227.051H59.2929C59.3429 227.511 59.5579 227.886 59.9379 228.176C60.3279 228.456 60.8479 228.596 61.4979 228.596C62.0679 228.596 62.5129 228.461 62.8329 228.191C63.1629 227.921 63.3279 227.586 63.3279 227.186C63.3279 226.906 63.2379 226.676 63.0579 226.496C62.8779 226.316 62.6479 226.176 62.3679 226.076C62.0979 225.966 61.7279 225.851 61.2579 225.731C60.6479 225.571 60.1529 225.411 59.7729 225.251C59.3929 225.091 59.0679 224.856 58.7979 224.546C58.5379 224.226 58.4079 223.801 58.4079 223.271C58.4079 222.871 58.5279 222.501 58.7679 222.161C59.0079 221.821 59.3479 221.551 59.7879 221.351C60.2279 221.151 60.7279 221.051 61.2879 221.051C62.1679 221.051 62.8779 221.276 63.4179 221.726C63.9579 222.166 64.2479 222.776 64.2879 223.556H63.2379C63.2079 223.076 63.0179 222.691 62.6679 222.401C62.3279 222.101 61.8579 221.951 61.2579 221.951C60.7279 221.951 60.2979 222.076 59.9679 222.326C59.6379 222.576 59.4729 222.886 59.4729 223.256C59.4729 223.576 59.5679 223.841 59.7579 224.051C59.9579 224.251 60.2029 224.411 60.4929 224.531C60.7829 224.641 61.1729 224.766 61.6629 224.906C62.2529 225.066 62.7229 225.221 63.0729 225.371C63.4229 225.521 63.7229 225.741 63.9729 226.031C64.2229 226.321 64.3529 226.706 64.3629 227.186C64.3629 227.626 64.2429 228.021 64.0029 228.371C63.7629 228.711 63.4279 228.981 62.9979 229.181C62.5679 229.381 62.0729 229.481 61.5129 229.481ZM68.2294 222.056V227.141C68.2294 227.641 68.3244 227.986 68.5144 228.176C68.7044 228.366 69.0394 228.461 69.5194 228.461H70.4794V229.361H69.3544C68.6144 229.361 68.0644 229.191 67.7044 228.851C67.3444 228.501 67.1644 227.931 67.1644 227.141V222.056H66.0244V221.171H67.1644V219.116H68.2294V221.171H70.4794V222.056H68.2294ZM72.2561 225.251C72.2561 224.411 72.4211 223.676 72.7511 223.046C73.0911 222.406 73.5561 221.916 74.1461 221.576C74.7461 221.226 75.4211 221.051 76.1711 221.051C76.9511 221.051 77.6211 221.231 78.1811 221.591C78.7511 221.951 79.1611 222.411 79.4111 222.971V221.171H80.4611V229.361H79.4111V227.546C79.1511 228.106 78.7361 228.571 78.1661 228.941C77.6061 229.301 76.9361 229.481 76.1561 229.481C75.4161 229.481 74.7461 229.306 74.1461 228.956C73.5561 228.606 73.0911 228.111 72.7511 227.471C72.4211 226.831 72.2561 226.091 72.2561 225.251ZM79.4111 225.266C79.4111 224.606 79.2761 224.026 79.0061 223.526C78.7361 223.026 78.3661 222.641 77.8961 222.371C77.4361 222.101 76.9261 221.966 76.3661 221.966C75.7861 221.966 75.2661 222.096 74.8061 222.356C74.3461 222.616 73.9811 222.996 73.7111 223.496C73.4511 223.986 73.3211 224.571 73.3211 225.251C73.3211 225.921 73.4511 226.511 73.7111 227.021C73.9811 227.521 74.3461 227.906 74.8061 228.176C75.2661 228.436 75.7861 228.566 76.3661 228.566C76.9261 228.566 77.4361 228.431 77.8961 228.161C78.3661 227.891 78.7361 227.506 79.0061 227.006C79.2761 226.506 79.4111 225.926 79.4111 225.266ZM86.2032 229.481C85.2632 229.481 84.4932 229.266 83.8932 228.836C83.3032 228.396 82.9732 227.801 82.9032 227.051H83.9832C84.0332 227.511 84.2482 227.886 84.6282 228.176C85.0182 228.456 85.5382 228.596 86.1882 228.596C86.7582 228.596 87.2032 228.461 87.5232 228.191C87.8532 227.921 88.0182 227.586 88.0182 227.186C88.0182 226.906 87.9282 226.676 87.7482 226.496C87.5682 226.316 87.3382 226.176 87.0582 226.076C86.7882 225.966 86.4182 225.851 85.9482 225.731C85.3382 225.571 84.8432 225.411 84.4632 225.251C84.0832 225.091 83.7582 224.856 83.4882 224.546C83.2282 224.226 83.0982 223.801 83.0982 223.271C83.0982 222.871 83.2182 222.501 83.4582 222.161C83.6982 221.821 84.0382 221.551 84.4782 221.351C84.9182 221.151 85.4182 221.051 85.9782 221.051C86.8582 221.051 87.5682 221.276 88.1082 221.726C88.6482 222.166 88.9382 222.776 88.9782 223.556H87.9282C87.8982 223.076 87.7082 222.691 87.3582 222.401C87.0182 222.101 86.5482 221.951 85.9482 221.951C85.4182 221.951 84.9882 222.076 84.6582 222.326C84.3282 222.576 84.1632 222.886 84.1632 223.256C84.1632 223.576 84.2582 223.841 84.4482 224.051C84.6482 224.251 84.8932 224.411 85.1832 224.531C85.4732 224.641 85.8632 224.766 86.3532 224.906C86.9432 225.066 87.4132 225.221 87.7632 225.371C88.1132 225.521 88.4132 225.741 88.6632 226.031C88.9132 226.321 89.0432 226.706 89.0532 227.186C89.0532 227.626 88.9332 228.021 88.6932 228.371C88.4532 228.711 88.1182 228.981 87.6882 229.181C87.2582 229.381 86.7632 229.481 86.2032 229.481ZM97.2458 222.626C97.4758 222.116 97.8258 221.721 98.2958 221.441C98.7758 221.161 99.3608 221.021 100.051 221.021V222.116H99.7658C99.0058 222.116 98.3958 222.321 97.9358 222.731C97.4758 223.141 97.2458 223.826 97.2458 224.786V229.361H96.1958V221.171H97.2458V222.626ZM106.055 221.021C106.675 221.021 107.23 221.151 107.72 221.411C108.22 221.671 108.61 222.071 108.89 222.611C109.18 223.141 109.325 223.791 109.325 224.561V229.361H108.29V224.681C108.29 223.791 108.065 223.111 107.615 222.641C107.175 222.171 106.57 221.936 105.8 221.936C105.01 221.936 104.38 222.186 103.91 222.686C103.44 223.186 103.205 223.921 103.205 224.891V229.361H102.155V218.261H103.205V222.566C103.465 222.076 103.845 221.696 104.345 221.426C104.855 221.156 105.425 221.021 106.055 221.021ZM115.758 229.481C114.988 229.481 114.293 229.311 113.673 228.971C113.063 228.621 112.578 228.131 112.218 227.501C111.868 226.861 111.693 226.116 111.693 225.266C111.693 224.416 111.873 223.676 112.233 223.046C112.593 222.406 113.083 221.916 113.703 221.576C114.323 221.226 115.018 221.051 115.788 221.051C116.558 221.051 117.253 221.226 117.873 221.576C118.503 221.916 118.993 222.406 119.343 223.046C119.703 223.676 119.883 224.416 119.883 225.266C119.883 226.106 119.703 226.846 119.343 227.486C118.983 228.126 118.488 228.621 117.858 228.971C117.228 229.311 116.528 229.481 115.758 229.481ZM115.758 228.566C116.298 228.566 116.798 228.446 117.258 228.206C117.718 227.956 118.088 227.586 118.368 227.096C118.658 226.596 118.803 225.986 118.803 225.266C118.803 224.546 118.663 223.941 118.383 223.451C118.103 222.951 117.733 222.581 117.273 222.341C116.813 222.091 116.313 221.966 115.773 221.966C115.233 221.966 114.733 222.091 114.273 222.341C113.813 222.581 113.443 222.951 113.163 223.451C112.893 223.941 112.758 224.546 112.758 225.266C112.758 225.986 112.893 226.596 113.163 227.096C113.443 227.586 113.808 227.956 114.258 228.206C114.718 228.446 115.218 228.566 115.758 228.566ZM126.162 221.021C127.142 221.021 127.942 221.326 128.562 221.936C129.182 222.536 129.492 223.411 129.492 224.561V229.361H128.457V224.681C128.457 223.791 128.232 223.111 127.782 222.641C127.342 222.171 126.737 221.936 125.967 221.936C125.177 221.936 124.547 222.186 124.077 222.686C123.607 223.186 123.372 223.921 123.372 224.891V229.361H122.322V221.171H123.372V222.566C123.632 222.066 124.007 221.686 124.497 221.426C124.987 221.156 125.542 221.021 126.162 221.021ZM131.859 225.266C131.859 224.416 132.029 223.676 132.369 223.046C132.709 222.406 133.179 221.916 133.779 221.576C134.379 221.226 135.064 221.051 135.834 221.051C136.844 221.051 137.674 221.301 138.324 221.801C138.984 222.301 139.409 222.981 139.599 223.841H138.474C138.334 223.251 138.029 222.791 137.559 222.461C137.099 222.121 136.524 221.951 135.834 221.951C135.284 221.951 134.789 222.076 134.349 222.326C133.909 222.576 133.559 222.951 133.299 223.451C133.049 223.941 132.924 224.546 132.924 225.266C132.924 225.986 133.049 226.596 133.299 227.096C133.559 227.596 133.909 227.971 134.349 228.221C134.789 228.471 135.284 228.596 135.834 228.596C136.524 228.596 137.099 228.431 137.559 228.101C138.029 227.761 138.334 227.291 138.474 226.691H139.599C139.409 227.531 138.984 228.206 138.324 228.716C137.664 229.226 136.834 229.481 135.834 229.481C135.064 229.481 134.379 229.311 133.779 228.971C133.179 228.621 132.709 228.131 132.369 227.501C132.029 226.861 131.859 226.116 131.859 225.266ZM149.158 221.171V229.361H148.108V227.921C147.868 228.431 147.498 228.821 146.998 229.091C146.498 229.361 145.938 229.496 145.318 229.496C144.338 229.496 143.538 229.196 142.918 228.596C142.298 227.986 141.988 227.106 141.988 225.956V221.171H143.023V225.836C143.023 226.726 143.243 227.406 143.683 227.876C144.133 228.346 144.743 228.581 145.513 228.581C146.303 228.581 146.933 228.331 147.403 227.831C147.873 227.331 148.108 226.596 148.108 225.626V221.171H149.158ZM154.9 229.481C153.96 229.481 153.19 229.266 152.59 228.836C152 228.396 151.67 227.801 151.6 227.051H152.68C152.73 227.511 152.945 227.886 153.325 228.176C153.715 228.456 154.235 228.596 154.885 228.596C155.455 228.596 155.9 228.461 156.22 228.191C156.55 227.921 156.715 227.586 156.715 227.186C156.715 226.906 156.625 226.676 156.445 226.496C156.265 226.316 156.035 226.176 155.755 226.076C155.485 225.966 155.115 225.851 154.645 225.731C154.035 225.571 153.54 225.411 153.16 225.251C152.78 225.091 152.455 224.856 152.185 224.546C151.925 224.226 151.795 223.801 151.795 223.271C151.795 222.871 151.915 222.501 152.155 222.161C152.395 221.821 152.735 221.551 153.175 221.351C153.615 221.151 154.115 221.051 154.675 221.051C155.555 221.051 156.265 221.276 156.805 221.726C157.345 222.166 157.635 222.776 157.675 223.556H156.625C156.595 223.076 156.405 222.691 156.055 222.401C155.715 222.101 155.245 221.951 154.645 221.951C154.115 221.951 153.685 222.076 153.355 222.326C153.025 222.576 152.86 222.886 152.86 223.256C152.86 223.576 152.955 223.841 153.145 224.051C153.345 224.251 153.59 224.411 153.88 224.531C154.17 224.641 154.56 224.766 155.05 224.906C155.64 225.066 156.11 225.221 156.46 225.371C156.81 225.521 157.11 225.741 157.36 226.031C157.61 226.321 157.74 226.706 157.75 227.186C157.75 227.626 157.63 228.021 157.39 228.371C157.15 228.711 156.815 228.981 156.385 229.181C155.955 229.381 155.46 229.481 154.9 229.481ZM174.643 221.021C175.603 221.021 176.383 221.326 176.983 221.936C177.593 222.536 177.898 223.411 177.898 224.561V229.361H176.863V224.681C176.863 223.791 176.648 223.111 176.218 222.641C175.788 222.171 175.203 221.936 174.463 221.936C173.693 221.936 173.078 222.191 172.618 222.701C172.158 223.211 171.928 223.951 171.928 224.921V229.361H170.893V224.681C170.893 223.791 170.678 223.111 170.248 222.641C169.818 222.171 169.228 221.936 168.478 221.936C167.708 221.936 167.093 222.191 166.633 222.701C166.173 223.211 165.943 223.951 165.943 224.921V229.361H164.893V221.171H165.943V222.581C166.203 222.071 166.573 221.686 167.053 221.426C167.533 221.156 168.068 221.021 168.658 221.021C169.368 221.021 169.988 221.191 170.518 221.531C171.058 221.871 171.448 222.371 171.688 223.031C171.908 222.381 172.283 221.886 172.813 221.546C173.353 221.196 173.963 221.021 174.643 221.021ZM180.275 225.251C180.275 224.411 180.44 223.676 180.77 223.046C181.11 222.406 181.575 221.916 182.165 221.576C182.765 221.226 183.44 221.051 184.19 221.051C184.97 221.051 185.64 221.231 186.2 221.591C186.77 221.951 187.18 222.411 187.43 222.971V221.171H188.48V229.361H187.43V227.546C187.17 228.106 186.755 228.571 186.185 228.941C185.625 229.301 184.955 229.481 184.175 229.481C183.435 229.481 182.765 229.306 182.165 228.956C181.575 228.606 181.11 228.111 180.77 227.471C180.44 226.831 180.275 226.091 180.275 225.251ZM187.43 225.266C187.43 224.606 187.295 224.026 187.025 223.526C186.755 223.026 186.385 222.641 185.915 222.371C185.455 222.101 184.945 221.966 184.385 221.966C183.805 221.966 183.285 222.096 182.825 222.356C182.365 222.616 182 222.996 181.73 223.496C181.47 223.986 181.34 224.571 181.34 225.251C181.34 225.921 181.47 226.511 181.73 227.021C182 227.521 182.365 227.906 182.825 228.176C183.285 228.436 183.805 228.566 184.385 228.566C184.945 228.566 185.455 228.431 185.915 228.161C186.385 227.891 186.755 227.506 187.025 227.006C187.295 226.506 187.43 225.926 187.43 225.266ZM194.222 229.481C193.282 229.481 192.512 229.266 191.912 228.836C191.322 228.396 190.992 227.801 190.922 227.051H192.002C192.052 227.511 192.267 227.886 192.647 228.176C193.037 228.456 193.557 228.596 194.207 228.596C194.777 228.596 195.222 228.461 195.542 228.191C195.872 227.921 196.037 227.586 196.037 227.186C196.037 226.906 195.947 226.676 195.767 226.496C195.587 226.316 195.357 226.176 195.077 226.076C194.807 225.966 194.437 225.851 193.967 225.731C193.357 225.571 192.862 225.411 192.482 225.251C192.102 225.091 191.777 224.856 191.507 224.546C191.247 224.226 191.117 223.801 191.117 223.271C191.117 222.871 191.237 222.501 191.477 222.161C191.717 221.821 192.057 221.551 192.497 221.351C192.937 221.151 193.437 221.051 193.997 221.051C194.877 221.051 195.587 221.276 196.127 221.726C196.667 222.166 196.957 222.776 196.997 223.556H195.947C195.917 223.076 195.727 222.691 195.377 222.401C195.037 222.101 194.567 221.951 193.967 221.951C193.437 221.951 193.007 222.076 192.677 222.326C192.347 222.576 192.182 222.886 192.182 223.256C192.182 223.576 192.277 223.841 192.467 224.051C192.667 224.251 192.912 224.411 193.202 224.531C193.492 224.641 193.882 224.766 194.372 224.906C194.962 225.066 195.432 225.221 195.782 225.371C196.132 225.521 196.432 225.741 196.682 226.031C196.932 226.321 197.062 226.706 197.072 227.186C197.072 227.626 196.952 228.021 196.712 228.371C196.472 228.711 196.137 228.981 195.707 229.181C195.277 229.381 194.782 229.481 194.222 229.481ZM202.393 229.481C201.453 229.481 200.683 229.266 200.083 228.836C199.493 228.396 199.163 227.801 199.093 227.051H200.173C200.223 227.511 200.438 227.886 200.818 228.176C201.208 228.456 201.728 228.596 202.378 228.596C202.948 228.596 203.393 228.461 203.713 228.191C204.043 227.921 204.208 227.586 204.208 227.186C204.208 226.906 204.118 226.676 203.938 226.496C203.758 226.316 203.528 226.176 203.248 226.076C202.978 225.966 202.608 225.851 202.138 225.731C201.528 225.571 201.033 225.411 200.653 225.251C200.273 225.091 199.948 224.856 199.678 224.546C199.418 224.226 199.288 223.801 199.288 223.271C199.288 222.871 199.408 222.501 199.648 222.161C199.888 221.821 200.228 221.551 200.668 221.351C201.108 221.151 201.608 221.051 202.168 221.051C203.048 221.051 203.758 221.276 204.298 221.726C204.838 222.166 205.128 222.776 205.168 223.556H204.118C204.088 223.076 203.898 222.691 203.548 222.401C203.208 222.101 202.738 221.951 202.138 221.951C201.608 221.951 201.178 222.076 200.848 222.326C200.518 222.576 200.353 222.886 200.353 223.256C200.353 223.576 200.448 223.841 200.638 224.051C200.838 224.251 201.083 224.411 201.373 224.531C201.663 224.641 202.053 224.766 202.543 224.906C203.133 225.066 203.603 225.221 203.953 225.371C204.303 225.521 204.603 225.741 204.853 226.031C205.103 226.321 205.233 226.706 205.243 227.186C205.243 227.626 205.123 228.021 204.883 228.371C204.643 228.711 204.308 228.981 203.878 229.181C203.448 229.381 202.953 229.481 202.393 229.481ZM207.265 225.251C207.265 224.411 207.43 223.676 207.76 223.046C208.1 222.406 208.565 221.916 209.155 221.576C209.755 221.226 210.43 221.051 211.18 221.051C211.96 221.051 212.63 221.231 213.19 221.591C213.76 221.951 214.17 222.411 214.42 222.971V221.171H215.47V229.361H214.42V227.546C214.16 228.106 213.745 228.571 213.175 228.941C212.615 229.301 211.945 229.481 211.165 229.481C210.425 229.481 209.755 229.306 209.155 228.956C208.565 228.606 208.1 228.111 207.76 227.471C207.43 226.831 207.265 226.091 207.265 225.251ZM214.42 225.266C214.42 224.606 214.285 224.026 214.015 223.526C213.745 223.026 213.375 222.641 212.905 222.371C212.445 222.101 211.935 221.966 211.375 221.966C210.795 221.966 210.275 222.096 209.815 222.356C209.355 222.616 208.99 222.996 208.72 223.496C208.46 223.986 208.33 224.571 208.33 225.251C208.33 225.921 208.46 226.511 208.72 227.021C208.99 227.521 209.355 227.906 209.815 228.176C210.275 228.436 210.795 228.566 211.375 228.566C211.935 228.566 212.445 228.431 212.905 228.161C213.375 227.891 213.745 227.506 214.015 227.006C214.285 226.506 214.42 225.926 214.42 225.266ZM225.943 228.341L228.703 221.171H229.813L226.528 229.361H225.343L222.058 221.171H223.183L225.943 228.341ZM232.286 219.626C232.076 219.626 231.896 219.551 231.746 219.401C231.596 219.251 231.521 219.066 231.521 218.846C231.521 218.626 231.596 218.446 231.746 218.306C231.896 218.156 232.076 218.081 232.286 218.081C232.496 218.081 232.676 218.156 232.826 218.306C232.976 218.446 233.051 218.626 233.051 218.846C233.051 219.066 232.976 219.251 232.826 219.401C232.676 219.551 232.496 219.626 232.286 219.626ZM232.811 221.171V229.361H231.761V221.171H232.811ZM237.079 222.056V227.141C237.079 227.641 237.174 227.986 237.364 228.176C237.554 228.366 237.889 228.461 238.369 228.461H239.329V229.361H238.204C237.464 229.361 236.914 229.191 236.554 228.851C236.194 228.501 236.014 227.931 236.014 227.141V222.056H234.874V221.171H236.014V219.116H237.079V221.171H239.329V222.056H237.079ZM241.106 225.251C241.106 224.411 241.271 223.676 241.601 223.046C241.941 222.406 242.406 221.916 242.996 221.576C243.596 221.226 244.271 221.051 245.021 221.051C245.801 221.051 246.471 221.231 247.031 221.591C247.601 221.951 248.011 222.411 248.261 222.971V221.171H249.311V229.361H248.261V227.546C248.001 228.106 247.586 228.571 247.016 228.941C246.456 229.301 245.786 229.481 245.006 229.481C244.266 229.481 243.596 229.306 242.996 228.956C242.406 228.606 241.941 228.111 241.601 227.471C241.271 226.831 241.106 226.091 241.106 225.251ZM248.261 225.266C248.261 224.606 248.126 224.026 247.856 223.526C247.586 223.026 247.216 222.641 246.746 222.371C246.286 222.101 245.776 221.966 245.216 221.966C244.636 221.966 244.116 222.096 243.656 222.356C243.196 222.616 242.831 222.996 242.561 223.496C242.301 223.986 242.171 224.571 242.171 225.251C242.171 225.921 242.301 226.511 242.561 227.021C242.831 227.521 243.196 227.906 243.656 228.176C244.116 228.436 244.636 228.566 245.216 228.566C245.776 228.566 246.286 228.431 246.746 228.161C247.216 227.891 247.586 227.506 247.856 227.006C248.126 226.506 248.261 225.926 248.261 225.266ZM259.643 224.846C259.643 225.206 259.633 225.481 259.613 225.671H252.818C252.848 226.291 252.998 226.821 253.268 227.261C253.538 227.701 253.893 228.036 254.333 228.266C254.773 228.486 255.253 228.596 255.773 228.596C256.453 228.596 257.023 228.431 257.483 228.101C257.953 227.771 258.263 227.326 258.413 226.766H259.523C259.323 227.566 258.893 228.221 258.233 228.731C257.583 229.231 256.763 229.481 255.773 229.481C255.003 229.481 254.313 229.311 253.703 228.971C253.093 228.621 252.613 228.131 252.263 227.501C251.923 226.861 251.753 226.116 251.753 225.266C251.753 224.416 251.923 223.671 252.263 223.031C252.603 222.391 253.078 221.901 253.688 221.561C254.298 221.221 254.993 221.051 255.773 221.051C256.553 221.051 257.233 221.221 257.813 221.561C258.403 221.901 258.853 222.361 259.163 222.941C259.483 223.511 259.643 224.146 259.643 224.846ZM258.578 224.816C258.588 224.206 258.463 223.686 258.203 223.256C257.953 222.826 257.608 222.501 257.168 222.281C256.728 222.061 256.248 221.951 255.728 221.951C254.948 221.951 254.283 222.201 253.733 222.701C253.183 223.201 252.878 223.906 252.818 224.816H258.578ZM50.1871 247.846C50.1871 248.206 50.1771 248.481 50.1571 248.671H43.3621C43.3921 249.291 43.5421 249.821 43.8121 250.261C44.0821 250.701 44.4371 251.036 44.8771 251.266C45.3171 251.486 45.7971 251.596 46.3171 251.596C46.9971 251.596 47.5671 251.431 48.0271 251.101C48.4971 250.771 48.8071 250.326 48.9571 249.766H50.0671C49.8671 250.566 49.4371 251.221 48.7771 251.731C48.1271 252.231 47.3071 252.481 46.3171 252.481C45.5471 252.481 44.8571 252.311 44.2471 251.971C43.6371 251.621 43.1571 251.131 42.8071 250.501C42.4671 249.861 42.2971 249.116 42.2971 248.266C42.2971 247.416 42.4671 246.671 42.8071 246.031C43.1471 245.391 43.6221 244.901 44.2321 244.561C44.8421 244.221 45.5371 244.051 46.3171 244.051C47.0971 244.051 47.7771 244.221 48.3571 244.561C48.9471 244.901 49.3971 245.361 49.7071 245.941C50.0271 246.511 50.1871 247.146 50.1871 247.846ZM49.1221 247.816C49.1321 247.206 49.0071 246.686 48.7471 246.256C48.4971 245.826 48.1521 245.501 47.7121 245.281C47.2721 245.061 46.7921 244.951 46.2721 244.951C45.4921 244.951 44.8271 245.201 44.2771 245.701C43.7271 246.201 43.4221 246.906 43.3621 247.816H49.1221ZM53.9982 245.056V250.141C53.9982 250.641 54.0932 250.986 54.2832 251.176C54.4732 251.366 54.8082 251.461 55.2882 251.461H56.2482V252.361H55.1232C54.3832 252.361 53.8332 252.191 53.4732 251.851C53.1132 251.501 52.9332 250.931 52.9332 250.141V245.056H51.7932V244.171H52.9332V242.116H53.9982V244.171H56.2482V245.056H53.9982ZM58.6848 252.436C58.4648 252.436 58.2798 252.361 58.1298 252.211C57.9898 252.061 57.9198 251.876 57.9198 251.656C57.9198 251.436 57.9898 251.256 58.1298 251.116C58.2798 250.966 58.4648 250.891 58.6848 250.891C58.8948 250.891 59.0698 250.966 59.2098 251.116C59.3598 251.256 59.4348 251.436 59.4348 251.656C59.4348 251.876 59.3598 252.061 59.2098 252.211C59.0698 252.361 58.8948 252.436 58.6848 252.436ZM69.5757 252.466C68.8857 252.466 68.2757 252.346 67.7457 252.106C67.2257 251.866 66.8157 251.531 66.5157 251.101C66.2157 250.671 66.0557 250.191 66.0357 249.661H67.1457C67.1957 250.171 67.4207 250.621 67.8207 251.011C68.2207 251.391 68.8057 251.581 69.5757 251.581C70.2857 251.581 70.8457 251.401 71.2557 251.041C71.6757 250.671 71.8857 250.206 71.8857 249.646C71.8857 249.196 71.7707 248.836 71.5407 248.566C71.3107 248.286 71.0257 248.081 70.6857 247.951C70.3457 247.811 69.8757 247.661 69.2757 247.501C68.5757 247.311 68.0207 247.126 67.6107 246.946C67.2007 246.766 66.8507 246.486 66.5607 246.106C66.2707 245.726 66.1257 245.211 66.1257 244.561C66.1257 244.021 66.2657 243.541 66.5457 243.121C66.8257 242.691 67.2207 242.356 67.7307 242.116C68.2407 241.876 68.8257 241.756 69.4857 241.756C70.4557 241.756 71.2357 241.996 71.8257 242.476C72.4257 242.946 72.7707 243.556 72.8607 244.306H71.7207C71.6507 243.876 71.4157 243.496 71.0157 243.166C70.6157 242.826 70.0757 242.656 69.3957 242.656C68.7657 242.656 68.2407 242.826 67.8207 243.166C67.4007 243.496 67.1907 243.951 67.1907 244.531C67.1907 244.971 67.3057 245.326 67.5357 245.596C67.7657 245.866 68.0507 246.071 68.3907 246.211C68.7407 246.351 69.2107 246.501 69.8007 246.661C70.4807 246.851 71.0307 247.041 71.4507 247.231C71.8707 247.411 72.2257 247.691 72.5157 248.071C72.8057 248.451 72.9507 248.961 72.9507 249.601C72.9507 250.091 72.8207 250.556 72.5607 250.996C72.3007 251.436 71.9157 251.791 71.4057 252.061C70.8957 252.331 70.2857 252.466 69.5757 252.466ZM75.0246 248.266C75.0246 247.416 75.1946 246.676 75.5346 246.046C75.8746 245.406 76.3446 244.916 76.9446 244.576C77.5446 244.226 78.2296 244.051 78.9996 244.051C80.0096 244.051 80.8396 244.301 81.4896 244.801C82.1496 245.301 82.5746 245.981 82.7646 246.841H81.6396C81.4996 246.251 81.1946 245.791 80.7246 245.461C80.2646 245.121 79.6896 244.951 78.9996 244.951C78.4496 244.951 77.9546 245.076 77.5146 245.326C77.0746 245.576 76.7246 245.951 76.4646 246.451C76.2146 246.941 76.0896 247.546 76.0896 248.266C76.0896 248.986 76.2146 249.596 76.4646 250.096C76.7246 250.596 77.0746 250.971 77.5146 251.221C77.9546 251.471 78.4496 251.596 78.9996 251.596C79.6896 251.596 80.2646 251.431 80.7246 251.101C81.1946 250.761 81.4996 250.291 81.6396 249.691H82.7646C82.5746 250.531 82.1496 251.206 81.4896 251.716C80.8296 252.226 79.9996 252.481 78.9996 252.481C78.2296 252.481 77.5446 252.311 76.9446 251.971C76.3446 251.621 75.8746 251.131 75.5346 250.501C75.1946 249.861 75.0246 249.116 75.0246 248.266ZM92.6389 247.846C92.6389 248.206 92.6289 248.481 92.6089 248.671H85.8139C85.8439 249.291 85.9939 249.821 86.2639 250.261C86.5339 250.701 86.8889 251.036 87.3289 251.266C87.7689 251.486 88.2489 251.596 88.7689 251.596C89.4489 251.596 90.0189 251.431 90.4789 251.101C90.9489 250.771 91.2589 250.326 91.4089 249.766H92.5189C92.3189 250.566 91.8889 251.221 91.2289 251.731C90.5789 252.231 89.7589 252.481 88.7689 252.481C87.9989 252.481 87.3089 252.311 86.6989 251.971C86.0889 251.621 85.6089 251.131 85.2589 250.501C84.9189 249.861 84.7489 249.116 84.7489 248.266C84.7489 247.416 84.9189 246.671 85.2589 246.031C85.5989 245.391 86.0739 244.901 86.6839 244.561C87.2939 244.221 87.9889 244.051 88.7689 244.051C89.5489 244.051 90.2289 244.221 90.8089 244.561C91.3989 244.901 91.8489 245.361 92.1589 245.941C92.4789 246.511 92.6389 247.146 92.6389 247.846ZM91.5739 247.816C91.5839 247.206 91.4589 246.686 91.1989 246.256C90.9489 245.826 90.6039 245.501 90.1639 245.281C89.7239 245.061 89.2439 244.951 88.7239 244.951C87.9439 244.951 87.2789 245.201 86.7289 245.701C86.1789 246.201 85.8739 246.906 85.8139 247.816H91.5739ZM96.1349 241.261V252.361H95.0849V241.261H96.1349ZM106.448 247.846C106.448 248.206 106.438 248.481 106.418 248.671H99.6227C99.6527 249.291 99.8027 249.821 100.073 250.261C100.343 250.701 100.698 251.036 101.138 251.266C101.578 251.486 102.058 251.596 102.578 251.596C103.258 251.596 103.828 251.431 104.288 251.101C104.758 250.771 105.068 250.326 105.218 249.766H106.328C106.128 250.566 105.698 251.221 105.038 251.731C104.388 252.231 103.568 252.481 102.578 252.481C101.808 252.481 101.118 252.311 100.508 251.971C99.8977 251.621 99.4177 251.131 99.0677 250.501C98.7277 249.861 98.5577 249.116 98.5577 248.266C98.5577 247.416 98.7277 246.671 99.0677 246.031C99.4077 245.391 99.8827 244.901 100.493 244.561C101.103 244.221 101.798 244.051 102.578 244.051C103.358 244.051 104.038 244.221 104.618 244.561C105.208 244.901 105.658 245.361 105.968 245.941C106.288 246.511 106.448 247.146 106.448 247.846ZM105.383 247.816C105.393 247.206 105.268 246.686 105.008 246.256C104.758 245.826 104.413 245.501 103.973 245.281C103.533 245.061 103.053 244.951 102.533 244.951C101.753 244.951 101.088 245.201 100.538 245.701C99.9877 246.201 99.6827 246.906 99.6227 247.816H105.383ZM109.944 245.626C110.174 245.116 110.524 244.721 110.994 244.441C111.474 244.161 112.059 244.021 112.749 244.021V245.116H112.464C111.704 245.116 111.094 245.321 110.634 245.731C110.174 246.141 109.944 246.826 109.944 247.786V252.361H108.894V244.171H109.944V245.626ZM115.378 242.626C115.168 242.626 114.988 242.551 114.838 242.401C114.688 242.251 114.613 242.066 114.613 241.846C114.613 241.626 114.688 241.446 114.838 241.306C114.988 241.156 115.168 241.081 115.378 241.081C115.588 241.081 115.768 241.156 115.918 241.306C116.068 241.446 116.143 241.626 116.143 241.846C116.143 242.066 116.068 242.251 115.918 242.401C115.768 242.551 115.588 242.626 115.378 242.626ZM115.903 244.171V252.361H114.853V244.171H115.903ZM121.626 252.481C120.686 252.481 119.916 252.266 119.316 251.836C118.726 251.396 118.396 250.801 118.326 250.051H119.406C119.456 250.511 119.671 250.886 120.051 251.176C120.441 251.456 120.961 251.596 121.611 251.596C122.181 251.596 122.626 251.461 122.946 251.191C123.276 250.921 123.441 250.586 123.441 250.186C123.441 249.906 123.351 249.676 123.171 249.496C122.991 249.316 122.761 249.176 122.481 249.076C122.211 248.966 121.841 248.851 121.371 248.731C120.761 248.571 120.266 248.411 119.886 248.251C119.506 248.091 119.181 247.856 118.911 247.546C118.651 247.226 118.521 246.801 118.521 246.271C118.521 245.871 118.641 245.501 118.881 245.161C119.121 244.821 119.461 244.551 119.901 244.351C120.341 244.151 120.841 244.051 121.401 244.051C122.281 244.051 122.991 244.276 123.531 244.726C124.071 245.166 124.361 245.776 124.401 246.556H123.351C123.321 246.076 123.131 245.691 122.781 245.401C122.441 245.101 121.971 244.951 121.371 244.951C120.841 244.951 120.411 245.076 120.081 245.326C119.751 245.576 119.586 245.886 119.586 246.256C119.586 246.576 119.681 246.841 119.871 247.051C120.071 247.251 120.316 247.411 120.606 247.531C120.896 247.641 121.286 247.766 121.776 247.906C122.366 248.066 122.836 248.221 123.186 248.371C123.536 248.521 123.836 248.741 124.086 249.031C124.336 249.321 124.466 249.706 124.476 250.186C124.476 250.626 124.356 251.021 124.116 251.371C123.876 251.711 123.541 251.981 123.111 252.181C122.681 252.381 122.186 252.481 121.626 252.481ZM126.497 248.251C126.497 247.411 126.667 246.676 127.007 246.046C127.347 245.406 127.812 244.916 128.402 244.576C129.002 244.226 129.677 244.051 130.427 244.051C131.197 244.051 131.867 244.236 132.437 244.606C133.007 244.966 133.412 245.421 133.652 245.971V244.171H134.702V256.231H133.652V250.561C133.412 251.111 133.002 251.571 132.422 251.941C131.852 252.301 131.177 252.481 130.397 252.481C129.657 252.481 128.987 252.306 128.387 251.956C127.797 251.606 127.332 251.111 126.992 250.471C126.662 249.831 126.497 249.091 126.497 248.251ZM133.652 248.266C133.652 247.606 133.517 247.026 133.247 246.526C132.977 246.026 132.607 245.641 132.137 245.371C131.677 245.101 131.167 244.966 130.607 244.966C130.027 244.966 129.507 245.096 129.047 245.356C128.587 245.616 128.222 245.996 127.952 246.496C127.692 246.986 127.562 247.571 127.562 248.251C127.562 248.921 127.692 249.511 127.952 250.021C128.222 250.521 128.587 250.906 129.047 251.176C129.507 251.436 130.027 251.566 130.607 251.566C131.167 251.566 131.677 251.431 132.137 251.161C132.607 250.891 132.977 250.506 133.247 250.006C133.517 249.506 133.652 248.926 133.652 248.266ZM144.72 244.171V252.361H143.67V250.921C143.43 251.431 143.06 251.821 142.56 252.091C142.06 252.361 141.5 252.496 140.88 252.496C139.9 252.496 139.1 252.196 138.48 251.596C137.86 250.986 137.55 250.106 137.55 248.956V244.171H138.585V248.836C138.585 249.726 138.805 250.406 139.245 250.876C139.695 251.346 140.305 251.581 141.075 251.581C141.865 251.581 142.495 251.331 142.965 250.831C143.435 250.331 143.67 249.596 143.67 248.626V244.171H144.72ZM155.052 247.846C155.052 248.206 155.042 248.481 155.022 248.671H148.227C148.257 249.291 148.407 249.821 148.677 250.261C148.947 250.701 149.302 251.036 149.742 251.266C150.182 251.486 150.662 251.596 151.182 251.596C151.862 251.596 152.432 251.431 152.892 251.101C153.362 250.771 153.672 250.326 153.822 249.766H154.932C154.732 250.566 154.302 251.221 153.642 251.731C152.992 252.231 152.172 252.481 151.182 252.481C150.412 252.481 149.722 252.311 149.112 251.971C148.502 251.621 148.022 251.131 147.672 250.501C147.332 249.861 147.162 249.116 147.162 248.266C147.162 247.416 147.332 246.671 147.672 246.031C148.012 245.391 148.487 244.901 149.097 244.561C149.707 244.221 150.402 244.051 151.182 244.051C151.962 244.051 152.642 244.221 153.222 244.561C153.812 244.901 154.262 245.361 154.572 245.941C154.892 246.511 155.052 247.146 155.052 247.846ZM153.987 247.816C153.997 247.206 153.872 246.686 153.612 246.256C153.362 245.826 153.017 245.501 152.577 245.281C152.137 245.061 151.657 244.951 151.137 244.951C150.357 244.951 149.692 245.201 149.142 245.701C148.592 246.201 148.287 246.906 148.227 247.816H153.987ZM163.189 241.261V252.361H162.139V241.261H163.189ZM173.502 247.846C173.502 248.206 173.492 248.481 173.472 248.671H166.677C166.707 249.291 166.857 249.821 167.127 250.261C167.397 250.701 167.752 251.036 168.192 251.266C168.632 251.486 169.112 251.596 169.632 251.596C170.312 251.596 170.882 251.431 171.342 251.101C171.812 250.771 172.122 250.326 172.272 249.766H173.382C173.182 250.566 172.752 251.221 172.092 251.731C171.442 252.231 170.622 252.481 169.632 252.481C168.862 252.481 168.172 252.311 167.562 251.971C166.952 251.621 166.472 251.131 166.122 250.501C165.782 249.861 165.612 249.116 165.612 248.266C165.612 247.416 165.782 246.671 166.122 246.031C166.462 245.391 166.937 244.901 167.547 244.561C168.157 244.221 168.852 244.051 169.632 244.051C170.412 244.051 171.092 244.221 171.672 244.561C172.262 244.901 172.712 245.361 173.022 245.941C173.342 246.511 173.502 247.146 173.502 247.846ZM172.437 247.816C172.447 247.206 172.322 246.686 172.062 246.256C171.812 245.826 171.467 245.501 171.027 245.281C170.587 245.061 170.107 244.951 169.587 244.951C168.807 244.951 168.142 245.201 167.592 245.701C167.042 246.201 166.737 246.906 166.677 247.816H172.437ZM175.468 248.266C175.468 247.416 175.638 246.676 175.978 246.046C176.318 245.406 176.788 244.916 177.388 244.576C177.988 244.226 178.673 244.051 179.443 244.051C180.453 244.051 181.283 244.301 181.933 244.801C182.593 245.301 183.018 245.981 183.208 246.841H182.083C181.943 246.251 181.638 245.791 181.168 245.461C180.708 245.121 180.133 244.951 179.443 244.951C178.893 244.951 178.398 245.076 177.958 245.326C177.518 245.576 177.168 245.951 176.908 246.451C176.658 246.941 176.533 247.546 176.533 248.266C176.533 248.986 176.658 249.596 176.908 250.096C177.168 250.596 177.518 250.971 177.958 251.221C178.398 251.471 178.893 251.596 179.443 251.596C180.133 251.596 180.708 251.431 181.168 251.101C181.638 250.761 181.943 250.291 182.083 249.691H183.208C183.018 250.531 182.593 251.206 181.933 251.716C181.273 252.226 180.443 252.481 179.443 252.481C178.673 252.481 177.988 252.311 177.388 251.971C176.788 251.621 176.318 251.131 175.978 250.501C175.638 249.861 175.468 249.116 175.468 248.266ZM187.037 245.056V250.141C187.037 250.641 187.132 250.986 187.322 251.176C187.512 251.366 187.847 251.461 188.327 251.461H189.287V252.361H188.162C187.422 252.361 186.872 252.191 186.512 251.851C186.152 251.501 185.972 250.931 185.972 250.141V245.056H184.832V244.171H185.972V242.116H187.037V244.171H189.287V245.056H187.037ZM198.639 244.171V252.361H197.589V250.921C197.349 251.431 196.979 251.821 196.479 252.091C195.979 252.361 195.419 252.496 194.799 252.496C193.819 252.496 193.019 252.196 192.399 251.596C191.779 250.986 191.469 250.106 191.469 248.956V244.171H192.504V248.836C192.504 249.726 192.724 250.406 193.164 250.876C193.614 251.346 194.224 251.581 194.994 251.581C195.784 251.581 196.414 251.331 196.884 250.831C197.354 250.331 197.589 249.596 197.589 248.626V244.171H198.639ZM204.381 252.481C203.441 252.481 202.671 252.266 202.071 251.836C201.481 251.396 201.151 250.801 201.081 250.051H202.161C202.211 250.511 202.426 250.886 202.806 251.176C203.196 251.456 203.716 251.596 204.366 251.596C204.936 251.596 205.381 251.461 205.701 251.191C206.031 250.921 206.196 250.586 206.196 250.186C206.196 249.906 206.106 249.676 205.926 249.496C205.746 249.316 205.516 249.176 205.236 249.076C204.966 248.966 204.596 248.851 204.126 248.731C203.516 248.571 203.021 248.411 202.641 248.251C202.261 248.091 201.936 247.856 201.666 247.546C201.406 247.226 201.276 246.801 201.276 246.271C201.276 245.871 201.396 245.501 201.636 245.161C201.876 244.821 202.216 244.551 202.656 244.351C203.096 244.151 203.596 244.051 204.156 244.051C205.036 244.051 205.746 244.276 206.286 244.726C206.826 245.166 207.116 245.776 207.156 246.556H206.106C206.076 246.076 205.886 245.691 205.536 245.401C205.196 245.101 204.726 244.951 204.126 244.951C203.596 244.951 203.166 245.076 202.836 245.326C202.506 245.576 202.341 245.886 202.341 246.256C202.341 246.576 202.436 246.841 202.626 247.051C202.826 247.251 203.071 247.411 203.361 247.531C203.651 247.641 204.041 247.766 204.531 247.906C205.121 248.066 205.591 248.221 205.941 248.371C206.291 248.521 206.591 248.741 206.841 249.031C207.091 249.321 207.221 249.706 207.231 250.186C207.231 250.626 207.111 251.021 206.871 251.371C206.631 251.711 206.296 251.981 205.866 252.181C205.436 252.381 204.941 252.481 204.381 252.481ZM221.784 247.846C221.784 248.206 221.774 248.481 221.754 248.671H214.959C214.989 249.291 215.139 249.821 215.409 250.261C215.679 250.701 216.034 251.036 216.474 251.266C216.914 251.486 217.394 251.596 217.914 251.596C218.594 251.596 219.164 251.431 219.624 251.101C220.094 250.771 220.404 250.326 220.554 249.766H221.664C221.464 250.566 221.034 251.221 220.374 251.731C219.724 252.231 218.904 252.481 217.914 252.481C217.144 252.481 216.454 252.311 215.844 251.971C215.234 251.621 214.754 251.131 214.404 250.501C214.064 249.861 213.894 249.116 213.894 248.266C213.894 247.416 214.064 246.671 214.404 246.031C214.744 245.391 215.219 244.901 215.829 244.561C216.439 244.221 217.134 244.051 217.914 244.051C218.694 244.051 219.374 244.221 219.954 244.561C220.544 244.901 220.994 245.361 221.304 245.941C221.624 246.511 221.784 247.146 221.784 247.846ZM220.719 247.816C220.729 247.206 220.604 246.686 220.344 246.256C220.094 245.826 219.749 245.501 219.309 245.281C218.869 245.061 218.389 244.951 217.869 244.951C217.089 244.951 216.424 245.201 215.874 245.701C215.324 246.201 215.019 246.906 214.959 247.816H220.719ZM225.28 245.626C225.51 245.116 225.86 244.721 226.33 244.441C226.81 244.161 227.395 244.021 228.085 244.021V245.116H227.8C227.04 245.116 226.43 245.321 225.97 245.731C225.51 246.141 225.28 246.826 225.28 247.786V252.361H224.23V244.171H225.28V245.626ZM229.709 248.251C229.709 247.411 229.874 246.676 230.204 246.046C230.544 245.406 231.009 244.916 231.599 244.576C232.199 244.226 232.874 244.051 233.624 244.051C234.404 244.051 235.074 244.231 235.634 244.591C236.204 244.951 236.614 245.411 236.864 245.971V244.171H237.914V252.361H236.864V250.546C236.604 251.106 236.189 251.571 235.619 251.941C235.059 252.301 234.389 252.481 233.609 252.481C232.869 252.481 232.199 252.306 231.599 251.956C231.009 251.606 230.544 251.111 230.204 250.471C229.874 249.831 229.709 249.091 229.709 248.251ZM236.864 248.266C236.864 247.606 236.729 247.026 236.459 246.526C236.189 246.026 235.819 245.641 235.349 245.371C234.889 245.101 234.379 244.966 233.819 244.966C233.239 244.966 232.719 245.096 232.259 245.356C231.799 245.616 231.434 245.996 231.164 246.496C230.904 246.986 230.774 247.571 230.774 248.251C230.774 248.921 230.904 249.511 231.164 250.021C231.434 250.521 231.799 250.906 232.259 251.176C232.719 251.436 233.239 251.566 233.819 251.566C234.379 251.566 234.889 251.431 235.349 251.161C235.819 250.891 236.189 250.506 236.459 250.006C236.729 249.506 236.864 248.926 236.864 248.266ZM242.201 245.056V250.141C242.201 250.641 242.296 250.986 242.486 251.176C242.676 251.366 243.011 251.461 243.491 251.461H244.451V252.361H243.326C242.586 252.361 242.036 252.191 241.676 251.851C241.316 251.501 241.136 250.931 241.136 250.141V245.056H239.996V244.171H241.136V242.116H242.201V244.171H244.451V245.056H242.201ZM246.888 252.436C246.668 252.436 246.483 252.361 246.333 252.211C246.193 252.061 246.123 251.876 246.123 251.656C246.123 251.436 246.193 251.256 246.333 251.116C246.483 250.966 246.668 250.891 246.888 250.891C247.098 250.891 247.273 250.966 247.413 251.116C247.563 251.256 247.638 251.436 247.638 251.656C247.638 251.876 247.563 252.061 247.413 252.211C247.273 252.361 247.098 252.436 246.888 252.436Z" fill="#5879DD"/>
<rect x="2" y="2" width="285" height="285" rx="42" stroke="#A7BDFF" stroke-width="3"/>
<defs>
<clipPath id="clip0">
<rect width="92.3011" height="92.3011" fill="white" transform="translate(96.7301 23.0513)"/>
</clipPath>
</defs>
</svg>
