<svg width="37" height="42" viewBox="0 0 37 42" fill="none" xmlns="http://www.w3.org/2000/svg">
<path d="M19.3776 4.51826e-07C20.7357 -0.000592076 22.0363 0.581622 22.9829 1.61401C23.9296 2.6464 24.4418 4.04105 24.4006 5.34264L24.4168 5.64876C24.4499 5.95022 24.5425 6.24115 24.6926 6.50932C24.9851 7.03811 25.464 7.42185 26.0237 7.5759C26.5833 7.72996 27.1778 7.64169 27.7408 7.29246L28.0547 7.12066C30.4107 5.94644 33.2364 6.87958 34.5432 9.28408L35.7178 11.4448C35.7487 11.5017 35.776 11.5606 35.7996 11.6209L35.9085 11.8524C36.959 14.2293 36.2116 17.0566 34.2158 18.493L33.723 18.8213C33.4654 19.0117 33.2505 19.2605 33.089 19.5594C32.7973 20.0902 32.7172 20.7225 32.8665 21.3161C33.0158 21.9098 33.3822 22.4158 33.938 22.7565L34.2578 22.9737C35.2239 23.6901 35.9217 24.7459 36.2261 25.9561C36.5696 27.3214 36.3854 28.7756 35.7051 30.0132L34.4416 32.2446L34.2511 32.5593C32.7666 34.8225 29.8842 35.514 27.6845 34.1679L27.4238 34.0255C27.1518 33.8966 26.8584 33.8258 26.5912 33.8178C26.0101 33.8148 25.452 34.0583 25.0411 34.4939C24.6302 34.9295 24.4006 35.5212 24.4021 36.2092L24.3865 36.5649C24.1738 39.3193 21.9988 41.4535 19.3782 41.4535H17.0119C14.2365 41.4535 11.9867 39.0683 11.9895 36.2207L11.9732 35.9146C11.9402 35.6131 11.8476 35.3222 11.6899 35.0401C11.4038 34.51 10.9298 34.1229 10.3733 33.9651C9.81675 33.8072 9.22379 33.8915 8.64982 34.2433L8.3088 34.4238C7.23033 34.938 6.01384 35.033 4.87395 34.6896C3.58789 34.3021 2.50051 33.3872 1.86596 32.1728L0.645129 29.9381L0.482646 29.607C-0.629109 27.1192 0.24234 24.1285 2.45407 22.7734L2.65578 22.6395C3.24664 22.2059 3.60093 21.4912 3.60093 20.7267C3.60093 19.8955 3.18262 19.1274 2.45088 18.6779L2.15398 18.476C0.0191693 16.9022 -0.633094 13.8465 0.689386 11.4141L1.9331 9.24755C3.31631 6.70253 6.38166 5.82456 8.73928 7.2579L8.99449 7.40213C9.25467 7.52873 9.53729 7.59592 9.80941 7.599C11.0093 7.59913 11.9869 6.57767 12.005 5.26834L12.0213 4.86623C12.1196 3.6213 12.6292 2.45135 13.4622 1.56398C14.4021 0.562835 15.6795 4.51826e-07 17.0119 4.51826e-07H19.3776ZM19.3782 3.00069H17.0119C16.4325 3.00069 15.8771 3.24541 15.4685 3.6807C15.1063 4.06651 14.8847 4.57523 14.8458 5.0503L14.8201 5.68224C14.6219 8.43759 12.4503 10.6 9.79456 10.5996C9.10998 10.5921 8.4351 10.4316 7.74688 10.0944L7.3784 9.88842C6.32849 9.25066 4.98975 9.6341 4.36848 10.7763L3.12476 12.9429C2.55486 13.9915 2.83988 15.3267 3.72231 15.9787L4.22171 16.314C5.59708 17.2999 6.43144 18.9503 6.43144 20.7267C6.43144 22.4772 5.62038 24.1136 4.21835 25.1408L3.9199 25.3397C2.93752 25.9422 2.55842 27.2432 3.015 28.2678L3.12282 28.4887L4.32816 30.693C4.6112 31.2344 5.0861 31.6339 5.64777 31.8032C6.14558 31.9532 6.67691 31.9117 7.09141 31.7157L7.29966 31.6076C8.44928 30.8964 9.81922 30.7016 11.105 31.0664C12.3908 31.4311 13.4858 32.3253 14.1353 33.5293C14.4848 34.1534 14.7059 34.8482 14.7915 35.6468L14.8301 36.3797C14.9492 37.5454 15.8806 38.4528 17.0119 38.4528H19.3782C20.5223 38.4528 21.4728 37.5202 21.562 36.3778L21.5729 36.1517C21.5664 34.7348 22.0945 33.374 23.0396 32.3721C23.9847 31.3702 25.2683 30.8103 26.6359 30.8177C27.3069 30.8367 27.9673 30.9961 28.6424 31.3182L29.2476 31.6459C30.1976 32.088 31.3244 31.7654 31.8955 30.8967L32.0344 30.6666L33.2687 28.486C33.5604 27.9551 33.6405 27.3229 33.4912 26.7292C33.3588 26.2031 33.0554 25.744 32.6874 25.4693L32.1659 25.1198C31.1686 24.4052 30.4438 23.3305 30.1316 22.0893C29.7881 20.7239 29.9723 19.2698 30.6381 18.0584C31.0025 17.3838 31.5034 16.8038 32.1564 16.323L32.4643 16.1174C33.4451 15.5092 33.8239 14.2083 33.3707 13.1798L33.2352 12.903L33.211 12.8449L32.0907 10.7822C31.5609 9.80738 30.4584 9.38616 29.5229 9.71897L29.3103 9.80924L29.1127 9.91598C27.9668 10.6316 26.5995 10.8346 25.3123 10.4803C24.0251 10.126 22.9236 9.24339 22.2547 8.03401C21.9053 7.40989 21.6842 6.71513 21.5986 5.91653L21.5734 5.3941C21.5905 4.76556 21.3668 4.15647 20.9533 3.70558C20.5399 3.2547 19.9719 3.00069 19.3782 3.00069ZM18.2037 13.9529C21.7326 13.9529 24.5934 16.9856 24.5934 20.7267C24.5934 24.4678 21.7326 27.5006 18.2037 27.5006C14.6747 27.5006 11.8139 24.4678 11.8139 20.7267C11.8139 16.9856 14.6747 13.9529 18.2037 13.9529ZM18.2037 16.9536C16.238 16.9536 14.6445 18.6429 14.6445 20.7267C14.6445 22.8106 16.238 24.4999 18.2037 24.4999C20.1693 24.4999 21.7629 22.8106 21.7629 20.7267C21.7629 18.6429 20.1693 16.9536 18.2037 16.9536Z" fill="#09005D"/>
</svg>
