<svg width="288" height="288" viewBox="0 0 288 288" fill="none" xmlns="http://www.w3.org/2000/svg">
<path d="M69.2326 136.697L65.1926 150.637H63.1526L59.9126 139.417L56.5526 150.637L54.5326 150.657L50.6326 136.697H52.5726L55.6126 148.517L58.9726 136.697H61.0126L64.2126 148.477L67.2726 136.697H69.2326ZM81.2243 144.737C81.2243 145.083 81.2043 145.45 81.1643 145.837H72.4043C72.471 146.917 72.8376 147.763 73.5043 148.377C74.1843 148.977 75.0043 149.277 75.9643 149.277C76.751 149.277 77.4043 149.097 77.9243 148.737C78.4576 148.363 78.831 147.87 79.0443 147.257H81.0043C80.711 148.31 80.1243 149.17 79.2443 149.837C78.3643 150.49 77.271 150.817 75.9643 150.817C74.9243 150.817 73.991 150.583 73.1643 150.117C72.351 149.65 71.711 148.99 71.2443 148.137C70.7776 147.27 70.5443 146.27 70.5443 145.137C70.5443 144.003 70.771 143.01 71.2243 142.157C71.6776 141.303 72.311 140.65 73.1243 140.197C73.951 139.73 74.8976 139.497 75.9643 139.497C77.0043 139.497 77.9243 139.723 78.7243 140.177C79.5243 140.63 80.1376 141.257 80.5643 142.057C81.0043 142.843 81.2243 143.737 81.2243 144.737ZM79.3443 144.357C79.3443 143.663 79.191 143.07 78.8843 142.577C78.5776 142.07 78.1576 141.69 77.6243 141.437C77.1043 141.17 76.5243 141.037 75.8843 141.037C74.9643 141.037 74.1776 141.33 73.5243 141.917C72.8843 142.503 72.5176 143.317 72.4243 144.357H79.3443ZM85.4466 141.717C85.82 141.063 86.3666 140.53 87.0866 140.117C87.8066 139.703 88.6266 139.497 89.5466 139.497C90.5333 139.497 91.42 139.73 92.2066 140.197C92.9933 140.663 93.6133 141.323 94.0666 142.177C94.52 143.017 94.7466 143.997 94.7466 145.117C94.7466 146.223 94.52 147.21 94.0666 148.077C93.6133 148.943 92.9866 149.617 92.1866 150.097C91.4 150.577 90.52 150.817 89.5466 150.817C88.6 150.817 87.7666 150.61 87.0466 150.197C86.34 149.783 85.8066 149.257 85.4466 148.617V150.637H83.6266V135.837H85.4466V141.717ZM92.8866 145.117C92.8866 144.29 92.72 143.57 92.3866 142.957C92.0533 142.343 91.6 141.877 91.0266 141.557C90.4666 141.237 89.8466 141.077 89.1666 141.077C88.5 141.077 87.88 141.243 87.3066 141.577C86.7466 141.897 86.2933 142.37 85.9466 142.997C85.6133 143.61 85.4466 144.323 85.4466 145.137C85.4466 145.963 85.6133 146.69 85.9466 147.317C86.2933 147.93 86.7466 148.403 87.3066 148.737C87.88 149.057 88.5 149.217 89.1666 149.217C89.8466 149.217 90.4666 149.057 91.0266 148.737C91.6 148.403 92.0533 147.93 92.3866 147.317C92.72 146.69 92.8866 145.957 92.8866 145.117ZM106.814 136.697C108.334 136.697 109.648 136.983 110.754 137.557C111.874 138.117 112.728 138.923 113.314 139.977C113.914 141.03 114.214 142.27 114.214 143.697C114.214 145.123 113.914 146.363 113.314 147.417C112.728 148.457 111.874 149.257 110.754 149.817C109.648 150.363 108.334 150.637 106.814 150.637H102.474V136.697H106.814ZM106.814 149.137C108.614 149.137 109.988 148.663 110.934 147.717C111.881 146.757 112.354 145.417 112.354 143.697C112.354 141.963 111.874 140.61 110.914 139.637C109.968 138.663 108.601 138.177 106.814 138.177H104.294V149.137H106.814ZM126.615 144.737C126.615 145.083 126.595 145.45 126.555 145.837H117.795C117.862 146.917 118.228 147.763 118.895 148.377C119.575 148.977 120.395 149.277 121.355 149.277C122.142 149.277 122.795 149.097 123.315 148.737C123.848 148.363 124.222 147.87 124.435 147.257H126.395C126.102 148.31 125.515 149.17 124.635 149.837C123.755 150.49 122.662 150.817 121.355 150.817C120.315 150.817 119.382 150.583 118.555 150.117C117.742 149.65 117.102 148.99 116.635 148.137C116.168 147.27 115.935 146.27 115.935 145.137C115.935 144.003 116.162 143.01 116.615 142.157C117.068 141.303 117.702 140.65 118.515 140.197C119.342 139.73 120.288 139.497 121.355 139.497C122.395 139.497 123.315 139.723 124.115 140.177C124.915 140.63 125.528 141.257 125.955 142.057C126.395 142.843 126.615 143.737 126.615 144.737ZM124.735 144.357C124.735 143.663 124.582 143.07 124.275 142.577C123.968 142.07 123.548 141.69 123.015 141.437C122.495 141.17 121.915 141.037 121.275 141.037C120.355 141.037 119.568 141.33 118.915 141.917C118.275 142.503 117.908 143.317 117.815 144.357H124.735ZM133.097 148.957L136.497 139.677H138.437L134.137 150.637H132.017L127.717 139.677H129.677L133.097 148.957ZM150.228 144.737C150.228 145.083 150.208 145.45 150.168 145.837H141.408C141.475 146.917 141.842 147.763 142.508 148.377C143.188 148.977 144.008 149.277 144.968 149.277C145.755 149.277 146.408 149.097 146.928 148.737C147.462 148.363 147.835 147.87 148.048 147.257H150.008C149.715 148.31 149.128 149.17 148.248 149.837C147.368 150.49 146.275 150.817 144.968 150.817C143.928 150.817 142.995 150.583 142.168 150.117C141.355 149.65 140.715 148.99 140.248 148.137C139.782 147.27 139.548 146.27 139.548 145.137C139.548 144.003 139.775 143.01 140.228 142.157C140.682 141.303 141.315 140.65 142.128 140.197C142.955 139.73 143.902 139.497 144.968 139.497C146.008 139.497 146.928 139.723 147.728 140.177C148.528 140.63 149.142 141.257 149.568 142.057C150.008 142.843 150.228 143.737 150.228 144.737ZM148.348 144.357C148.348 143.663 148.195 143.07 147.888 142.577C147.582 142.07 147.162 141.69 146.628 141.437C146.108 141.17 145.528 141.037 144.888 141.037C143.968 141.037 143.182 141.33 142.528 141.917C141.888 142.503 141.522 143.317 141.428 144.357H148.348ZM154.451 135.837V150.637H152.631V135.837H154.451ZM162.332 150.817C161.306 150.817 160.372 150.583 159.532 150.117C158.706 149.65 158.052 148.99 157.572 148.137C157.106 147.27 156.872 146.27 156.872 145.137C156.872 144.017 157.112 143.03 157.592 142.177C158.086 141.31 158.752 140.65 159.592 140.197C160.432 139.73 161.372 139.497 162.412 139.497C163.452 139.497 164.392 139.73 165.232 140.197C166.072 140.65 166.732 141.303 167.212 142.157C167.706 143.01 167.952 144.003 167.952 145.137C167.952 146.27 167.699 147.27 167.192 148.137C166.699 148.99 166.026 149.65 165.172 150.117C164.319 150.583 163.372 150.817 162.332 150.817ZM162.332 149.217C162.986 149.217 163.599 149.063 164.172 148.757C164.746 148.45 165.206 147.99 165.552 147.377C165.912 146.763 166.092 146.017 166.092 145.137C166.092 144.257 165.919 143.51 165.572 142.897C165.226 142.283 164.772 141.83 164.212 141.537C163.652 141.23 163.046 141.077 162.392 141.077C161.726 141.077 161.112 141.23 160.552 141.537C160.006 141.83 159.566 142.283 159.232 142.897C158.899 143.51 158.732 144.257 158.732 145.137C158.732 146.03 158.892 146.783 159.212 147.397C159.546 148.01 159.986 148.47 160.532 148.777C161.079 149.07 161.679 149.217 162.332 149.217ZM172.165 141.697C172.525 141.07 173.059 140.55 173.765 140.137C174.485 139.71 175.319 139.497 176.265 139.497C177.239 139.497 178.119 139.73 178.905 140.197C179.705 140.663 180.332 141.323 180.785 142.177C181.239 143.017 181.465 143.997 181.465 145.117C181.465 146.223 181.239 147.21 180.785 148.077C180.332 148.943 179.705 149.617 178.905 150.097C178.119 150.577 177.239 150.817 176.265 150.817C175.332 150.817 174.505 150.61 173.785 150.197C173.079 149.77 172.539 149.243 172.165 148.617V155.837H170.345V139.677H172.165V141.697ZM179.605 145.117C179.605 144.29 179.439 143.57 179.105 142.957C178.772 142.343 178.319 141.877 177.745 141.557C177.185 141.237 176.565 141.077 175.885 141.077C175.219 141.077 174.599 141.243 174.025 141.577C173.465 141.897 173.012 142.37 172.665 142.997C172.332 143.61 172.165 144.323 172.165 145.137C172.165 145.963 172.332 146.69 172.665 147.317C173.012 147.93 173.465 148.403 174.025 148.737C174.599 149.057 175.219 149.217 175.885 149.217C176.565 149.217 177.185 149.057 177.745 148.737C178.319 148.403 178.772 147.93 179.105 147.317C179.439 146.69 179.605 145.957 179.605 145.117ZM197.041 139.477C197.894 139.477 198.654 139.657 199.321 140.017C199.988 140.363 200.514 140.89 200.901 141.597C201.288 142.303 201.481 143.163 201.481 144.177V150.637H199.681V144.437C199.681 143.343 199.408 142.51 198.861 141.937C198.328 141.35 197.601 141.057 196.681 141.057C195.734 141.057 194.981 141.363 194.421 141.977C193.861 142.577 193.581 143.45 193.581 144.597V150.637H191.781V144.437C191.781 143.343 191.508 142.51 190.961 141.937C190.428 141.35 189.701 141.057 188.781 141.057C187.834 141.057 187.081 141.363 186.521 141.977C185.961 142.577 185.681 143.45 185.681 144.597V150.637H183.861V139.677H185.681V141.257C186.041 140.683 186.521 140.243 187.121 139.937C187.734 139.63 188.408 139.477 189.141 139.477C190.061 139.477 190.874 139.683 191.581 140.097C192.288 140.51 192.814 141.117 193.161 141.917C193.468 141.143 193.974 140.543 194.681 140.117C195.388 139.69 196.174 139.477 197.041 139.477ZM214.466 144.737C214.466 145.083 214.446 145.45 214.406 145.837H205.646C205.713 146.917 206.08 147.763 206.746 148.377C207.426 148.977 208.246 149.277 209.206 149.277C209.993 149.277 210.646 149.097 211.166 148.737C211.7 148.363 212.073 147.87 212.286 147.257H214.246C213.953 148.31 213.366 149.17 212.486 149.837C211.606 150.49 210.513 150.817 209.206 150.817C208.166 150.817 207.233 150.583 206.406 150.117C205.593 149.65 204.953 148.99 204.486 148.137C204.02 147.27 203.786 146.27 203.786 145.137C203.786 144.003 204.013 143.01 204.466 142.157C204.92 141.303 205.553 140.65 206.366 140.197C207.193 139.73 208.14 139.497 209.206 139.497C210.246 139.497 211.166 139.723 211.966 140.177C212.766 140.63 213.38 141.257 213.806 142.057C214.246 142.843 214.466 143.737 214.466 144.737ZM212.586 144.357C212.586 143.663 212.433 143.07 212.126 142.577C211.82 142.07 211.4 141.69 210.866 141.437C210.346 141.17 209.766 141.037 209.126 141.037C208.206 141.037 207.42 141.33 206.766 141.917C206.126 142.503 205.76 143.317 205.666 144.357H212.586ZM222.209 139.477C223.542 139.477 224.622 139.883 225.449 140.697C226.275 141.497 226.689 142.657 226.689 144.177V150.637H224.889V144.437C224.889 143.343 224.615 142.51 224.069 141.937C223.522 141.35 222.775 141.057 221.829 141.057C220.869 141.057 220.102 141.357 219.529 141.957C218.969 142.557 218.689 143.43 218.689 144.577V150.637H216.869V139.677H218.689V141.237C219.049 140.677 219.535 140.243 220.149 139.937C220.775 139.63 221.462 139.477 222.209 139.477ZM231.882 141.177V147.637C231.882 148.17 231.995 148.55 232.222 148.777C232.448 148.99 232.842 149.097 233.402 149.097H234.742V150.637H233.102C232.088 150.637 231.328 150.403 230.822 149.937C230.315 149.47 230.062 148.703 230.062 147.637V141.177H228.642V139.677H230.062V136.917H231.882V139.677H234.742V141.177H231.882Z" fill="#4370F8"/>
<path d="M36.6094 181.929H40.3744V182.784H35.5594V172.299H36.6094V181.929ZM45.9828 182.904C45.2128 182.904 44.5178 182.734 43.8978 182.394C43.2878 182.044 42.8028 181.554 42.4428 180.924C42.0928 180.284 41.9178 179.539 41.9178 178.689C41.9178 177.839 42.0978 177.099 42.4578 176.469C42.8178 175.829 43.3078 175.339 43.9278 174.999C44.5478 174.649 45.2428 174.474 46.0128 174.474C46.7828 174.474 47.4778 174.649 48.0978 174.999C48.7278 175.339 49.2178 175.829 49.5678 176.469C49.9278 177.099 50.1078 177.839 50.1078 178.689C50.1078 179.529 49.9278 180.269 49.5678 180.909C49.2078 181.549 48.7128 182.044 48.0828 182.394C47.4528 182.734 46.7528 182.904 45.9828 182.904ZM45.9828 181.989C46.5228 181.989 47.0228 181.869 47.4828 181.629C47.9428 181.379 48.3128 181.009 48.5928 180.519C48.8828 180.019 49.0278 179.409 49.0278 178.689C49.0278 177.969 48.8878 177.364 48.6078 176.874C48.3278 176.374 47.9578 176.004 47.4978 175.764C47.0378 175.514 46.5378 175.389 45.9978 175.389C45.4578 175.389 44.9578 175.514 44.4978 175.764C44.0378 176.004 43.6678 176.374 43.3878 176.874C43.1178 177.364 42.9828 177.969 42.9828 178.689C42.9828 179.409 43.1178 180.019 43.3878 180.519C43.6678 181.009 44.0328 181.379 44.4828 181.629C44.9428 181.869 45.4428 181.989 45.9828 181.989ZM53.5969 176.049C53.8269 175.539 54.1769 175.144 54.6469 174.864C55.1269 174.584 55.7119 174.444 56.4019 174.444V175.539H56.1169C55.3569 175.539 54.7469 175.744 54.2869 176.154C53.8269 176.564 53.5969 177.249 53.5969 178.209V182.784H52.5469V174.594H53.5969V176.049ZM65.9164 178.269C65.9164 178.629 65.9064 178.904 65.8864 179.094H59.0914C59.1214 179.714 59.2714 180.244 59.5414 180.684C59.8114 181.124 60.1664 181.459 60.6064 181.689C61.0464 181.909 61.5264 182.019 62.0464 182.019C62.7264 182.019 63.2964 181.854 63.7564 181.524C64.2264 181.194 64.5364 180.749 64.6864 180.189H65.7964C65.5964 180.989 65.1664 181.644 64.5064 182.154C63.8564 182.654 63.0364 182.904 62.0464 182.904C61.2764 182.904 60.5864 182.734 59.9764 182.394C59.3664 182.044 58.8864 181.554 58.5364 180.924C58.1964 180.284 58.0264 179.539 58.0264 178.689C58.0264 177.839 58.1964 177.094 58.5364 176.454C58.8764 175.814 59.3514 175.324 59.9614 174.984C60.5714 174.644 61.2664 174.474 62.0464 174.474C62.8264 174.474 63.5064 174.644 64.0864 174.984C64.6764 175.324 65.1264 175.784 65.4364 176.364C65.7564 176.934 65.9164 177.569 65.9164 178.269ZM64.8514 178.239C64.8614 177.629 64.7364 177.109 64.4764 176.679C64.2264 176.249 63.8814 175.924 63.4414 175.704C63.0014 175.484 62.5214 175.374 62.0014 175.374C61.2214 175.374 60.5564 175.624 60.0064 176.124C59.4564 176.624 59.1514 177.329 59.0914 178.239H64.8514ZM78.1125 174.444C79.0725 174.444 79.8525 174.749 80.4525 175.359C81.0625 175.959 81.3675 176.834 81.3675 177.984V182.784H80.3325V178.104C80.3325 177.214 80.1175 176.534 79.6875 176.064C79.2575 175.594 78.6725 175.359 77.9325 175.359C77.1625 175.359 76.5475 175.614 76.0875 176.124C75.6275 176.634 75.3975 177.374 75.3975 178.344V182.784H74.3625V178.104C74.3625 177.214 74.1475 176.534 73.7175 176.064C73.2875 175.594 72.6975 175.359 71.9475 175.359C71.1775 175.359 70.5625 175.614 70.1025 176.124C69.6425 176.634 69.4125 177.374 69.4125 178.344V182.784H68.3625V174.594H69.4125V176.004C69.6725 175.494 70.0425 175.109 70.5225 174.849C71.0025 174.579 71.5375 174.444 72.1275 174.444C72.8375 174.444 73.4575 174.614 73.9875 174.954C74.5275 175.294 74.9175 175.794 75.1575 176.454C75.3775 175.804 75.7525 175.309 76.2825 174.969C76.8225 174.619 77.4325 174.444 78.1125 174.444ZM89.3906 173.049C89.1806 173.049 89.0006 172.974 88.8506 172.824C88.7006 172.674 88.6256 172.489 88.6256 172.269C88.6256 172.049 88.7006 171.869 88.8506 171.729C89.0006 171.579 89.1806 171.504 89.3906 171.504C89.6006 171.504 89.7806 171.579 89.9306 171.729C90.0806 171.869 90.1556 172.049 90.1556 172.269C90.1556 172.489 90.0806 172.674 89.9306 172.824C89.7806 172.974 89.6006 173.049 89.3906 173.049ZM89.9156 174.594V182.784H88.8656V174.594H89.9156ZM93.8533 176.394C94.1133 175.844 94.5233 175.389 95.0833 175.029C95.6533 174.659 96.3283 174.474 97.1083 174.474C97.8483 174.474 98.5133 174.649 99.1033 174.999C99.7033 175.339 100.168 175.829 100.498 176.469C100.838 177.099 101.008 177.834 101.008 178.674C101.008 179.514 100.838 180.254 100.498 180.894C100.168 181.534 99.7033 182.029 99.1033 182.379C98.5133 182.729 97.8483 182.904 97.1083 182.904C96.3383 182.904 95.6683 182.724 95.0983 182.364C94.5283 181.994 94.1133 181.534 93.8533 180.984V186.654H92.8183V174.594H93.8533V176.394ZM99.9433 178.674C99.9433 177.994 99.8083 177.409 99.5383 176.919C99.2783 176.419 98.9183 176.039 98.4583 175.779C97.9983 175.519 97.4783 175.389 96.8983 175.389C96.3383 175.389 95.8233 175.524 95.3533 175.794C94.8933 176.064 94.5283 176.449 94.2583 176.949C93.9883 177.449 93.8533 178.029 93.8533 178.689C93.8533 179.349 93.9883 179.929 94.2583 180.429C94.5283 180.929 94.8933 181.314 95.3533 181.584C95.8233 181.854 96.3383 181.989 96.8983 181.989C97.4783 181.989 97.9983 181.859 98.4583 181.599C98.9183 181.329 99.2783 180.944 99.5383 180.444C99.8083 179.934 99.9433 179.344 99.9433 178.674ZM106.285 182.904C105.345 182.904 104.575 182.689 103.975 182.259C103.385 181.819 103.055 181.224 102.985 180.474H104.065C104.115 180.934 104.33 181.309 104.71 181.599C105.1 181.879 105.62 182.019 106.27 182.019C106.84 182.019 107.285 181.884 107.605 181.614C107.935 181.344 108.1 181.009 108.1 180.609C108.1 180.329 108.01 180.099 107.83 179.919C107.65 179.739 107.42 179.599 107.14 179.499C106.87 179.389 106.5 179.274 106.03 179.154C105.42 178.994 104.925 178.834 104.545 178.674C104.165 178.514 103.84 178.279 103.57 177.969C103.31 177.649 103.18 177.224 103.18 176.694C103.18 176.294 103.3 175.924 103.54 175.584C103.78 175.244 104.12 174.974 104.56 174.774C105 174.574 105.5 174.474 106.06 174.474C106.94 174.474 107.65 174.699 108.19 175.149C108.73 175.589 109.02 176.199 109.06 176.979H108.01C107.98 176.499 107.79 176.114 107.44 175.824C107.1 175.524 106.63 175.374 106.03 175.374C105.5 175.374 105.07 175.499 104.74 175.749C104.41 175.999 104.245 176.309 104.245 176.679C104.245 176.999 104.34 177.264 104.53 177.474C104.73 177.674 104.975 177.834 105.265 177.954C105.555 178.064 105.945 178.189 106.435 178.329C107.025 178.489 107.495 178.644 107.845 178.794C108.195 178.944 108.495 179.164 108.745 179.454C108.995 179.744 109.125 180.129 109.135 180.609C109.135 181.049 109.015 181.444 108.775 181.794C108.535 182.134 108.2 182.404 107.77 182.604C107.34 182.804 106.845 182.904 106.285 182.904ZM118.732 174.594V182.784H117.682V181.344C117.442 181.854 117.072 182.244 116.572 182.514C116.072 182.784 115.512 182.919 114.892 182.919C113.912 182.919 113.112 182.619 112.492 182.019C111.872 181.409 111.562 180.529 111.562 179.379V174.594H112.597V179.259C112.597 180.149 112.817 180.829 113.257 181.299C113.707 181.769 114.317 182.004 115.087 182.004C115.877 182.004 116.507 181.754 116.977 181.254C117.447 180.754 117.682 180.019 117.682 179.049V174.594H118.732ZM131.404 174.444C132.364 174.444 133.144 174.749 133.744 175.359C134.354 175.959 134.659 176.834 134.659 177.984V182.784H133.624V178.104C133.624 177.214 133.409 176.534 132.979 176.064C132.549 175.594 131.964 175.359 131.224 175.359C130.454 175.359 129.839 175.614 129.379 176.124C128.919 176.634 128.689 177.374 128.689 178.344V182.784H127.654V178.104C127.654 177.214 127.439 176.534 127.009 176.064C126.579 175.594 125.989 175.359 125.239 175.359C124.469 175.359 123.854 175.614 123.394 176.124C122.934 176.634 122.704 177.374 122.704 178.344V182.784H121.654V174.594H122.704V176.004C122.964 175.494 123.334 175.109 123.814 174.849C124.294 174.579 124.829 174.444 125.419 174.444C126.129 174.444 126.749 174.614 127.279 174.954C127.819 175.294 128.209 175.794 128.449 176.454C128.669 175.804 129.044 175.309 129.574 174.969C130.114 174.619 130.724 174.444 131.404 174.444ZM141.677 178.674C141.677 177.834 141.847 177.099 142.187 176.469C142.527 175.829 142.992 175.339 143.582 174.999C144.182 174.649 144.857 174.474 145.607 174.474C146.327 174.474 146.977 174.649 147.557 174.999C148.137 175.349 148.562 175.804 148.832 176.364V171.684H149.882V182.784H148.832V180.954C148.582 181.524 148.172 181.994 147.602 182.364C147.032 182.724 146.362 182.904 145.592 182.904C144.842 182.904 144.167 182.729 143.567 182.379C142.977 182.029 142.512 181.534 142.172 180.894C141.842 180.254 141.677 179.514 141.677 178.674ZM148.832 178.689C148.832 178.029 148.697 177.449 148.427 176.949C148.157 176.449 147.787 176.064 147.317 175.794C146.857 175.524 146.347 175.389 145.787 175.389C145.207 175.389 144.687 175.519 144.227 175.779C143.767 176.039 143.402 176.419 143.132 176.919C142.872 177.409 142.742 177.994 142.742 178.674C142.742 179.344 142.872 179.934 143.132 180.444C143.402 180.944 143.767 181.329 144.227 181.599C144.687 181.859 145.207 181.989 145.787 181.989C146.347 181.989 146.857 181.854 147.317 181.584C147.787 181.314 148.157 180.929 148.427 180.429C148.697 179.929 148.832 179.349 148.832 178.689ZM156.389 182.904C155.619 182.904 154.924 182.734 154.304 182.394C153.694 182.044 153.209 181.554 152.849 180.924C152.499 180.284 152.324 179.539 152.324 178.689C152.324 177.839 152.504 177.099 152.864 176.469C153.224 175.829 153.714 175.339 154.334 174.999C154.954 174.649 155.649 174.474 156.419 174.474C157.189 174.474 157.884 174.649 158.504 174.999C159.134 175.339 159.624 175.829 159.974 176.469C160.334 177.099 160.514 177.839 160.514 178.689C160.514 179.529 160.334 180.269 159.974 180.909C159.614 181.549 159.119 182.044 158.489 182.394C157.859 182.734 157.159 182.904 156.389 182.904ZM156.389 181.989C156.929 181.989 157.429 181.869 157.889 181.629C158.349 181.379 158.719 181.009 158.999 180.519C159.289 180.019 159.434 179.409 159.434 178.689C159.434 177.969 159.294 177.364 159.014 176.874C158.734 176.374 158.364 176.004 157.904 175.764C157.444 175.514 156.944 175.389 156.404 175.389C155.864 175.389 155.364 175.514 154.904 175.764C154.444 176.004 154.074 176.374 153.794 176.874C153.524 177.364 153.389 177.969 153.389 178.689C153.389 179.409 153.524 180.019 153.794 180.519C154.074 181.009 154.439 181.379 154.889 181.629C155.349 181.869 155.849 181.989 156.389 181.989ZM164.003 171.684V182.784H162.953V171.684H164.003ZM170.491 182.904C169.721 182.904 169.026 182.734 168.406 182.394C167.796 182.044 167.311 181.554 166.951 180.924C166.601 180.284 166.426 179.539 166.426 178.689C166.426 177.839 166.606 177.099 166.966 176.469C167.326 175.829 167.816 175.339 168.436 174.999C169.056 174.649 169.751 174.474 170.521 174.474C171.291 174.474 171.986 174.649 172.606 174.999C173.236 175.339 173.726 175.829 174.076 176.469C174.436 177.099 174.616 177.839 174.616 178.689C174.616 179.529 174.436 180.269 174.076 180.909C173.716 181.549 173.221 182.044 172.591 182.394C171.961 182.734 171.261 182.904 170.491 182.904ZM170.491 181.989C171.031 181.989 171.531 181.869 171.991 181.629C172.451 181.379 172.821 181.009 173.101 180.519C173.391 180.019 173.536 179.409 173.536 178.689C173.536 177.969 173.396 177.364 173.116 176.874C172.836 176.374 172.466 176.004 172.006 175.764C171.546 175.514 171.046 175.389 170.506 175.389C169.966 175.389 169.466 175.514 169.006 175.764C168.546 176.004 168.176 176.374 167.896 176.874C167.626 177.364 167.491 177.969 167.491 178.689C167.491 179.409 167.626 180.019 167.896 180.519C168.176 181.009 168.541 181.379 168.991 181.629C169.451 181.869 169.951 181.989 170.491 181.989ZM178.105 176.049C178.335 175.539 178.685 175.144 179.155 174.864C179.635 174.584 180.22 174.444 180.91 174.444V175.539H180.625C179.865 175.539 179.255 175.744 178.795 176.154C178.335 176.564 178.105 177.249 178.105 178.209V182.784H177.055V174.594H178.105V176.049ZM190.476 182.904C189.536 182.904 188.766 182.689 188.166 182.259C187.576 181.819 187.246 181.224 187.176 180.474H188.256C188.306 180.934 188.521 181.309 188.901 181.599C189.291 181.879 189.811 182.019 190.461 182.019C191.031 182.019 191.476 181.884 191.796 181.614C192.126 181.344 192.291 181.009 192.291 180.609C192.291 180.329 192.201 180.099 192.021 179.919C191.841 179.739 191.611 179.599 191.331 179.499C191.061 179.389 190.691 179.274 190.221 179.154C189.611 178.994 189.116 178.834 188.736 178.674C188.356 178.514 188.031 178.279 187.761 177.969C187.501 177.649 187.371 177.224 187.371 176.694C187.371 176.294 187.491 175.924 187.731 175.584C187.971 175.244 188.311 174.974 188.751 174.774C189.191 174.574 189.691 174.474 190.251 174.474C191.131 174.474 191.841 174.699 192.381 175.149C192.921 175.589 193.211 176.199 193.251 176.979H192.201C192.171 176.499 191.981 176.114 191.631 175.824C191.291 175.524 190.821 175.374 190.221 175.374C189.691 175.374 189.261 175.499 188.931 175.749C188.601 175.999 188.436 176.309 188.436 176.679C188.436 176.999 188.531 177.264 188.721 177.474C188.921 177.674 189.166 177.834 189.456 177.954C189.746 178.064 190.136 178.189 190.626 178.329C191.216 178.489 191.686 178.644 192.036 178.794C192.386 178.944 192.686 179.164 192.936 179.454C193.186 179.744 193.316 180.129 193.326 180.609C193.326 181.049 193.206 181.444 192.966 181.794C192.726 182.134 192.391 182.404 191.961 182.604C191.531 182.804 191.036 182.904 190.476 182.904ZM196.352 173.049C196.142 173.049 195.962 172.974 195.812 172.824C195.662 172.674 195.587 172.489 195.587 172.269C195.587 172.049 195.662 171.869 195.812 171.729C195.962 171.579 196.142 171.504 196.352 171.504C196.562 171.504 196.742 171.579 196.892 171.729C197.042 171.869 197.117 172.049 197.117 172.269C197.117 172.489 197.042 172.674 196.892 172.824C196.742 172.974 196.562 173.049 196.352 173.049ZM196.877 174.594V182.784H195.827V174.594H196.877ZM201.145 175.479V180.564C201.145 181.064 201.24 181.409 201.43 181.599C201.62 181.789 201.955 181.884 202.435 181.884H203.395V182.784H202.27C201.53 182.784 200.98 182.614 200.62 182.274C200.26 181.924 200.08 181.354 200.08 180.564V175.479H198.94V174.594H200.08V172.539H201.145V174.594H203.395V175.479H201.145ZM209.813 178.674C209.813 177.834 209.978 177.099 210.308 176.469C210.648 175.829 211.113 175.339 211.703 174.999C212.303 174.649 212.978 174.474 213.728 174.474C214.508 174.474 215.178 174.654 215.738 175.014C216.308 175.374 216.718 175.834 216.968 176.394V174.594H218.018V182.784H216.968V180.969C216.708 181.529 216.293 181.994 215.723 182.364C215.163 182.724 214.493 182.904 213.713 182.904C212.973 182.904 212.303 182.729 211.703 182.379C211.113 182.029 210.648 181.534 210.308 180.894C209.978 180.254 209.813 179.514 209.813 178.674ZM216.968 178.689C216.968 178.029 216.833 177.449 216.563 176.949C216.293 176.449 215.923 176.064 215.453 175.794C214.993 175.524 214.483 175.389 213.923 175.389C213.343 175.389 212.823 175.519 212.363 175.779C211.903 176.039 211.538 176.419 211.268 176.919C211.008 177.409 210.878 177.994 210.878 178.674C210.878 179.344 211.008 179.934 211.268 180.444C211.538 180.944 211.903 181.329 212.363 181.599C212.823 181.859 213.343 181.989 213.923 181.989C214.483 181.989 214.993 181.854 215.453 181.584C215.923 181.314 216.293 180.929 216.563 180.429C216.833 179.929 216.968 179.349 216.968 178.689ZM230.69 174.444C231.65 174.444 232.43 174.749 233.03 175.359C233.64 175.959 233.945 176.834 233.945 177.984V182.784H232.91V178.104C232.91 177.214 232.695 176.534 232.265 176.064C231.835 175.594 231.25 175.359 230.51 175.359C229.74 175.359 229.125 175.614 228.665 176.124C228.205 176.634 227.975 177.374 227.975 178.344V182.784H226.94V178.104C226.94 177.214 226.725 176.534 226.295 176.064C225.865 175.594 225.275 175.359 224.525 175.359C223.755 175.359 223.14 175.614 222.68 176.124C222.22 176.634 221.99 177.374 221.99 178.344V182.784H220.94V174.594H221.99V176.004C222.25 175.494 222.62 175.109 223.1 174.849C223.58 174.579 224.115 174.444 224.705 174.444C225.415 174.444 226.035 174.614 226.565 174.954C227.105 175.294 227.495 175.794 227.735 176.454C227.955 175.804 228.33 175.309 228.86 174.969C229.4 174.619 230.01 174.444 230.69 174.444ZM244.212 178.269C244.212 178.629 244.202 178.904 244.182 179.094H237.387C237.417 179.714 237.567 180.244 237.837 180.684C238.107 181.124 238.462 181.459 238.902 181.689C239.342 181.909 239.822 182.019 240.342 182.019C241.022 182.019 241.592 181.854 242.052 181.524C242.522 181.194 242.832 180.749 242.982 180.189H244.092C243.892 180.989 243.462 181.644 242.802 182.154C242.152 182.654 241.332 182.904 240.342 182.904C239.572 182.904 238.882 182.734 238.272 182.394C237.662 182.044 237.182 181.554 236.832 180.924C236.492 180.284 236.322 179.539 236.322 178.689C236.322 177.839 236.492 177.094 236.832 176.454C237.172 175.814 237.647 175.324 238.257 174.984C238.867 174.644 239.562 174.474 240.342 174.474C241.122 174.474 241.802 174.644 242.382 174.984C242.972 175.324 243.422 175.784 243.732 176.364C244.052 176.934 244.212 177.569 244.212 178.269ZM243.147 178.239C243.157 177.629 243.032 177.109 242.772 176.679C242.522 176.249 242.177 175.924 241.737 175.704C241.297 175.484 240.817 175.374 240.297 175.374C239.517 175.374 238.852 175.624 238.302 176.124C237.752 176.624 237.447 177.329 237.387 178.239H243.147ZM248.023 175.479V180.564C248.023 181.064 248.118 181.409 248.308 181.599C248.498 181.789 248.833 181.884 249.313 181.884H250.273V182.784H249.148C248.408 182.784 247.858 182.614 247.498 182.274C247.138 181.924 246.958 181.354 246.958 180.564V175.479H245.818V174.594H246.958V172.539H248.023V174.594H250.273V175.479H248.023ZM253.49 181.044L251.93 184.974H251.21L252.32 181.044H253.49ZM38.2519 201.689C38.2519 200.839 38.4219 200.099 38.7619 199.469C39.1019 198.829 39.5719 198.339 40.1719 197.999C40.7719 197.649 41.4569 197.474 42.2269 197.474C43.2369 197.474 44.0669 197.724 44.7169 198.224C45.3769 198.724 45.8019 199.404 45.9919 200.264H44.8669C44.7269 199.674 44.4219 199.214 43.9519 198.884C43.4919 198.544 42.9169 198.374 42.2269 198.374C41.6769 198.374 41.1819 198.499 40.7419 198.749C40.3019 198.999 39.9519 199.374 39.6919 199.874C39.4419 200.364 39.3169 200.969 39.3169 201.689C39.3169 202.409 39.4419 203.019 39.6919 203.519C39.9519 204.019 40.3019 204.394 40.7419 204.644C41.1819 204.894 41.6769 205.019 42.2269 205.019C42.9169 205.019 43.4919 204.854 43.9519 204.524C44.4219 204.184 44.7269 203.714 44.8669 203.114H45.9919C45.8019 203.954 45.3769 204.629 44.7169 205.139C44.0569 205.649 43.2269 205.904 42.2269 205.904C41.4569 205.904 40.7719 205.734 40.1719 205.394C39.5719 205.044 39.1019 204.554 38.7619 203.924C38.4219 203.284 38.2519 202.539 38.2519 201.689ZM52.0411 205.904C51.2711 205.904 50.5761 205.734 49.9561 205.394C49.3461 205.044 48.8611 204.554 48.5011 203.924C48.1511 203.284 47.9761 202.539 47.9761 201.689C47.9761 200.839 48.1561 200.099 48.5161 199.469C48.8761 198.829 49.3661 198.339 49.9861 197.999C50.6061 197.649 51.3011 197.474 52.0711 197.474C52.8411 197.474 53.5361 197.649 54.1561 197.999C54.7861 198.339 55.2761 198.829 55.6261 199.469C55.9861 200.099 56.1661 200.839 56.1661 201.689C56.1661 202.529 55.9861 203.269 55.6261 203.909C55.2661 204.549 54.7711 205.044 54.1411 205.394C53.5111 205.734 52.8111 205.904 52.0411 205.904ZM52.0411 204.989C52.5811 204.989 53.0811 204.869 53.5411 204.629C54.0011 204.379 54.3711 204.009 54.6511 203.519C54.9411 203.019 55.0861 202.409 55.0861 201.689C55.0861 200.969 54.9461 200.364 54.6661 199.874C54.3861 199.374 54.0161 199.004 53.5561 198.764C53.0961 198.514 52.5961 198.389 52.0561 198.389C51.5161 198.389 51.0161 198.514 50.5561 198.764C50.0961 199.004 49.7261 199.374 49.4461 199.874C49.1761 200.364 49.0411 200.969 49.0411 201.689C49.0411 202.409 49.1761 203.019 49.4461 203.519C49.7261 204.009 50.0911 204.379 50.5411 204.629C51.0011 204.869 51.5011 204.989 52.0411 204.989ZM62.4452 197.444C63.4252 197.444 64.2252 197.749 64.8452 198.359C65.4652 198.959 65.7752 199.834 65.7752 200.984V205.784H64.7402V201.104C64.7402 200.214 64.5152 199.534 64.0652 199.064C63.6252 198.594 63.0202 198.359 62.2502 198.359C61.4602 198.359 60.8302 198.609 60.3602 199.109C59.8902 199.609 59.6552 200.344 59.6552 201.314V205.784H58.6052V197.594H59.6552V198.989C59.9152 198.489 60.2902 198.109 60.7802 197.849C61.2702 197.579 61.8252 197.444 62.4452 197.444ZM71.4424 205.904C70.5024 205.904 69.7324 205.689 69.1324 205.259C68.5424 204.819 68.2124 204.224 68.1424 203.474H69.2224C69.2724 203.934 69.4874 204.309 69.8674 204.599C70.2574 204.879 70.7774 205.019 71.4274 205.019C71.9974 205.019 72.4424 204.884 72.7624 204.614C73.0924 204.344 73.2574 204.009 73.2574 203.609C73.2574 203.329 73.1674 203.099 72.9874 202.919C72.8074 202.739 72.5774 202.599 72.2974 202.499C72.0274 202.389 71.6574 202.274 71.1874 202.154C70.5774 201.994 70.0824 201.834 69.7024 201.674C69.3224 201.514 68.9974 201.279 68.7274 200.969C68.4674 200.649 68.3374 200.224 68.3374 199.694C68.3374 199.294 68.4574 198.924 68.6974 198.584C68.9374 198.244 69.2774 197.974 69.7174 197.774C70.1574 197.574 70.6574 197.474 71.2174 197.474C72.0974 197.474 72.8074 197.699 73.3474 198.149C73.8874 198.589 74.1774 199.199 74.2174 199.979H73.1674C73.1374 199.499 72.9474 199.114 72.5974 198.824C72.2574 198.524 71.7874 198.374 71.1874 198.374C70.6574 198.374 70.2274 198.499 69.8974 198.749C69.5674 198.999 69.4024 199.309 69.4024 199.679C69.4024 199.999 69.4974 200.264 69.6874 200.474C69.8874 200.674 70.1324 200.834 70.4224 200.954C70.7124 201.064 71.1024 201.189 71.5924 201.329C72.1824 201.489 72.6524 201.644 73.0024 201.794C73.3524 201.944 73.6524 202.164 73.9024 202.454C74.1524 202.744 74.2824 203.129 74.2924 203.609C74.2924 204.049 74.1724 204.444 73.9324 204.794C73.6924 205.134 73.3574 205.404 72.9274 205.604C72.4974 205.804 72.0024 205.904 71.4424 205.904ZM84.2038 201.269C84.2038 201.629 84.1938 201.904 84.1738 202.094H77.3788C77.4088 202.714 77.5588 203.244 77.8288 203.684C78.0988 204.124 78.4538 204.459 78.8938 204.689C79.3338 204.909 79.8138 205.019 80.3338 205.019C81.0138 205.019 81.5838 204.854 82.0438 204.524C82.5138 204.194 82.8238 203.749 82.9738 203.189H84.0838C83.8838 203.989 83.4538 204.644 82.7938 205.154C82.1438 205.654 81.3238 205.904 80.3338 205.904C79.5638 205.904 78.8738 205.734 78.2638 205.394C77.6538 205.044 77.1738 204.554 76.8238 203.924C76.4838 203.284 76.3138 202.539 76.3138 201.689C76.3138 200.839 76.4838 200.094 76.8238 199.454C77.1638 198.814 77.6388 198.324 78.2488 197.984C78.8588 197.644 79.5538 197.474 80.3338 197.474C81.1138 197.474 81.7938 197.644 82.3738 197.984C82.9638 198.324 83.4138 198.784 83.7238 199.364C84.0438 199.934 84.2038 200.569 84.2038 201.269ZM83.1388 201.239C83.1488 200.629 83.0238 200.109 82.7638 199.679C82.5138 199.249 82.1688 198.924 81.7288 198.704C81.2888 198.484 80.8088 198.374 80.2888 198.374C79.5088 198.374 78.8438 198.624 78.2938 199.124C77.7438 199.624 77.4388 200.329 77.3788 201.239H83.1388ZM86.1699 201.689C86.1699 200.839 86.3399 200.099 86.6799 199.469C87.0199 198.829 87.4899 198.339 88.0899 197.999C88.6899 197.649 89.3749 197.474 90.1449 197.474C91.1549 197.474 91.9849 197.724 92.6349 198.224C93.2949 198.724 93.7199 199.404 93.9099 200.264H92.7849C92.6449 199.674 92.3399 199.214 91.8699 198.884C91.4099 198.544 90.8349 198.374 90.1449 198.374C89.5949 198.374 89.0999 198.499 88.6599 198.749C88.2199 198.999 87.8699 199.374 87.6099 199.874C87.3599 200.364 87.2349 200.969 87.2349 201.689C87.2349 202.409 87.3599 203.019 87.6099 203.519C87.8699 204.019 88.2199 204.394 88.6599 204.644C89.0999 204.894 89.5949 205.019 90.1449 205.019C90.8349 205.019 91.4099 204.854 91.8699 204.524C92.3399 204.184 92.6449 203.714 92.7849 203.114H93.9099C93.7199 203.954 93.2949 204.629 92.6349 205.139C91.9749 205.649 91.1449 205.904 90.1449 205.904C89.3749 205.904 88.6899 205.734 88.0899 205.394C87.4899 205.044 87.0199 204.554 86.6799 203.924C86.3399 203.284 86.1699 202.539 86.1699 201.689ZM97.7391 198.479V203.564C97.7391 204.064 97.8341 204.409 98.0241 204.599C98.2141 204.789 98.5491 204.884 99.0291 204.884H99.9891V205.784H98.8641C98.1241 205.784 97.5741 205.614 97.2141 205.274C96.8541 204.924 96.6741 204.354 96.6741 203.564V198.479H95.5341V197.594H96.6741V195.539H97.7391V197.594H99.9891V198.479H97.7391ZM109.656 201.269C109.656 201.629 109.646 201.904 109.626 202.094H102.831C102.861 202.714 103.011 203.244 103.281 203.684C103.551 204.124 103.906 204.459 104.346 204.689C104.786 204.909 105.266 205.019 105.786 205.019C106.466 205.019 107.036 204.854 107.496 204.524C107.966 204.194 108.276 203.749 108.426 203.189H109.536C109.336 203.989 108.906 204.644 108.246 205.154C107.596 205.654 106.776 205.904 105.786 205.904C105.016 205.904 104.326 205.734 103.716 205.394C103.106 205.044 102.626 204.554 102.276 203.924C101.936 203.284 101.766 202.539 101.766 201.689C101.766 200.839 101.936 200.094 102.276 199.454C102.616 198.814 103.091 198.324 103.701 197.984C104.311 197.644 105.006 197.474 105.786 197.474C106.566 197.474 107.246 197.644 107.826 197.984C108.416 198.324 108.866 198.784 109.176 199.364C109.496 199.934 109.656 200.569 109.656 201.269ZM108.591 201.239C108.601 200.629 108.476 200.109 108.216 199.679C107.966 199.249 107.621 198.924 107.181 198.704C106.741 198.484 106.261 198.374 105.741 198.374C104.961 198.374 104.296 198.624 103.746 199.124C103.196 199.624 102.891 200.329 102.831 201.239H108.591ZM113.467 198.479V203.564C113.467 204.064 113.562 204.409 113.752 204.599C113.942 204.789 114.277 204.884 114.757 204.884H115.717V205.784H114.592C113.852 205.784 113.302 205.614 112.942 205.274C112.582 204.924 112.402 204.354 112.402 203.564V198.479H111.262V197.594H112.402V195.539H113.467V197.594H115.717V198.479H113.467ZM125.069 197.594V205.784H124.019V204.344C123.779 204.854 123.409 205.244 122.909 205.514C122.409 205.784 121.849 205.919 121.229 205.919C120.249 205.919 119.449 205.619 118.829 205.019C118.209 204.409 117.899 203.529 117.899 202.379V197.594H118.934V202.259C118.934 203.149 119.154 203.829 119.594 204.299C120.044 204.769 120.654 205.004 121.424 205.004C122.214 205.004 122.844 204.754 123.314 204.254C123.784 203.754 124.019 203.019 124.019 202.049V197.594H125.069ZM129.041 199.049C129.271 198.539 129.621 198.144 130.091 197.864C130.571 197.584 131.156 197.444 131.846 197.444V198.539H131.561C130.801 198.539 130.191 198.744 129.731 199.154C129.271 199.564 129.041 200.249 129.041 201.209V205.784H127.991V197.594H129.041V199.049ZM138.111 201.674C138.111 200.834 138.276 200.099 138.606 199.469C138.946 198.829 139.411 198.339 140.001 197.999C140.601 197.649 141.276 197.474 142.026 197.474C142.806 197.474 143.476 197.654 144.036 198.014C144.606 198.374 145.016 198.834 145.266 199.394V197.594H146.316V205.784H145.266V203.969C145.006 204.529 144.591 204.994 144.021 205.364C143.461 205.724 142.791 205.904 142.011 205.904C141.271 205.904 140.601 205.729 140.001 205.379C139.411 205.029 138.946 204.534 138.606 203.894C138.276 203.254 138.111 202.514 138.111 201.674ZM145.266 201.689C145.266 201.029 145.131 200.449 144.861 199.949C144.591 199.449 144.221 199.064 143.751 198.794C143.291 198.524 142.781 198.389 142.221 198.389C141.641 198.389 141.121 198.519 140.661 198.779C140.201 199.039 139.836 199.419 139.566 199.919C139.306 200.409 139.176 200.994 139.176 201.674C139.176 202.344 139.306 202.934 139.566 203.444C139.836 203.944 140.201 204.329 140.661 204.599C141.121 204.859 141.641 204.989 142.221 204.989C142.781 204.989 143.291 204.854 143.751 204.584C144.221 204.314 144.591 203.929 144.861 203.429C145.131 202.929 145.266 202.349 145.266 201.689ZM148.759 201.674C148.759 200.834 148.929 200.099 149.269 199.469C149.609 198.829 150.074 198.339 150.664 197.999C151.264 197.649 151.939 197.474 152.689 197.474C153.409 197.474 154.059 197.649 154.639 197.999C155.219 198.349 155.644 198.804 155.914 199.364V194.684H156.964V205.784H155.914V203.954C155.664 204.524 155.254 204.994 154.684 205.364C154.114 205.724 153.444 205.904 152.674 205.904C151.924 205.904 151.249 205.729 150.649 205.379C150.059 205.029 149.594 204.534 149.254 203.894C148.924 203.254 148.759 202.514 148.759 201.674ZM155.914 201.689C155.914 201.029 155.779 200.449 155.509 199.949C155.239 199.449 154.869 199.064 154.399 198.794C153.939 198.524 153.429 198.389 152.869 198.389C152.289 198.389 151.769 198.519 151.309 198.779C150.849 199.039 150.484 199.419 150.214 199.919C149.954 200.409 149.824 200.994 149.824 201.674C149.824 202.344 149.954 202.934 150.214 203.444C150.484 203.944 150.849 204.329 151.309 204.599C151.769 204.859 152.289 204.989 152.869 204.989C153.429 204.989 153.939 204.854 154.399 204.584C154.869 204.314 155.239 203.929 155.509 203.429C155.779 202.929 155.914 202.349 155.914 201.689ZM160.411 196.049C160.201 196.049 160.021 195.974 159.871 195.824C159.721 195.674 159.646 195.489 159.646 195.269C159.646 195.049 159.721 194.869 159.871 194.729C160.021 194.579 160.201 194.504 160.411 194.504C160.621 194.504 160.801 194.579 160.951 194.729C161.101 194.869 161.176 195.049 161.176 195.269C161.176 195.489 161.101 195.674 160.951 195.824C160.801 195.974 160.621 196.049 160.411 196.049ZM160.936 197.594V205.784H159.886V197.594H160.936ZM164.873 199.394C165.133 198.844 165.543 198.389 166.103 198.029C166.673 197.659 167.348 197.474 168.128 197.474C168.868 197.474 169.533 197.649 170.123 197.999C170.723 198.339 171.188 198.829 171.518 199.469C171.858 200.099 172.028 200.834 172.028 201.674C172.028 202.514 171.858 203.254 171.518 203.894C171.188 204.534 170.723 205.029 170.123 205.379C169.533 205.729 168.868 205.904 168.128 205.904C167.358 205.904 166.688 205.724 166.118 205.364C165.548 204.994 165.133 204.534 164.873 203.984V209.654H163.838V197.594H164.873V199.394ZM170.963 201.674C170.963 200.994 170.828 200.409 170.558 199.919C170.298 199.419 169.938 199.039 169.478 198.779C169.018 198.519 168.498 198.389 167.918 198.389C167.358 198.389 166.843 198.524 166.373 198.794C165.913 199.064 165.548 199.449 165.278 199.949C165.008 200.449 164.873 201.029 164.873 201.689C164.873 202.349 165.008 202.929 165.278 203.429C165.548 203.929 165.913 204.314 166.373 204.584C166.843 204.854 167.358 204.989 167.918 204.989C168.498 204.989 169.018 204.859 169.478 204.599C169.938 204.329 170.298 203.944 170.558 203.444C170.828 202.934 170.963 202.344 170.963 201.674ZM175.01 196.049C174.8 196.049 174.62 195.974 174.47 195.824C174.32 195.674 174.245 195.489 174.245 195.269C174.245 195.049 174.32 194.869 174.47 194.729C174.62 194.579 174.8 194.504 175.01 194.504C175.22 194.504 175.4 194.579 175.55 194.729C175.7 194.869 175.775 195.049 175.775 195.269C175.775 195.489 175.7 195.674 175.55 195.824C175.4 195.974 175.22 196.049 175.01 196.049ZM175.535 197.594V205.784H174.485V197.594H175.535ZM181.258 205.904C180.318 205.904 179.548 205.689 178.948 205.259C178.358 204.819 178.028 204.224 177.958 203.474H179.038C179.088 203.934 179.303 204.309 179.683 204.599C180.073 204.879 180.593 205.019 181.243 205.019C181.813 205.019 182.258 204.884 182.578 204.614C182.908 204.344 183.073 204.009 183.073 203.609C183.073 203.329 182.983 203.099 182.803 202.919C182.623 202.739 182.393 202.599 182.113 202.499C181.843 202.389 181.473 202.274 181.003 202.154C180.393 201.994 179.898 201.834 179.518 201.674C179.138 201.514 178.813 201.279 178.543 200.969C178.283 200.649 178.153 200.224 178.153 199.694C178.153 199.294 178.273 198.924 178.513 198.584C178.753 198.244 179.093 197.974 179.533 197.774C179.973 197.574 180.473 197.474 181.033 197.474C181.913 197.474 182.623 197.699 183.163 198.149C183.703 198.589 183.993 199.199 184.033 199.979H182.983C182.953 199.499 182.763 199.114 182.413 198.824C182.073 198.524 181.603 198.374 181.003 198.374C180.473 198.374 180.043 198.499 179.713 198.749C179.383 198.999 179.218 199.309 179.218 199.679C179.218 199.999 179.313 200.264 179.503 200.474C179.703 200.674 179.948 200.834 180.238 200.954C180.528 201.064 180.918 201.189 181.408 201.329C181.998 201.489 182.468 201.644 182.818 201.794C183.168 201.944 183.468 202.164 183.718 202.454C183.968 202.744 184.098 203.129 184.108 203.609C184.108 204.049 183.988 204.444 183.748 204.794C183.508 205.134 183.173 205.404 182.743 205.604C182.313 205.804 181.818 205.904 181.258 205.904ZM186.13 201.689C186.13 200.839 186.3 200.099 186.64 199.469C186.98 198.829 187.45 198.339 188.05 197.999C188.65 197.649 189.335 197.474 190.105 197.474C191.115 197.474 191.945 197.724 192.595 198.224C193.255 198.724 193.68 199.404 193.87 200.264H192.745C192.605 199.674 192.3 199.214 191.83 198.884C191.37 198.544 190.795 198.374 190.105 198.374C189.555 198.374 189.06 198.499 188.62 198.749C188.18 198.999 187.83 199.374 187.57 199.874C187.32 200.364 187.195 200.969 187.195 201.689C187.195 202.409 187.32 203.019 187.57 203.519C187.83 204.019 188.18 204.394 188.62 204.644C189.06 204.894 189.555 205.019 190.105 205.019C190.795 205.019 191.37 204.854 191.83 204.524C192.3 204.184 192.605 203.714 192.745 203.114H193.87C193.68 203.954 193.255 204.629 192.595 205.139C191.935 205.649 191.105 205.904 190.105 205.904C189.335 205.904 188.65 205.734 188.05 205.394C187.45 205.044 186.98 204.554 186.64 203.924C186.3 203.284 186.13 202.539 186.13 201.689ZM196.859 196.049C196.649 196.049 196.469 195.974 196.319 195.824C196.169 195.674 196.094 195.489 196.094 195.269C196.094 195.049 196.169 194.869 196.319 194.729C196.469 194.579 196.649 194.504 196.859 194.504C197.069 194.504 197.249 194.579 197.399 194.729C197.549 194.869 197.624 195.049 197.624 195.269C197.624 195.489 197.549 195.674 197.399 195.824C197.249 195.974 197.069 196.049 196.859 196.049ZM197.384 197.594V205.784H196.334V197.594H197.384ZM204.127 197.444C205.107 197.444 205.907 197.749 206.527 198.359C207.147 198.959 207.457 199.834 207.457 200.984V205.784H206.422V201.104C206.422 200.214 206.197 199.534 205.747 199.064C205.307 198.594 204.702 198.359 203.932 198.359C203.142 198.359 202.512 198.609 202.042 199.109C201.572 199.609 201.337 200.344 201.337 201.314V205.784H200.287V197.594H201.337V198.989C201.597 198.489 201.972 198.109 202.462 197.849C202.952 197.579 203.507 197.444 204.127 197.444ZM213.739 197.474C214.509 197.474 215.179 197.654 215.749 198.014C216.319 198.374 216.729 198.829 216.979 199.379V197.594H218.029V205.994C218.029 206.744 217.864 207.409 217.534 207.989C217.214 208.569 216.764 209.014 216.184 209.324C215.604 209.644 214.944 209.804 214.204 209.804C213.154 209.804 212.279 209.554 211.579 209.054C210.889 208.554 210.459 207.874 210.289 207.014H211.324C211.504 207.584 211.844 208.039 212.344 208.379C212.854 208.719 213.474 208.889 214.204 208.889C214.734 208.889 215.209 208.774 215.629 208.544C216.049 208.324 216.379 207.994 216.619 207.554C216.859 207.114 216.979 206.594 216.979 205.994V203.969C216.719 204.529 216.304 204.994 215.734 205.364C215.174 205.724 214.509 205.904 213.739 205.904C212.989 205.904 212.314 205.729 211.714 205.379C211.124 205.029 210.659 204.534 210.319 203.894C209.989 203.254 209.824 202.514 209.824 201.674C209.824 200.834 209.989 200.099 210.319 199.469C210.659 198.829 211.124 198.339 211.714 197.999C212.314 197.649 212.989 197.474 213.739 197.474ZM216.979 201.689C216.979 201.029 216.844 200.449 216.574 199.949C216.304 199.449 215.934 199.064 215.464 198.794C215.004 198.524 214.494 198.389 213.934 198.389C213.354 198.389 212.834 198.519 212.374 198.779C211.914 199.039 211.549 199.419 211.279 199.919C211.019 200.409 210.889 200.994 210.889 201.674C210.889 202.344 211.019 202.934 211.279 203.444C211.549 203.944 211.914 204.329 212.374 204.599C212.834 204.859 213.354 204.989 213.934 204.989C214.494 204.989 215.004 204.854 215.464 204.584C215.934 204.314 216.304 203.929 216.574 203.429C216.844 202.929 216.979 202.349 216.979 201.689ZM233.002 201.269C233.002 201.629 232.992 201.904 232.972 202.094H226.177C226.207 202.714 226.357 203.244 226.627 203.684C226.897 204.124 227.252 204.459 227.692 204.689C228.132 204.909 228.612 205.019 229.132 205.019C229.812 205.019 230.382 204.854 230.842 204.524C231.312 204.194 231.622 203.749 231.772 203.189H232.882C232.682 203.989 232.252 204.644 231.592 205.154C230.942 205.654 230.122 205.904 229.132 205.904C228.362 205.904 227.672 205.734 227.062 205.394C226.452 205.044 225.972 204.554 225.622 203.924C225.282 203.284 225.112 202.539 225.112 201.689C225.112 200.839 225.282 200.094 225.622 199.454C225.962 198.814 226.437 198.324 227.047 197.984C227.657 197.644 228.352 197.474 229.132 197.474C229.912 197.474 230.592 197.644 231.172 197.984C231.762 198.324 232.212 198.784 232.522 199.364C232.842 199.934 233.002 200.569 233.002 201.269ZM231.937 201.239C231.947 200.629 231.822 200.109 231.562 199.679C231.312 199.249 230.967 198.924 230.527 198.704C230.087 198.484 229.607 198.374 229.087 198.374C228.307 198.374 227.642 198.624 227.092 199.124C226.542 199.624 226.237 200.329 226.177 201.239H231.937ZM236.498 194.684V205.784H235.448V194.684H236.498ZM239.926 196.049C239.716 196.049 239.536 195.974 239.386 195.824C239.236 195.674 239.161 195.489 239.161 195.269C239.161 195.049 239.236 194.869 239.386 194.729C239.536 194.579 239.716 194.504 239.926 194.504C240.136 194.504 240.316 194.579 240.466 194.729C240.616 194.869 240.691 195.049 240.691 195.269C240.691 195.489 240.616 195.674 240.466 195.824C240.316 195.974 240.136 196.049 239.926 196.049ZM240.451 197.594V205.784H239.401V197.594H240.451ZM244.719 198.479V203.564C244.719 204.064 244.814 204.409 245.004 204.599C245.194 204.789 245.529 204.884 246.009 204.884H246.969V205.784H245.844C245.104 205.784 244.554 205.614 244.194 205.274C243.834 204.924 243.654 204.354 243.654 203.564V198.479H242.514V197.594H243.654V195.539H244.719V197.594H246.969V198.479H244.719ZM249.405 205.859C249.185 205.859 249 205.784 248.85 205.634C248.71 205.484 248.64 205.299 248.64 205.079C248.64 204.859 248.71 204.679 248.85 204.539C249 204.389 249.185 204.314 249.405 204.314C249.615 204.314 249.79 204.389 249.93 204.539C250.08 204.679 250.155 204.859 250.155 205.079C250.155 205.299 250.08 205.484 249.93 205.634C249.79 205.784 249.615 205.859 249.405 205.859ZM30.6694 219.154V223.069H34.6444V223.939H30.6694V227.914H35.0944V228.784H29.6194V218.284H35.0944V219.154H30.6694ZM41.1234 220.474C41.8934 220.474 42.5634 220.654 43.1334 221.014C43.7034 221.374 44.1134 221.829 44.3634 222.379V220.594H45.4134V228.994C45.4134 229.744 45.2484 230.409 44.9184 230.989C44.5984 231.569 44.1484 232.014 43.5684 232.324C42.9884 232.644 42.3284 232.804 41.5884 232.804C40.5384 232.804 39.6634 232.554 38.9634 232.054C38.2734 231.554 37.8434 230.874 37.6734 230.014H38.7084C38.8884 230.584 39.2284 231.039 39.7284 231.379C40.2384 231.719 40.8584 231.889 41.5884 231.889C42.1184 231.889 42.5934 231.774 43.0134 231.544C43.4334 231.324 43.7634 230.994 44.0034 230.554C44.2434 230.114 44.3634 229.594 44.3634 228.994V226.969C44.1034 227.529 43.6884 227.994 43.1184 228.364C42.5584 228.724 41.8934 228.904 41.1234 228.904C40.3734 228.904 39.6984 228.729 39.0984 228.379C38.5084 228.029 38.0434 227.534 37.7034 226.894C37.3734 226.254 37.2084 225.514 37.2084 224.674C37.2084 223.834 37.3734 223.099 37.7034 222.469C38.0434 221.829 38.5084 221.339 39.0984 220.999C39.6984 220.649 40.3734 220.474 41.1234 220.474ZM44.3634 224.689C44.3634 224.029 44.2284 223.449 43.9584 222.949C43.6884 222.449 43.3184 222.064 42.8484 221.794C42.3884 221.524 41.8784 221.389 41.3184 221.389C40.7384 221.389 40.2184 221.519 39.7584 221.779C39.2984 222.039 38.9334 222.419 38.6634 222.919C38.4034 223.409 38.2734 223.994 38.2734 224.674C38.2734 225.344 38.4034 225.934 38.6634 226.444C38.9334 226.944 39.2984 227.329 39.7584 227.599C40.2184 227.859 40.7384 227.989 41.3184 227.989C41.8784 227.989 42.3884 227.854 42.8484 227.584C43.3184 227.314 43.6884 226.929 43.9584 226.429C44.2284 225.929 44.3634 225.349 44.3634 224.689ZM55.7454 224.269C55.7454 224.629 55.7354 224.904 55.7154 225.094H48.9204C48.9504 225.714 49.1004 226.244 49.3704 226.684C49.6404 227.124 49.9954 227.459 50.4354 227.689C50.8754 227.909 51.3554 228.019 51.8754 228.019C52.5554 228.019 53.1254 227.854 53.5854 227.524C54.0554 227.194 54.3654 226.749 54.5154 226.189H55.6254C55.4254 226.989 54.9954 227.644 54.3354 228.154C53.6854 228.654 52.8654 228.904 51.8754 228.904C51.1054 228.904 50.4154 228.734 49.8054 228.394C49.1954 228.044 48.7154 227.554 48.3654 226.924C48.0254 226.284 47.8554 225.539 47.8554 224.689C47.8554 223.839 48.0254 223.094 48.3654 222.454C48.7054 221.814 49.1804 221.324 49.7904 220.984C50.4004 220.644 51.0954 220.474 51.8754 220.474C52.6554 220.474 53.3354 220.644 53.9154 220.984C54.5054 221.324 54.9554 221.784 55.2654 222.364C55.5854 222.934 55.7454 223.569 55.7454 224.269ZM54.6804 224.239C54.6904 223.629 54.5654 223.109 54.3054 222.679C54.0554 222.249 53.7104 221.924 53.2704 221.704C52.8304 221.484 52.3504 221.374 51.8304 221.374C51.0504 221.374 50.3854 221.624 49.8354 222.124C49.2854 222.624 48.9804 223.329 48.9204 224.239H54.6804ZM61.0115 228.904C60.0715 228.904 59.3015 228.689 58.7015 228.259C58.1115 227.819 57.7815 227.224 57.7115 226.474H58.7915C58.8415 226.934 59.0565 227.309 59.4365 227.599C59.8265 227.879 60.3465 228.019 60.9965 228.019C61.5665 228.019 62.0115 227.884 62.3315 227.614C62.6615 227.344 62.8265 227.009 62.8265 226.609C62.8265 226.329 62.7365 226.099 62.5565 225.919C62.3765 225.739 62.1465 225.599 61.8665 225.499C61.5965 225.389 61.2265 225.274 60.7565 225.154C60.1465 224.994 59.6515 224.834 59.2715 224.674C58.8915 224.514 58.5665 224.279 58.2965 223.969C58.0365 223.649 57.9065 223.224 57.9065 222.694C57.9065 222.294 58.0265 221.924 58.2665 221.584C58.5065 221.244 58.8465 220.974 59.2865 220.774C59.7265 220.574 60.2265 220.474 60.7865 220.474C61.6665 220.474 62.3765 220.699 62.9165 221.149C63.4565 221.589 63.7465 222.199 63.7865 222.979H62.7365C62.7065 222.499 62.5165 222.114 62.1665 221.824C61.8265 221.524 61.3565 221.374 60.7565 221.374C60.2265 221.374 59.7965 221.499 59.4665 221.749C59.1365 221.999 58.9715 222.309 58.9715 222.679C58.9715 222.999 59.0665 223.264 59.2565 223.474C59.4565 223.674 59.7015 223.834 59.9915 223.954C60.2815 224.064 60.6715 224.189 61.1615 224.329C61.7515 224.489 62.2215 224.644 62.5715 224.794C62.9215 224.944 63.2215 225.164 63.4715 225.454C63.7215 225.744 63.8515 226.129 63.8615 226.609C63.8615 227.049 63.7415 227.444 63.5015 227.794C63.2615 228.134 62.9265 228.404 62.4965 228.604C62.0665 228.804 61.5715 228.904 61.0115 228.904ZM67.728 221.479V226.564C67.728 227.064 67.823 227.409 68.013 227.599C68.203 227.789 68.538 227.884 69.018 227.884H69.978V228.784H68.853C68.113 228.784 67.563 228.614 67.203 228.274C66.843 227.924 66.663 227.354 66.663 226.564V221.479H65.523V220.594H66.663V218.539H67.728V220.594H69.978V221.479H67.728ZM71.7547 224.674C71.7547 223.834 71.9197 223.099 72.2497 222.469C72.5897 221.829 73.0547 221.339 73.6447 220.999C74.2447 220.649 74.9197 220.474 75.6697 220.474C76.4497 220.474 77.1197 220.654 77.6797 221.014C78.2497 221.374 78.6597 221.834 78.9097 222.394V220.594H79.9597V228.784H78.9097V226.969C78.6497 227.529 78.2347 227.994 77.6647 228.364C77.1047 228.724 76.4347 228.904 75.6547 228.904C74.9147 228.904 74.2447 228.729 73.6447 228.379C73.0547 228.029 72.5897 227.534 72.2497 226.894C71.9197 226.254 71.7547 225.514 71.7547 224.674ZM78.9097 224.689C78.9097 224.029 78.7747 223.449 78.5047 222.949C78.2347 222.449 77.8647 222.064 77.3947 221.794C76.9347 221.524 76.4247 221.389 75.8647 221.389C75.2847 221.389 74.7647 221.519 74.3047 221.779C73.8447 222.039 73.4797 222.419 73.2097 222.919C72.9497 223.409 72.8197 223.994 72.8197 224.674C72.8197 225.344 72.9497 225.934 73.2097 226.444C73.4797 226.944 73.8447 227.329 74.3047 227.599C74.7647 227.859 75.2847 227.989 75.8647 227.989C76.4247 227.989 76.9347 227.854 77.3947 227.584C77.8647 227.314 78.2347 226.929 78.5047 226.429C78.7747 225.929 78.9097 225.349 78.9097 224.689ZM85.7017 228.904C84.7617 228.904 83.9917 228.689 83.3917 228.259C82.8017 227.819 82.4717 227.224 82.4017 226.474H83.4817C83.5317 226.934 83.7467 227.309 84.1267 227.599C84.5167 227.879 85.0367 228.019 85.6867 228.019C86.2567 228.019 86.7017 227.884 87.0217 227.614C87.3517 227.344 87.5167 227.009 87.5167 226.609C87.5167 226.329 87.4267 226.099 87.2467 225.919C87.0667 225.739 86.8367 225.599 86.5567 225.499C86.2867 225.389 85.9167 225.274 85.4467 225.154C84.8367 224.994 84.3417 224.834 83.9617 224.674C83.5817 224.514 83.2567 224.279 82.9867 223.969C82.7267 223.649 82.5967 223.224 82.5967 222.694C82.5967 222.294 82.7167 221.924 82.9567 221.584C83.1967 221.244 83.5367 220.974 83.9767 220.774C84.4167 220.574 84.9167 220.474 85.4767 220.474C86.3567 220.474 87.0667 220.699 87.6067 221.149C88.1467 221.589 88.4367 222.199 88.4767 222.979H87.4267C87.3967 222.499 87.2067 222.114 86.8567 221.824C86.5167 221.524 86.0467 221.374 85.4467 221.374C84.9167 221.374 84.4867 221.499 84.1567 221.749C83.8267 221.999 83.6617 222.309 83.6617 222.679C83.6617 222.999 83.7567 223.264 83.9467 223.474C84.1467 223.674 84.3917 223.834 84.6817 223.954C84.9717 224.064 85.3617 224.189 85.8517 224.329C86.4417 224.489 86.9117 224.644 87.2617 224.794C87.6117 224.944 87.9117 225.164 88.1617 225.454C88.4117 225.744 88.5417 226.129 88.5517 226.609C88.5517 227.049 88.4317 227.444 88.1917 227.794C87.9517 228.134 87.6167 228.404 87.1867 228.604C86.7567 228.804 86.2617 228.904 85.7017 228.904ZM96.7444 222.049C96.9744 221.539 97.3244 221.144 97.7944 220.864C98.2744 220.584 98.8594 220.444 99.5494 220.444V221.539H99.2644C98.5044 221.539 97.8944 221.744 97.4344 222.154C96.9744 222.564 96.7444 223.249 96.7444 224.209V228.784H95.6944V220.594H96.7444V222.049ZM105.554 220.444C106.174 220.444 106.729 220.574 107.219 220.834C107.719 221.094 108.109 221.494 108.389 222.034C108.679 222.564 108.824 223.214 108.824 223.984V228.784H107.789V224.104C107.789 223.214 107.564 222.534 107.114 222.064C106.674 221.594 106.069 221.359 105.299 221.359C104.509 221.359 103.879 221.609 103.409 222.109C102.939 222.609 102.704 223.344 102.704 224.314V228.784H101.654V217.684H102.704V221.989C102.964 221.499 103.344 221.119 103.844 220.849C104.354 220.579 104.924 220.444 105.554 220.444ZM115.256 228.904C114.486 228.904 113.791 228.734 113.171 228.394C112.561 228.044 112.076 227.554 111.716 226.924C111.366 226.284 111.191 225.539 111.191 224.689C111.191 223.839 111.371 223.099 111.731 222.469C112.091 221.829 112.581 221.339 113.201 220.999C113.821 220.649 114.516 220.474 115.286 220.474C116.056 220.474 116.751 220.649 117.371 220.999C118.001 221.339 118.491 221.829 118.841 222.469C119.201 223.099 119.381 223.839 119.381 224.689C119.381 225.529 119.201 226.269 118.841 226.909C118.481 227.549 117.986 228.044 117.356 228.394C116.726 228.734 116.026 228.904 115.256 228.904ZM115.256 227.989C115.796 227.989 116.296 227.869 116.756 227.629C117.216 227.379 117.586 227.009 117.866 226.519C118.156 226.019 118.301 225.409 118.301 224.689C118.301 223.969 118.161 223.364 117.881 222.874C117.601 222.374 117.231 222.004 116.771 221.764C116.311 221.514 115.811 221.389 115.271 221.389C114.731 221.389 114.231 221.514 113.771 221.764C113.311 222.004 112.941 222.374 112.661 222.874C112.391 223.364 112.256 223.969 112.256 224.689C112.256 225.409 112.391 226.019 112.661 226.519C112.941 227.009 113.306 227.379 113.756 227.629C114.216 227.869 114.716 227.989 115.256 227.989ZM125.66 220.444C126.64 220.444 127.44 220.749 128.06 221.359C128.68 221.959 128.99 222.834 128.99 223.984V228.784H127.955V224.104C127.955 223.214 127.73 222.534 127.28 222.064C126.84 221.594 126.235 221.359 125.465 221.359C124.675 221.359 124.045 221.609 123.575 222.109C123.105 222.609 122.87 223.344 122.87 224.314V228.784H121.82V220.594H122.87V221.989C123.13 221.489 123.505 221.109 123.995 220.849C124.485 220.579 125.04 220.444 125.66 220.444ZM131.357 224.689C131.357 223.839 131.527 223.099 131.867 222.469C132.207 221.829 132.677 221.339 133.277 220.999C133.877 220.649 134.562 220.474 135.332 220.474C136.342 220.474 137.172 220.724 137.822 221.224C138.482 221.724 138.907 222.404 139.097 223.264H137.972C137.832 222.674 137.527 222.214 137.057 221.884C136.597 221.544 136.022 221.374 135.332 221.374C134.782 221.374 134.287 221.499 133.847 221.749C133.407 221.999 133.057 222.374 132.797 222.874C132.547 223.364 132.422 223.969 132.422 224.689C132.422 225.409 132.547 226.019 132.797 226.519C133.057 227.019 133.407 227.394 133.847 227.644C134.287 227.894 134.782 228.019 135.332 228.019C136.022 228.019 136.597 227.854 137.057 227.524C137.527 227.184 137.832 226.714 137.972 226.114H139.097C138.907 226.954 138.482 227.629 137.822 228.139C137.162 228.649 136.332 228.904 135.332 228.904C134.562 228.904 133.877 228.734 133.277 228.394C132.677 228.044 132.207 227.554 131.867 226.924C131.527 226.284 131.357 225.539 131.357 224.689ZM148.657 220.594V228.784H147.607V227.344C147.367 227.854 146.997 228.244 146.497 228.514C145.997 228.784 145.437 228.919 144.817 228.919C143.837 228.919 143.037 228.619 142.417 228.019C141.797 227.409 141.487 226.529 141.487 225.379V220.594H142.522V225.259C142.522 226.149 142.742 226.829 143.182 227.299C143.632 227.769 144.242 228.004 145.012 228.004C145.802 228.004 146.432 227.754 146.902 227.254C147.372 226.754 147.607 226.019 147.607 225.049V220.594H148.657ZM154.399 228.904C153.459 228.904 152.689 228.689 152.089 228.259C151.499 227.819 151.169 227.224 151.099 226.474H152.179C152.229 226.934 152.444 227.309 152.824 227.599C153.214 227.879 153.734 228.019 154.384 228.019C154.954 228.019 155.399 227.884 155.719 227.614C156.049 227.344 156.214 227.009 156.214 226.609C156.214 226.329 156.124 226.099 155.944 225.919C155.764 225.739 155.534 225.599 155.254 225.499C154.984 225.389 154.614 225.274 154.144 225.154C153.534 224.994 153.039 224.834 152.659 224.674C152.279 224.514 151.954 224.279 151.684 223.969C151.424 223.649 151.294 223.224 151.294 222.694C151.294 222.294 151.414 221.924 151.654 221.584C151.894 221.244 152.234 220.974 152.674 220.774C153.114 220.574 153.614 220.474 154.174 220.474C155.054 220.474 155.764 220.699 156.304 221.149C156.844 221.589 157.134 222.199 157.174 222.979H156.124C156.094 222.499 155.904 222.114 155.554 221.824C155.214 221.524 154.744 221.374 154.144 221.374C153.614 221.374 153.184 221.499 152.854 221.749C152.524 221.999 152.359 222.309 152.359 222.679C152.359 222.999 152.454 223.264 152.644 223.474C152.844 223.674 153.089 223.834 153.379 223.954C153.669 224.064 154.059 224.189 154.549 224.329C155.139 224.489 155.609 224.644 155.959 224.794C156.309 224.944 156.609 225.164 156.859 225.454C157.109 225.744 157.239 226.129 157.249 226.609C157.249 227.049 157.129 227.444 156.889 227.794C156.649 228.134 156.314 228.404 155.884 228.604C155.454 228.804 154.959 228.904 154.399 228.904ZM174.141 220.444C175.101 220.444 175.881 220.749 176.481 221.359C177.091 221.959 177.396 222.834 177.396 223.984V228.784H176.361V224.104C176.361 223.214 176.146 222.534 175.716 222.064C175.286 221.594 174.701 221.359 173.961 221.359C173.191 221.359 172.576 221.614 172.116 222.124C171.656 222.634 171.426 223.374 171.426 224.344V228.784H170.391V224.104C170.391 223.214 170.176 222.534 169.746 222.064C169.316 221.594 168.726 221.359 167.976 221.359C167.206 221.359 166.591 221.614 166.131 222.124C165.671 222.634 165.441 223.374 165.441 224.344V228.784H164.391V220.594H165.441V222.004C165.701 221.494 166.071 221.109 166.551 220.849C167.031 220.579 167.566 220.444 168.156 220.444C168.866 220.444 169.486 220.614 170.016 220.954C170.556 221.294 170.946 221.794 171.186 222.454C171.406 221.804 171.781 221.309 172.311 220.969C172.851 220.619 173.461 220.444 174.141 220.444ZM179.773 224.674C179.773 223.834 179.938 223.099 180.268 222.469C180.608 221.829 181.073 221.339 181.663 220.999C182.263 220.649 182.938 220.474 183.688 220.474C184.468 220.474 185.138 220.654 185.698 221.014C186.268 221.374 186.678 221.834 186.928 222.394V220.594H187.978V228.784H186.928V226.969C186.668 227.529 186.253 227.994 185.683 228.364C185.123 228.724 184.453 228.904 183.673 228.904C182.933 228.904 182.263 228.729 181.663 228.379C181.073 228.029 180.608 227.534 180.268 226.894C179.938 226.254 179.773 225.514 179.773 224.674ZM186.928 224.689C186.928 224.029 186.793 223.449 186.523 222.949C186.253 222.449 185.883 222.064 185.413 221.794C184.953 221.524 184.443 221.389 183.883 221.389C183.303 221.389 182.783 221.519 182.323 221.779C181.863 222.039 181.498 222.419 181.228 222.919C180.968 223.409 180.838 223.994 180.838 224.674C180.838 225.344 180.968 225.934 181.228 226.444C181.498 226.944 181.863 227.329 182.323 227.599C182.783 227.859 183.303 227.989 183.883 227.989C184.443 227.989 184.953 227.854 185.413 227.584C185.883 227.314 186.253 226.929 186.523 226.429C186.793 225.929 186.928 225.349 186.928 224.689ZM193.72 228.904C192.78 228.904 192.01 228.689 191.41 228.259C190.82 227.819 190.49 227.224 190.42 226.474H191.5C191.55 226.934 191.765 227.309 192.145 227.599C192.535 227.879 193.055 228.019 193.705 228.019C194.275 228.019 194.72 227.884 195.04 227.614C195.37 227.344 195.535 227.009 195.535 226.609C195.535 226.329 195.445 226.099 195.265 225.919C195.085 225.739 194.855 225.599 194.575 225.499C194.305 225.389 193.935 225.274 193.465 225.154C192.855 224.994 192.36 224.834 191.98 224.674C191.6 224.514 191.275 224.279 191.005 223.969C190.745 223.649 190.615 223.224 190.615 222.694C190.615 222.294 190.735 221.924 190.975 221.584C191.215 221.244 191.555 220.974 191.995 220.774C192.435 220.574 192.935 220.474 193.495 220.474C194.375 220.474 195.085 220.699 195.625 221.149C196.165 221.589 196.455 222.199 196.495 222.979H195.445C195.415 222.499 195.225 222.114 194.875 221.824C194.535 221.524 194.065 221.374 193.465 221.374C192.935 221.374 192.505 221.499 192.175 221.749C191.845 221.999 191.68 222.309 191.68 222.679C191.68 222.999 191.775 223.264 191.965 223.474C192.165 223.674 192.41 223.834 192.7 223.954C192.99 224.064 193.38 224.189 193.87 224.329C194.46 224.489 194.93 224.644 195.28 224.794C195.63 224.944 195.93 225.164 196.18 225.454C196.43 225.744 196.56 226.129 196.57 226.609C196.57 227.049 196.45 227.444 196.21 227.794C195.97 228.134 195.635 228.404 195.205 228.604C194.775 228.804 194.28 228.904 193.72 228.904ZM201.892 228.904C200.952 228.904 200.182 228.689 199.582 228.259C198.992 227.819 198.662 227.224 198.592 226.474H199.672C199.722 226.934 199.937 227.309 200.317 227.599C200.707 227.879 201.227 228.019 201.877 228.019C202.447 228.019 202.892 227.884 203.212 227.614C203.542 227.344 203.707 227.009 203.707 226.609C203.707 226.329 203.617 226.099 203.437 225.919C203.257 225.739 203.027 225.599 202.747 225.499C202.477 225.389 202.107 225.274 201.637 225.154C201.027 224.994 200.532 224.834 200.152 224.674C199.772 224.514 199.447 224.279 199.177 223.969C198.917 223.649 198.787 223.224 198.787 222.694C198.787 222.294 198.907 221.924 199.147 221.584C199.387 221.244 199.727 220.974 200.167 220.774C200.607 220.574 201.107 220.474 201.667 220.474C202.547 220.474 203.257 220.699 203.797 221.149C204.337 221.589 204.627 222.199 204.667 222.979H203.617C203.587 222.499 203.397 222.114 203.047 221.824C202.707 221.524 202.237 221.374 201.637 221.374C201.107 221.374 200.677 221.499 200.347 221.749C200.017 221.999 199.852 222.309 199.852 222.679C199.852 222.999 199.947 223.264 200.137 223.474C200.337 223.674 200.582 223.834 200.872 223.954C201.162 224.064 201.552 224.189 202.042 224.329C202.632 224.489 203.102 224.644 203.452 224.794C203.802 224.944 204.102 225.164 204.352 225.454C204.602 225.744 204.732 226.129 204.742 226.609C204.742 227.049 204.622 227.444 204.382 227.794C204.142 228.134 203.807 228.404 203.377 228.604C202.947 228.804 202.452 228.904 201.892 228.904ZM206.763 224.674C206.763 223.834 206.928 223.099 207.258 222.469C207.598 221.829 208.063 221.339 208.653 220.999C209.253 220.649 209.928 220.474 210.678 220.474C211.458 220.474 212.128 220.654 212.688 221.014C213.258 221.374 213.668 221.834 213.918 222.394V220.594H214.968V228.784H213.918V226.969C213.658 227.529 213.243 227.994 212.673 228.364C212.113 228.724 211.443 228.904 210.663 228.904C209.923 228.904 209.253 228.729 208.653 228.379C208.063 228.029 207.598 227.534 207.258 226.894C206.928 226.254 206.763 225.514 206.763 224.674ZM213.918 224.689C213.918 224.029 213.783 223.449 213.513 222.949C213.243 222.449 212.873 222.064 212.403 221.794C211.943 221.524 211.433 221.389 210.873 221.389C210.293 221.389 209.773 221.519 209.313 221.779C208.853 222.039 208.488 222.419 208.218 222.919C207.958 223.409 207.828 223.994 207.828 224.674C207.828 225.344 207.958 225.934 208.218 226.444C208.488 226.944 208.853 227.329 209.313 227.599C209.773 227.859 210.293 227.989 210.873 227.989C211.433 227.989 211.943 227.854 212.403 227.584C212.873 227.314 213.243 226.929 213.513 226.429C213.783 225.929 213.918 225.349 213.918 224.689ZM225.442 227.764L228.202 220.594H229.312L226.027 228.784H224.842L221.557 220.594H222.682L225.442 227.764ZM231.785 219.049C231.575 219.049 231.395 218.974 231.245 218.824C231.095 218.674 231.02 218.489 231.02 218.269C231.02 218.049 231.095 217.869 231.245 217.729C231.395 217.579 231.575 217.504 231.785 217.504C231.995 217.504 232.175 217.579 232.325 217.729C232.475 217.869 232.55 218.049 232.55 218.269C232.55 218.489 232.475 218.674 232.325 218.824C232.175 218.974 231.995 219.049 231.785 219.049ZM232.31 220.594V228.784H231.26V220.594H232.31ZM236.578 221.479V226.564C236.578 227.064 236.673 227.409 236.863 227.599C237.053 227.789 237.388 227.884 237.868 227.884H238.828V228.784H237.703C236.963 228.784 236.413 228.614 236.053 228.274C235.693 227.924 235.513 227.354 235.513 226.564V221.479H234.373V220.594H235.513V218.539H236.578V220.594H238.828V221.479H236.578ZM240.604 224.674C240.604 223.834 240.769 223.099 241.099 222.469C241.439 221.829 241.904 221.339 242.494 220.999C243.094 220.649 243.769 220.474 244.519 220.474C245.299 220.474 245.969 220.654 246.529 221.014C247.099 221.374 247.509 221.834 247.759 222.394V220.594H248.809V228.784H247.759V226.969C247.499 227.529 247.084 227.994 246.514 228.364C245.954 228.724 245.284 228.904 244.504 228.904C243.764 228.904 243.094 228.729 242.494 228.379C241.904 228.029 241.439 227.534 241.099 226.894C240.769 226.254 240.604 225.514 240.604 224.674ZM247.759 224.689C247.759 224.029 247.624 223.449 247.354 222.949C247.084 222.449 246.714 222.064 246.244 221.794C245.784 221.524 245.274 221.389 244.714 221.389C244.134 221.389 243.614 221.519 243.154 221.779C242.694 222.039 242.329 222.419 242.059 222.919C241.799 223.409 241.669 223.994 241.669 224.674C241.669 225.344 241.799 225.934 242.059 226.444C242.329 226.944 242.694 227.329 243.154 227.599C243.614 227.859 244.134 227.989 244.714 227.989C245.274 227.989 245.784 227.854 246.244 227.584C246.714 227.314 247.084 226.929 247.354 226.429C247.624 225.929 247.759 225.349 247.759 224.689ZM259.141 224.269C259.141 224.629 259.131 224.904 259.111 225.094H252.316C252.346 225.714 252.496 226.244 252.766 226.684C253.036 227.124 253.391 227.459 253.831 227.689C254.271 227.909 254.751 228.019 255.271 228.019C255.951 228.019 256.521 227.854 256.981 227.524C257.451 227.194 257.761 226.749 257.911 226.189H259.021C258.821 226.989 258.391 227.644 257.731 228.154C257.081 228.654 256.261 228.904 255.271 228.904C254.501 228.904 253.811 228.734 253.201 228.394C252.591 228.044 252.111 227.554 251.761 226.924C251.421 226.284 251.251 225.539 251.251 224.689C251.251 223.839 251.421 223.094 251.761 222.454C252.101 221.814 252.576 221.324 253.186 220.984C253.796 220.644 254.491 220.474 255.271 220.474C256.051 220.474 256.731 220.644 257.311 220.984C257.901 221.324 258.351 221.784 258.661 222.364C258.981 222.934 259.141 223.569 259.141 224.269ZM258.076 224.239C258.086 223.629 257.961 223.109 257.701 222.679C257.451 222.249 257.106 221.924 256.666 221.704C256.226 221.484 255.746 221.374 255.226 221.374C254.446 221.374 253.781 221.624 253.231 222.124C252.681 222.624 252.376 223.329 252.316 224.239H258.076ZM49.6857 247.269C49.6857 247.629 49.6757 247.904 49.6557 248.094H42.8607C42.8907 248.714 43.0407 249.244 43.3107 249.684C43.5807 250.124 43.9357 250.459 44.3757 250.689C44.8157 250.909 45.2957 251.019 45.8157 251.019C46.4957 251.019 47.0657 250.854 47.5257 250.524C47.9957 250.194 48.3057 249.749 48.4557 249.189H49.5657C49.3657 249.989 48.9357 250.644 48.2757 251.154C47.6257 251.654 46.8057 251.904 45.8157 251.904C45.0457 251.904 44.3557 251.734 43.7457 251.394C43.1357 251.044 42.6557 250.554 42.3057 249.924C41.9657 249.284 41.7957 248.539 41.7957 247.689C41.7957 246.839 41.9657 246.094 42.3057 245.454C42.6457 244.814 43.1207 244.324 43.7307 243.984C44.3407 243.644 45.0357 243.474 45.8157 243.474C46.5957 243.474 47.2757 243.644 47.8557 243.984C48.4457 244.324 48.8957 244.784 49.2057 245.364C49.5257 245.934 49.6857 246.569 49.6857 247.269ZM48.6207 247.239C48.6307 246.629 48.5057 246.109 48.2457 245.679C47.9957 245.249 47.6507 244.924 47.2107 244.704C46.7707 244.484 46.2907 244.374 45.7707 244.374C44.9907 244.374 44.3257 244.624 43.7757 245.124C43.2257 245.624 42.9207 246.329 42.8607 247.239H48.6207ZM53.4967 244.479V249.564C53.4967 250.064 53.5917 250.409 53.7817 250.599C53.9717 250.789 54.3067 250.884 54.7867 250.884H55.7467V251.784H54.6217C53.8817 251.784 53.3317 251.614 52.9717 251.274C52.6117 250.924 52.4317 250.354 52.4317 249.564V244.479H51.2917V243.594H52.4317V241.539H53.4967V243.594H55.7467V244.479H53.4967ZM58.1834 251.859C57.9634 251.859 57.7784 251.784 57.6284 251.634C57.4884 251.484 57.4184 251.299 57.4184 251.079C57.4184 250.859 57.4884 250.679 57.6284 250.539C57.7784 250.389 57.9634 250.314 58.1834 250.314C58.3934 250.314 58.5684 250.389 58.7084 250.539C58.8584 250.679 58.9334 250.859 58.9334 251.079C58.9334 251.299 58.8584 251.484 58.7084 251.634C58.5684 251.784 58.3934 251.859 58.1834 251.859ZM69.0742 251.889C68.3842 251.889 67.7742 251.769 67.2442 251.529C66.7242 251.289 66.3142 250.954 66.0142 250.524C65.7142 250.094 65.5542 249.614 65.5342 249.084H66.6442C66.6942 249.594 66.9192 250.044 67.3192 250.434C67.7192 250.814 68.3042 251.004 69.0742 251.004C69.7842 251.004 70.3442 250.824 70.7542 250.464C71.1742 250.094 71.3842 249.629 71.3842 249.069C71.3842 248.619 71.2692 248.259 71.0392 247.989C70.8092 247.709 70.5242 247.504 70.1842 247.374C69.8442 247.234 69.3742 247.084 68.7742 246.924C68.0742 246.734 67.5192 246.549 67.1092 246.369C66.6992 246.189 66.3492 245.909 66.0592 245.529C65.7692 245.149 65.6242 244.634 65.6242 243.984C65.6242 243.444 65.7642 242.964 66.0442 242.544C66.3242 242.114 66.7192 241.779 67.2292 241.539C67.7392 241.299 68.3242 241.179 68.9842 241.179C69.9542 241.179 70.7342 241.419 71.3242 241.899C71.9242 242.369 72.2692 242.979 72.3592 243.729H71.2192C71.1492 243.299 70.9142 242.919 70.5142 242.589C70.1142 242.249 69.5742 242.079 68.8942 242.079C68.2642 242.079 67.7392 242.249 67.3192 242.589C66.8992 242.919 66.6892 243.374 66.6892 243.954C66.6892 244.394 66.8042 244.749 67.0342 245.019C67.2642 245.289 67.5492 245.494 67.8892 245.634C68.2392 245.774 68.7092 245.924 69.2992 246.084C69.9792 246.274 70.5292 246.464 70.9492 246.654C71.3692 246.834 71.7242 247.114 72.0142 247.494C72.3042 247.874 72.4492 248.384 72.4492 249.024C72.4492 249.514 72.3192 249.979 72.0592 250.419C71.7992 250.859 71.4142 251.214 70.9042 251.484C70.3942 251.754 69.7842 251.889 69.0742 251.889ZM74.5232 247.689C74.5232 246.839 74.6932 246.099 75.0332 245.469C75.3732 244.829 75.8432 244.339 76.4432 243.999C77.0432 243.649 77.7282 243.474 78.4982 243.474C79.5082 243.474 80.3382 243.724 80.9882 244.224C81.6482 244.724 82.0732 245.404 82.2632 246.264H81.1382C80.9982 245.674 80.6932 245.214 80.2232 244.884C79.7632 244.544 79.1882 244.374 78.4982 244.374C77.9482 244.374 77.4532 244.499 77.0132 244.749C76.5732 244.999 76.2232 245.374 75.9632 245.874C75.7132 246.364 75.5882 246.969 75.5882 247.689C75.5882 248.409 75.7132 249.019 75.9632 249.519C76.2232 250.019 76.5732 250.394 77.0132 250.644C77.4532 250.894 77.9482 251.019 78.4982 251.019C79.1882 251.019 79.7632 250.854 80.2232 250.524C80.6932 250.184 80.9982 249.714 81.1382 249.114H82.2632C82.0732 249.954 81.6482 250.629 80.9882 251.139C80.3282 251.649 79.4982 251.904 78.4982 251.904C77.7282 251.904 77.0432 251.734 76.4432 251.394C75.8432 251.044 75.3732 250.554 75.0332 249.924C74.6932 249.284 74.5232 248.539 74.5232 247.689ZM92.1374 247.269C92.1374 247.629 92.1274 247.904 92.1074 248.094H85.3124C85.3424 248.714 85.4924 249.244 85.7624 249.684C86.0324 250.124 86.3874 250.459 86.8274 250.689C87.2674 250.909 87.7474 251.019 88.2674 251.019C88.9474 251.019 89.5174 250.854 89.9774 250.524C90.4474 250.194 90.7574 249.749 90.9074 249.189H92.0174C91.8174 249.989 91.3874 250.644 90.7274 251.154C90.0774 251.654 89.2574 251.904 88.2674 251.904C87.4974 251.904 86.8074 251.734 86.1974 251.394C85.5874 251.044 85.1074 250.554 84.7574 249.924C84.4174 249.284 84.2474 248.539 84.2474 247.689C84.2474 246.839 84.4174 246.094 84.7574 245.454C85.0974 244.814 85.5724 244.324 86.1824 243.984C86.7924 243.644 87.4874 243.474 88.2674 243.474C89.0474 243.474 89.7274 243.644 90.3074 243.984C90.8974 244.324 91.3474 244.784 91.6574 245.364C91.9774 245.934 92.1374 246.569 92.1374 247.269ZM91.0724 247.239C91.0824 246.629 90.9574 246.109 90.6974 245.679C90.4474 245.249 90.1024 244.924 89.6624 244.704C89.2224 244.484 88.7424 244.374 88.2224 244.374C87.4424 244.374 86.7774 244.624 86.2274 245.124C85.6774 245.624 85.3724 246.329 85.3124 247.239H91.0724ZM95.6335 240.684V251.784H94.5835V240.684H95.6335ZM105.946 247.269C105.946 247.629 105.936 247.904 105.916 248.094H99.1212C99.1512 248.714 99.3012 249.244 99.5712 249.684C99.8412 250.124 100.196 250.459 100.636 250.689C101.076 250.909 101.556 251.019 102.076 251.019C102.756 251.019 103.326 250.854 103.786 250.524C104.256 250.194 104.566 249.749 104.716 249.189H105.826C105.626 249.989 105.196 250.644 104.536 251.154C103.886 251.654 103.066 251.904 102.076 251.904C101.306 251.904 100.616 251.734 100.006 251.394C99.3962 251.044 98.9162 250.554 98.5662 249.924C98.2262 249.284 98.0562 248.539 98.0562 247.689C98.0562 246.839 98.2262 246.094 98.5662 245.454C98.9062 244.814 99.3812 244.324 99.9912 243.984C100.601 243.644 101.296 243.474 102.076 243.474C102.856 243.474 103.536 243.644 104.116 243.984C104.706 244.324 105.156 244.784 105.466 245.364C105.786 245.934 105.946 246.569 105.946 247.269ZM104.881 247.239C104.891 246.629 104.766 246.109 104.506 245.679C104.256 245.249 103.911 244.924 103.471 244.704C103.031 244.484 102.551 244.374 102.031 244.374C101.251 244.374 100.586 244.624 100.036 245.124C99.4862 245.624 99.1812 246.329 99.1212 247.239H104.881ZM109.442 245.049C109.672 244.539 110.022 244.144 110.492 243.864C110.972 243.584 111.557 243.444 112.247 243.444V244.539H111.962C111.202 244.539 110.592 244.744 110.132 245.154C109.672 245.564 109.442 246.249 109.442 247.209V251.784H108.392V243.594H109.442V245.049ZM114.877 242.049C114.667 242.049 114.487 241.974 114.337 241.824C114.187 241.674 114.112 241.489 114.112 241.269C114.112 241.049 114.187 240.869 114.337 240.729C114.487 240.579 114.667 240.504 114.877 240.504C115.087 240.504 115.267 240.579 115.417 240.729C115.567 240.869 115.642 241.049 115.642 241.269C115.642 241.489 115.567 241.674 115.417 241.824C115.267 241.974 115.087 242.049 114.877 242.049ZM115.402 243.594V251.784H114.352V243.594H115.402ZM121.125 251.904C120.185 251.904 119.415 251.689 118.815 251.259C118.225 250.819 117.895 250.224 117.825 249.474H118.905C118.955 249.934 119.17 250.309 119.55 250.599C119.94 250.879 120.46 251.019 121.11 251.019C121.68 251.019 122.125 250.884 122.445 250.614C122.775 250.344 122.94 250.009 122.94 249.609C122.94 249.329 122.85 249.099 122.67 248.919C122.49 248.739 122.26 248.599 121.98 248.499C121.71 248.389 121.34 248.274 120.87 248.154C120.26 247.994 119.765 247.834 119.385 247.674C119.005 247.514 118.68 247.279 118.41 246.969C118.15 246.649 118.02 246.224 118.02 245.694C118.02 245.294 118.14 244.924 118.38 244.584C118.62 244.244 118.96 243.974 119.4 243.774C119.84 243.574 120.34 243.474 120.9 243.474C121.78 243.474 122.49 243.699 123.03 244.149C123.57 244.589 123.86 245.199 123.9 245.979H122.85C122.82 245.499 122.63 245.114 122.28 244.824C121.94 244.524 121.47 244.374 120.87 244.374C120.34 244.374 119.91 244.499 119.58 244.749C119.25 244.999 119.085 245.309 119.085 245.679C119.085 245.999 119.18 246.264 119.37 246.474C119.57 246.674 119.815 246.834 120.105 246.954C120.395 247.064 120.785 247.189 121.275 247.329C121.865 247.489 122.335 247.644 122.685 247.794C123.035 247.944 123.335 248.164 123.585 248.454C123.835 248.744 123.965 249.129 123.975 249.609C123.975 250.049 123.855 250.444 123.615 250.794C123.375 251.134 123.04 251.404 122.61 251.604C122.18 251.804 121.685 251.904 121.125 251.904ZM125.996 247.674C125.996 246.834 126.166 246.099 126.506 245.469C126.846 244.829 127.311 244.339 127.901 243.999C128.501 243.649 129.176 243.474 129.926 243.474C130.696 243.474 131.366 243.659 131.936 244.029C132.506 244.389 132.911 244.844 133.151 245.394V243.594H134.201V255.654H133.151V249.984C132.911 250.534 132.501 250.994 131.921 251.364C131.351 251.724 130.676 251.904 129.896 251.904C129.156 251.904 128.486 251.729 127.886 251.379C127.296 251.029 126.831 250.534 126.491 249.894C126.161 249.254 125.996 248.514 125.996 247.674ZM133.151 247.689C133.151 247.029 133.016 246.449 132.746 245.949C132.476 245.449 132.106 245.064 131.636 244.794C131.176 244.524 130.666 244.389 130.106 244.389C129.526 244.389 129.006 244.519 128.546 244.779C128.086 245.039 127.721 245.419 127.451 245.919C127.191 246.409 127.061 246.994 127.061 247.674C127.061 248.344 127.191 248.934 127.451 249.444C127.721 249.944 128.086 250.329 128.546 250.599C129.006 250.859 129.526 250.989 130.106 250.989C130.666 250.989 131.176 250.854 131.636 250.584C132.106 250.314 132.476 249.929 132.746 249.429C133.016 248.929 133.151 248.349 133.151 247.689ZM144.218 243.594V251.784H143.168V250.344C142.928 250.854 142.558 251.244 142.058 251.514C141.558 251.784 140.998 251.919 140.378 251.919C139.398 251.919 138.598 251.619 137.978 251.019C137.358 250.409 137.048 249.529 137.048 248.379V243.594H138.083V248.259C138.083 249.149 138.303 249.829 138.743 250.299C139.193 250.769 139.803 251.004 140.573 251.004C141.363 251.004 141.993 250.754 142.463 250.254C142.933 249.754 143.168 249.019 143.168 248.049V243.594H144.218ZM154.55 247.269C154.55 247.629 154.54 247.904 154.52 248.094H147.725C147.755 248.714 147.905 249.244 148.175 249.684C148.445 250.124 148.8 250.459 149.24 250.689C149.68 250.909 150.16 251.019 150.68 251.019C151.36 251.019 151.93 250.854 152.39 250.524C152.86 250.194 153.17 249.749 153.32 249.189H154.43C154.23 249.989 153.8 250.644 153.14 251.154C152.49 251.654 151.67 251.904 150.68 251.904C149.91 251.904 149.22 251.734 148.61 251.394C148 251.044 147.52 250.554 147.17 249.924C146.83 249.284 146.66 248.539 146.66 247.689C146.66 246.839 146.83 246.094 147.17 245.454C147.51 244.814 147.985 244.324 148.595 243.984C149.205 243.644 149.9 243.474 150.68 243.474C151.46 243.474 152.14 243.644 152.72 243.984C153.31 244.324 153.76 244.784 154.07 245.364C154.39 245.934 154.55 246.569 154.55 247.269ZM153.485 247.239C153.495 246.629 153.37 246.109 153.11 245.679C152.86 245.249 152.515 244.924 152.075 244.704C151.635 244.484 151.155 244.374 150.635 244.374C149.855 244.374 149.19 244.624 148.64 245.124C148.09 245.624 147.785 246.329 147.725 247.239H153.485ZM162.688 240.684V251.784H161.638V240.684H162.688ZM173 247.269C173 247.629 172.99 247.904 172.97 248.094H166.175C166.205 248.714 166.355 249.244 166.625 249.684C166.895 250.124 167.25 250.459 167.69 250.689C168.13 250.909 168.61 251.019 169.13 251.019C169.81 251.019 170.38 250.854 170.84 250.524C171.31 250.194 171.62 249.749 171.77 249.189H172.88C172.68 249.989 172.25 250.644 171.59 251.154C170.94 251.654 170.12 251.904 169.13 251.904C168.36 251.904 167.67 251.734 167.06 251.394C166.45 251.044 165.97 250.554 165.62 249.924C165.28 249.284 165.11 248.539 165.11 247.689C165.11 246.839 165.28 246.094 165.62 245.454C165.96 244.814 166.435 244.324 167.045 243.984C167.655 243.644 168.35 243.474 169.13 243.474C169.91 243.474 170.59 243.644 171.17 243.984C171.76 244.324 172.21 244.784 172.52 245.364C172.84 245.934 173 246.569 173 247.269ZM171.935 247.239C171.945 246.629 171.82 246.109 171.56 245.679C171.31 245.249 170.965 244.924 170.525 244.704C170.085 244.484 169.605 244.374 169.085 244.374C168.305 244.374 167.64 244.624 167.09 245.124C166.54 245.624 166.235 246.329 166.175 247.239H171.935ZM174.966 247.689C174.966 246.839 175.136 246.099 175.476 245.469C175.816 244.829 176.286 244.339 176.886 243.999C177.486 243.649 178.171 243.474 178.941 243.474C179.951 243.474 180.781 243.724 181.431 244.224C182.091 244.724 182.516 245.404 182.706 246.264H181.581C181.441 245.674 181.136 245.214 180.666 244.884C180.206 244.544 179.631 244.374 178.941 244.374C178.391 244.374 177.896 244.499 177.456 244.749C177.016 244.999 176.666 245.374 176.406 245.874C176.156 246.364 176.031 246.969 176.031 247.689C176.031 248.409 176.156 249.019 176.406 249.519C176.666 250.019 177.016 250.394 177.456 250.644C177.896 250.894 178.391 251.019 178.941 251.019C179.631 251.019 180.206 250.854 180.666 250.524C181.136 250.184 181.441 249.714 181.581 249.114H182.706C182.516 249.954 182.091 250.629 181.431 251.139C180.771 251.649 179.941 251.904 178.941 251.904C178.171 251.904 177.486 251.734 176.886 251.394C176.286 251.044 175.816 250.554 175.476 249.924C175.136 249.284 174.966 248.539 174.966 247.689ZM186.536 244.479V249.564C186.536 250.064 186.631 250.409 186.821 250.599C187.011 250.789 187.346 250.884 187.826 250.884H188.786V251.784H187.661C186.921 251.784 186.371 251.614 186.011 251.274C185.651 250.924 185.471 250.354 185.471 249.564V244.479H184.331V243.594H185.471V241.539H186.536V243.594H188.786V244.479H186.536ZM198.137 243.594V251.784H197.087V250.344C196.847 250.854 196.477 251.244 195.977 251.514C195.477 251.784 194.917 251.919 194.297 251.919C193.317 251.919 192.517 251.619 191.897 251.019C191.277 250.409 190.967 249.529 190.967 248.379V243.594H192.002V248.259C192.002 249.149 192.222 249.829 192.662 250.299C193.112 250.769 193.722 251.004 194.492 251.004C195.282 251.004 195.912 250.754 196.382 250.254C196.852 249.754 197.087 249.019 197.087 248.049V243.594H198.137ZM203.879 251.904C202.939 251.904 202.169 251.689 201.569 251.259C200.979 250.819 200.649 250.224 200.579 249.474H201.659C201.709 249.934 201.924 250.309 202.304 250.599C202.694 250.879 203.214 251.019 203.864 251.019C204.434 251.019 204.879 250.884 205.199 250.614C205.529 250.344 205.694 250.009 205.694 249.609C205.694 249.329 205.604 249.099 205.424 248.919C205.244 248.739 205.014 248.599 204.734 248.499C204.464 248.389 204.094 248.274 203.624 248.154C203.014 247.994 202.519 247.834 202.139 247.674C201.759 247.514 201.434 247.279 201.164 246.969C200.904 246.649 200.774 246.224 200.774 245.694C200.774 245.294 200.894 244.924 201.134 244.584C201.374 244.244 201.714 243.974 202.154 243.774C202.594 243.574 203.094 243.474 203.654 243.474C204.534 243.474 205.244 243.699 205.784 244.149C206.324 244.589 206.614 245.199 206.654 245.979H205.604C205.574 245.499 205.384 245.114 205.034 244.824C204.694 244.524 204.224 244.374 203.624 244.374C203.094 244.374 202.664 244.499 202.334 244.749C202.004 244.999 201.839 245.309 201.839 245.679C201.839 245.999 201.934 246.264 202.124 246.474C202.324 246.674 202.569 246.834 202.859 246.954C203.149 247.064 203.539 247.189 204.029 247.329C204.619 247.489 205.089 247.644 205.439 247.794C205.789 247.944 206.089 248.164 206.339 248.454C206.589 248.744 206.719 249.129 206.729 249.609C206.729 250.049 206.609 250.444 206.369 250.794C206.129 251.134 205.794 251.404 205.364 251.604C204.934 251.804 204.439 251.904 203.879 251.904ZM221.282 247.269C221.282 247.629 221.272 247.904 221.252 248.094H214.457C214.487 248.714 214.637 249.244 214.907 249.684C215.177 250.124 215.532 250.459 215.972 250.689C216.412 250.909 216.892 251.019 217.412 251.019C218.092 251.019 218.662 250.854 219.122 250.524C219.592 250.194 219.902 249.749 220.052 249.189H221.162C220.962 249.989 220.532 250.644 219.872 251.154C219.222 251.654 218.402 251.904 217.412 251.904C216.642 251.904 215.952 251.734 215.342 251.394C214.732 251.044 214.252 250.554 213.902 249.924C213.562 249.284 213.392 248.539 213.392 247.689C213.392 246.839 213.562 246.094 213.902 245.454C214.242 244.814 214.717 244.324 215.327 243.984C215.937 243.644 216.632 243.474 217.412 243.474C218.192 243.474 218.872 243.644 219.452 243.984C220.042 244.324 220.492 244.784 220.802 245.364C221.122 245.934 221.282 246.569 221.282 247.269ZM220.217 247.239C220.227 246.629 220.102 246.109 219.842 245.679C219.592 245.249 219.247 244.924 218.807 244.704C218.367 244.484 217.887 244.374 217.367 244.374C216.587 244.374 215.922 244.624 215.372 245.124C214.822 245.624 214.517 246.329 214.457 247.239H220.217ZM224.778 245.049C225.008 244.539 225.358 244.144 225.828 243.864C226.308 243.584 226.893 243.444 227.583 243.444V244.539H227.298C226.538 244.539 225.928 244.744 225.468 245.154C225.008 245.564 224.778 246.249 224.778 247.209V251.784H223.728V243.594H224.778V245.049ZM229.208 247.674C229.208 246.834 229.373 246.099 229.703 245.469C230.043 244.829 230.508 244.339 231.098 243.999C231.698 243.649 232.373 243.474 233.123 243.474C233.903 243.474 234.573 243.654 235.133 244.014C235.703 244.374 236.113 244.834 236.363 245.394V243.594H237.413V251.784H236.363V249.969C236.103 250.529 235.688 250.994 235.118 251.364C234.558 251.724 233.888 251.904 233.108 251.904C232.368 251.904 231.698 251.729 231.098 251.379C230.508 251.029 230.043 250.534 229.703 249.894C229.373 249.254 229.208 248.514 229.208 247.674ZM236.363 247.689C236.363 247.029 236.228 246.449 235.958 245.949C235.688 245.449 235.318 245.064 234.848 244.794C234.388 244.524 233.878 244.389 233.318 244.389C232.738 244.389 232.218 244.519 231.758 244.779C231.298 245.039 230.933 245.419 230.663 245.919C230.403 246.409 230.273 246.994 230.273 247.674C230.273 248.344 230.403 248.934 230.663 249.444C230.933 249.944 231.298 250.329 231.758 250.599C232.218 250.859 232.738 250.989 233.318 250.989C233.878 250.989 234.388 250.854 234.848 250.584C235.318 250.314 235.688 249.929 235.958 249.429C236.228 248.929 236.363 248.349 236.363 247.689ZM241.7 244.479V249.564C241.7 250.064 241.795 250.409 241.985 250.599C242.175 250.789 242.51 250.884 242.99 250.884H243.95V251.784H242.825C242.085 251.784 241.535 251.614 241.175 251.274C240.815 250.924 240.635 250.354 240.635 249.564V244.479H239.495V243.594H240.635V241.539H241.7V243.594H243.95V244.479H241.7ZM246.387 251.859C246.167 251.859 245.982 251.784 245.832 251.634C245.692 251.484 245.622 251.299 245.622 251.079C245.622 250.859 245.692 250.679 245.832 250.539C245.982 250.389 246.167 250.314 246.387 250.314C246.597 250.314 246.772 250.389 246.912 250.539C247.062 250.679 247.137 250.859 247.137 251.079C247.137 251.299 247.062 251.484 246.912 251.634C246.772 251.784 246.597 251.859 246.387 251.859Z" fill="#5879DD"/>
<rect x="2" y="2" width="284" height="284" rx="42" stroke="#A7BDFF" stroke-width="3"/>
<g clip-path="url(#clip0)">
<path d="M113.232 44.7983V89.9539H181.835C182.308 89.0837 182.78 88.1885 183.203 87.2933H116.937C116.539 87.2933 116.216 86.9701 116.216 86.5722V46.34C116.216 45.9421 116.539 45.6189 116.937 45.6189H181.413C180.965 44.848 180.493 44.0772 179.995 43.3312H114.724C113.903 43.3064 113.232 43.9777 113.232 44.7983Z" fill="#AABFFF"/>
<path d="M113.232 94.6285C113.232 95.4491 113.903 96.1205 114.724 96.1205H144.537H162.142H177.757C178.951 94.6285 180.02 93.062 181.015 91.4209H113.232V94.6285ZM150.828 92.9377H155.876C156.323 92.9377 156.672 93.2858 156.672 93.7334C156.672 94.181 156.323 94.5291 155.876 94.5291H150.828C150.381 94.5291 150.033 94.181 150.033 93.7334C150.033 93.2858 150.381 92.9377 150.828 92.9377Z" fill="white"/>
<path d="M117.683 85.8511H183.874C186.187 80.4305 187.48 74.4379 187.48 68.1469C187.48 60.5132 185.59 53.352 182.233 47.061H117.683V85.8511ZM168.06 79.0877L164.554 82.5937L156.1 74.1395L153.34 82.6435L144.115 58.6483L168.11 67.8734L159.606 70.6335L168.06 79.0877ZM147.471 51.0146C147.471 50.6168 147.795 50.2935 148.192 50.2935C148.59 50.2935 148.914 50.6168 148.914 51.0146V54.2969C148.914 54.6947 148.59 55.018 148.192 55.018C147.795 55.018 147.471 54.6947 147.471 54.2969V51.0146ZM141.852 51.9844C142.2 51.7855 142.647 51.9098 142.846 52.2579L144.488 55.0926C144.686 55.4407 144.562 55.8883 144.214 56.0872C144.09 56.1618 143.965 56.1867 143.841 56.1867C143.592 56.1867 143.344 56.0623 143.219 55.8137L141.578 52.979C141.379 52.6309 141.504 52.2082 141.852 51.9844ZM137.177 56.6591C137.376 56.311 137.824 56.1867 138.172 56.3856L141.006 58.0267C141.354 58.2256 141.479 58.6732 141.28 59.0213C141.156 59.2451 140.907 59.3943 140.658 59.3943C140.534 59.3943 140.41 59.3694 140.285 59.2948L137.451 57.6537C137.102 57.4548 136.978 57.0072 137.177 56.6591ZM136.207 62.3035H139.49C139.887 62.3035 140.211 62.6268 140.211 63.0246C140.211 63.4225 139.887 63.7457 139.49 63.7457H136.207C135.809 63.7457 135.486 63.4225 135.486 63.0246C135.486 62.6268 135.785 62.3035 136.207 62.3035Z" fill="white"/>
<path d="M145.258 97.5874C145.159 100.994 144.363 102.958 143.617 104.102H163.087C162.316 102.983 161.545 100.994 161.446 97.5874H145.258Z" fill="#AABFFF"/>
<path d="M141.827 105.544H137.376C136.729 105.544 135.984 106.091 135.984 106.564V106.837H165.524C166.22 106.415 166.891 105.992 167.563 105.544H164.827H141.827Z" fill="#AABFFF"/>
<path d="M150.828 94.5538H155.876C156.323 94.5538 156.672 94.2057 156.672 93.7581C156.672 93.3105 156.323 92.9624 155.876 92.9624H150.828C150.381 92.9624 150.033 93.3105 150.033 93.7581C150.033 94.2057 150.381 94.5538 150.828 94.5538Z" fill="#AABFFF"/>
<path d="M144.115 58.6235L153.34 82.6436L156.1 74.1396L164.554 82.5938L168.06 79.0878L159.606 70.6335L168.11 67.8735L144.115 58.6235Z" fill="#AABFFF"/>
<path d="M111.789 44.7983V90.7C111.789 90.3021 112.113 89.9789 112.511 89.9789H113.232V44.7983C113.232 43.9778 113.903 43.3064 114.724 43.3064H179.995C179.672 42.8091 179.324 42.3367 179.001 41.8394H114.724C113.107 41.8642 111.789 43.1821 111.789 44.7983Z" fill="#7A96F8"/>
<path d="M112.511 89.979C112.113 89.979 111.789 90.3022 111.789 90.7001V94.6288C111.789 96.2451 113.107 97.5629 114.724 97.5629H143.791C143.791 97.3391 143.816 97.0905 143.816 96.8418C143.816 96.444 144.139 96.1207 144.537 96.1207H114.724C113.903 96.1207 113.232 95.4494 113.232 94.6288V91.4212H180.99C181.288 90.9487 181.562 90.4514 181.835 89.9541H113.232H112.511V89.979Z" fill="#7A96F8"/>
<path d="M162.863 96.8417C162.863 97.0903 162.863 97.339 162.888 97.5628H176.539C176.962 97.0903 177.36 96.593 177.733 96.0957H162.117C162.54 96.1206 162.863 96.4438 162.863 96.8417Z" fill="#7A96F8"/>
<path d="M116.215 46.3397V86.572C116.215 86.9698 116.539 87.2931 116.937 87.2931H183.203C183.427 86.8206 183.651 86.3233 183.849 85.826H117.683V47.0359H182.233C181.985 46.5386 181.711 46.0662 181.438 45.5688H116.937C116.539 45.6186 116.215 45.9418 116.215 46.3397Z" fill="#7A96F8"/>
<path d="M162.142 96.1206H144.537C144.139 96.1206 143.816 96.4439 143.816 96.8417C143.816 97.0904 143.816 97.339 143.791 97.5628C143.642 102.312 142.026 103.779 141.628 104.078H143.592C144.363 102.959 145.134 100.969 145.233 97.5628H161.396C161.495 100.969 162.291 102.934 163.037 104.078H165.001C164.579 103.779 162.987 102.362 162.838 97.5628C162.838 97.339 162.813 97.0904 162.813 96.8417C162.863 96.4439 162.54 96.1206 162.142 96.1206Z" fill="#7A96F8"/>
<path d="M165.051 104.078H163.087H143.617H141.653H137.401C136.058 104.078 134.566 105.147 134.566 106.539V107.559C134.566 107.957 134.889 108.28 135.287 108.28H162.938C163.833 107.832 164.703 107.335 165.549 106.813H136.008V106.539C136.008 106.067 136.754 105.52 137.401 105.52H141.852H164.852H167.587C168.259 105.047 168.93 104.575 169.602 104.078C169.502 104.078 169.403 104.053 169.303 104.053H165.051V104.078Z" fill="#7A96F8"/>
<path d="M148.217 55.0179C148.615 55.0179 148.938 54.6946 148.938 54.2968V51.0146C148.938 50.6167 148.615 50.2935 148.217 50.2935C147.819 50.2935 147.496 50.6167 147.496 51.0146V54.2968C147.471 54.6946 147.819 55.0179 148.217 55.0179Z" fill="#7A96F8"/>
<path d="M143.219 55.8388C143.344 56.0626 143.592 56.2117 143.841 56.2117C143.965 56.2117 144.09 56.1869 144.214 56.1123C144.562 55.9134 144.686 55.4658 144.487 55.1177L142.846 52.283C142.647 51.9349 142.2 51.8106 141.852 52.0095C141.504 52.2084 141.379 52.656 141.578 53.0041L143.219 55.8388Z" fill="#7A96F8"/>
<path d="M137.451 57.6536L140.285 59.2947C140.41 59.3693 140.534 59.3942 140.658 59.3942C140.907 59.3942 141.156 59.2698 141.28 59.0212C141.479 58.6731 141.354 58.2255 141.006 58.0266L138.172 56.3855C137.824 56.1865 137.376 56.3109 137.177 56.659C136.978 57.0071 137.102 57.4547 137.451 57.6536Z" fill="#7A96F8"/>
<path d="M136.207 63.7459H139.49C139.887 63.7459 140.211 63.4227 140.211 63.0248C140.211 62.627 139.887 62.3037 139.49 62.3037H136.207C135.809 62.3037 135.486 62.627 135.486 63.0248C135.486 63.4227 135.785 63.7459 136.207 63.7459Z" fill="#7A96F8"/>
<path d="M154.235 25.5773C154.16 25.5773 154.086 25.5773 153.986 25.5524C152.494 25.1546 150.952 24.8065 149.411 24.5578C148.914 24.4832 148.565 24.0108 148.665 23.5135C148.739 23.0162 149.212 22.668 149.709 22.7675C151.301 23.0162 152.917 23.3643 154.483 23.787C154.981 23.9113 155.254 24.4086 155.13 24.9059C155.006 25.3038 154.633 25.5773 154.235 25.5773Z" fill="#7A96F8"/>
<path d="M142.374 114.148C130.09 114.148 118.553 109.374 109.85 100.671C101.172 91.9928 96.3977 80.4552 96.3977 68.1469C96.3977 55.8633 101.172 44.3258 109.875 35.6229C118.553 26.9448 130.09 22.1707 142.374 22.1707C142.871 22.1707 143.294 22.5685 143.294 23.0907C143.294 23.6128 142.896 24.0107 142.374 24.0107C130.588 24.0107 119.473 28.6108 111.143 36.9407C102.813 45.2707 98.2129 56.3855 98.2129 68.1717C98.2129 79.9579 102.813 91.0728 111.143 99.4027C119.473 107.733 130.588 112.333 142.374 112.333C154.16 112.333 165.275 107.733 173.605 99.4027C181.96 91.0479 186.535 79.9579 186.535 68.1717C186.535 59.8915 184.222 51.8351 179.871 44.8479C175.644 38.0597 169.626 32.5147 162.515 28.8595C162.067 28.6357 161.893 28.0886 162.117 27.6411C162.341 27.1935 162.888 27.0194 163.335 27.2432C170.745 31.0476 176.987 36.7915 181.413 43.8782C185.938 51.1638 188.35 59.5683 188.35 68.1717C188.35 80.4553 183.576 91.9928 174.873 100.696C166.17 109.399 154.657 114.148 142.374 114.148Z" fill="#7A96F8"/>
<path d="M159.829 26.0744C159.829 26.7209 159.307 27.2431 158.661 27.2431C158.014 27.2431 157.492 26.7209 157.492 26.0744C157.492 25.4279 158.014 24.9058 158.661 24.9058C159.307 24.9058 159.829 25.4279 159.829 26.0744Z" fill="#7A96F8"/>
</g>
<defs>
<clipPath id="clip0">
<rect width="91.9773" height="91.9773" fill="white" transform="translate(96.3977 22.1707)"/>
</clipPath>
</defs>
</svg>
